  0
SECTION
  2
HEADER
  9
$ACADVER
  1
AC1015
  9
$ACADMAINTVER
 70
     6
  9
$DWGCODEPAGE
  3
ANSI_1252
  9
$INSBASE
 10
0.0
 20
0.0
 30
0.0
  9
$EXTMIN
 10
-7.0
 20
-2.125
 30
0.0
  9
$EXTMAX
 10
7.0
 20
2.125
 30
0.0
  9
$LIMMIN
 10
0.0
 20
0.0
  9
$LIMMAX
 10
12.0
 20
9.0
  9
$ORTHOMODE
 70
     0
  9
$REGENMODE
 70
     1
  9
$FILLMODE
 70
     1
  9
$QTEXTMODE
 70
     0
  9
$MIRRTEXT
 70
     1
  9
$LTSCALE
 40
1.0
  9
$ATTMODE
 70
     1
  9
$TEXTSIZE
 40
0.25
  9
$TRACEWID
 40
0.05
  9
$TEXTSTYLE
  7
Standard
  9
$CLAYER
  8
0
  9
$CELTYPE
  6
ByLayer
  9
$CECOLOR
 62
   256
  9
$CELTSCALE
 40
1.0
  9
$DISPSILH
 70
     0
  9
$DIMSCALE
 40
1.0
  9
$DIMASZ
 40
0.236
  9
$DIMEXO
 40
0.0
  9
$DIMDLI
 40
0.38
  9
$DIMRND
 40
0.0
  9
$DIMDLE
 40
0.0
  9
$DIMEXE
 40
0.039
  9
$DIMTP
 40
0.0
  9
$DIMTM
 40
0.0
  9
$DIMTXT
 40
0.25
  9
$DIMCEN
 40
0.09
  9
$DIMTSZ
 40
0.0
  9
$DIMTOL
 70
     0
  9
$DIMLIM
 70
     0
  9
$DIMTIH
 70
     1
  9
$DIMTOH
 70
     1
  9
$DIMSE1
 70
     0
  9
$DIMSE2
 70
     0
  9
$DIMTAD
 70
     1
  9
$DIMZIN
 70
     0
  9
$DIMBLK
  1

  9
$DIMASO
 70
     1
  9
$DIMSHO
 70
     1
  9
$DIMPOST
  1

  9
$DIMAPOST
  1

  9
$DIMALT
 70
     0
  9
$DIMALTD
 70
     2
  9
$DIMALTF
 40
25.4
  9
$DIMLFAC
 40
1.0
  9
$DIMTOFL
 70
     0
  9
$DIMTVP
 40
0.0
  9
$DIMTIX
 70
     0
  9
$DIMSOXD
 70
     0
  9
$DIMSAH
 70
     0
  9
$DIMBLK1
  1

  9
$DIMBLK2
  1

  9
$DIMSTYLE
  2
Standard
  9
$DIMCLRD
 70
     0
  9
$DIMCLRE
 70
     0
  9
$DIMCLRT
 70
     0
  9
$DIMTFAC
 40
1.0
  9
$DIMGAP
 40
0.06
  9
$DIMJUST
 70
     0
  9
$DIMSD1
 70
     0
  9
$DIMSD2
 70
     0
  9
$DIMTOLJ
 70
     1
  9
$DIMTZIN
 70
     0
  9
$DIMALTZ
 70
     0
  9
$DIMALTTZ
 70
     0
  9
$DIMUPT
 70
     0
  9
$DIMDEC
 70
     2
  9
$DIMTDEC
 70
     2
  9
$DIMALTU
 70
     2
  9
$DIMALTTD
 70
     2
  9
$DIMTXSTY
  7
Standard
  9
$DIMAUNIT
 70
     0
  9
$DIMADEC
 70
     2
  9
$DIMALTRND
 40
0.0
  9
$DIMAZIN
 70
     0
  9
$DIMDSEP
 70
    46
  9
$DIMATFIT
 70
     3
  9
$DIMFRAC
 70
     0
  9
$DIMLDRBLK
  1

  9
$DIMLUNIT
 70
     2
  9
$DIMLWD
 70
    -2
  9
$DIMLWE
 70
    -2
  9
$DIMTMOVE
 70
     0
  9
$LUNITS
 70
     2
  9
$LUPREC
 70
     2
  9
$SKETCHINC
 40
0.1
  9
$FILLETRAD
 40
0.5
  9
$AUNITS
 70
     0
  9
$AUPREC
 70
     2
  9
$MENU
  1
.
  9
$ELEVATION
 40
0.0
  9
$PELEVATION
 40
0.0
  9
$THICKNESS
 40
0.0
  9
$LIMCHECK
 70
     0
  9
$CHAMFERA
 40
0.0
  9
$CHAMFERB
 40
0.0
  9
$CHAMFERC
 40
0.0
  9
$CHAMFERD
 40
0.0
  9
$SKPOLY
 70
     0
  9
$TDCREATE
 40
2459662.543443692
  9
$TDUCREATE
 40
2459662.710110359
  9
$TDUPDATE
 40
2459662.543503368
  9
$TDUUPDATE
 40
2459662.710170035
  9
$TDINDWG
 40
0.0000000116
  9
$TDUSRTIMER
 40
0.0000000116
  9
$USRTIMER
 70
     1
  9
$ANGBASE
 50
0.0
  9
$ANGDIR
 70
     0
  9
$PDMODE
 70
     0
  9
$PDSIZE
 40
-1.0
  9
$PLINEWID
 40
0.0
  9
$SPLFRAME
 70
     0
  9
$SPLINETYPE
 70
     6
  9
$SPLINESEGS
 70
     8
  9
$HANDSEED
  5
13A
  9
$SURFTAB1
 70
     6
  9
$SURFTAB2
 70
     6
  9
$SURFTYPE
 70
     6
  9
$SURFU
 70
     6
  9
$SURFV
 70
     6
  9
$UCSBASE
  2

  9
$UCSNAME
  2

  9
$UCSORG
 10
0.0
 20
0.0
 30
0.0
  9
$UCSXDIR
 10
1.0
 20
0.0
 30
0.0
  9
$UCSYDIR
 10
0.0
 20
1.0
 30
0.0
  9
$UCSORTHOREF
  2

  9
$UCSORTHOVIEW
 70
     0
  9
$UCSORGTOP
 10
0.0
 20
0.0
 30
0.0
  9
$UCSORGBOTTOM
 10
0.0
 20
0.0
 30
0.0
  9
$UCSORGLEFT
 10
0.0
 20
0.0
 30
0.0
  9
$UCSORGRIGHT
 10
0.0
 20
0.0
 30
0.0
  9
$UCSORGFRONT
 10
0.0
 20
0.0
 30
0.0
  9
$UCSORGBACK
 10
0.0
 20
0.0
 30
0.0
  9
$PUCSBASE
  2

  9
$PUCSNAME
  2

  9
$PUCSORG
 10
0.0
 20
0.0
 30
0.0
  9
$PUCSXDIR
 10
1.0
 20
0.0
 30
0.0
  9
$PUCSYDIR
 10
0.0
 20
1.0
 30
0.0
  9
$PUCSORTHOREF
  2

  9
$PUCSORTHOVIEW
 70
     0
  9
$PUCSORGTOP
 10
0.0
 20
0.0
 30
0.0
  9
$PUCSORGBOTTOM
 10
0.0
 20
0.0
 30
0.0
  9
$PUCSORGLEFT
 10
0.0
 20
0.0
 30
0.0
  9
$PUCSORGRIGHT
 10
0.0
 20
0.0
 30
0.0
  9
$PUCSORGFRONT
 10
0.0
 20
0.0
 30
0.0
  9
$PUCSORGBACK
 10
0.0
 20
0.0
 30
0.0
  9
$USERI1
 70
     0
  9
$USERI2
 70
     0
  9
$USERI3
 70
     0
  9
$USERI4
 70
     0
  9
$USERI5
 70
     0
  9
$USERR1
 40
0.0
  9
$USERR2
 40
0.0
  9
$USERR3
 40
0.0
  9
$USERR4
 40
0.0
  9
$USERR5
 40
0.0
  9
$WORLDVIEW
 70
     1
  9
$SHADEDGE
 70
     3
  9
$SHADEDIF
 70
    70
  9
$TILEMODE
 70
     1
  9
$MAXACTVP
 70
    64
  9
$PINSBASE
 10
0.0
 20
0.0
 30
0.0
  9
$PLIMCHECK
 70
     0
  9
$PEXTMIN
 10
1.0000000000E+20
 20
1.0000000000E+20
 30
1.0000000000E+20
  9
$PEXTMAX
 10
-1.0000000000E+20
 20
-1.0000000000E+20
 30
-1.0000000000E+20
  9
$PLIMMIN
 10
0.0
 20
0.0
  9
$PLIMMAX
 10
12.0
 20
9.0
  9
$UNITMODE
 70
     0
  9
$VISRETAIN
 70
     1
  9
$PLINEGEN
 70
     0
  9
$PSLTSCALE
 70
     1
  9
$TREEDEPTH
 70
  3020
  9
$CMLSTYLE
  2
Standard
  9
$CMLJUST
 70
     0
  9
$CMLSCALE
 40
1.0
  9
$PROXYGRAPHICS
 70
     1
  9
$MEASUREMENT
 70
     0
  9
$CELWEIGHT
370
    -1
  9
$ENDCAPS
280
     0
  9
$JOINSTYLE
280
     0
  9
$LWDISPLAY
290
     1
  9
$INSUNITS
 70
     1
  9
$HYPERLINKBASE
  1

  9
$STYLESHEET
  1

  9
$XEDIT
290
     1
  9
$CEPSNTYPE
380
     0
  9
$PSTYLEMODE
290
     1
  9
$FINGERPRINTGUID
  2
{da12485c-b196-436f-99c1-091af4610617}
  9
$VERSIONGUID
  2
{FAEB1C32-E019-11D5-929B-00C0DF256EC4}
  9
$EXTNAMES
290
     1
  9
$PSVPSCALE
 40
0.0
  9
$OLESTARTUP
290
     0
  0
ENDSEC
  0
SECTION
  2
CLASSES
  0
CLASS
  1
ACDBDICTIONARYWDFLT
  2
AcDbDictionaryWithDefault
  3
ObjectDBX Classes
 90
        0
280
     0
281
     0
  0
CLASS
  1
VISUALSTYLE
  2
AcDbVisualStyle
  3
ObjectDBX Classes
 90
     4095
280
     0
281
     0
  0
CLASS
  1
MATERIAL
  2
AcDbMaterial
  3
ObjectDBX Classes
 90
     1153
280
     0
281
     0
  0
CLASS
  1
SCALE
  2
AcDbScale
  3
ObjectDBX Classes
 90
     1153
280
     0
281
     0
  0
CLASS
  1
TABLESTYLE
  2
AcDbTableStyle
  3
ObjectDBX Classes
 90
     4095
280
     0
281
     0
  0
CLASS
  1
MLEADERSTYLE
  2
AcDbMLeaderStyle
  3
ACDB_MLEADERSTYLE_CLASS
 90
     4095
280
     0
281
     0
  0
CLASS
  1
SUN
  2
AcDbSun
  3
SCENEOE
 90
     1153
280
     0
281
     0
  0
CLASS
  1
ACDBPLACEHOLDER
  2
AcDbPlaceHolder
  3
ObjectDBX Classes
 90
        0
280
     0
281
     0
  0
CLASS
  1
LAYOUT
  2
AcDbLayout
  3
ObjectDBX Classes
 90
        0
280
     0
281
     0
  0
ENDSEC
  0
SECTION
  2
TABLES
  0
TABLE
  2
VPORT
  5
8
330
0
100
AcDbSymbolTable
 70
     1
  0
VPORT
  5
29
330
8
100
AcDbSymbolTableRecord
100
AcDbViewportTableRecord
  2
*Active
 70
     0
 10
0.0
 20
0.0
 11
1.0
 21
1.0
 12
0.0
 22
0.0
 13
0.0
 23
0.0
 14
0.5
 24
0.5
 15
0.5
 25
0.5
 16
0.0
 26
0.0
 36
1.0
 17
0.0
 27
0.0
 37
0.0
 40
4.335
 41
3.2941176471
 42
50.0
 43
0.0
 44
0.0
 50
0.0
 51
0.0
 71
     0
 72
   100
 73
     1
 74
     3
 75
     0
 76
     0
 77
     0
 78
     0
281
     0
 65
     1
110
0.0
120
0.0
130
0.0
111
1.0
121
0.0
131
0.0
112
0.0
122
1.0
132
0.0
 79
     0
146
0.0
  0
ENDTAB
  0
TABLE
  2
LTYPE
  5
5
330
0
100
AcDbSymbolTable
 70
     6
  0
LTYPE
  5
14
330
5
100
AcDbSymbolTableRecord
100
AcDbLinetypeTableRecord
  2
ByBlock
 70
     0
  3

 72
    65
 73
     0
 40
0.0
  0
LTYPE
  5
15
330
5
100
AcDbSymbolTableRecord
100
AcDbLinetypeTableRecord
  2
ByLayer
 70
     0
  3

 72
    65
 73
     0
 40
0.0
  0
LTYPE
  5
16
330
5
100
AcDbSymbolTableRecord
100
AcDbLinetypeTableRecord
  2
Continuous
 70
     0
  3
Solid line
 72
    65
 73
     0
 40
0.0
  0
LTYPE
  5
6E
330
5
100
AcDbSymbolTableRecord
100
AcDbLinetypeTableRecord
  2
HIDDEN
 70
     0
  3
Hidden __ __ __ __ __ __ __ __ __ __ __ __ __ __
 72
    65
 73
     2
 40
0.075
 49
0.05
 74
     0
 49
-0.025
 74
     0
  0
LTYPE
  5
6F
330
5
100
AcDbSymbolTableRecord
100
AcDbLinetypeTableRecord
  2
PHANTOM
 70
     0
  3
Phantom ______  __  __  ______  __  __  ______
 72
    65
 73
     6
 40
0.5
 49
0.25
 74
     0
 49
-0.05
 74
     0
 49
0.05
 74
     0
 49
-0.05
 74
     0
 49
0.05
 74
     0
 49
-0.05
 74
     0
  0
LTYPE
  5
70
330
5
100
AcDbSymbolTableRecord
100
AcDbLinetypeTableRecord
  2
CENTER
 70
     0
  3
Center ____ _ ____ _ ____ _ ____ _ ____ _ ____
 72
    65
 73
     4
 40
0.4
 49
0.25
 74
     0
 49
-0.05
 74
     0
 49
0.05
 74
     0
 49
-0.05
 74
     0
  0
LTYPE
  5
71
330
5
100
AcDbSymbolTableRecord
100
AcDbLinetypeTableRecord
  2
CENTERX2
 70
     0
  3
Center (2x) ________  __  ________  __  _____
 72
    65
 73
     4
 40
0.8
 49
0.5
 74
     0
 49
-0.1
 74
     0
 49
0.1
 74
     0
 49
-0.1
 74
     0
  0
LTYPE
  5
72
330
5
100
AcDbSymbolTableRecord
100
AcDbLinetypeTableRecord
  2
DOT2
 70
     0
  3
Dot (.5x) ........................................
 72
    65
 73
     2
 40
0.025
 49
0.0
 74
     0
 49
-0.025
 74
     0
  0
ENDTAB
  0
TABLE
  2
LAYER
  5
2
330
0
100
AcDbSymbolTable
 70
     1
  0
LAYER
  5
10
330
2
100
AcDbSymbolTableRecord
100
AcDbLayerTableRecord
  2
0
 70
     0
 62
     7
  6
Continuous
370
    -3
390
F
  0
ENDTAB
  0
TABLE
  2
STYLE
  5
3
330
0
100
AcDbSymbolTable
 70
     2
  0
STYLE
  5
11
330
3
100
AcDbSymbolTableRecord
100
AcDbTextStyleTableRecord
  2
Standard
 70
     0
 40
0.0
 41
1.0
 50
0.0
 71
     0
 42
0.25
  3
txt
  4

  0
STYLE
  5
136
330
3
100
AcDbSymbolTableRecord
100
AcDbTextStyleTableRecord
  2
SLDTEXTSTYLE0
 70
     0
 40
0.0
 41
0.7
 50
0.0
 71
     0
 42
0.25
  3
TXT
  4

  0
ENDTAB
  0
TABLE
  2
VIEW
  5
6
330
0
100
AcDbSymbolTable
 70
     0
  0
ENDTAB
  0
TABLE
  2
UCS
  5
7
330
0
100
AcDbSymbolTable
 70
     0
  0
ENDTAB
  0
TABLE
  2
APPID
  5
9
330
0
100
AcDbSymbolTable
 70
     1
  0
APPID
  5
12
330
9
100
AcDbSymbolTableRecord
100
AcDbRegAppTableRecord
  2
ACAD
 70
     0
  0
ENDTAB
  0
TABLE
  2
DIMSTYLE
  5
A
330
0
100
AcDbSymbolTable
 70
     1
100
AcDbDimStyleTable
  0
DIMSTYLE
105
27
330
A
100
AcDbSymbolTableRecord
100
AcDbDimStyleTableRecord
  2
Standard
 70
     0
178
     0
340
11
  0
ENDTAB
  0
TABLE
  2
BLOCK_RECORD
  5
1
330
0
100
AcDbSymbolTable
 70
     1
  0
BLOCK_RECORD
  5
1F
330
1
100
AcDbSymbolTableRecord
100
AcDbBlockTableRecord
  2
*Model_Space
340
22
  0
BLOCK_RECORD
  5
1B
330
1
100
AcDbSymbolTableRecord
100
AcDbBlockTableRecord
  2
*Paper_Space
340
1E
  0
BLOCK_RECORD
  5
23
330
1
100
AcDbSymbolTableRecord
100
AcDbBlockTableRecord
  2
*Paper_Space0
340
26
  0
ENDTAB
  0
ENDSEC
  0
SECTION
  2
BLOCKS
  0
BLOCK
  5
20
330
1F
100
AcDbEntity
  8
0
100
AcDbBlockBegin
  2
*Model_Space
 70
     0
 10
0.0
 20
0.0
 30
0.0
  3
*Model_Space
  1

  0
ENDBLK
  5
21
330
1F
100
AcDbEntity
  8
0
100
AcDbBlockEnd
  0
BLOCK
  5
1C
330
1B
100
AcDbEntity
 67
     1
  8
0
100
AcDbBlockBegin
  2
*Paper_Space
 70
     0
 10
0.0
 20
0.0
 30
0.0
  3
*Paper_Space
  1

  0
ENDBLK
  5
1D
330
1B
100
AcDbEntity
 67
     1
  8
0
100
AcDbBlockEnd
  0
BLOCK
  5
24
330
23
100
AcDbEntity
  8
0
100
AcDbBlockBegin
  2
*Paper_Space0
 70
     0
 10
0.0
 20
0.0
 30
0.0
  3
*Paper_Space0
  1

  0
ENDBLK
  5
25
330
23
100
AcDbEntity
  8
0
100
AcDbBlockEnd
  0
ENDSEC
  0
SECTION
  2
ENTITIES
  0
LWPOLYLINE
  5
73
330
1F
100
AcDbEntity
  8
0
  6
Continuous
 62
     7
100
AcDbPolyline
 90
       28
 70
   128
 43
0.0
 10
-4.2499989036
 20
1.6354166667
 10
-4.25
 20
0.875
 10
-4.25
 20
0.875
 10
-4.4895833333
 20
0.875
 10
-4.4895833333
 20
0.875
 10
-4.4895833333
 20
1.427734375
 10
-4.4895833333
 20
1.427734375
 10
-4.5065104167
 20
1.4184570313
 10
-4.5240885417
 20
1.41015625
 10
-4.5424804688
 20
1.4028320313
 10
-4.5616861979
 20
1.3968098958
 10
-4.5815429688
 20
1.3916015625
 10
-4.6022135417
 20
1.3876953125
 10
-4.6236979167
 20
1.384765625
 10
-4.6458333333
 20
1.3828125
 10
-4.6458333333
 20
1.3828125
 10
-4.6458333333
 20
1.5013020833
 10
-4.6458333333
 20
1.5013020833
 10
-4.6049804688
 20
1.5071614583
 10
-4.5673828125
 20
1.5161132813
 10
-4.5330403646
 20
1.5281575521
 10
-4.5017903646
 20
1.5434570313
 10
-4.4737955729
 20
1.5616861979
 10
-4.4488932292
 20
1.5831705729
 10
-4.4272460938
 20
1.6077473958
 10
-4.4088541667
 20
1.6354166667
 10
-4.4088541667
 20
1.6354166667
 10
-4.25
 20
1.6354166667
  0
LWPOLYLINE
  5
74
330
1F
100
AcDbEntity
  8
0
  6
Continuous
 62
     7
100
AcDbPolyline
 90
      140
 70
   128
 43
0.0
 10
0.385416481
 20
1.0729166667
 10
0.3854166667
 20
0.875
 10
0.3854166667
 20
0.875
 10
-0.1979166667
 20
0.875
 10
-0.1979166667
 20
0.875
 10
-0.1979166667
 20
0.9934895833
 10
-0.1979166667
 20
0.9934895833
 10
-0.1608072917
 20
1.0336914063
 10
-0.1217447917
 20
1.0743815104
 10
-0.0810546875
 20
1.1157226563
 10
-0.0384114583
 20
1.1573893229
 10
-0.0384114583
 20
1.1573893229
 10
-0.0148111979
 20
1.1803385417
 10
0.0071614583
 20
1.2024739583
 10
0.0276692708
 20
1.2239583333
 10
0.0467122396
 20
1.2447916667
 10
0.0642903646
 20
1.2649739583
 10
0.0802408854
 20
1.2843424479
 10
0.0947265625
 20
1.3030598958
 10
0.1075846354
 20
1.3209635417
 10
0.1189778646
 20
1.3382161458
 10
0.12890625
 20
1.3548177083
 10
0.1372070312
 20
1.3706054688
 10
0.1440429687
 20
1.3857421875
 10
0.1494140625
 20
1.4002278646
 10
0.1531575521
 20
1.4138997396
 10
0.1554361979
 20
1.4269205729
 10
0.15625
 20
1.4392903646
 10
0.15625
 20
1.4392903646
 10
0.1559244792
 20
1.4542643229
 10
0.1547851562
 20
1.4680989583
 10
0.1528320312
 20
1.4811197917
 10
0.1502278646
 20
1.4931640625
 10
0.1466471354
 20
1.5042317708
 10
0.142578125
 20
1.5143229167
 10
0.1375325521
 20
1.5234375
 10
0.1318359375
 20
1.5317382813
 10
0.1253255208
 20
1.5388997396
 10
0.1181640625
 20
1.5452473958
 10
0.1100260417
 20
1.5504557292
 10
0.1013997396
 20
1.5548502604
 10
0.091796875
 20
1.5581054688
 10
0.0815429687
 20
1.560546875
 10
0.0704752604
 20
1.5620117188
 10
0.05859375
 20
1.5625
 10
0.05859375
 20
1.5625
 10
0.0452473958
 20
1.5618489583
 10
0.0327148437
 20
1.5600585938
 10
0.0209960937
 20
1.5571289063
 10
0.0102539062
 20
1.5528971354
 10
0.0001627604
 20
1.5475260417
 10
-0.0087890625
 20
1.5408528646
 10
-0.0170898438
 20
1.5330403646
 10
-0.0244140625
 20
1.5240885417
 10
-0.0309244792
 20
1.5138346354
 10
-0.0364583333
 20
1.5024414063
 10
-0.0413411458
 20
1.4897460938
 10
-0.0450846354
 20
1.4759114583
 10
-0.0481770833
 20
1.4609375
 10
-0.0502929688
 20
1.4446614583
 10
-0.0515950521
 20
1.4272460938
 10
-0.0520833333
 20
1.4086914063
 10
-0.0520833333
 20
1.4086914063
 10
-0.0517578125
 20
1.3981119792
 10
-0.0506184896
 20
1.3863932292
 10
-0.048828125
 20
1.3733723958
 10
-0.0462239583
 20
1.3590494792
 10
-0.0431315104
 20
1.3434244792
 10
-0.0390625
 20
1.3264973958
 10
-0.0343424479
 20
1.3084309896
 10
-0.0289713542
 20
1.2890625
 10
-0.0289713542
 20
1.2890625
 10
-0.1728515625
 20
1.3173828125
 10
-0.1728515625
 20
1.3173828125
 10
-0.1791992188
 20
1.3448893229
 10
-0.1837565104
 20
1.3693033854
 10
-0.1865234375
 20
1.390625
 10
-0.1875
 20
1.4086914063
 10
-0.1875
 20
1.4086914063
 10
-0.1863606771
 20
1.4373372396
 10
-0.1829427083
 20
1.4641927083
 10
-0.1772460938
 20
1.4892578125
 10
-0.1692708333
 20
1.5123697917
 10
-0.1590169271
 20
1.5336914063
 10
-0.1466471354
 20
1.5532226563
 10
-0.1318359375
 20
1.5708007813
 10
-0.1147460938
 20
1.5865885417
 10
-0.0955403646
 20
1.6004231771
 10
-0.0738932292
 20
1.6124674479
 10
-0.0499674479
 20
1.6227213542
 10
-0.0239257813
 20
1.6310221354
 10
0.0045572917
 20
1.6375325521
 10
0.03515625
 20
1.6420898438
 10
0.0681966146
 20
1.6448567708
 10
0.1033528646
 20
1.6458333333
 10
0.1033528646
 20
1.6458333333
 10
0.1346028646
 20
1.6448567708
 10
0.1645507812
 20
1.6419270833
 10
0.1930338542
 20
1.6370442708
 10
0.2200520833
 20
1.6302083333
 10
0.2456054687
 20
1.6214192708
 10
0.2696940104
 20
1.6108398438
 10
0.2923177083
 20
1.5981445313
 10
0.3136393229
 20
1.5834960938
 10
0.3328450521
 20
1.5673828125
 10
0.349609375
 20
1.5504557292
 10
0.3637695312
 20
1.5325520833
 10
0.3753255208
 20
1.513671875
 10
0.3842773438
 20
1.4938151042
 10
0.390625
 20
1.4729817708
 10
0.39453125
 20
1.4513346354
 10
0.3958333333
 20
1.4287109375
 10
0.3958333333
 20
1.4287109375
 10
0.3951822917
 20
1.4153645833
 10
0.3933919271
 20
1.4020182292
 10
0.3901367188
 20
1.3883463542
 10
0.3857421875
 20
1.3745117188
 10
0.3800455729
 20
1.3605143229
 10
0.3732096354
 20
1.3463541667
 10
0.3649088542
 20
1.33203125
 10
0.35546875
 20
1.3175455729
 10
0.3447265625
 20
1.302734375
 10
0.3328450521
 20
1.2879231771
 10
0.3194986979
 20
1.2727864583
 10
0.3050130208
 20
1.2574869792
 10
0.2892252604
 20
1.2420247396
 10
0.2722981771
 20
1.2263997396
 10
0.25390625
 20
1.2106119792
 10
0.234375
 20
1.1946614583
 10
0.234375
 20
1.1946614583
 10
0.1702473958
 20
1.1440429688
 10
0.1702473958
 20
1.1440429688
 10
0.0919596354
 20
1.0789388021
 10
0.0919596354
 20
1.0789388021
 10
0.0893554687
 20
1.0776367188
 10
0.083984375
 20
1.0763346354
 10
0.0758463542
 20
1.0747070313
 10
0.0649414062
 20
1.0729166667
 10
0.0649414062
 20
1.0729166667
 10
0.3854166667
 20
1.0729166667
  0
LWPOLYLINE
  5
75
330
1F
100
AcDbEntity
  8
0
  6
Continuous
 62
     7
100
AcDbPolyline
 90
      205
 70
   128
 43
0.0
 10
4.3131493208
 20
1.1370442708
 10
4.4412434896
 20
1.1430664063
 10
4.4412434896
 20
1.1430664063
 10
4.435546875
 20
1.1173502604
 10
4.4311523438
 20
1.0942382813
 10
4.4282226562
 20
1.0735677083
 10
4.4267578125
 20
1.0555013021
 10
4.4267578125
 20
1.0555013021
 10
4.4272460938
 20
1.0302734375
 10
4.4313151042
 20
1.0084635417
 10
4.4388020833
 20
0.9899088542
 10
4.4500325521
 20
0.9747721354
 10
4.4645182292
 20
0.9630533854
 10
4.4827473958
 20
0.9545898438
 10
4.5043945312
 20
0.9495442708
 10
4.5296223958
 20
0.9479166667
 10
4.5296223958
 20
0.9479166667
 10
4.5436197917
 20
0.9484049479
 10
4.5568033854
 20
0.9500325521
 10
4.5691731771
 20
0.9526367188
 10
4.5804036458
 20
0.9563802083
 10
4.5909830729
 20
0.9611002604
 10
4.6004231771
 20
0.966796875
 10
4.6090494792
 20
0.9736328125
 10
4.6168619792
 20
0.9816080729
 10
4.6235351562
 20
0.9905598958
 10
4.6295572917
 20
1.0004882813
 10
4.6344401042
 20
1.0115559896
 10
4.6385091146
 20
1.0236002604
 10
4.6417643229
 20
1.0367838542
 10
4.6440429688
 20
1.0509440104
 10
4.6453450521
 20
1.0662434896
 10
4.6458333333
 20
1.0825195313
 10
4.6458333333
 20
1.0825195313
 10
4.6453450521
 20
1.0989583333
 10
4.6437174479
 20
1.1144205729
 10
4.6409505208
 20
1.1287434896
 10
4.6370442708
 20
1.1420898438
 10
4.6321614583
 20
1.154296875
 10
4.6261393229
 20
1.1655273438
 10
4.6189778646
 20
1.1756184896
 10
4.6108398438
 20
1.1847330729
 10
4.6015625
 20
1.1927083333
 10
4.5911458333
 20
1.1995442708
 10
4.5797526042
 20
1.2054036458
 10
4.5670572917
 20
1.2102864583
 10
4.5533854167
 20
1.2140299479
 10
4.5387369792
 20
1.2166341146
 10
4.5227864583
 20
1.2182617188
 10
4.505859375
 20
1.21875
 10
4.505859375
 20
1.21875
 10
4.4375
 20
1.2161458333
 10
4.4375
 20
1.2161458333
 10
4.4375
 20
1.3235677083
 10
4.4375
 20
1.3235677083
 10
4.4890950521
 20
1.3227539063
 10
4.4890950521
 20
1.3227539063
 10
4.5068359375
 20
1.3232421875
 10
4.5234375
 20
1.3248697917
 10
4.5388997396
 20
1.3273111979
 10
4.5530598958
 20
1.3308919271
 10
4.5662434896
 20
1.3354492188
 10
4.5782877604
 20
1.3409830729
 10
4.5891927083
 20
1.3474934896
 10
4.5987955729
 20
1.3551432292
 10
4.607421875
 20
1.3636067708
 10
4.6149088542
 20
1.3732096354
 10
4.62109375
 20
1.3837890625
 10
4.6263020833
 20
1.3953450521
 10
4.6302083333
 20
1.4080403646
 10
4.6331380208
 20
1.4215494792
 10
4.634765625
 20
1.4361979167
 10
4.6354166667
 20
1.4518229167
 10
4.6354166667
 20
1.4518229167
 10
4.6337890625
 20
1.4777018229
 10
4.6292317708
 20
1.5003255208
 10
4.6214192708
 20
1.5192057292
 10
4.6105143229
 20
1.5348307292
 10
4.5965169271
 20
1.546875
 10
4.5792643229
 20
1.5556640625
 10
4.5590820312
 20
1.5607096354
 10
4.5356445312
 20
1.5625
 10
4.5356445312
 20
1.5625
 10
4.5151367188
 20
1.5610351563
 10
4.4972330729
 20
1.5563151042
 10
4.4822591146
 20
1.5486653646
 10
4.4698893229
 20
1.5380859375
 10
4.4602864583
 20
1.5242513021
 10
4.4534505208
 20
1.5073242188
 10
4.44921875
 20
1.4874674479
 10
4.4479166667
 20
1.4645182292
 10
4.4479166667
 20
1.4645182292
 10
4.4482421875
 20
1.4495442708
 10
4.4488932292
 20
1.4326171875
 10
4.4501953125
 20
1.4137369792
 10
4.4519856771
 20
1.3929036458
 10
4.4519856771
 20
1.3929036458
 10
4.3221028646
 20
1.4152018229
 10
4.3221028646
 20
1.4152018229
 10
4.3230794271
 20
1.4431966146
 10
4.3260091146
 20
1.4692382813
 10
4.3310546875
 20
1.4936523438
 10
4.337890625
 20
1.5161132813
 10
4.3468424479
 20
1.5367838542
 10
4.3575846354
 20
1.5556640625
 10
4.3704427083
 20
1.5729166667
 10
4.3852539062
 20
1.5882161458
 10
4.4020182292
 20
1.6017252604
 10
4.4207356771
 20
1.6134440104
 10
4.4415690104
 20
1.6233723958
 10
4.4641927083
 20
1.6313476563
 10
4.4889322917
 20
1.6376953125
 10
4.5154622396
 20
1.6422526042
 10
4.5441080729
 20
1.6448567708
 10
4.5747070312
 20
1.6458333333
 10
4.5747070312
 20
1.6458333333
 10
4.6110026042
 20
1.6450195313
 10
4.6450195312
 20
1.6427408854
 10
4.6767578125
 20
1.638671875
 10
4.7060546875
 20
1.6331380208
 10
4.7330729167
 20
1.6259765625
 10
4.7576497396
 20
1.6173502604
 10
4.7799479167
 20
1.6070963542
 10
4.7999674479
 20
1.5952148438
 10
4.8175455729
 20
1.5817057292
 10
4.8328450521
 20
1.5667317708
 10
4.845703125
 20
1.5501302083
 10
4.8562825521
 20
1.5319010417
 10
4.8644205729
 20
1.5120442708
 10
4.8702799479
 20
1.4907226563
 10
4.8738606771
 20
1.4677734375
 10
4.875
 20
1.4431966146
 10
4.875
 20
1.4431966146
 10
4.8743489583
 20
1.4270833333
 10
4.8725585938
 20
1.4117838542
 10
4.8694661458
 20
1.3971354167
 10
4.865234375
 20
1.3833007813
 10
4.8597005208
 20
1.3701171875
 10
4.8528645833
 20
1.3575846354
 10
4.8448893229
 20
1.3458658854
 10
4.8357747396
 20
1.3349609375
 10
4.8251953125
 20
1.3247070313
 10
4.8136393229
 20
1.3151041667
 10
4.8006184896
 20
1.3063151042
 10
4.7866210938
 20
1.2983398438
 10
4.7711588542
 20
1.291015625
 10
4.7545572917
 20
1.2843424479
 10
4.7368164062
 20
1.2784830729
 10
4.7177734375
 20
1.2732747396
 10
4.7177734375
 20
1.2732747396
 10
4.7392578125
 20
1.2683919271
 10
4.7594401042
 20
1.2626953125
 10
4.7783203125
 20
1.2560221354
 10
4.7957356771
 20
1.2485351563
 10
4.8116861979
 20
1.2400716146
 10
4.8263346354
 20
1.2307942708
 10
4.8395182292
 20
1.2205403646
 10
4.8513997396
 20
1.2094726563
 10
4.8618164062
 20
1.1974283854
 10
4.8707682292
 20
1.1845703125
 10
4.8784179688
 20
1.1707356771
 10
4.884765625
 20
1.1560872396
 10
4.8896484375
 20
1.1404622396
 10
4.8930664062
 20
1.1240234375
 10
4.8951822917
 20
1.1066080729
 10
4.8958333333
 20
1.0883789063
 10
4.8958333333
 20
1.0883789063
 10
4.89453125
 20
1.0611979167
 10
4.8907877604
 20
1.0359700521
 10
4.8846028646
 20
1.0123697917
 10
4.8759765625
 20
0.9903971354
 10
4.8647460938
 20
0.9703776042
 10
4.8510742188
 20
0.9519856771
 10
4.8347981771
 20
0.9353841146
 10
4.8162434896
 20
0.9205729167
 10
4.7950846354
 20
0.9073893229
 10
4.771484375
 20
0.8959960938
 10
4.7452799479
 20
0.8863932292
 10
4.7166341146
 20
0.8785807292
 10
4.685546875
 20
0.8723958333
 10
4.6520182292
 20
0.8680013021
 10
4.6158854167
 20
0.8653971354
 10
4.5773111979
 20
0.8645833333
 10
4.5773111979
 20
0.8645833333
 10
4.5439453125
 20
0.865234375
 10
4.5128580729
 20
0.8675130208
 10
4.4837239583
 20
0.87109375
 10
4.4568684896
 20
0.8763020833
 10
4.4321289062
 20
0.8828125
 10
4.4096679688
 20
0.8907877604
 10
4.3891601562
 20
0.9002278646
 10
4.3709309896
 20
0.9111328125
 10
4.3548177083
 20
0.9235026042
 10
4.3408203125
 20
0.9373372396
 10
4.3289388021
 20
0.9526367188
 10
4.3193359375
 20
0.9694010417
 10
4.3116861979
 20
0.9876302083
 10
4.3063151042
 20
1.0073242188
 10
4.3032226562
 20
1.0283203125
 10
4.3020833333
 20
1.0509440104
 10
4.3020833333
 20
1.0509440104
 10
4.302734375
 20
1.0693359375
 10
4.3048502604
 20
1.0896809896
 10
4.3082682292
 20
1.1123046875
 10
4.3131510417
 20
1.1370442708
  0
LINE
  5
D6
330
1F
100
AcDbEntity
  8
0
  6
Continuous
 62
     7
370
    25
100
AcDbLine
 10
-6.75
 20
-1.875
 30
0.0
 11
-6.75
 21
-1.475
 31
0.0
  0
LINE
  5
D7
330
1F
100
AcDbEntity
  8
0
  6
Continuous
 62
     7
370
    25
100
AcDbLine
 10
-6.75
 20
-1.475
 30
0.0
 11
-7.0
 21
-1.475
 31
0.0
  0
LINE
  5
D8
330
1F
100
AcDbEntity
  8
0
  6
Continuous
 62
     7
370
    25
100
AcDbLine
 10
-7.0
 20
-1.075
 30
0.0
 11
-6.75
 21
-1.075
 31
0.0
  0
LINE
  5
D9
330
1F
100
AcDbEntity
  8
0
  6
Continuous
 62
     7
370
    25
100
AcDbLine
 10
-6.75
 20
-1.075
 30
0.0
 11
-6.75
 21
-0.675
 31
0.0
  0
LINE
  5
DA
330
1F
100
AcDbEntity
  8
0
  6
Continuous
 62
     7
370
    25
100
AcDbLine
 10
-6.75
 20
-0.675
 30
0.0
 11
-7.0
 21
-0.675
 31
0.0
  0
LINE
  5
DB
330
1F
100
AcDbEntity
  8
0
  6
Continuous
 62
     7
370
    25
100
AcDbLine
 10
-7.0
 20
-0.275
 30
0.0
 11
-6.75
 21
-0.275
 31
0.0
  0
LINE
  5
DC
330
1F
100
AcDbEntity
  8
0
  6
Continuous
 62
     7
370
    25
100
AcDbLine
 10
-6.75
 20
-0.275
 30
0.0
 11
-6.75
 21
0.125
 31
0.0
  0
LINE
  5
DD
330
1F
100
AcDbEntity
  8
0
  6
Continuous
 62
     7
370
    25
100
AcDbLine
 10
-6.75
 20
0.125
 30
0.0
 11
-7.0
 21
0.125
 31
0.0
  0
LINE
  5
DE
330
1F
100
AcDbEntity
  8
0
  6
Continuous
 62
     7
370
    25
100
AcDbLine
 10
-7.0
 20
0.525
 30
0.0
 11
-6.75
 21
0.525
 31
0.0
  0
LINE
  5
DF
330
1F
100
AcDbEntity
  8
0
  6
Continuous
 62
     7
370
    25
100
AcDbLine
 10
-6.75
 20
0.525
 30
0.0
 11
-6.75
 21
0.925
 31
0.0
  0
LINE
  5
E0
330
1F
100
AcDbEntity
  8
0
  6
Continuous
 62
     7
370
    25
100
AcDbLine
 10
-6.75
 20
0.925
 30
0.0
 11
-7.0
 21
0.925
 31
0.0
  0
LINE
  5
E1
330
1F
100
AcDbEntity
  8
0
  6
Continuous
 62
     7
370
    25
100
AcDbLine
 10
-7.0
 20
1.325
 30
0.0
 11
-6.75
 21
1.325
 31
0.0
  0
LINE
  5
E2
330
1F
100
AcDbEntity
  8
0
  6
Continuous
 62
     7
370
    25
100
AcDbLine
 10
-6.75
 20
1.325
 30
0.0
 11
-6.75
 21
1.725
 31
0.0
  0
LINE
  5
E3
330
1F
100
AcDbEntity
  8
0
  6
Continuous
 62
     7
370
    25
100
AcDbLine
 10
-6.75
 20
1.725
 30
0.0
 11
-7.0
 21
1.725
 31
0.0
  0
LINE
  5
E4
330
1F
100
AcDbEntity
  8
0
  6
Continuous
 62
     7
370
    25
100
AcDbLine
 10
7.0
 20
1.725
 30
0.0
 11
6.75
 21
1.725
 31
0.0
  0
LINE
  5
E5
330
1F
100
AcDbEntity
  8
0
  6
Continuous
 62
     7
370
    25
100
AcDbLine
 10
6.75
 20
1.725
 30
0.0
 11
6.75
 21
1.325
 31
0.0
  0
LINE
  5
E6
330
1F
100
AcDbEntity
  8
0
  6
Continuous
 62
     7
370
    25
100
AcDbLine
 10
6.75
 20
1.325
 30
0.0
 11
7.0
 21
1.325
 31
0.0
  0
LINE
  5
E7
330
1F
100
AcDbEntity
  8
0
  6
Continuous
 62
     7
370
    25
100
AcDbLine
 10
7.0
 20
0.925
 30
0.0
 11
6.75
 21
0.925
 31
0.0
  0
LINE
  5
E8
330
1F
100
AcDbEntity
  8
0
  6
Continuous
 62
     7
370
    25
100
AcDbLine
 10
6.75
 20
0.925
 30
0.0
 11
6.75
 21
0.525
 31
0.0
  0
LINE
  5
E9
330
1F
100
AcDbEntity
  8
0
  6
Continuous
 62
     7
370
    25
100
AcDbLine
 10
6.75
 20
0.525
 30
0.0
 11
7.0
 21
0.525
 31
0.0
  0
LINE
  5
EA
330
1F
100
AcDbEntity
  8
0
  6
Continuous
 62
     7
370
    25
100
AcDbLine
 10
7.0
 20
0.125
 30
0.0
 11
6.75
 21
0.125
 31
0.0
  0
LINE
  5
EB
330
1F
100
AcDbEntity
  8
0
  6
Continuous
 62
     7
370
    25
100
AcDbLine
 10
6.75
 20
0.125
 30
0.0
 11
6.75
 21
-0.275
 31
0.0
  0
LINE
  5
EC
330
1F
100
AcDbEntity
  8
0
  6
Continuous
 62
     7
370
    25
100
AcDbLine
 10
6.75
 20
-0.275
 30
0.0
 11
7.0
 21
-0.275
 31
0.0
  0
LINE
  5
ED
330
1F
100
AcDbEntity
  8
0
  6
Continuous
 62
     7
370
    25
100
AcDbLine
 10
7.0
 20
-0.675
 30
0.0
 11
6.75
 21
-0.675
 31
0.0
  0
LINE
  5
EE
330
1F
100
AcDbEntity
  8
0
  6
Continuous
 62
     7
370
    25
100
AcDbLine
 10
6.75
 20
-0.675
 30
0.0
 11
6.75
 21
-1.075
 31
0.0
  0
LINE
  5
EF
330
1F
100
AcDbEntity
  8
0
  6
Continuous
 62
     7
370
    25
100
AcDbLine
 10
6.75
 20
-1.075
 30
0.0
 11
7.0
 21
-1.075
 31
0.0
  0
LINE
  5
F0
330
1F
100
AcDbEntity
  8
0
  6
Continuous
 62
     7
370
    25
100
AcDbLine
 10
7.0
 20
-1.475
 30
0.0
 11
6.75
 21
-1.475
 31
0.0
  0
LINE
  5
F1
330
1F
100
AcDbEntity
  8
0
  6
Continuous
 62
     7
370
    25
100
AcDbLine
 10
6.75
 20
-1.475
 30
0.0
 11
6.75
 21
-1.875
 31
0.0
  0
LINE
  5
F2
330
1F
100
AcDbEntity
  8
0
  6
Continuous
 62
     7
370
    25
100
AcDbLine
 10
6.75
 20
-1.875
 30
0.0
 11
6.5
 21
-1.875
 31
0.0
  0
LINE
  5
F3
330
1F
100
AcDbEntity
  8
0
  6
Continuous
 62
     7
370
    25
100
AcDbLine
 10
6.5
 20
-1.875
 30
0.0
 11
6.5
 21
-2.125
 31
0.0
  0
LINE
  5
F4
330
1F
100
AcDbEntity
  8
0
  6
Continuous
 62
     7
370
    25
100
AcDbLine
 10
5.5
 20
-2.125
 30
0.0
 11
5.5
 21
-1.875
 31
0.0
  0
LINE
  5
F5
330
1F
100
AcDbEntity
  8
0
  6
Continuous
 62
     7
370
    25
100
AcDbLine
 10
5.5
 20
-1.875
 30
0.0
 11
4.5
 21
-1.875
 31
0.0
  0
LINE
  5
F6
330
1F
100
AcDbEntity
  8
0
  6
Continuous
 62
     7
370
    25
100
AcDbLine
 10
4.5
 20
-1.875
 30
0.0
 11
4.5
 21
-2.125
 31
0.0
  0
LINE
  5
F7
330
1F
100
AcDbEntity
  8
0
  6
Continuous
 62
     7
370
    25
100
AcDbLine
 10
3.5
 20
-2.125
 30
0.0
 11
3.5
 21
-1.875
 31
0.0
  0
LINE
  5
F8
330
1F
100
AcDbEntity
  8
0
  6
Continuous
 62
     7
370
    25
100
AcDbLine
 10
3.5
 20
-1.875
 30
0.0
 11
2.5
 21
-1.875
 31
0.0
  0
LINE
  5
F9
330
1F
100
AcDbEntity
  8
0
  6
Continuous
 62
     7
370
    25
100
AcDbLine
 10
2.5
 20
-1.875
 30
0.0
 11
2.5
 21
-2.125
 31
0.0
  0
LINE
  5
FA
330
1F
100
AcDbEntity
  8
0
  6
Continuous
 62
     7
370
    25
100
AcDbLine
 10
1.5
 20
-2.125
 30
0.0
 11
1.5
 21
-1.875
 31
0.0
  0
LINE
  5
FB
330
1F
100
AcDbEntity
  8
0
  6
Continuous
 62
     7
370
    25
100
AcDbLine
 10
1.5
 20
-1.875
 30
0.0
 11
0.5
 21
-1.875
 31
0.0
  0
LINE
  5
FC
330
1F
100
AcDbEntity
  8
0
  6
Continuous
 62
     7
370
    25
100
AcDbLine
 10
0.5
 20
-1.875
 30
0.0
 11
0.5
 21
-2.125
 31
0.0
  0
LINE
  5
FD
330
1F
100
AcDbEntity
  8
0
  6
Continuous
 62
     7
370
    25
100
AcDbLine
 10
-0.5
 20
-2.125
 30
0.0
 11
-0.5
 21
-1.875
 31
0.0
  0
LINE
  5
FE
330
1F
100
AcDbEntity
  8
0
  6
Continuous
 62
     7
370
    25
100
AcDbLine
 10
-0.5
 20
-1.875
 30
0.0
 11
-1.5
 21
-1.875
 31
0.0
  0
LINE
  5
FF
330
1F
100
AcDbEntity
  8
0
  6
Continuous
 62
     7
370
    25
100
AcDbLine
 10
-1.5
 20
-1.875
 30
0.0
 11
-1.5
 21
-2.125
 31
0.0
  0
LINE
  5
100
330
1F
100
AcDbEntity
  8
0
  6
Continuous
 62
     7
370
    25
100
AcDbLine
 10
-2.5
 20
-2.125
 30
0.0
 11
-2.5
 21
-1.875
 31
0.0
  0
LINE
  5
101
330
1F
100
AcDbEntity
  8
0
  6
Continuous
 62
     7
370
    25
100
AcDbLine
 10
-2.5
 20
-1.875
 30
0.0
 11
-3.5
 21
-1.875
 31
0.0
  0
LINE
  5
102
330
1F
100
AcDbEntity
  8
0
  6
Continuous
 62
     7
370
    25
100
AcDbLine
 10
-3.5
 20
-1.875
 30
0.0
 11
-3.5
 21
-2.125
 31
0.0
  0
LINE
  5
103
330
1F
100
AcDbEntity
  8
0
  6
Continuous
 62
     7
370
    25
100
AcDbLine
 10
-4.5
 20
-2.125
 30
0.0
 11
-4.5
 21
-1.875
 31
0.0
  0
LINE
  5
104
330
1F
100
AcDbEntity
  8
0
  6
Continuous
 62
     7
370
    25
100
AcDbLine
 10
-4.5
 20
-1.875
 30
0.0
 11
-5.5
 21
-1.875
 31
0.0
  0
LINE
  5
105
330
1F
100
AcDbEntity
  8
0
  6
Continuous
 62
     7
370
    25
100
AcDbLine
 10
-5.5
 20
-1.875
 30
0.0
 11
-5.5
 21
-2.125
 31
0.0
  0
LINE
  5
106
330
1F
100
AcDbEntity
  8
0
  6
Continuous
 62
     7
370
    25
100
AcDbLine
 10
-6.5
 20
-2.125
 30
0.0
 11
-6.5
 21
-1.875
 31
0.0
  0
LINE
  5
107
330
1F
100
AcDbEntity
  8
0
  6
Continuous
 62
     7
370
    25
100
AcDbLine
 10
-6.5
 20
-1.875
 30
0.0
 11
-6.75
 21
-1.875
 31
0.0
  0
LINE
  5
108
330
1F
100
AcDbEntity
  8
0
  6
Continuous
 62
     7
370
    25
100
AcDbLine
 10
-6.5
 20
-0.125
 30
0.0
 11
-5.5
 21
-0.125
 31
0.0
  0
LINE
  5
109
330
1F
100
AcDbEntity
  8
0
  6
Continuous
 62
     7
370
    25
100
AcDbLine
 10
-5.5
 20
-0.125
 30
0.0
 11
-5.5
 21
0.125
 31
0.0
  0
LINE
  5
10A
330
1F
100
AcDbEntity
  8
0
  6
Continuous
 62
     7
370
    25
100
AcDbLine
 10
-5.5
 20
0.125
 30
0.0
 11
-6.5
 21
0.125
 31
0.0
  0
LINE
  5
10B
330
1F
100
AcDbEntity
  8
0
  6
Continuous
 62
     7
370
    25
100
AcDbLine
 10
-6.5
 20
0.125
 30
0.0
 11
-6.5
 21
-0.125
 31
0.0
  0
LINE
  5
10C
330
1F
100
AcDbEntity
  8
0
  6
Continuous
 62
     7
370
    25
100
AcDbLine
 10
-4.5
 20
-0.125
 30
0.0
 11
-3.5
 21
-0.125
 31
0.0
  0
LINE
  5
10D
330
1F
100
AcDbEntity
  8
0
  6
Continuous
 62
     7
370
    25
100
AcDbLine
 10
-3.5
 20
-0.125
 30
0.0
 11
-3.5
 21
0.125
 31
0.0
  0
LINE
  5
10E
330
1F
100
AcDbEntity
  8
0
  6
Continuous
 62
     7
370
    25
100
AcDbLine
 10
-3.5
 20
0.125
 30
0.0
 11
-4.5
 21
0.125
 31
0.0
  0
LINE
  5
10F
330
1F
100
AcDbEntity
  8
0
  6
Continuous
 62
     7
370
    25
100
AcDbLine
 10
-4.5
 20
0.125
 30
0.0
 11
-4.5
 21
-0.125
 31
0.0
  0
LINE
  5
110
330
1F
100
AcDbEntity
  8
0
  6
Continuous
 62
     7
370
    25
100
AcDbLine
 10
5.5
 20
-2.125
 30
0.0
 11
6.5
 21
-2.125
 31
0.0
  0
LINE
  5
111
330
1F
100
AcDbEntity
  8
0
  6
Continuous
 62
     7
370
    25
100
AcDbLine
 10
7.0
 20
2.125
 30
0.0
 11
-7.0
 21
2.125
 31
0.0
  0
LINE
  5
112
330
1F
100
AcDbEntity
  8
0
  6
Continuous
 62
     7
370
    25
100
AcDbLine
 10
-7.0
 20
2.125
 30
0.0
 11
-7.0
 21
1.725
 31
0.0
  0
LINE
  5
113
330
1F
100
AcDbEntity
  8
0
  6
Continuous
 62
     7
370
    25
100
AcDbLine
 10
-7.0
 20
-1.075
 30
0.0
 11
-7.0
 21
-1.475
 31
0.0
  0
LINE
  5
114
330
1F
100
AcDbEntity
  8
0
  6
Continuous
 62
     7
370
    25
100
AcDbLine
 10
-7.0
 20
-0.275
 30
0.0
 11
-7.0
 21
-0.675
 31
0.0
  0
LINE
  5
115
330
1F
100
AcDbEntity
  8
0
  6
Continuous
 62
     7
370
    25
100
AcDbLine
 10
-7.0
 20
0.525
 30
0.0
 11
-7.0
 21
0.125
 31
0.0
  0
LINE
  5
116
330
1F
100
AcDbEntity
  8
0
  6
Continuous
 62
     7
370
    25
100
AcDbLine
 10
-7.0
 20
1.325
 30
0.0
 11
-7.0
 21
0.925
 31
0.0
  0
LINE
  5
117
330
1F
100
AcDbEntity
  8
0
  6
Continuous
 62
     7
370
    25
100
AcDbLine
 10
7.0
 20
-1.475
 30
0.0
 11
7.0
 21
-1.075
 31
0.0
  0
LINE
  5
118
330
1F
100
AcDbEntity
  8
0
  6
Continuous
 62
     7
370
    25
100
AcDbLine
 10
7.0
 20
-0.675
 30
0.0
 11
7.0
 21
-0.275
 31
0.0
  0
LINE
  5
119
330
1F
100
AcDbEntity
  8
0
  6
Continuous
 62
     7
370
    25
100
AcDbLine
 10
7.0
 20
0.125
 30
0.0
 11
7.0
 21
0.525
 31
0.0
  0
LINE
  5
11A
330
1F
100
AcDbEntity
  8
0
  6
Continuous
 62
     7
370
    25
100
AcDbLine
 10
7.0
 20
0.925
 30
0.0
 11
7.0
 21
1.325
 31
0.0
  0
LINE
  5
11B
330
1F
100
AcDbEntity
  8
0
  6
Continuous
 62
     7
370
    25
100
AcDbLine
 10
7.0
 20
1.725
 30
0.0
 11
7.0
 21
2.125
 31
0.0
  0
LINE
  5
11C
330
1F
100
AcDbEntity
  8
0
  6
Continuous
 62
     7
370
    25
100
AcDbLine
 10
-6.5
 20
-2.125
 30
0.0
 11
-5.5
 21
-2.125
 31
0.0
  0
LINE
  5
11D
330
1F
100
AcDbEntity
  8
0
  6
Continuous
 62
     7
370
    25
100
AcDbLine
 10
3.5
 20
-2.125
 30
0.0
 11
4.5
 21
-2.125
 31
0.0
  0
LINE
  5
11E
330
1F
100
AcDbEntity
  8
0
  6
Continuous
 62
     7
370
    25
100
AcDbLine
 10
1.5
 20
-2.125
 30
0.0
 11
2.5
 21
-2.125
 31
0.0
  0
LINE
  5
11F
330
1F
100
AcDbEntity
  8
0
  6
Continuous
 62
     7
370
    25
100
AcDbLine
 10
-0.5
 20
-2.125
 30
0.0
 11
0.5
 21
-2.125
 31
0.0
  0
LINE
  5
120
330
1F
100
AcDbEntity
  8
0
  6
Continuous
 62
     7
370
    25
100
AcDbLine
 10
-2.5
 20
-2.125
 30
0.0
 11
-1.5
 21
-2.125
 31
0.0
  0
LINE
  5
121
330
1F
100
AcDbEntity
  8
0
  6
Continuous
 62
     7
370
    25
100
AcDbLine
 10
-4.5
 20
-2.125
 30
0.0
 11
-3.5
 21
-2.125
 31
0.0
  0
LINE
  5
122
330
1F
100
AcDbEntity
  8
0
  6
Continuous
 62
     7
370
    25
100
AcDbLine
 10
-2.5
 20
0.125
 30
0.0
 11
-2.5
 21
-0.125
 31
0.0
  0
LINE
  5
123
330
1F
100
AcDbEntity
  8
0
  6
Continuous
 62
     7
370
    25
100
AcDbLine
 10
-1.5
 20
0.125
 30
0.0
 11
-2.5
 21
0.125
 31
0.0
  0
LINE
  5
124
330
1F
100
AcDbEntity
  8
0
  6
Continuous
 62
     7
370
    25
100
AcDbLine
 10
-1.5
 20
-0.125
 30
0.0
 11
-1.5
 21
0.125
 31
0.0
  0
LINE
  5
125
330
1F
100
AcDbEntity
  8
0
  6
Continuous
 62
     7
370
    25
100
AcDbLine
 10
-2.5
 20
-0.125
 30
0.0
 11
-1.5
 21
-0.125
 31
0.0
  0
LINE
  5
126
330
1F
100
AcDbEntity
  8
0
  6
Continuous
 62
     7
370
    25
100
AcDbLine
 10
-0.5
 20
0.125
 30
0.0
 11
-0.5
 21
-0.125
 31
0.0
  0
LINE
  5
127
330
1F
100
AcDbEntity
  8
0
  6
Continuous
 62
     7
370
    25
100
AcDbLine
 10
0.5
 20
0.125
 30
0.0
 11
-0.5
 21
0.125
 31
0.0
  0
LINE
  5
128
330
1F
100
AcDbEntity
  8
0
  6
Continuous
 62
     7
370
    25
100
AcDbLine
 10
0.5
 20
-0.125
 30
0.0
 11
0.5
 21
0.125
 31
0.0
  0
LINE
  5
129
330
1F
100
AcDbEntity
  8
0
  6
Continuous
 62
     7
370
    25
100
AcDbLine
 10
-0.5
 20
-0.125
 30
0.0
 11
0.5
 21
-0.125
 31
0.0
  0
LINE
  5
12A
330
1F
100
AcDbEntity
  8
0
  6
Continuous
 62
     7
370
    25
100
AcDbLine
 10
1.5
 20
0.125
 30
0.0
 11
1.5
 21
-0.125
 31
0.0
  0
LINE
  5
12B
330
1F
100
AcDbEntity
  8
0
  6
Continuous
 62
     7
370
    25
100
AcDbLine
 10
2.5
 20
0.125
 30
0.0
 11
1.5
 21
0.125
 31
0.0
  0
LINE
  5
12C
330
1F
100
AcDbEntity
  8
0
  6
Continuous
 62
     7
370
    25
100
AcDbLine
 10
2.5
 20
-0.125
 30
0.0
 11
2.5
 21
0.125
 31
0.0
  0
LINE
  5
12D
330
1F
100
AcDbEntity
  8
0
  6
Continuous
 62
     7
370
    25
100
AcDbLine
 10
1.5
 20
-0.125
 30
0.0
 11
2.5
 21
-0.125
 31
0.0
  0
LINE
  5
12E
330
1F
100
AcDbEntity
  8
0
  6
Continuous
 62
     7
370
    25
100
AcDbLine
 10
3.5
 20
0.125
 30
0.0
 11
3.5
 21
-0.125
 31
0.0
  0
LINE
  5
12F
330
1F
100
AcDbEntity
  8
0
  6
Continuous
 62
     7
370
    25
100
AcDbLine
 10
4.5
 20
0.125
 30
0.0
 11
3.5
 21
0.125
 31
0.0
  0
LINE
  5
130
330
1F
100
AcDbEntity
  8
0
  6
Continuous
 62
     7
370
    25
100
AcDbLine
 10
4.5
 20
-0.125
 30
0.0
 11
4.5
 21
0.125
 31
0.0
  0
LINE
  5
131
330
1F
100
AcDbEntity
  8
0
  6
Continuous
 62
     7
370
    25
100
AcDbLine
 10
3.5
 20
-0.125
 30
0.0
 11
4.5
 21
-0.125
 31
0.0
  0
LINE
  5
132
330
1F
100
AcDbEntity
  8
0
  6
Continuous
 62
     7
370
    25
100
AcDbLine
 10
5.5
 20
0.125
 30
0.0
 11
5.5
 21
-0.125
 31
0.0
  0
LINE
  5
133
330
1F
100
AcDbEntity
  8
0
  6
Continuous
 62
     7
370
    25
100
AcDbLine
 10
6.5
 20
0.125
 30
0.0
 11
5.5
 21
0.125
 31
0.0
  0
LINE
  5
134
330
1F
100
AcDbEntity
  8
0
  6
Continuous
 62
     7
370
    25
100
AcDbLine
 10
6.5
 20
-0.125
 30
0.0
 11
6.5
 21
0.125
 31
0.0
  0
LINE
  5
135
330
1F
100
AcDbEntity
  8
0
  6
Continuous
 62
     7
370
    25
100
AcDbLine
 10
5.5
 20
-0.125
 30
0.0
 11
6.5
 21
-0.125
 31
0.0
  0
MTEXT
  5
137
330
1F
100
AcDbEntity
  8
0
  6
Continuous
 62
     7
100
AcDbMText
 10
-7.0
 20
-2.1651404091
 30
0.0
 40
0.1903
 41
0.0
 71
     1
 72
     1
  1
SOLIDWORKS Educational Product.
  7
SLDTEXTSTYLE0
 73
     1
 44
1.0
  0
MTEXT
  5
138
330
1F
100
AcDbEntity
  8
0
  6
Continuous
 62
     7
100
AcDbMText
 10
-7.0
 20
-2.4505904091
 30
0.0
 40
0.1903
 41
0.0
 71
     1
 72
     1
  1
For Instructional Use Only.
  7
SLDTEXTSTYLE0
 73
     1
 44
1.0
  0
ENDSEC
  0
SECTION
  2
OBJECTS
  0
DICTIONARY
  5
C
330
0
100
AcDbDictionary
281
     1
  3
ACAD_GROUP
350
D
  3
ACAD_LAYOUT
350
1A
  3
ACAD_MLINESTYLE
350
17
  3
ACAD_PLOTSETTINGS
350
19
  3
ACAD_PLOTSTYLENAME
350
E
  3
ACAD_SCALELIST
350
47
  3
DWGPROPS
350
139
  0
DICTIONARY
  5
D
102
{ACAD_REACTORS
330
C
102
}
330
C
100
AcDbDictionary
281
     1
  0
DICTIONARY
  5
1A
102
{ACAD_REACTORS
330
C
102
}
330
C
100
AcDbDictionary
281
     1
  3
Layout1
350
1E
  3
Layout2
350
26
  3
Model
350
22
  0
DICTIONARY
  5
17
102
{ACAD_REACTORS
330
C
102
}
330
C
100
AcDbDictionary
281
     1
  3
Standard
350
18
  0
DICTIONARY
  5
19
102
{ACAD_REACTORS
330
C
102
}
330
C
100
AcDbDictionary
281
     1
  0
ACDBDICTIONARYWDFLT
  5
E
102
{ACAD_REACTORS
330
C
102
}
330
C
100
AcDbDictionary
281
     1
  3
Normal
350
F
100
AcDbDictionaryWithDefault
340
F
  0
DICTIONARY
  5
47
102
{ACAD_REACTORS
330
C
102
}
330
C
100
AcDbDictionary
281
     1
  3
A0
350
48
  3
A1
350
49
  3
A2
350
4A
  3
A3
350
4B
  3
A4
350
4C
  3
A5
350
4D
  3
A6
350
4E
  3
A7
350
4F
  3
A8
350
50
  3
A9
350
51
  3
B0
350
52
  3
B1
350
53
  3
B2
350
54
  3
B3
350
55
  3
B4
350
56
  3
B5
350
57
  3
B6
350
58
  3
B7
350
59
  3
B8
350
5A
  3
B9
350
5B
  3
C0
350
5C
  3
C1
350
5D
  3
C2
350
5E
  3
C3
350
5F
  3
C4
350
60
  3
C5
350
61
  3
C6
350
62
  3
C7
350
63
  3
C8
350
64
  3
C9
350
65
  3
D0
350
66
  3
D1
350
67
  3
D2
350
68
  0
XRECORD
  5
139
102
{ACAD_REACTORS
330
C
102
}
330
C
100
AcDbXrecord
280
     1
  1
DWGPROPS COOKIE
  2

  3

  4

  6

  7

  8
antoi
  9

300
=
301
=
302
=
303
=
304
=
305
=
306
=
307
=
308
=
309
=
 40
0.0
 41
2459662.710110359
 42
2459662.710170035
  1

 90
        0
  0
LAYOUT
  5
1E
102
{ACAD_REACTORS
330
1A
102
}
330
1A
100
AcDbPlotSettings
  1

  2
none_device
  4

  6

 40
0.0
 41
0.0
 42
0.0
 43
0.0
 44
0.0
 45
0.0
 46
0.0
 47
0.0
 48
0.0
 49
0.0
140
0.0
141
0.0
142
1.0
143
1.0
 70
   688
 72
     0
 73
     0
 74
     5
  7

 75
    16
147
1.0
148
0.0
149
0.0
100
AcDbLayout
  1
Layout1
 70
     1
 71
     1
 10
0.0
 20
0.0
 11
12.0
 21
9.0
 12
0.0
 22
0.0
 32
0.0
 14
1.0000000000E+20
 24
1.0000000000E+20
 34
1.0000000000E+20
 15
-1.0000000000E+20
 25
-1.0000000000E+20
 35
-1.0000000000E+20
146
0.0
 13
0.0
 23
0.0
 33
0.0
 16
1.0
 26
0.0
 36
0.0
 17
0.0
 27
1.0
 37
0.0
 76
     0
330
1B
  0
LAYOUT
  5
26
102
{ACAD_REACTORS
330
1A
102
}
330
1A
100
AcDbPlotSettings
  1

  2
none_device
  4

  6

 40
0.0
 41
0.0
 42
0.0
 43
0.0
 44
0.0
 45
0.0
 46
0.0
 47
0.0
 48
0.0
 49
0.0
140
0.0
141
0.0
142
1.0
143
1.0
 70
   688
 72
     0
 73
     0
 74
     5
  7

 75
    16
147
1.0
148
0.0
149
0.0
100
AcDbLayout
  1
Layout2
 70
     1
 71
     2
 10
0.0
 20
0.0
 11
0.0
 21
0.0
 12
0.0
 22
0.0
 32
0.0
 14
0.0
 24
0.0
 34
0.0
 15
0.0
 25
0.0
 35
0.0
146
0.0
 13
0.0
 23
0.0
 33
0.0
 16
1.0
 26
0.0
 36
0.0
 17
0.0
 27
1.0
 37
0.0
 76
     0
330
23
  0
LAYOUT
  5
22
102
{ACAD_REACTORS
330
1A
102
}
330
1A
100
AcDbPlotSettings
  1

  2
none_device
  4
ANSI_A_(11.00_x_8.50_Inches)
  6

 40
6.35
 41
19.05
 42
6.35000508
 43
19.05000254
 44
279.4
 45
215.9
 46
133.34999746
 47
88.89999873
 48
0.0
 49
0.0
140
0.0
141
0.0
142
0.7778571429
143
1.0
 70
  1696
 72
     0
 73
     0
 74
     0
  7

 75
     0
147
0.5913241897
148
-39.4088153714
149
0.0
100
AcDbLayout
  1
Model
 70
     1
 71
     0
 10
0.0
 20
0.0
 11
12.0
 21
9.0
 12
0.0
 22
0.0
 32
0.0
 14
-7.0
 24
-2.125
 34
0.0
 15
7.0
 25
2.125
 35
0.0
146
0.0
 13
0.0
 23
0.0
 33
0.0
 16
1.0
 26
0.0
 36
0.0
 17
0.0
 27
1.0
 37
0.0
 76
     0
330
1F
331
29
  0
MLINESTYLE
  5
18
102
{ACAD_REACTORS
330
17
102
}
330
17
100
AcDbMlineStyle
  2
Standard
 70
     0
  3

 62
   256
 51
90.0
 52
90.0
 71
     2
 49
0.5
 62
   256
  6
BYLAYER
 49
-0.5
 62
   256
  6
BYLAYER
  0
ACDBPLACEHOLDER
  5
F
102
{ACAD_REACTORS
330
E
102
}
330
E
  0
SCALE
  5
48
102
{ACAD_REACTORS
330
47
102
}
330
47
100
AcDbScale
 70
     0
300
1:1
140
1.0
141
1.0
290
     1
  0
SCALE
  5
49
102
{ACAD_REACTORS
330
47
102
}
330
47
100
AcDbScale
 70
     0
300
1:2
140
1.0
141
2.0
290
     0
  0
SCALE
  5
4A
102
{ACAD_REACTORS
330
47
102
}
330
47
100
AcDbScale
 70
     0
300
1:4
140
1.0
141
4.0
290
     0
  0
SCALE
  5
4B
102
{ACAD_REACTORS
330
47
102
}
330
47
100
AcDbScale
 70
     0
300
1:5
140
1.0
141
5.0
290
     0
  0
SCALE
  5
4C
102
{ACAD_REACTORS
330
47
102
}
330
47
100
AcDbScale
 70
     0
300
1:8
140
1.0
141
8.0
290
     0
  0
SCALE
  5
4D
102
{ACAD_REACTORS
330
47
102
}
330
47
100
AcDbScale
 70
     0
300
1:10
140
1.0
141
10.0
290
     0
  0
SCALE
  5
4E
102
{ACAD_REACTORS
330
47
102
}
330
47
100
AcDbScale
 70
     0
300
1:16
140
1.0
141
16.0
290
     0
  0
SCALE
  5
4F
102
{ACAD_REACTORS
330
47
102
}
330
47
100
AcDbScale
 70
     0
300
1:20
140
1.0
141
20.0
290
     0
  0
SCALE
  5
50
102
{ACAD_REACTORS
330
47
102
}
330
47
100
AcDbScale
 70
     0
300
1:30
140
1.0
141
30.0
290
     0
  0
SCALE
  5
51
102
{ACAD_REACTORS
330
47
102
}
330
47
100
AcDbScale
 70
     0
300
1:40
140
1.0
141
40.0
290
     0
  0
SCALE
  5
52
102
{ACAD_REACTORS
330
47
102
}
330
47
100
AcDbScale
 70
     0
300
1:50
140
1.0
141
50.0
290
     0
  0
SCALE
  5
53
102
{ACAD_REACTORS
330
47
102
}
330
47
100
AcDbScale
 70
     0
300
1:100
140
1.0
141
100.0
290
     0
  0
SCALE
  5
54
102
{ACAD_REACTORS
330
47
102
}
330
47
100
AcDbScale
 70
     0
300
2:1
140
2.0
141
1.0
290
     0
  0
SCALE
  5
55
102
{ACAD_REACTORS
330
47
102
}
330
47
100
AcDbScale
 70
     0
300
4:1
140
4.0
141
1.0
290
     0
  0
SCALE
  5
56
102
{ACAD_REACTORS
330
47
102
}
330
47
100
AcDbScale
 70
     0
300
8:1
140
8.0
141
1.0
290
     0
  0
SCALE
  5
57
102
{ACAD_REACTORS
330
47
102
}
330
47
100
AcDbScale
 70
     0
300
10:1
140
10.0
141
1.0
290
     0
  0
SCALE
  5
58
102
{ACAD_REACTORS
330
47
102
}
330
47
100
AcDbScale
 70
     0
300
100:1
140
100.0
141
1.0
290
     0
  0
SCALE
  5
59
102
{ACAD_REACTORS
330
47
102
}
330
47
100
AcDbScale
 70
     0
300
1/128" = 1'-0"
140
0.0078125
141
12.0
290
     0
  0
SCALE
  5
5A
102
{ACAD_REACTORS
330
47
102
}
330
47
100
AcDbScale
 70
     0
300
1/64" = 1'-0"
140
0.015625
141
12.0
290
     0
  0
SCALE
  5
5B
102
{ACAD_REACTORS
330
47
102
}
330
47
100
AcDbScale
 70
     0
300
1/32" = 1'-0"
140
0.03125
141
12.0
290
     0
  0
SCALE
  5
5C
102
{ACAD_REACTORS
330
47
102
}
330
47
100
AcDbScale
 70
     0
300
1/16" = 1'-0"
140
0.0625
141
12.0
290
     0
  0
SCALE
  5
5D
102
{ACAD_REACTORS
330
47
102
}
330
47
100
AcDbScale
 70
     0
300
3/32" = 1'-0"
140
0.09375
141
12.0
290
     0
  0
SCALE
  5
5E
102
{ACAD_REACTORS
330
47
102
}
330
47
100
AcDbScale
 70
     0
300
1/8" = 1'-0"
140
0.125
141
12.0
290
     0
  0
SCALE
  5
5F
102
{ACAD_REACTORS
330
47
102
}
330
47
100
AcDbScale
 70
     0
300
3/16" = 1'-0"
140
0.1875
141
12.0
290
     0
  0
SCALE
  5
60
102
{ACAD_REACTORS
330
47
102
}
330
47
100
AcDbScale
 70
     0
300
1/4" = 1'-0"
140
0.25
141
12.0
290
     0
  0
SCALE
  5
61
102
{ACAD_REACTORS
330
47
102
}
330
47
100
AcDbScale
 70
     0
300
3/8" = 1'-0"
140
0.375
141
12.0
290
     0
  0
SCALE
  5
62
102
{ACAD_REACTORS
330
47
102
}
330
47
100
AcDbScale
 70
     0
300
1/2" = 1'-0"
140
0.5
141
12.0
290
     0
  0
SCALE
  5
63
102
{ACAD_REACTORS
330
47
102
}
330
47
100
AcDbScale
 70
     0
300
3/4" = 1'-0"
140
0.75
141
12.0
290
     0
  0
SCALE
  5
64
102
{ACAD_REACTORS
330
47
102
}
330
47
100
AcDbScale
 70
     0
300
1" = 1'-0"
140
1.0
141
12.0
290
     0
  0
SCALE
  5
65
102
{ACAD_REACTORS
330
47
102
}
330
47
100
AcDbScale
 70
     0
300
1-1/2" = 1'-0"
140
1.5
141
12.0
290
     0
  0
SCALE
  5
66
102
{ACAD_REACTORS
330
47
102
}
330
47
100
AcDbScale
 70
     0
300
3" = 1'-0"
140
3.0
141
12.0
290
     0
  0
SCALE
  5
67
102
{ACAD_REACTORS
330
47
102
}
330
47
100
AcDbScale
 70
     0
300
6" = 1'-0"
140
6.0
141
12.0
290
     0
  0
SCALE
  5
68
102
{ACAD_REACTORS
330
47
102
}
330
47
100
AcDbScale
 70
     0
300
1'-0" = 1'-0"
140
12.0
141
12.0
290
     0
  0
ENDSEC
  0
EOF
