999
"DXF R12 Output" (www.mydxf.blogspot.com)
 0 
SECTION
 2 
HEADER
 9 
$ACADVER
 1 
AC1009
 9 
$EXTMIN
 10 
 0 
 20 
 0 
 9 
$EXTMAX
 10 
 8.5 
 20 
 11 
 0 
ENDSEC
 0 
SECTION
 2 
ENTITIES
0
LINE
8
Calque 1
10
3.438410
20
77.423900
11
3.450901
21
77.944893
0
LINE
8
Calque 1
10
3.450901
20
77.944893
11
3.463392
21
78.025523
0
LINE
8
Calque 1
10
3.463392
20
78.025523
11
3.475883
21
78.106153
0
LINE
8
Calque 1
10
3.475883
20
78.106153
11
3.488374
21
78.155771
0
LINE
8
Calque 1
10
3.488374
20
78.155771
11
3.500866
21
78.205390
0
LINE
8
Calque 1
10
3.500866
20
78.205390
11
3.513357
21
78.230200
0
LINE
8
Calque 1
10
3.513357
20
78.230200
11
3.525848
21
78.255010
0
LINE
8
Calque 1
10
3.525848
20
78.255010
11
3.538339
21
78.292224
0
LINE
8
Calque 1
10
3.538339
20
78.292224
11
3.550830
21
78.329438
0
LINE
8
Calque 1
10
3.550830
20
78.329438
11
3.563321
21
78.360449
0
LINE
8
Calque 1
10
3.563321
20
78.360449
11
3.575812
21
78.391461
0
LINE
8
Calque 1
10
3.575812
20
78.391461
11
3.588303
21
78.416271
0
LINE
8
Calque 1
10
3.588303
20
78.416271
11
3.600794
21
78.441081
0
LINE
8
Calque 1
10
3.600794
20
78.441081
11
3.613285
21
78.465891
0
LINE
8
Calque 1
10
3.613285
20
78.465891
11
3.625777
21
78.490701
0
LINE
8
Calque 1
10
3.625777
20
78.490701
11
3.638268
21
78.509308
0
LINE
8
Calque 1
10
3.638268
20
78.509308
11
3.657004
21
78.527915
0
LINE
8
Calque 1
10
3.657004
20
78.527915
11
3.675741
21
78.547408
0
LINE
8
Calque 1
10
3.675741
20
78.547408
11
3.719462
21
78.602343
0
LINE
8
Calque 1
10
3.719462
20
78.602343
11
3.763183
21
78.657507
0
LINE
8
Calque 1
10
3.763183
20
78.657507
11
3.944081
21
78.838030
0
LINE
8
Calque 1
10
3.944081
20
78.838030
11
3.963049
21
78.850437
0
LINE
8
Calque 1
10
3.963049
20
78.850437
11
3.979028
21
78.862841
0
LINE
8
Calque 1
10
3.979028
20
78.862841
11
4.013015
21
78.887651
0
LINE
8
Calque 1
10
4.013015
20
78.887651
11
4.053248
21
78.912461
0
LINE
8
Calque 1
10
4.053248
20
78.912461
11
4.075473
21
78.924864
0
LINE
8
Calque 1
10
4.075473
20
78.924864
11
4.095104
21
78.937268
0
LINE
8
Calque 1
10
4.095104
20
78.937268
11
4.150424
21
78.986000
0
LINE
8
Calque 1
10
4.150424
20
78.986000
11
4.175407
21
78.999290
0
LINE
8
Calque 1
10
4.175407
20
78.999290
11
4.200389
21
79.011694
0
LINE
8
Calque 1
10
4.200389
20
79.011694
11
4.225371
21
79.024097
0
LINE
8
Calque 1
10
4.225371
20
79.024097
11
4.250353
21
79.036501
0
LINE
8
Calque 1
10
4.250353
20
79.036501
11
4.306566
21
79.048905
0
LINE
8
Calque 1
10
4.306566
20
79.048905
11
4.362778
21
79.061311
0
LINE
8
Calque 1
10
4.362778
20
79.061311
11
4.400253
21
79.073715
0
LINE
8
Calque 1
10
4.400253
20
79.073715
11
4.437728
21
79.086119
0
LINE
8
Calque 1
10
4.437728
20
79.086119
11
4.475203
21
79.098522
0
LINE
8
Calque 1
10
4.475203
20
79.098522
11
4.512678
21
79.110929
0
LINE
8
Calque 1
10
4.512678
20
79.110929
11
4.768757
21
79.123333
0
LINE
8
Calque 1
10
4.768757
20
79.123333
11
5.024836
21
79.110929
0
LINE
8
Calque 1
10
5.024836
20
79.110929
11
5.087294
21
79.098522
0
LINE
8
Calque 1
10
5.087294
20
79.098522
11
5.149753
21
79.086119
0
LINE
8
Calque 1
10
5.149753
20
79.086119
11
5.187228
21
79.073715
0
LINE
8
Calque 1
10
5.187228
20
79.073715
11
5.224703
21
79.061311
0
LINE
8
Calque 1
10
5.224703
20
79.061311
11
5.268423
21
79.048905
0
LINE
8
Calque 1
10
5.268423
20
79.048905
11
5.312144
21
79.036501
0
LINE
8
Calque 1
10
5.312144
20
79.036501
11
5.337126
21
79.024097
0
LINE
8
Calque 1
10
5.337126
20
79.024097
11
5.362109
21
79.011694
0
LINE
8
Calque 1
10
5.362109
20
79.011694
11
5.387091
21
78.999290
0
LINE
8
Calque 1
10
5.387091
20
78.999290
11
5.412073
21
78.980683
0
LINE
8
Calque 1
10
5.412073
20
78.980683
11
5.434298
21
78.962076
0
LINE
8
Calque 1
10
5.434298
20
78.962076
11
5.474531
21
78.937266
0
LINE
8
Calque 1
10
5.474531
20
78.937266
11
5.514764
21
78.912456
0
LINE
8
Calque 1
10
5.514764
20
78.912456
11
5.536989
21
78.900052
0
LINE
8
Calque 1
10
5.536989
20
78.900052
11
5.555725
21
78.887646
0
LINE
8
Calque 1
10
5.555725
20
78.887646
11
5.574462
21
78.875242
0
LINE
8
Calque 1
10
5.574462
20
78.875242
11
5.593402
21
78.862838
0
LINE
8
Calque 1
10
5.593402
20
78.862838
11
5.799313
21
78.667303
0
LINE
8
Calque 1
10
5.799313
20
78.667303
11
5.824295
21
78.639555
0
LINE
8
Calque 1
10
5.824295
20
78.639555
11
5.849278
21
78.599603
0
LINE
8
Calque 1
10
5.849278
20
78.599603
11
5.868906
21
78.577533
0
LINE
8
Calque 1
10
5.868906
20
78.577533
11
5.924226
21
78.519135
0
LINE
8
Calque 1
10
5.924226
20
78.519135
11
5.949208
21
78.478297
0
LINE
8
Calque 1
10
5.949208
20
78.478297
11
5.974191
21
78.438344
0
LINE
8
Calque 1
10
5.974191
20
78.438344
11
5.986682
21
78.416274
0
LINE
8
Calque 1
10
5.986682
20
78.416274
11
5.999173
21
78.391464
0
LINE
8
Calque 1
10
5.999173
20
78.391464
11
6.011664
21
78.366654
0
LINE
8
Calque 1
10
6.011664
20
78.366654
11
6.024155
21
78.335643
0
LINE
8
Calque 1
10
6.024155
20
78.335643
11
6.036646
21
78.304631
0
LINE
8
Calque 1
10
6.036646
20
78.304631
11
6.049137
21
78.267417
0
LINE
8
Calque 1
10
6.049137
20
78.267417
11
6.061628
21
78.230204
0
LINE
8
Calque 1
10
6.061628
20
78.230204
11
6.074120
21
78.192990
0
LINE
8
Calque 1
10
6.074120
20
78.192990
11
6.086611
21
78.155776
0
LINE
8
Calque 1
10
6.086611
20
78.155776
11
6.099102
21
78.106158
0
LINE
8
Calque 1
10
6.099102
20
78.106158
11
6.111593
21
78.056539
0
LINE
8
Calque 1
10
6.111593
20
78.056539
11
6.124084
21
77.647187
0
LINE
8
Calque 1
10
6.124084
20
77.647187
11
6.124090
21
77.237900
0
LINE
8
Calque 1
10
6.124090
20
77.237900
11
6.255250
21
77.237900
0
LINE
8
Calque 1
10
6.255250
20
77.237900
11
6.386412
21
77.250304
0
LINE
8
Calque 1
10
6.386412
20
77.250304
11
6.423887
21
77.262707
0
LINE
8
Calque 1
10
6.423887
20
77.262707
11
6.461362
21
77.275111
0
LINE
8
Calque 1
10
6.461362
20
77.275111
11
6.505083
21
77.287518
0
LINE
8
Calque 1
10
6.505083
20
77.287518
11
6.548804
21
77.299921
0
LINE
8
Calque 1
10
6.548804
20
77.299921
11
6.573786
21
77.312325
0
LINE
8
Calque 1
10
6.573786
20
77.312325
11
6.598768
21
77.324731
0
LINE
8
Calque 1
10
6.598768
20
77.324731
11
6.623750
21
77.337135
0
LINE
8
Calque 1
10
6.623750
20
77.337135
11
6.648733
21
77.349539
0
LINE
8
Calque 1
10
6.648733
20
77.349539
11
6.668361
21
77.361943
0
LINE
8
Calque 1
10
6.668361
20
77.361943
11
6.723681
21
77.416877
0
LINE
8
Calque 1
10
6.723681
20
77.416877
11
6.745906
21
77.436370
0
LINE
8
Calque 1
10
6.745906
20
77.436370
11
6.786139
21
77.461181
0
LINE
8
Calque 1
10
6.786139
20
77.461181
11
6.817368
21
77.485988
0
LINE
8
Calque 1
10
6.817368
20
77.485988
11
6.848598
21
77.510798
0
LINE
8
Calque 1
10
6.848598
20
77.510798
11
6.883477
21
77.535608
0
LINE
8
Calque 1
10
6.883477
20
77.535608
11
6.936039
21
77.585227
0
LINE
8
Calque 1
10
6.936039
20
77.585227
11
6.979435
21
77.634845
0
LINE
8
Calque 1
10
6.979435
20
77.634845
11
7.048464
21
77.721113
0
LINE
8
Calque 1
10
7.048464
20
77.721113
11
7.060955
21
77.746485
0
LINE
8
Calque 1
10
7.060955
20
77.746485
11
7.073446
21
77.768555
0
LINE
8
Calque 1
10
7.073446
20
77.768555
11
7.098429
21
77.808507
0
LINE
8
Calque 1
10
7.098429
20
77.808507
11
7.123411
21
77.860864
0
LINE
8
Calque 1
10
7.123411
20
77.860864
11
7.142148
21
77.895340
0
LINE
8
Calque 1
10
7.142148
20
77.895340
11
7.160884
21
77.920150
0
LINE
8
Calque 1
10
7.160884
20
77.920150
11
7.173375
21
77.944960
0
LINE
8
Calque 1
10
7.173375
20
77.944960
11
7.185866
21
78.000781
0
LINE
8
Calque 1
10
7.185866
20
78.000781
11
7.198358
21
78.056602
0
LINE
8
Calque 1
10
7.198358
20
78.056602
11
7.210849
21
78.131029
0
LINE
8
Calque 1
10
7.210849
20
78.131029
11
7.223340
21
78.205457
0
LINE
8
Calque 1
10
7.223340
20
78.205457
11
7.235831
21
78.298491
0
LINE
8
Calque 1
10
7.235831
20
78.298491
11
7.223340
21
78.391526
0
LINE
8
Calque 1
10
7.223340
20
78.391526
11
7.210849
21
78.472156
0
LINE
8
Calque 1
10
7.210849
20
78.472156
11
7.198358
21
78.552786
0
LINE
8
Calque 1
10
7.198358
20
78.552786
11
7.185866
21
78.602404
0
LINE
8
Calque 1
10
7.185866
20
78.602404
11
7.173375
21
78.652023
0
LINE
8
Calque 1
10
7.173375
20
78.652023
11
7.160884
21
78.683034
0
LINE
8
Calque 1
10
7.160884
20
78.683034
11
7.142148
21
78.714046
0
LINE
8
Calque 1
10
7.142148
20
78.714046
11
7.123411
21
78.738856
0
LINE
8
Calque 1
10
7.123411
20
78.738856
11
7.110920
21
78.763666
0
LINE
8
Calque 1
10
7.110920
20
78.763666
11
7.098429
21
78.788476
0
LINE
8
Calque 1
10
7.098429
20
78.788476
11
7.085938
21
78.813286
0
LINE
8
Calque 1
10
7.085938
20
78.813286
11
7.073446
21
78.838096
0
LINE
8
Calque 1
10
7.073446
20
78.838096
11
7.060955
21
78.862906
0
LINE
8
Calque 1
10
7.060955
20
78.862906
11
7.048464
21
78.882078
0
LINE
8
Calque 1
10
7.048464
20
78.882078
11
6.974082
21
78.962144
0
LINE
8
Calque 1
10
6.974082
20
78.962144
11
6.961021
21
78.974818
0
LINE
8
Calque 1
10
6.961021
20
78.974818
11
6.814150
21
79.123404
0
LINE
8
Calque 1
10
6.814150
20
79.123404
11
6.786137
21
79.148214
0
LINE
8
Calque 1
10
6.786137
20
79.148214
11
6.748662
21
79.173025
0
LINE
8
Calque 1
10
6.748662
20
79.173025
11
6.711187
21
79.197835
0
LINE
8
Calque 1
10
6.711187
20
79.197835
11
6.670954
21
79.222645
0
LINE
8
Calque 1
10
6.670954
20
79.222645
11
6.648729
21
79.235048
0
LINE
8
Calque 1
10
6.648729
20
79.235048
11
6.623747
21
79.247452
0
LINE
8
Calque 1
10
6.623747
20
79.247452
11
6.598765
21
79.259859
0
LINE
8
Calque 1
10
6.598765
20
79.259859
11
6.573783
21
79.272262
0
LINE
8
Calque 1
10
6.573783
20
79.272262
11
6.548800
21
79.290869
0
LINE
8
Calque 1
10
6.548800
20
79.290869
11
6.505080
21
79.309476
0
LINE
8
Calque 1
10
6.505080
20
79.309476
11
6.461359
21
79.321880
0
LINE
8
Calque 1
10
6.461359
20
79.321880
11
6.411392
21
79.334284
0
LINE
8
Calque 1
10
6.411392
20
79.334284
11
6.361425
21
79.346687
0
LINE
8
Calque 1
10
6.361425
20
79.346687
11
6.286475
21
79.359091
0
LINE
8
Calque 1
10
6.286475
20
79.359091
11
6.211525
21
79.371495
0
LINE
8
Calque 1
10
6.211525
20
79.371495
11
6.030396
21
79.383898
0
LINE
8
Calque 1
10
6.030396
20
79.383898
11
5.849267
21
79.396302
0
LINE
8
Calque 1
10
5.849267
20
79.396302
11
5.680629
21
79.408706
0
LINE
8
Calque 1
10
5.680629
20
79.408706
11
5.511992
21
79.421109
0
LINE
8
Calque 1
10
5.511992
20
79.421109
11
5.343355
21
79.433513
0
LINE
8
Calque 1
10
5.343355
20
79.433513
11
5.174717
21
79.445917
0
LINE
8
Calque 1
10
5.174717
20
79.445917
11
5.006080
21
79.458321
0
LINE
8
Calque 1
10
5.006080
20
79.458321
11
4.837442
21
79.470727
0
LINE
8
Calque 1
10
4.837442
20
79.470727
11
4.712525
21
79.483131
0
LINE
8
Calque 1
10
4.712525
20
79.483131
11
4.587608
21
79.495534
0
LINE
8
Calque 1
10
4.587608
20
79.495534
11
4.537642
21
79.507941
0
LINE
8
Calque 1
10
4.537642
20
79.507941
11
4.487675
21
79.520345
0
LINE
8
Calque 1
10
4.487675
20
79.520345
11
4.437708
21
79.532748
0
LINE
8
Calque 1
10
4.437708
20
79.532748
11
4.387742
21
79.545152
0
LINE
8
Calque 1
10
4.387742
20
79.545152
11
4.362759
21
79.557556
0
LINE
8
Calque 1
10
4.362759
20
79.557556
11
4.337777
21
79.576163
0
LINE
8
Calque 1
10
4.337777
20
79.576163
11
4.294056
21
79.594770
0
LINE
8
Calque 1
10
4.294056
20
79.594770
11
4.250335
21
79.613376
0
LINE
8
Calque 1
10
4.250335
20
79.613376
11
4.225353
21
79.631983
0
LINE
8
Calque 1
10
4.225353
20
79.631983
11
4.200371
21
79.644390
0
LINE
8
Calque 1
10
4.200371
20
79.644390
11
4.175388
21
79.656794
0
LINE
8
Calque 1
10
4.175388
20
79.656794
11
4.150403
21
79.669197
0
LINE
8
Calque 1
10
4.150403
20
79.669197
11
4.128178
21
79.681604
0
LINE
8
Calque 1
10
4.128178
20
79.681604
11
4.087946
21
79.706414
0
LINE
8
Calque 1
10
4.087946
20
79.706414
11
4.050471
21
79.731224
0
LINE
8
Calque 1
10
4.050471
20
79.731224
11
4.012996
21
79.756034
0
LINE
8
Calque 1
10
4.012996
20
79.756034
11
3.984275
21
79.780844
0
LINE
8
Calque 1
10
3.984275
20
79.780844
11
3.925554
21
79.830463
0
LINE
8
Calque 1
10
3.925554
20
79.830463
11
3.863183
21
79.880081
0
LINE
8
Calque 1
10
3.863183
20
79.880081
11
3.813129
21
79.935429
0
LINE
8
Calque 1
10
3.813129
20
79.935429
11
3.713612
21
80.041341
0
LINE
8
Calque 1
10
3.713612
20
80.041341
11
3.700706
21
80.060834
0
LINE
8
Calque 1
10
3.700706
20
80.060834
11
3.651632
21
80.115769
0
LINE
8
Calque 1
10
3.651632
20
80.115769
11
3.638246
21
80.140579
0
LINE
8
Calque 1
10
3.638246
20
80.140579
11
3.625755
21
80.165389
0
LINE
8
Calque 1
10
3.625755
20
80.165389
11
3.613264
21
80.190199
0
LINE
8
Calque 1
10
3.613264
20
80.190199
11
3.600773
21
80.215009
0
LINE
8
Calque 1
10
3.600773
20
80.215009
11
3.588282
21
80.246021
0
LINE
8
Calque 1
10
3.588282
20
80.246021
11
3.575791
21
80.277032
0
LINE
8
Calque 1
10
3.575791
20
80.277032
11
3.563300
21
80.301842
0
LINE
8
Calque 1
10
3.563300
20
80.301842
11
3.550809
21
80.326652
0
LINE
8
Calque 1
10
3.550809
20
80.326652
11
3.538318
21
80.351462
0
LINE
8
Calque 1
10
3.538318
20
80.351462
11
3.525826
21
80.376272
0
LINE
8
Calque 1
10
3.525826
20
80.376272
11
3.513335
21
80.413487
0
LINE
8
Calque 1
10
3.513335
20
80.413487
11
3.500844
21
80.450700
0
LINE
8
Calque 1
10
3.500844
20
80.450700
11
3.488353
21
80.506521
0
LINE
8
Calque 1
10
3.488353
20
80.506521
11
3.475862
21
80.562342
0
LINE
8
Calque 1
10
3.475862
20
80.562342
11
3.463371
21
80.642972
0
LINE
8
Calque 1
10
3.463371
20
80.642972
11
3.450880
21
80.723602
0
LINE
8
Calque 1
10
3.450880
20
80.723602
11
3.438389
21
80.878660
0
LINE
8
Calque 1
10
3.438389
20
80.878660
11
3.450880
21
81.033718
0
LINE
8
Calque 1
10
3.450880
20
81.033718
11
3.463371
21
81.114348
0
LINE
8
Calque 1
10
3.463371
20
81.114348
11
3.475862
21
81.194978
0
LINE
8
Calque 1
10
3.475862
20
81.194978
11
3.488353
21
81.244596
0
LINE
8
Calque 1
10
3.488353
20
81.244596
11
3.500844
21
81.294214
0
LINE
8
Calque 1
10
3.500844
20
81.294214
11
3.513335
21
81.331428
0
LINE
8
Calque 1
10
3.513335
20
81.331428
11
3.525826
21
81.368642
0
LINE
8
Calque 1
10
3.525826
20
81.368642
11
3.538318
21
81.393451
0
LINE
8
Calque 1
10
3.538318
20
81.393451
11
3.550809
21
81.418260
0
LINE
8
Calque 1
10
3.550809
20
81.418260
11
3.563300
21
81.443070
0
LINE
8
Calque 1
10
3.563300
20
81.443070
11
3.575791
21
81.467879
0
LINE
8
Calque 1
10
3.575791
20
81.467879
11
3.588282
21
81.498890
0
LINE
8
Calque 1
10
3.588282
20
81.498890
11
3.600773
21
81.529902
0
LINE
8
Calque 1
10
3.600773
20
81.529902
11
3.613264
21
81.554711
0
LINE
8
Calque 1
10
3.613264
20
81.554711
11
3.625755
21
81.579520
0
LINE
8
Calque 1
10
3.625755
20
81.579520
11
3.638246
21
81.604330
0
LINE
8
Calque 1
10
3.638246
20
81.604330
11
3.651632
21
81.629139
0
LINE
8
Calque 1
10
3.651632
20
81.629139
11
3.700706
21
81.684074
0
LINE
8
Calque 1
10
3.700706
20
81.684074
11
3.714089
21
81.703567
0
LINE
8
Calque 1
10
3.714089
20
81.703567
11
3.763164
21
81.749561
0
LINE
8
Calque 1
10
3.763164
20
81.749561
11
3.788146
21
81.777994
0
LINE
8
Calque 1
10
3.788146
20
81.777994
11
3.813128
21
81.811744
0
LINE
8
Calque 1
10
3.813128
20
81.811744
11
3.825620
21
81.827612
0
LINE
8
Calque 1
10
3.825620
20
81.827612
11
3.838111
21
81.847105
0
LINE
8
Calque 1
10
3.838111
20
81.847105
11
3.888419
21
81.902040
0
LINE
8
Calque 1
10
3.888419
20
81.902040
11
3.938044
21
81.939253
0
LINE
8
Calque 1
10
3.938044
20
81.939253
11
3.986776
21
81.976467
0
LINE
8
Calque 1
10
3.986776
20
81.976467
11
4.000501
21
81.988870
0
LINE
8
Calque 1
10
4.000501
20
81.988870
11
4.022726
21
82.001273
0
LINE
8
Calque 1
10
4.022726
20
82.001273
11
4.062959
21
82.026083
0
LINE
8
Calque 1
10
4.062959
20
82.026083
11
4.100433
21
82.050892
0
LINE
8
Calque 1
10
4.100433
20
82.050892
11
4.137908
21
82.075701
0
LINE
8
Calque 1
10
4.137908
20
82.075701
11
4.178141
21
82.100510
0
LINE
8
Calque 1
10
4.178141
20
82.100510
11
4.200366
21
82.119117
0
LINE
8
Calque 1
10
4.200366
20
82.119117
11
4.237841
21
82.137724
0
LINE
8
Calque 1
10
4.237841
20
82.137724
11
4.275316
21
82.150127
0
LINE
8
Calque 1
10
4.275316
20
82.150127
11
4.306545
21
82.162530
0
LINE
8
Calque 1
10
4.306545
20
82.162530
11
4.337774
21
82.174933
0
LINE
8
Calque 1
10
4.337774
20
82.174933
11
4.362756
21
82.187337
0
LINE
8
Calque 1
10
4.362756
20
82.187337
11
4.387739
21
82.199740
0
LINE
8
Calque 1
10
4.387739
20
82.199740
11
4.437705
21
82.212143
0
LINE
8
Calque 1
10
4.437705
20
82.212143
11
4.487672
21
82.224546
0
LINE
8
Calque 1
10
4.487672
20
82.224546
11
4.556376
21
82.236950
0
LINE
8
Calque 1
10
4.556376
20
82.236950
11
4.625080
21
82.249355
0
LINE
8
Calque 1
10
4.625080
20
82.249355
11
5.611921
21
82.261759
0
LINE
8
Calque 1
10
5.611921
20
82.261759
11
6.598770
21
82.261700
0
LINE
8
Calque 1
10
6.598770
20
82.261700
11
6.598770
21
82.057000
0
LINE
8
Calque 1
10
6.598770
20
82.057000
11
6.611261
21
81.852324
0
LINE
8
Calque 1
10
6.611261
20
81.852324
11
6.623752
21
81.808908
0
LINE
8
Calque 1
10
6.623752
20
81.808908
11
6.636243
21
81.765492
0
LINE
8
Calque 1
10
6.636243
20
81.765492
11
6.648734
21
81.722076
0
LINE
8
Calque 1
10
6.648734
20
81.722076
11
6.661226
21
81.678660
0
LINE
8
Calque 1
10
6.661226
20
81.678660
11
6.673717
21
81.653851
0
LINE
8
Calque 1
10
6.673717
20
81.653851
11
6.686208
21
81.629041
0
LINE
8
Calque 1
10
6.686208
20
81.629041
11
6.698699
21
81.606971
0
LINE
8
Calque 1
10
6.698699
20
81.606971
11
6.723681
21
81.567018
0
LINE
8
Calque 1
10
6.723681
20
81.567018
11
6.748663
21
81.527066
0
LINE
8
Calque 1
10
6.748663
20
81.527066
11
6.761154
21
81.504995
0
LINE
8
Calque 1
10
6.761154
20
81.504995
11
6.773646
21
81.491705
0
LINE
8
Calque 1
10
6.773646
20
81.491705
11
6.817285
21
81.442973
0
LINE
8
Calque 1
10
6.817285
20
81.442973
11
6.886070
21
81.380950
0
LINE
8
Calque 1
10
6.886070
20
81.380950
11
6.969944
21
81.318927
0
LINE
8
Calque 1
10
6.969944
20
81.318927
11
7.010987
21
81.294118
0
LINE
8
Calque 1
10
7.010987
20
81.294118
11
7.051220
21
81.269308
0
LINE
8
Calque 1
10
7.051220
20
81.269308
11
7.073445
21
81.256905
0
LINE
8
Calque 1
10
7.073445
20
81.256905
11
7.098427
21
81.244502
0
LINE
8
Calque 1
10
7.098427
20
81.244502
11
7.123409
21
81.232099
0
LINE
8
Calque 1
10
7.123409
20
81.232099
11
7.167130
21
81.219696
0
LINE
8
Calque 1
10
7.167130
20
81.219696
11
7.210851
21
81.207293
0
LINE
8
Calque 1
10
7.210851
20
81.207293
11
7.248326
21
81.194890
0
LINE
8
Calque 1
10
7.248326
20
81.194890
11
7.285800
21
81.176283
0
LINE
8
Calque 1
10
7.285800
20
81.176283
11
7.491913
21
81.157676
0
LINE
8
Calque 1
10
7.491913
20
81.157676
11
7.698025
21
81.176283
0
LINE
8
Calque 1
10
7.698025
20
81.176283
11
7.754238
21
81.194890
0
LINE
8
Calque 1
10
7.754238
20
81.194890
11
7.810450
21
81.207293
0
LINE
8
Calque 1
10
7.810450
20
81.207293
11
7.835433
21
81.219696
0
LINE
8
Calque 1
10
7.835433
20
81.219696
11
7.860415
21
81.232099
0
LINE
8
Calque 1
10
7.860415
20
81.232099
11
7.885397
21
81.244502
0
LINE
8
Calque 1
10
7.885397
20
81.244502
11
7.910379
21
81.256905
0
LINE
8
Calque 1
10
7.910379
20
81.256905
11
7.935362
21
81.269308
0
LINE
8
Calque 1
10
7.935362
20
81.269308
11
7.960344
21
81.281711
0
LINE
8
Calque 1
10
7.960344
20
81.281711
11
7.982569
21
81.294114
0
LINE
8
Calque 1
10
7.982569
20
81.294114
11
8.022801
21
81.318924
0
LINE
8
Calque 1
10
8.022801
20
81.318924
11
8.056788
21
81.343733
0
LINE
8
Calque 1
10
8.056788
20
81.343733
11
8.072768
21
81.356138
0
LINE
8
Calque 1
10
8.072768
20
81.356138
11
8.085589
21
81.368541
0
LINE
8
Calque 1
10
8.085589
20
81.368541
11
8.210177
21
81.489522
0
LINE
8
Calque 1
10
8.210177
20
81.489522
11
8.235159
21
81.517396
0
LINE
8
Calque 1
10
8.235159
20
81.517396
11
8.260142
21
81.557348
0
LINE
8
Calque 1
10
8.260142
20
81.557348
11
8.272633
21
81.579419
0
LINE
8
Calque 1
10
8.272633
20
81.579419
11
8.285124
21
81.604228
0
LINE
8
Calque 1
10
8.285124
20
81.604228
11
8.297615
21
81.629037
0
LINE
8
Calque 1
10
8.297615
20
81.629037
11
8.310106
21
81.653847
0
LINE
8
Calque 1
10
8.310106
20
81.653847
11
8.322597
21
81.678656
0
LINE
8
Calque 1
10
8.322597
20
81.678656
11
8.335088
21
81.703465
0
LINE
8
Calque 1
10
8.335088
20
81.703465
11
8.347579
21
81.728274
0
LINE
8
Calque 1
10
8.347579
20
81.728274
11
8.360070
21
81.777893
0
LINE
8
Calque 1
10
8.360070
20
81.777893
11
8.372562
21
81.827511
0
LINE
8
Calque 1
10
8.372562
20
81.827511
11
8.385053
21
81.889534
0
LINE
8
Calque 1
10
8.385053
20
81.889534
11
8.403789
21
81.951557
0
LINE
8
Calque 1
10
8.403789
20
81.951557
11
8.422526
21
82.106615
0
LINE
8
Calque 1
10
8.422526
20
82.106615
11
8.422520
21
82.261700
0
LINE
8
Calque 1
10
8.422520
20
82.261700
11
8.628640
21
82.261700
0
LINE
8
Calque 1
10
8.628640
20
82.261700
11
8.834750
21
82.261700
0
LINE
8
Calque 1
10
8.834750
20
82.261700
11
8.834750
21
81.709700
0
LINE
8
Calque 1
10
8.834750
20
81.709700
11
8.822259
21
81.157695
0
LINE
8
Calque 1
10
8.822259
20
81.157695
11
8.809768
21
81.095672
0
LINE
8
Calque 1
10
8.809768
20
81.095672
11
8.797277
21
81.033649
0
LINE
8
Calque 1
10
8.797277
20
81.033649
11
8.784786
21
80.996435
0
LINE
8
Calque 1
10
8.784786
20
80.996435
11
8.772294
21
80.959221
0
LINE
8
Calque 1
10
8.772294
20
80.959221
11
8.759803
21
80.922007
0
LINE
8
Calque 1
10
8.759803
20
80.922007
11
8.747312
21
80.884794
0
LINE
8
Calque 1
10
8.747312
20
80.884794
11
8.734821
21
80.853782
0
LINE
8
Calque 1
10
8.734821
20
80.853782
11
8.716084
21
80.822771
0
LINE
8
Calque 1
10
8.716084
20
80.822771
11
8.697348
21
80.797961
0
LINE
8
Calque 1
10
8.697348
20
80.797961
11
8.684857
21
80.773151
0
LINE
8
Calque 1
10
8.684857
20
80.773151
11
8.672366
21
80.748341
0
LINE
8
Calque 1
10
8.672366
20
80.748341
11
8.659874
21
80.723531
0
LINE
8
Calque 1
10
8.659874
20
80.723531
11
8.647383
21
80.698720
0
LINE
8
Calque 1
10
8.647383
20
80.698720
11
8.634892
21
80.673910
0
LINE
8
Calque 1
10
8.634892
20
80.673910
11
8.622401
21
80.655303
0
LINE
8
Calque 1
10
8.622401
20
80.655303
11
8.609910
21
80.636697
0
LINE
8
Calque 1
10
8.609910
20
80.636697
11
8.597419
21
80.614627
0
LINE
8
Calque 1
10
8.597419
20
80.614627
11
8.572437
21
80.574674
0
LINE
8
Calque 1
10
8.572437
20
80.574674
11
8.547452
21
80.546856
0
LINE
8
Calque 1
10
8.547452
20
80.546856
11
8.403259
21
80.401009
0
LINE
8
Calque 1
10
8.403259
20
80.401009
11
8.335094
21
80.338986
0
LINE
8
Calque 1
10
8.335094
20
80.338986
11
8.254709
21
80.276963
0
LINE
8
Calque 1
10
8.254709
20
80.276963
11
8.235160
21
80.264559
0
LINE
8
Calque 1
10
8.235160
20
80.264559
11
8.210177
21
80.252153
0
LINE
8
Calque 1
10
8.210177
20
80.252153
11
8.185195
21
80.238863
0
LINE
8
Calque 1
10
8.185195
20
80.238863
11
8.129875
21
80.190130
0
LINE
8
Calque 1
10
8.129875
20
80.190130
11
8.110243
21
80.177726
0
LINE
8
Calque 1
10
8.110243
20
80.177726
11
8.072769
21
80.165320
0
LINE
8
Calque 1
10
8.072769
20
80.165320
11
8.035294
21
80.152916
0
LINE
8
Calque 1
10
8.035294
20
80.152916
11
7.997819
21
80.140512
0
LINE
8
Calque 1
10
7.997819
20
80.140512
11
7.960344
21
80.128106
0
LINE
8
Calque 1
10
7.960344
20
80.128106
11
7.922869
21
80.115702
0
LINE
8
Calque 1
10
7.922869
20
80.115702
11
7.885394
21
80.103299
0
LINE
8
Calque 1
10
7.885394
20
80.103299
11
7.835427
21
80.090892
0
LINE
8
Calque 1
10
7.835427
20
80.090892
11
7.785461
21
80.078488
0
LINE
8
Calque 1
10
7.785461
20
80.078488
11
7.704265
21
80.066085
0
LINE
8
Calque 1
10
7.704265
20
80.066085
11
7.623069
21
80.053681
0
LINE
8
Calque 1
10
7.623069
20
80.053681
11
7.491907
21
80.041274
0
LINE
8
Calque 1
10
7.491907
20
80.041274
11
7.360745
21
80.053681
0
LINE
8
Calque 1
10
7.360745
20
80.053681
11
7.285795
21
80.066085
0
LINE
8
Calque 1
10
7.285795
20
80.066085
11
7.210845
21
80.078488
0
LINE
8
Calque 1
10
7.210845
20
80.078488
11
7.154633
21
80.090892
0
LINE
8
Calque 1
10
7.154633
20
80.090892
11
7.098420
21
80.103299
0
LINE
8
Calque 1
10
7.098420
20
80.103299
11
7.060945
21
80.115702
0
LINE
8
Calque 1
10
7.060945
20
80.115702
11
7.023470
21
80.128106
0
LINE
8
Calque 1
10
7.023470
20
80.128106
11
6.992241
21
80.140512
0
LINE
8
Calque 1
10
6.992241
20
80.140512
11
6.961012
21
80.152916
0
LINE
8
Calque 1
10
6.961012
20
80.152916
11
6.936029
21
80.165320
0
LINE
8
Calque 1
10
6.936029
20
80.165320
11
6.911047
21
80.177726
0
LINE
8
Calque 1
10
6.911047
20
80.177726
11
6.886065
21
80.190130
0
LINE
8
Calque 1
10
6.886065
20
80.190130
11
6.861082
21
80.202534
0
LINE
8
Calque 1
10
6.861082
20
80.202534
11
6.829853
21
80.214940
0
LINE
8
Calque 1
10
6.829853
20
80.214940
11
6.798624
21
80.233547
0
LINE
8
Calque 1
10
6.798624
20
80.233547
11
6.776399
21
80.252154
0
LINE
8
Calque 1
10
6.776399
20
80.252154
11
6.736167
21
80.276964
0
LINE
8
Calque 1
10
6.736167
20
80.276964
11
6.701577
21
80.301774
0
LINE
8
Calque 1
10
6.701577
20
80.301774
11
6.598758
21
80.388606
0
LINE
8
Calque 1
10
6.598758
20
80.388606
11
6.505106
21
80.475439
0
LINE
8
Calque 1
10
6.505106
20
80.475439
11
6.436366
21
80.549302
0
LINE
8
Calque 1
10
6.436366
20
80.549302
11
6.423875
21
80.562271
0
LINE
8
Calque 1
10
6.423875
20
80.562271
11
6.411384
21
80.584340
0
LINE
8
Calque 1
10
6.411384
20
80.584340
11
6.386402
21
80.624293
0
LINE
8
Calque 1
10
6.386402
20
80.624293
11
6.361420
21
80.667709
0
LINE
8
Calque 1
10
6.361420
20
80.667709
11
6.336437
21
80.711125
0
LINE
8
Calque 1
10
6.336437
20
80.711125
11
6.311455
21
80.751077
0
LINE
8
Calque 1
10
6.311455
20
80.751077
11
6.298964
21
80.773147
0
LINE
8
Calque 1
10
6.298964
20
80.773147
11
6.286473
21
80.797957
0
LINE
8
Calque 1
10
6.286473
20
80.797957
11
6.273982
21
80.822767
0
LINE
8
Calque 1
10
6.273982
20
80.822767
11
6.261491
21
80.866183
0
LINE
8
Calque 1
10
6.261491
20
80.866183
11
6.248999
21
80.909599
0
LINE
8
Calque 1
10
6.248999
20
80.909599
11
6.236508
21
80.946813
0
LINE
8
Calque 1
10
6.236508
20
80.946813
11
6.224017
21
80.984027
0
LINE
8
Calque 1
10
6.224017
20
80.984027
11
6.211526
21
81.021241
0
LINE
8
Calque 1
10
6.211526
20
81.021241
11
6.192789
21
81.058455
0
LINE
8
Calque 1
10
6.192789
20
81.058455
11
6.174053
21
81.126680
0
LINE
8
Calque 1
10
6.174053
20
81.126680
11
6.161562
21
81.194905
0
LINE
8
Calque 1
10
6.161562
20
81.194905
11
6.149071
21
81.573246
0
LINE
8
Calque 1
10
6.149071
20
81.573246
11
6.149070
21
81.951600
0
LINE
8
Calque 1
10
6.149070
20
81.951600
11
6.061620
21
81.951600
0
LINE
8
Calque 1
10
6.061620
20
81.951600
11
5.974178
21
81.939197
0
LINE
8
Calque 1
10
5.974178
20
81.939197
11
5.911720
21
81.926792
0
LINE
8
Calque 1
10
5.911720
20
81.926792
11
5.849262
21
81.914389
0
LINE
8
Calque 1
10
5.849262
20
81.914389
11
5.811787
21
81.901986
0
LINE
8
Calque 1
10
5.811787
20
81.901986
11
5.774312
21
81.889583
0
LINE
8
Calque 1
10
5.774312
20
81.889583
11
5.736837
21
81.877179
0
LINE
8
Calque 1
10
5.736837
20
81.877179
11
5.699362
21
81.864776
0
LINE
8
Calque 1
10
5.699362
20
81.864776
11
5.674380
21
81.852373
0
LINE
8
Calque 1
10
5.674380
20
81.852373
11
5.649397
21
81.839970
0
LINE
8
Calque 1
10
5.649397
20
81.839970
11
5.624415
21
81.827567
0
LINE
8
Calque 1
10
5.624415
20
81.827567
11
5.599433
21
81.814277
0
LINE
8
Calque 1
10
5.599433
20
81.814277
11
5.537867
21
81.765545
0
LINE
8
Calque 1
10
5.537867
20
81.765545
11
5.511990
21
81.752576
0
LINE
8
Calque 1
10
5.511990
20
81.752576
11
5.437279
21
81.678712
0
LINE
8
Calque 1
10
5.437279
20
81.678712
11
5.312123
21
81.551529
0
LINE
8
Calque 1
10
5.312123
20
81.551529
11
5.287141
21
81.517453
0
LINE
8
Calque 1
10
5.287141
20
81.517453
11
5.262159
21
81.471298
0
LINE
8
Calque 1
10
5.262159
20
81.471298
11
5.248776
21
81.443025
0
LINE
8
Calque 1
10
5.248776
20
81.443025
11
5.199701
21
81.388090
0
LINE
8
Calque 1
10
5.199701
20
81.388090
11
5.187210
21
81.368598
0
LINE
8
Calque 1
10
5.187210
20
81.368598
11
5.174719
21
81.343788
0
LINE
8
Calque 1
10
5.174719
20
81.343788
11
5.162228
21
81.318979
0
LINE
8
Calque 1
10
5.162228
20
81.318979
11
5.149737
21
81.294170
0
LINE
8
Calque 1
10
5.149737
20
81.294170
11
5.137246
21
81.269361
0
LINE
8
Calque 1
10
5.137246
20
81.269361
11
5.124755
21
81.232147
0
LINE
8
Calque 1
10
5.124755
20
81.232147
11
5.112263
21
81.194933
0
LINE
8
Calque 1
10
5.112263
20
81.194933
11
5.099772
21
81.139112
0
LINE
8
Calque 1
10
5.099772
20
81.139112
11
5.087281
21
81.083292
0
LINE
8
Calque 1
10
5.087281
20
81.083292
11
5.074790
21
80.878616
0
LINE
8
Calque 1
10
5.074790
20
80.878616
11
5.087281
21
80.673940
0
LINE
8
Calque 1
10
5.087281
20
80.673940
11
5.099772
21
80.618119
0
LINE
8
Calque 1
10
5.099772
20
80.618119
11
5.112263
21
80.562298
0
LINE
8
Calque 1
10
5.112263
20
80.562298
11
5.124755
21
80.518882
0
LINE
8
Calque 1
10
5.124755
20
80.518882
11
5.137246
21
80.475466
0
LINE
8
Calque 1
10
5.137246
20
80.475466
11
5.149737
21
80.450656
0
LINE
8
Calque 1
10
5.149737
20
80.450656
11
5.162228
21
80.425846
0
LINE
8
Calque 1
10
5.162228
20
80.425846
11
5.174719
21
80.401036
0
LINE
8
Calque 1
10
5.174719
20
80.401036
11
5.187210
21
80.376226
0
LINE
8
Calque 1
10
5.187210
20
80.376226
11
5.199701
21
80.356733
0
LINE
8
Calque 1
10
5.199701
20
80.356733
11
5.248776
21
80.301798
0
LINE
8
Calque 1
10
5.248776
20
80.301798
11
5.262159
21
80.276988
0
LINE
8
Calque 1
10
5.262159
20
80.276988
11
5.274650
21
80.252178
0
LINE
8
Calque 1
10
5.274650
20
80.252178
11
5.287141
21
80.236311
0
LINE
8
Calque 1
10
5.287141
20
80.236311
11
5.312123
21
80.202561
0
LINE
8
Calque 1
10
5.312123
20
80.202561
11
5.337105
21
80.168398
0
LINE
8
Calque 1
10
5.337105
20
80.168398
11
5.437856
21
80.066111
0
LINE
8
Calque 1
10
5.437856
20
80.066111
11
5.487005
21
80.028897
0
LINE
8
Calque 1
10
5.487005
20
80.028897
11
5.545472
21
79.991683
0
LINE
8
Calque 1
10
5.545472
20
79.991683
11
5.586939
21
79.966873
0
LINE
8
Calque 1
10
5.586939
20
79.966873
11
5.627171
21
79.942063
0
LINE
8
Calque 1
10
5.627171
20
79.942063
11
5.649396
21
79.923456
0
LINE
8
Calque 1
10
5.649396
20
79.923456
11
5.674378
21
79.904849
0
LINE
8
Calque 1
10
5.674378
20
79.904849
11
5.699361
21
79.892445
0
LINE
8
Calque 1
10
5.699361
20
79.892445
11
5.736836
21
79.880042
0
LINE
8
Calque 1
10
5.736836
20
79.880042
11
5.774311
21
79.867638
0
LINE
8
Calque 1
10
5.774311
20
79.867638
11
5.811786
21
79.855234
0
LINE
8
Calque 1
10
5.811786
20
79.855234
11
5.849261
21
79.842828
0
LINE
8
Calque 1
10
5.849261
20
79.842828
11
5.911719
21
79.830424
0
LINE
8
Calque 1
10
5.911719
20
79.830424
11
5.974177
21
79.818018
0
LINE
8
Calque 1
10
5.974177
20
79.818018
11
6.117831
21
79.805614
0
LINE
8
Calque 1
10
6.117831
20
79.805614
11
6.261485
21
79.793210
0
LINE
8
Calque 1
10
6.261485
20
79.793210
11
6.430123
21
79.780807
0
LINE
8
Calque 1
10
6.430123
20
79.780807
11
6.598760
21
79.768403
0
LINE
8
Calque 1
10
6.598760
20
79.768403
11
6.754906
21
79.755999
0
LINE
8
Calque 1
10
6.754906
20
79.755999
11
6.911052
21
79.743595
0
LINE
8
Calque 1
10
6.911052
20
79.743595
11
7.073444
21
79.731189
0
LINE
8
Calque 1
10
7.073444
20
79.731189
11
7.235835
21
79.718785
0
LINE
8
Calque 1
10
7.235835
20
79.718785
11
7.391981
21
79.706382
0
LINE
8
Calque 1
10
7.391981
20
79.706382
11
7.548127
21
79.693978
0
LINE
8
Calque 1
10
7.548127
20
79.693978
11
7.648061
21
79.681574
0
LINE
8
Calque 1
10
7.648061
20
79.681574
11
7.747994
21
79.669168
0
LINE
8
Calque 1
10
7.747994
20
79.669168
11
7.791715
21
79.656764
0
LINE
8
Calque 1
10
7.791715
20
79.656764
11
7.835435
21
79.644360
0
LINE
8
Calque 1
10
7.835435
20
79.644360
11
7.872910
21
79.631957
0
LINE
8
Calque 1
10
7.872910
20
79.631957
11
7.910385
21
79.613350
0
LINE
8
Calque 1
10
7.910385
20
79.613350
11
7.947860
21
79.594743
0
LINE
8
Calque 1
10
7.947860
20
79.594743
11
7.985335
21
79.576136
0
LINE
8
Calque 1
10
7.985335
20
79.576136
11
8.010317
21
79.557529
0
LINE
8
Calque 1
10
8.010317
20
79.557529
11
8.035300
21
79.545125
0
LINE
8
Calque 1
10
8.035300
20
79.545125
11
8.072775
21
79.532722
0
LINE
8
Calque 1
10
8.072775
20
79.532722
11
8.110250
21
79.520315
0
LINE
8
Calque 1
10
8.110250
20
79.520315
11
8.132475
21
79.507911
0
LINE
8
Calque 1
10
8.132475
20
79.507911
11
8.172707
21
79.483101
0
LINE
8
Calque 1
10
8.172707
20
79.483101
11
8.212940
21
79.458291
0
LINE
8
Calque 1
10
8.212940
20
79.458291
11
8.235165
21
79.445887
0
LINE
8
Calque 1
10
8.235165
20
79.445887
11
8.254714
21
79.433484
0
LINE
8
Calque 1
10
8.254714
20
79.433484
11
8.335099
21
79.371461
0
LINE
8
Calque 1
10
8.335099
20
79.371461
11
8.409238
21
79.309438
0
LINE
8
Calque 1
10
8.409238
20
79.309438
11
8.422539
21
79.296345
0
LINE
8
Calque 1
10
8.422539
20
79.296345
11
8.497489
21
79.210200
0
LINE
8
Calque 1
10
8.497489
20
79.210200
11
8.572439
21
79.120591
0
LINE
8
Calque 1
10
8.572439
20
79.120591
11
8.597421
21
79.086154
0
LINE
8
Calque 1
10
8.597421
20
79.086154
11
8.622404
21
79.046202
0
LINE
8
Calque 1
10
8.622404
20
79.046202
11
8.634895
21
79.024132
0
LINE
8
Calque 1
10
8.634895
20
79.024132
11
8.647386
21
78.995859
0
LINE
8
Calque 1
10
8.647386
20
78.995859
11
8.672368
21
78.949704
0
LINE
8
Calque 1
10
8.672368
20
78.949704
11
8.697350
21
78.897348
0
LINE
8
Calque 1
10
8.697350
20
78.897348
11
8.716087
21
78.862872
0
LINE
8
Calque 1
10
8.716087
20
78.862872
11
8.734824
21
78.838062
0
LINE
8
Calque 1
10
8.734824
20
78.838062
11
8.747315
21
78.813252
0
LINE
8
Calque 1
10
8.747315
20
78.813252
11
8.759806
21
78.788442
0
LINE
8
Calque 1
10
8.759806
20
78.788442
11
8.772297
21
78.763631
0
LINE
8
Calque 1
10
8.772297
20
78.763631
11
8.784788
21
78.707811
0
LINE
8
Calque 1
10
8.784788
20
78.707811
11
8.797279
21
78.651990
0
LINE
8
Calque 1
10
8.797279
20
78.651990
11
8.809770
21
78.589967
0
LINE
8
Calque 1
10
8.809770
20
78.589967
11
8.822261
21
78.527944
0
LINE
8
Calque 1
10
8.822261
20
78.527944
11
8.834753
21
78.304661
0
LINE
8
Calque 1
10
8.834753
20
78.304661
11
8.822261
21
78.081378
0
LINE
8
Calque 1
10
8.822261
20
78.081378
11
8.809770
21
78.013153
0
LINE
8
Calque 1
10
8.809770
20
78.013153
11
8.797279
21
77.944927
0
LINE
8
Calque 1
10
8.797279
20
77.944927
11
8.784788
21
77.895309
0
LINE
8
Calque 1
10
8.784788
20
77.895309
11
8.772297
21
77.845691
0
LINE
8
Calque 1
10
8.772297
20
77.845691
11
8.759806
21
77.820881
0
LINE
8
Calque 1
10
8.759806
20
77.820881
11
8.747315
21
77.796071
0
LINE
8
Calque 1
10
8.747315
20
77.796071
11
8.734824
21
77.752654
0
LINE
8
Calque 1
10
8.734824
20
77.752654
11
8.716087
21
77.709238
0
LINE
8
Calque 1
10
8.716087
20
77.709238
11
8.697350
21
77.684428
0
LINE
8
Calque 1
10
8.697350
20
77.684428
11
8.684859
21
77.659618
0
LINE
8
Calque 1
10
8.684859
20
77.659618
11
8.672368
21
77.637548
0
LINE
8
Calque 1
10
8.672368
20
77.637548
11
8.647386
21
77.597596
0
LINE
8
Calque 1
10
8.647386
20
77.597596
11
8.622404
21
77.560382
0
LINE
8
Calque 1
10
8.622404
20
77.560382
11
8.597421
21
77.523168
0
LINE
8
Calque 1
10
8.597421
20
77.523168
11
8.572439
21
77.485954
0
LINE
8
Calque 1
10
8.572439
20
77.485954
11
8.547457
21
77.448741
0
LINE
8
Calque 1
10
8.547457
20
77.448741
11
8.522474
21
77.413765
0
LINE
8
Calque 1
10
8.522474
20
77.413765
11
8.484999
21
77.361908
0
LINE
8
Calque 1
10
8.484999
20
77.361908
11
8.447524
21
77.307313
0
LINE
8
Calque 1
10
8.447524
20
77.307313
11
8.421729
21
77.287481
0
LINE
8
Calque 1
10
8.421729
20
77.287481
11
8.335099
21
77.225458
0
LINE
8
Calque 1
10
8.335099
20
77.225458
11
8.257471
21
77.163435
0
LINE
8
Calque 1
10
8.257471
20
77.163435
11
8.222674
21
77.138625
0
LINE
8
Calque 1
10
8.222674
20
77.138625
11
8.182441
21
77.113815
0
LINE
8
Calque 1
10
8.182441
20
77.113815
11
8.160216
21
77.095208
0
LINE
8
Calque 1
10
8.160216
20
77.095208
11
8.135234
21
77.076601
0
LINE
8
Calque 1
10
8.135234
20
77.076601
11
8.110251
21
77.064198
0
LINE
8
Calque 1
10
8.110251
20
77.064198
11
8.072777
21
77.051794
0
LINE
8
Calque 1
10
8.072777
20
77.051794
11
8.035301
21
77.039387
0
LINE
8
Calque 1
10
8.035301
20
77.039387
11
8.010319
21
77.026984
0
LINE
8
Calque 1
10
8.010319
20
77.026984
11
7.985337
21
77.014580
0
LINE
8
Calque 1
10
7.985337
20
77.014580
11
7.947862
21
77.002173
0
LINE
8
Calque 1
10
7.947862
20
77.002173
11
7.910387
21
76.989770
0
LINE
8
Calque 1
10
7.910387
20
76.989770
11
7.885405
21
76.977366
0
LINE
8
Calque 1
10
7.885405
20
76.977366
11
7.860420
21
76.964962
0
LINE
8
Calque 1
10
7.860420
20
76.964962
11
7.804207
21
76.952556
0
LINE
8
Calque 1
10
7.804207
20
76.952556
11
7.747995
21
76.940152
0
LINE
8
Calque 1
10
7.747995
20
76.940152
11
7.660553
21
76.927748
0
LINE
8
Calque 1
10
7.660553
20
76.927748
11
7.573112
21
76.915342
0
LINE
8
Calque 1
10
7.573112
20
76.915342
11
6.636238
21
76.902938
0
LINE
8
Calque 1
10
6.636238
20
76.902938
11
5.699410
21
76.903000
0
LINE
8
Calque 1
10
5.699410
20
76.903000
11
5.699410
21
77.070400
0
LINE
8
Calque 1
10
5.699410
20
77.070400
11
5.686919
21
77.237862
0
LINE
8
Calque 1
10
5.686919
20
77.237862
11
5.674428
21
77.299885
0
LINE
8
Calque 1
10
5.674428
20
77.299885
11
5.661937
21
77.361908
0
LINE
8
Calque 1
10
5.661937
20
77.361908
11
5.649446
21
77.411527
0
LINE
8
Calque 1
10
5.649446
20
77.411527
11
5.636954
21
77.461145
0
LINE
8
Calque 1
10
5.636954
20
77.461145
11
5.624463
21
77.485955
0
LINE
8
Calque 1
10
5.624463
20
77.485955
11
5.611972
21
77.510765
0
LINE
8
Calque 1
10
5.611972
20
77.510765
11
5.599481
21
77.535575
0
LINE
8
Calque 1
10
5.599481
20
77.535575
11
5.586990
21
77.560385
0
LINE
8
Calque 1
10
5.586990
20
77.560385
11
5.574499
21
77.585196
0
LINE
8
Calque 1
10
5.574499
20
77.585196
11
5.561116
21
77.610006
0
LINE
8
Calque 1
10
5.561116
20
77.610006
11
5.512041
21
77.662202
0
LINE
8
Calque 1
10
5.512041
20
77.662202
11
5.487059
21
77.696838
0
LINE
8
Calque 1
10
5.487059
20
77.696838
11
5.462077
21
77.724713
0
LINE
8
Calque 1
10
5.462077
20
77.724713
11
5.334001
21
77.845694
0
LINE
8
Calque 1
10
5.334001
20
77.845694
11
5.299685
21
77.870504
0
LINE
8
Calque 1
10
5.299685
20
77.870504
11
5.253207
21
77.895314
0
LINE
8
Calque 1
10
5.253207
20
77.895314
11
5.224735
21
77.907718
0
LINE
8
Calque 1
10
5.224735
20
77.907718
11
5.199753
21
77.920122
0
LINE
8
Calque 1
10
5.199753
20
77.920122
11
5.174771
21
77.932528
0
LINE
8
Calque 1
10
5.174771
20
77.932528
11
5.149788
21
77.944932
0
LINE
8
Calque 1
10
5.149788
20
77.944932
11
5.124803
21
77.957336
0
LINE
8
Calque 1
10
5.124803
20
77.957336
11
5.087328
21
77.969739
0
LINE
8
Calque 1
10
5.087328
20
77.969739
11
5.049854
21
77.982143
0
LINE
8
Calque 1
10
5.049854
20
77.982143
11
4.999887
21
77.994547
0
LINE
8
Calque 1
10
4.999887
20
77.994547
11
4.949920
21
78.006950
0
LINE
8
Calque 1
10
4.949920
20
78.006950
11
4.800020
21
78.019354
0
LINE
8
Calque 1
10
4.800020
20
78.019354
11
4.650120
21
78.006950
0
LINE
8
Calque 1
10
4.650120
20
78.006950
11
4.581416
21
77.994547
0
LINE
8
Calque 1
10
4.581416
20
77.994547
11
4.512712
21
77.982143
0
LINE
8
Calque 1
10
4.512712
20
77.982143
11
4.487730
21
77.969739
0
LINE
8
Calque 1
10
4.487730
20
77.969739
11
4.462747
21
77.957336
0
LINE
8
Calque 1
10
4.462747
20
77.957336
11
4.425273
21
77.944932
0
LINE
8
Calque 1
10
4.425273
20
77.944932
11
4.387798
21
77.932528
0
LINE
8
Calque 1
10
4.387798
20
77.932528
11
4.365573
21
77.920122
0
LINE
8
Calque 1
10
4.365573
20
77.920122
11
4.325340
21
77.895312
0
LINE
8
Calque 1
10
4.325340
20
77.895312
11
4.284836
21
77.870502
0
LINE
8
Calque 1
10
4.284836
20
77.870502
11
4.125474
21
77.727146
0
LINE
8
Calque 1
10
4.125474
20
77.727146
11
4.075507
21
77.672028
0
LINE
8
Calque 1
10
4.075507
20
77.672028
11
4.025540
21
77.604775
0
LINE
8
Calque 1
10
4.025540
20
77.604775
11
4.013049
21
77.585194
0
LINE
8
Calque 1
10
4.013049
20
77.585194
11
4.000558
21
77.560384
0
LINE
8
Calque 1
10
4.000558
20
77.560384
11
3.981821
21
77.535574
0
LINE
8
Calque 1
10
3.981821
20
77.535574
11
3.963085
21
77.510764
0
LINE
8
Calque 1
10
3.963085
20
77.510764
11
3.950594
21
77.485954
0
LINE
8
Calque 1
10
3.950594
20
77.485954
11
3.938102
21
77.436335
0
LINE
8
Calque 1
10
3.938102
20
77.436335
11
3.925611
21
77.386717
0
LINE
8
Calque 1
10
3.925611
20
77.386717
11
3.913120
21
77.349503
0
LINE
8
Calque 1
10
3.913120
20
77.349503
11
3.900629
21
77.312289
0
LINE
8
Calque 1
10
3.900629
20
77.312289
11
3.888138
21
77.107613
0
LINE
8
Calque 1
10
3.888138
20
77.107613
11
3.888140
21
76.903000
0
LINE
8
Calque 1
10
3.888140
20
76.903000
11
3.663290
21
76.903000
0
LINE
8
Calque 1
10
3.663290
20
76.903000
11
3.438440
21
76.903000
0
LINE
8
Calque 1
10
3.438440
20
76.903000
11
3.438410
21
77.423900
 0 
ENDSEC
 0 
EOF