  0
SECTION
  2
HEADER
  9
$ACADVER
  1
AC1015
  9
$ACADMAINTVER
 70
     6
  9
$DWGCODEPAGE
  3
ANSI_1252
  9
$INSBASE
 10
0.0
 20
0.0
 30
0.0
  9
$EXTMIN
 10
-4.0
 20
0.0
 30
0.0
  9
$EXTMAX
 10
4.0
 20
5.5
 30
0.0
  9
$LIMMIN
 10
0.0
 20
0.0
  9
$LIMMAX
 10
12.0
 20
9.0
  9
$ORTHOMODE
 70
     0
  9
$REGENMODE
 70
     1
  9
$FILLMODE
 70
     1
  9
$QTEXTMODE
 70
     0
  9
$MIRRTEXT
 70
     1
  9
$LTSCALE
 40
1.0
  9
$ATTMODE
 70
     1
  9
$TEXTSIZE
 40
0.25
  9
$TRACEWID
 40
0.05
  9
$TEXTSTYLE
  7
Standard
  9
$CLAYER
  8
0
  9
$CELTYPE
  6
ByLayer
  9
$CECOLOR
 62
   256
  9
$CELTSCALE
 40
1.0
  9
$DISPSILH
 70
     0
  9
$DIMSCALE
 40
1.0
  9
$DIMASZ
 40
0.236
  9
$DIMEXO
 40
0.0
  9
$DIMDLI
 40
0.38
  9
$DIMRND
 40
0.0
  9
$DIMDLE
 40
0.0
  9
$DIMEXE
 40
0.039
  9
$DIMTP
 40
0.0
  9
$DIMTM
 40
0.0
  9
$DIMTXT
 40
0.25
  9
$DIMCEN
 40
0.09
  9
$DIMTSZ
 40
0.0
  9
$DIMTOL
 70
     0
  9
$DIMLIM
 70
     0
  9
$DIMTIH
 70
     1
  9
$DIMTOH
 70
     1
  9
$DIMSE1
 70
     0
  9
$DIMSE2
 70
     0
  9
$DIMTAD
 70
     1
  9
$DIMZIN
 70
     0
  9
$DIMBLK
  1

  9
$DIMASO
 70
     1
  9
$DIMSHO
 70
     1
  9
$DIMPOST
  1

  9
$DIMAPOST
  1

  9
$DIMALT
 70
     0
  9
$DIMALTD
 70
     2
  9
$DIMALTF
 40
25.4
  9
$DIMLFAC
 40
1.0
  9
$DIMTOFL
 70
     0
  9
$DIMTVP
 40
0.0
  9
$DIMTIX
 70
     0
  9
$DIMSOXD
 70
     0
  9
$DIMSAH
 70
     0
  9
$DIMBLK1
  1

  9
$DIMBLK2
  1

  9
$DIMSTYLE
  2
Standard
  9
$DIMCLRD
 70
     0
  9
$DIMCLRE
 70
     0
  9
$DIMCLRT
 70
     0
  9
$DIMTFAC
 40
1.0
  9
$DIMGAP
 40
0.06
  9
$DIMJUST
 70
     0
  9
$DIMSD1
 70
     0
  9
$DIMSD2
 70
     0
  9
$DIMTOLJ
 70
     1
  9
$DIMTZIN
 70
     0
  9
$DIMALTZ
 70
     0
  9
$DIMALTTZ
 70
     0
  9
$DIMUPT
 70
     0
  9
$DIMDEC
 70
     2
  9
$DIMTDEC
 70
     2
  9
$DIMALTU
 70
     2
  9
$DIMALTTD
 70
     2
  9
$DIMTXSTY
  7
Standard
  9
$DIMAUNIT
 70
     0
  9
$DIMADEC
 70
     2
  9
$DIMALTRND
 40
0.0
  9
$DIMAZIN
 70
     0
  9
$DIMDSEP
 70
    46
  9
$DIMATFIT
 70
     3
  9
$DIMFRAC
 70
     0
  9
$DIMLDRBLK
  1

  9
$DIMLUNIT
 70
     2
  9
$DIMLWD
 70
    -2
  9
$DIMLWE
 70
    -2
  9
$DIMTMOVE
 70
     0
  9
$LUNITS
 70
     2
  9
$LUPREC
 70
     2
  9
$SKETCHINC
 40
0.1
  9
$FILLETRAD
 40
0.5
  9
$AUNITS
 70
     0
  9
$AUPREC
 70
     2
  9
$MENU
  1
.
  9
$ELEVATION
 40
0.0
  9
$PELEVATION
 40
0.0
  9
$THICKNESS
 40
0.0
  9
$LIMCHECK
 70
     0
  9
$CHAMFERA
 40
0.0
  9
$CHAMFERB
 40
0.0
  9
$CHAMFERC
 40
0.0
  9
$CHAMFERD
 40
0.0
  9
$SKPOLY
 70
     0
  9
$TDCREATE
 40
2459658.693116123
  9
$TDUCREATE
 40
2459658.859782789
  9
$TDUPDATE
 40
2459658.693181875
  9
$TDUUPDATE
 40
2459658.859848542
  9
$TDINDWG
 40
0.0000000116
  9
$TDUSRTIMER
 40
0.0000000116
  9
$USRTIMER
 70
     1
  9
$ANGBASE
 50
0.0
  9
$ANGDIR
 70
     0
  9
$PDMODE
 70
     0
  9
$PDSIZE
 40
-1.0
  9
$PLINEWID
 40
0.0
  9
$SPLFRAME
 70
     0
  9
$SPLINETYPE
 70
     6
  9
$SPLINESEGS
 70
     8
  9
$HANDSEED
  5
94
  9
$SURFTAB1
 70
     6
  9
$SURFTAB2
 70
     6
  9
$SURFTYPE
 70
     6
  9
$SURFU
 70
     6
  9
$SURFV
 70
     6
  9
$UCSBASE
  2

  9
$UCSNAME
  2

  9
$UCSORG
 10
0.0
 20
0.0
 30
0.0
  9
$UCSXDIR
 10
1.0
 20
0.0
 30
0.0
  9
$UCSYDIR
 10
0.0
 20
1.0
 30
0.0
  9
$UCSORTHOREF
  2

  9
$UCSORTHOVIEW
 70
     0
  9
$UCSORGTOP
 10
0.0
 20
0.0
 30
0.0
  9
$UCSORGBOTTOM
 10
0.0
 20
0.0
 30
0.0
  9
$UCSORGLEFT
 10
0.0
 20
0.0
 30
0.0
  9
$UCSORGRIGHT
 10
0.0
 20
0.0
 30
0.0
  9
$UCSORGFRONT
 10
0.0
 20
0.0
 30
0.0
  9
$UCSORGBACK
 10
0.0
 20
0.0
 30
0.0
  9
$PUCSBASE
  2

  9
$PUCSNAME
  2

  9
$PUCSORG
 10
0.0
 20
0.0
 30
0.0
  9
$PUCSXDIR
 10
1.0
 20
0.0
 30
0.0
  9
$PUCSYDIR
 10
0.0
 20
1.0
 30
0.0
  9
$PUCSORTHOREF
  2

  9
$PUCSORTHOVIEW
 70
     0
  9
$PUCSORGTOP
 10
0.0
 20
0.0
 30
0.0
  9
$PUCSORGBOTTOM
 10
0.0
 20
0.0
 30
0.0
  9
$PUCSORGLEFT
 10
0.0
 20
0.0
 30
0.0
  9
$PUCSORGRIGHT
 10
0.0
 20
0.0
 30
0.0
  9
$PUCSORGFRONT
 10
0.0
 20
0.0
 30
0.0
  9
$PUCSORGBACK
 10
0.0
 20
0.0
 30
0.0
  9
$USERI1
 70
     0
  9
$USERI2
 70
     0
  9
$USERI3
 70
     0
  9
$USERI4
 70
     0
  9
$USERI5
 70
     0
  9
$USERR1
 40
0.0
  9
$USERR2
 40
0.0
  9
$USERR3
 40
0.0
  9
$USERR4
 40
0.0
  9
$USERR5
 40
0.0
  9
$WORLDVIEW
 70
     1
  9
$SHADEDGE
 70
     3
  9
$SHADEDIF
 70
    70
  9
$TILEMODE
 70
     1
  9
$MAXACTVP
 70
    64
  9
$PINSBASE
 10
0.0
 20
0.0
 30
0.0
  9
$PLIMCHECK
 70
     0
  9
$PEXTMIN
 10
1.0000000000E+20
 20
1.0000000000E+20
 30
1.0000000000E+20
  9
$PEXTMAX
 10
-1.0000000000E+20
 20
-1.0000000000E+20
 30
-1.0000000000E+20
  9
$PLIMMIN
 10
0.0
 20
0.0
  9
$PLIMMAX
 10
12.0
 20
9.0
  9
$UNITMODE
 70
     0
  9
$VISRETAIN
 70
     1
  9
$PLINEGEN
 70
     0
  9
$PSLTSCALE
 70
     1
  9
$TREEDEPTH
 70
  3020
  9
$CMLSTYLE
  2
Standard
  9
$CMLJUST
 70
     0
  9
$CMLSCALE
 40
1.0
  9
$PROXYGRAPHICS
 70
     1
  9
$MEASUREMENT
 70
     0
  9
$CELWEIGHT
370
    -1
  9
$ENDCAPS
280
     0
  9
$JOINSTYLE
280
     0
  9
$LWDISPLAY
290
     1
  9
$INSUNITS
 70
     1
  9
$HYPERLINKBASE
  1

  9
$STYLESHEET
  1

  9
$XEDIT
290
     1
  9
$CEPSNTYPE
380
     0
  9
$PSTYLEMODE
290
     1
  9
$FINGERPRINTGUID
  2
{f4b2fb3a-a0e4-4061-9b42-6ae42a896809}
  9
$VERSIONGUID
  2
{FAEB1C32-E019-11D5-929B-00C0DF256EC4}
  9
$EXTNAMES
290
     1
  9
$PSVPSCALE
 40
0.0
  9
$OLESTARTUP
290
     0
  0
ENDSEC
  0
SECTION
  2
CLASSES
  0
CLASS
  1
ACDBDICTIONARYWDFLT
  2
AcDbDictionaryWithDefault
  3
ObjectDBX Classes
 90
        0
280
     0
281
     0
  0
CLASS
  1
VISUALSTYLE
  2
AcDbVisualStyle
  3
ObjectDBX Classes
 90
     4095
280
     0
281
     0
  0
CLASS
  1
MATERIAL
  2
AcDbMaterial
  3
ObjectDBX Classes
 90
     1153
280
     0
281
     0
  0
CLASS
  1
SCALE
  2
AcDbScale
  3
ObjectDBX Classes
 90
     1153
280
     0
281
     0
  0
CLASS
  1
TABLESTYLE
  2
AcDbTableStyle
  3
ObjectDBX Classes
 90
     4095
280
     0
281
     0
  0
CLASS
  1
MLEADERSTYLE
  2
AcDbMLeaderStyle
  3
ACDB_MLEADERSTYLE_CLASS
 90
     4095
280
     0
281
     0
  0
CLASS
  1
SUN
  2
AcDbSun
  3
SCENEOE
 90
     1153
280
     0
281
     0
  0
CLASS
  1
ACDBPLACEHOLDER
  2
AcDbPlaceHolder
  3
ObjectDBX Classes
 90
        0
280
     0
281
     0
  0
CLASS
  1
LAYOUT
  2
AcDbLayout
  3
ObjectDBX Classes
 90
        0
280
     0
281
     0
  0
ENDSEC
  0
SECTION
  2
TABLES
  0
TABLE
  2
VPORT
  5
8
330
0
100
AcDbSymbolTable
 70
     1
  0
VPORT
  5
29
330
8
100
AcDbSymbolTableRecord
100
AcDbViewportTableRecord
  2
*Active
 70
     0
 10
0.0
 20
0.0
 11
1.0
 21
1.0
 12
0.0
 22
2.75
 13
0.0
 23
0.0
 14
0.5
 24
0.5
 15
0.5
 25
0.5
 16
0.0
 26
0.0
 36
1.0
 17
0.0
 27
0.0
 37
0.0
 40
5.61
 41
1.4545454545
 42
50.0
 43
0.0
 44
0.0
 50
0.0
 51
0.0
 71
     0
 72
   100
 73
     1
 74
     3
 75
     0
 76
     0
 77
     0
 78
     0
281
     0
 65
     1
110
0.0
120
0.0
130
0.0
111
1.0
121
0.0
131
0.0
112
0.0
122
1.0
132
0.0
 79
     0
146
0.0
  0
ENDTAB
  0
TABLE
  2
LTYPE
  5
5
330
0
100
AcDbSymbolTable
 70
     6
  0
LTYPE
  5
14
330
5
100
AcDbSymbolTableRecord
100
AcDbLinetypeTableRecord
  2
ByBlock
 70
     0
  3

 72
    65
 73
     0
 40
0.0
  0
LTYPE
  5
15
330
5
100
AcDbSymbolTableRecord
100
AcDbLinetypeTableRecord
  2
ByLayer
 70
     0
  3

 72
    65
 73
     0
 40
0.0
  0
LTYPE
  5
16
330
5
100
AcDbSymbolTableRecord
100
AcDbLinetypeTableRecord
  2
Continuous
 70
     0
  3
Solid line
 72
    65
 73
     0
 40
0.0
  0
LTYPE
  5
6E
330
5
100
AcDbSymbolTableRecord
100
AcDbLinetypeTableRecord
  2
HIDDEN
 70
     0
  3
Hidden __ __ __ __ __ __ __ __ __ __ __ __ __ __
 72
    65
 73
     2
 40
0.075
 49
0.05
 74
     0
 49
-0.025
 74
     0
  0
LTYPE
  5
6F
330
5
100
AcDbSymbolTableRecord
100
AcDbLinetypeTableRecord
  2
PHANTOM
 70
     0
  3
Phantom ______  __  __  ______  __  __  ______
 72
    65
 73
     6
 40
0.5
 49
0.25
 74
     0
 49
-0.05
 74
     0
 49
0.05
 74
     0
 49
-0.05
 74
     0
 49
0.05
 74
     0
 49
-0.05
 74
     0
  0
LTYPE
  5
70
330
5
100
AcDbSymbolTableRecord
100
AcDbLinetypeTableRecord
  2
CENTER
 70
     0
  3
Center ____ _ ____ _ ____ _ ____ _ ____ _ ____
 72
    65
 73
     4
 40
0.4
 49
0.25
 74
     0
 49
-0.05
 74
     0
 49
0.05
 74
     0
 49
-0.05
 74
     0
  0
LTYPE
  5
71
330
5
100
AcDbSymbolTableRecord
100
AcDbLinetypeTableRecord
  2
CENTERX2
 70
     0
  3
Center (2x) ________  __  ________  __  _____
 72
    65
 73
     4
 40
0.8
 49
0.5
 74
     0
 49
-0.1
 74
     0
 49
0.1
 74
     0
 49
-0.1
 74
     0
  0
LTYPE
  5
72
330
5
100
AcDbSymbolTableRecord
100
AcDbLinetypeTableRecord
  2
DOT2
 70
     0
  3
Dot (.5x) ........................................
 72
    65
 73
     2
 40
0.025
 49
0.0
 74
     0
 49
-0.025
 74
     0
  0
ENDTAB
  0
TABLE
  2
LAYER
  5
2
330
0
100
AcDbSymbolTable
 70
     1
  0
LAYER
  5
10
330
2
100
AcDbSymbolTableRecord
100
AcDbLayerTableRecord
  2
0
 70
     0
 62
     7
  6
Continuous
370
    -3
390
F
  0
ENDTAB
  0
TABLE
  2
STYLE
  5
3
330
0
100
AcDbSymbolTable
 70
     2
  0
STYLE
  5
11
330
3
100
AcDbSymbolTableRecord
100
AcDbTextStyleTableRecord
  2
Standard
 70
     0
 40
0.0
 41
1.0
 50
0.0
 71
     0
 42
0.25
  3
txt
  4

  0
STYLE
  5
91
330
3
100
AcDbSymbolTableRecord
100
AcDbTextStyleTableRecord
  2
SLDTEXTSTYLE0
 70
     0
 40
0.0
 41
0.7
 50
0.0
 71
     0
 42
0.25
  3
TXT
  4
bigfont
  0
ENDTAB
  0
TABLE
  2
VIEW
  5
6
330
0
100
AcDbSymbolTable
 70
     0
  0
ENDTAB
  0
TABLE
  2
UCS
  5
7
330
0
100
AcDbSymbolTable
 70
     0
  0
ENDTAB
  0
TABLE
  2
APPID
  5
9
330
0
100
AcDbSymbolTable
 70
     1
  0
APPID
  5
12
330
9
100
AcDbSymbolTableRecord
100
AcDbRegAppTableRecord
  2
ACAD
 70
     0
  0
ENDTAB
  0
TABLE
  2
DIMSTYLE
  5
A
330
0
100
AcDbSymbolTable
 70
     1
100
AcDbDimStyleTable
  0
DIMSTYLE
105
27
330
A
100
AcDbSymbolTableRecord
100
AcDbDimStyleTableRecord
  2
Standard
 70
     0
178
     0
340
11
  0
ENDTAB
  0
TABLE
  2
BLOCK_RECORD
  5
1
330
0
100
AcDbSymbolTable
 70
     1
  0
BLOCK_RECORD
  5
1F
330
1
100
AcDbSymbolTableRecord
100
AcDbBlockTableRecord
  2
*Model_Space
340
22
  0
BLOCK_RECORD
  5
1B
330
1
100
AcDbSymbolTableRecord
100
AcDbBlockTableRecord
  2
*Paper_Space
340
1E
  0
BLOCK_RECORD
  5
23
330
1
100
AcDbSymbolTableRecord
100
AcDbBlockTableRecord
  2
*Paper_Space0
340
26
  0
ENDTAB
  0
ENDSEC
  0
SECTION
  2
BLOCKS
  0
BLOCK
  5
20
330
1F
100
AcDbEntity
  8
0
100
AcDbBlockBegin
  2
*Model_Space
 70
     0
 10
0.0
 20
0.0
 30
0.0
  3
*Model_Space
  1

  0
ENDBLK
  5
21
330
1F
100
AcDbEntity
  8
0
100
AcDbBlockEnd
  0
BLOCK
  5
1C
330
1B
100
AcDbEntity
 67
     1
  8
0
100
AcDbBlockBegin
  2
*Paper_Space
 70
     0
 10
0.0
 20
0.0
 30
0.0
  3
*Paper_Space
  1

  0
ENDBLK
  5
1D
330
1B
100
AcDbEntity
 67
     1
  8
0
100
AcDbBlockEnd
  0
BLOCK
  5
24
330
23
100
AcDbEntity
  8
0
100
AcDbBlockBegin
  2
*Paper_Space0
 70
     0
 10
0.0
 20
0.0
 30
0.0
  3
*Paper_Space0
  1

  0
ENDBLK
  5
25
330
23
100
AcDbEntity
  8
0
100
AcDbBlockEnd
  0
ENDSEC
  0
SECTION
  2
ENTITIES
  0
LWPOLYLINE
  5
73
330
1F
100
AcDbEntity
  8
0
  6
Continuous
 62
     7
100
AcDbPolyline
 90
       74
 70
   128
 43
0.0
 10
-2.0600820151
 20
2.8611077286
 10
-2.0600821013
 20
3.469441062
 10
-2.0600821013
 20
3.469441062
 10
-1.7857331429
 20
3.469441062
 10
-1.7857331429
 20
3.469441062
 10
-1.7594310596
 20
3.4687900203
 10
-1.7348216846
 20
3.467097312
 10
-1.7119050179
 20
3.463972312
 10
-1.6906810596
 20
3.4598056453
 10
-1.6711498096
 20
3.4543368953
 10
-1.6533112679
 20
3.4478264786
 10
-1.6371654346
 20
3.4398837703
 10
-1.6227123096
 20
3.4308993953
 10
-1.6099518929
 20
3.420612937
 10
-1.5990143929
 20
3.409284812
 10
-1.5896393929
 20
3.3965243953
 10
-1.5819571013
 20
3.382722312
 10
-1.5760977263
 20
3.3676181453
 10
-1.5718008513
 20
3.351472312
 10
-1.5693268929
 20
3.333894187
 10
-1.5684154346
 20
3.3152743953
 10
-1.5684154346
 20
3.3152743953
 10
-1.5689362679
 20
3.3019931453
 10
-1.5702383513
 20
3.289362937
 10
-1.5727123096
 20
3.2775139786
 10
-1.5759675179
 20
3.2661858536
 10
-1.5801341846
 20
3.2556389786
 10
-1.5853425179
 20
3.2457431453
 10
-1.5914623096
 20
3.2364983536
 10
-1.5984935596
 20
3.2279046036
 10
-1.6065664763
 20
3.2199618953
 10
-1.6154206429
 20
3.2126702286
 10
-1.6253164763
 20
3.2060296036
 10
-1.6361237679
 20
3.2001702286
 10
-1.6479727263
 20
3.1949618953
 10
-1.6606029346
 20
3.1902743953
 10
-1.6742748096
 20
3.1863681453
 10
-1.6888581429
 20
3.183112937
 10
-1.6888581429
 20
3.183112937
 10
-1.6712800179
 20
3.179597312
 10
-1.6547435596
 20
3.175300437
 10
-1.6393789763
 20
3.1700921036
 10
-1.6251862679
 20
3.1641025203
 10
-1.6121654346
 20
3.1572014786
 10
-1.6001862679
 20
3.149519187
 10
-1.5893789763
 20
3.140925437
 10
-1.5797435596
 20
3.131550437
 10
-1.5712800179
 20
3.121394187
 10
-1.5638581429
 20
3.1103264786
 10
-1.5576081429
 20
3.098347312
 10
-1.5525300179
 20
3.0855868953
 10
-1.5484935596
 20
3.0720452286
 10
-1.5456289763
 20
3.0575921036
 10
-1.5439362679
 20
3.0423577286
 10
-1.5434154346
 20
3.0262118953
 10
-1.5434154346
 20
3.0262118953
 10
-1.5441966846
 20
3.006159812
 10
-1.5468008513
 20
2.9875400203
 10
-1.5509675179
 20
2.9700921036
 10
-1.5566966846
 20
2.9539462703
 10
-1.5642487679
 20
2.9391025203
 10
-1.5733633513
 20
2.9255608536
 10
-1.5841706429
 20
2.9133212703
 10
-1.5966706429
 20
2.9023837703
 10
-1.6108633513
 20
2.8927483536
 10
-1.6266185596
 20
2.884284812
 10
-1.6440664763
 20
2.877253562
 10
-1.6632071013
 20
2.871394187
 10
-1.6840404346
 20
2.8669671036
 10
-1.7065664763
 20
2.8637118953
 10
-1.7306550179
 20
2.8617587703
 10
-1.7564362679
 20
2.8611077286
 10
-1.7564362679
 20
2.8611077286
 10
-2.0600821013
 20
2.8611077286
  0
LWPOLYLINE
  5
74
330
1F
100
AcDbEntity
  8
0
  6
Continuous
 62
     7
100
AcDbPolyline
 90
       40
 70
   128
 43
0.0
 10
-1.8600814455
 20
2.9277743953
 10
-1.8280508513
 20
2.9277743953
 10
-1.8280508513
 20
2.9277743953
 10
-1.8177643929
 20
2.9281650203
 10
-1.8082591846
 20
2.9293368953
 10
-1.7992748096
 20
2.9312900203
 10
-1.7910716846
 20
2.9340243953
 10
-1.7833893929
 20
2.9375400203
 10
-1.7764883513
 20
2.9418368953
 10
-1.7702383513
 20
2.9470452286
 10
-1.7645091846
 20
2.9529046036
 10
-1.7595612679
 20
2.9595452286
 10
-1.7552643929
 20
2.9669671036
 10
-1.7516185596
 20
2.9751702286
 10
-1.7487539763
 20
2.984284812
 10
-1.7464102263
 20
2.994050437
 10
-1.7447175179
 20
3.004597312
 10
-1.7438060596
 20
3.0160556453
 10
-1.7434154346
 20
3.0281650203
 10
-1.7434154346
 20
3.0281650203
 10
-1.7438060596
 20
3.0422275203
 10
-1.7448477263
 20
3.055378562
 10
-1.7465404346
 20
3.0676181453
 10
-1.7488841846
 20
3.0790764786
 10
-1.7520091846
 20
3.0894931453
 10
-1.7557852263
 20
3.0989983536
 10
-1.7602123096
 20
3.1075921036
 10
-1.7652904346
 20
3.1154046036
 10
-1.7711498096
 20
3.122175437
 10
-1.7776602263
 20
3.128034812
 10
-1.7848216846
 20
3.133112937
 10
-1.7927643929
 20
3.1371493953
 10
-1.8012279346
 20
3.1404046036
 10
-1.8104727263
 20
3.1426181453
 10
-1.8204987679
 20
3.144050437
 10
-1.8310456429
 20
3.144441062
 10
-1.8310456429
 20
3.144441062
 10
-1.8600821013
 20
3.144441062
 10
-1.8600821013
 20
3.144441062
 10
-1.8600821013
 20
2.9277743953
  0
LWPOLYLINE
  5
75
330
1F
100
AcDbEntity
  8
0
  6
Continuous
 62
     7
100
AcDbPolyline
 90
       24
 70
   128
 43
0.0
 10
-1.8600814455
 20
3.2111077286
 10
-1.8241446013
 20
3.2111077286
 10
-1.8241446013
 20
3.2111077286
 10
-1.8091706429
 20
3.2126702286
 10
-1.7961498096
 20
3.2173577286
 10
-1.7850821013
 20
3.2251702286
 10
-1.7760977263
 20
3.2361077286
 10
-1.7690664763
 20
3.2501702286
 10
-1.7641185596
 20
3.2673577286
 10
-1.7611237679
 20
3.2876702286
 10
-1.7600821013
 20
3.3111077286
 10
-1.7600821013
 20
3.3111077286
 10
-1.7611237679
 20
3.3325921036
 10
-1.7643789763
 20
3.3512118953
 10
-1.7697175179
 20
3.3669671036
 10
-1.7771393929
 20
3.3798577286
 10
-1.7867748096
 20
3.3898837703
 10
-1.7984935596
 20
3.3970452286
 10
-1.8124258513
 20
3.4013421036
 10
-1.8284414763
 20
3.4027743953
 10
-1.8284414763
 20
3.4027743953
 10
-1.8600821013
 20
3.4027743953
 10
-1.8600821013
 20
3.4027743953
 10
-1.8600821013
 20
3.2111077286
  0
LWPOLYLINE
  5
76
330
1F
100
AcDbEntity
  8
0
  6
Continuous
 62
     7
100
AcDbPolyline
 90
      152
 70
   128
 43
0.0
 10
-1.0277899935
 20
2.8818108536
 10
-1.0451081429
 20
2.8750400203
 10
-1.0620352263
 20
2.869050437
 10
-1.0787018929
 20
2.8641025203
 10
-1.0949779346
 20
2.860066062
 10
-1.1111237679
 20
2.8568108536
 10
-1.1268789763
 20
2.854597312
 10
-1.1423737679
 20
2.8531650203
 10
-1.1574779346
 20
2.8527743953
 10
-1.1574779346
 20
2.8527743953
 10
-1.1781810596
 20
2.8535556453
 10
-1.1966706429
 20
2.8560296036
 10
-1.2126862679
 20
2.860066062
 10
-1.2264883513
 20
2.8657952286
 10
-1.2380768929
 20
2.872956687
 10
-1.2471914763
 20
2.881941062
 10
-1.2540925179
 20
2.892487937
 10
-1.2586498096
 20
2.904597312
 10
-1.2586498096
 20
2.904597312
 10
-1.2665925179
 20
2.892487937
 10
-1.2763581429
 20
2.881941062
 10
-1.2878164763
 20
2.872956687
 10
-1.3009675179
 20
2.8657952286
 10
-1.3160716846
 20
2.860066062
 10
-1.3328685596
 20
2.8560296036
 10
-1.3513581429
 20
2.8535556453
 10
-1.3716706429
 20
2.8527743953
 10
-1.3716706429
 20
2.8527743953
 10
-1.3893789763
 20
2.8532952286
 10
-1.4060456429
 20
2.8548577286
 10
-1.4215404346
 20
2.8575921036
 10
-1.4358633513
 20
2.861237937
 10
-1.4490143929
 20
2.8660556453
 10
-1.4611237679
 20
2.8719150203
 10
-1.4719310596
 20
2.8786858536
 10
-1.4816966846
 20
2.8867587703
 10
-1.4902904346
 20
2.8957431453
 10
-1.4978425179
 20
2.905769187
 10
-1.5040925179
 20
2.9169671036
 10
-1.5093008513
 20
2.9290764786
 10
-1.5132071013
 20
2.9423577286
 10
-1.5160716846
 20
2.9566806453
 10
-1.5178946013
 20
2.9720452286
 10
-1.5184154346
 20
2.9884514786
 10
-1.5184154346
 20
2.9884514786
 10
-1.5178946013
 20
3.001081687
 10
-1.5163321013
 20
3.013191062
 10
-1.5137279346
 20
3.024909812
 10
-1.5102123096
 20
3.0359775203
 10
-1.5055248096
 20
3.0466546036
 10
-1.4999258513
 20
3.056941062
 10
-1.4931550179
 20
3.0665764786
 10
-1.4854727263
 20
3.0758212703
 10
-1.4767487679
 20
3.0845452286
 10
-1.4669831429
 20
3.092878562
 10
-1.4561758513
 20
3.1005608536
 10
-1.4443268929
 20
3.1078525203
 10
-1.4314362679
 20
3.114753562
 10
-1.4175039763
 20
3.121003562
 10
-1.4026602263
 20
3.126862937
 10
-1.3866446013
 20
3.1322014786
 10
-1.3866446013
 20
3.1322014786
 10
-1.3608633513
 20
3.140925437
 10
-1.3385977263
 20
3.1500400203
 10
-1.3197175179
 20
3.1594150203
 10
-1.3042227263
 20
3.169050437
 10
-1.2922435596
 20
3.1790764786
 10
-1.2836498096
 20
3.1894931453
 10
-1.2784414763
 20
3.2001702286
 10
-1.2767487679
 20
3.2111077286
 10
-1.2767487679
 20
3.2111077286
 10
-1.2776602263
 20
3.2247796036
 10
-1.2803946013
 20
3.236628562
 10
-1.2848216846
 20
3.2466546036
 10
-1.2910716846
 20
3.2548577286
 10
-1.2991446013
 20
3.261237937
 10
-1.3090404346
 20
3.2657952286
 10
-1.3207591846
 20
3.2685296036
 10
-1.3341706429
 20
3.269441062
 10
-1.3341706429
 20
3.269441062
 10
-1.3481029346
 20
3.2685296036
 10
-1.3600821013
 20
3.265925437
 10
-1.3702383513
 20
3.2614983536
 10
-1.3785716846
 20
3.255378562
 10
-1.3850821013
 20
3.2473056453
 10
-1.3897696013
 20
3.2376702286
 10
-1.3925039763
 20
3.2262118953
 10
-1.3934154346
 20
3.2129306453
 10
-1.3934154346
 20
3.2129306453
 10
-1.3926341846
 20
3.2013421036
 10
-1.3904206429
 20
3.1871493953
 10
-1.3867748096
 20
3.1703525203
 10
-1.3815664763
 20
3.1509514786
 10
-1.3815664763
 20
3.1509514786
 10
-1.4845612679
 20
3.1673577286
 10
-1.4845612679
 20
3.1673577286
 10
-1.4848216846
 20
3.1806389786
 10
-1.4849518929
 20
3.1926181453
 10
-1.4850821013
 20
3.2035556453
 10
-1.4850821013
 20
3.213191062
 10
-1.4850821013
 20
3.213191062
 10
-1.4843008513
 20
3.2271233536
 10
-1.4819571013
 20
3.2400139786
 10
-1.4781810596
 20
3.2521233536
 10
-1.4728425179
 20
3.2633212703
 10
-1.4659414763
 20
3.2736077286
 10
-1.4574779346
 20
3.2829827286
 10
-1.4474518929
 20
3.2915764786
 10
-1.4359935596
 20
3.299128562
 10
-1.4229727263
 20
3.3058993953
 10
-1.4083893929
 20
3.311628562
 10
-1.3922435596
 20
3.3165764786
 10
-1.3746654346
 20
3.320612937
 10
-1.3553946013
 20
3.323737937
 10
-1.3346914763
 20
3.3259514786
 10
-1.3125560596
 20
3.3273837703
 10
-1.2887279346
 20
3.3277743953
 10
-1.2887279346
 20
3.3277743953
 10
-1.2650300179
 20
3.3273837703
 10
-1.2428946013
 20
3.326081687
 10
-1.2223216846
 20
3.3239983536
 10
-1.2033112679
 20
3.321003562
 10
-1.1857331429
 20
3.317097312
 10
-1.1697175179
 20
3.312409812
 10
-1.1552643929
 20
3.306941062
 10
-1.1422435596
 20
3.3005608536
 10
-1.1307852263
 20
3.293269187
 10
-1.1208893929
 20
3.2851962703
 10
-1.1124258513
 20
3.2763421036
 10
-1.1056550179
 20
3.2665764786
 10
-1.1003164763
 20
3.2558993953
 10
-1.0964102263
 20
3.244441062
 10
-1.0941966846
 20
3.2320712703
 10
-1.0934154346
 20
3.2189202286
 10
-1.0934154346
 20
3.2189202286
 10
-1.0934154346
 20
2.9558993953
 10
-1.0934154346
 20
2.9558993953
 10
-1.0932852263
 20
2.9473056453
 10
-1.0927643929
 20
2.9400139786
 10
-1.0921133513
 20
2.9336337703
 10
-1.0909414763
 20
2.9285556453
 10
-1.0896393929
 20
2.924519187
 10
-1.0879466846
 20
2.921784812
 10
-1.0859935596
 20
2.9199618953
 10
-1.0837800179
 20
2.919441062
 10
-1.0837800179
 20
2.919441062
 10
-1.0797435596
 20
2.920222312
 10
-1.0728425179
 20
2.9228264786
 10
-1.0630768929
 20
2.9269931453
 10
-1.0503164763
 20
2.9328525203
 10
-1.0503164763
 20
2.9328525203
 10
-1.0277904346
 20
2.8818108536
  0
LWPOLYLINE
  5
77
330
1F
100
AcDbEntity
  8
0
  6
Continuous
 62
     7
100
AcDbPolyline
 90
       38
 70
   128
 43
0.0
 10
-1.2767479176
 20
3.1215243953
 10
-1.2753164763
 20
3.1183993953
 10
-1.2750560596
 20
3.115144187
 10
-1.2757071013
 20
3.1118889786
 10
-1.2773998096
 20
3.108503562
 10
-1.2801341846
 20
3.1051181453
 10
-1.2837800179
 20
3.1016025203
 10
-1.2885977263
 20
3.0980868953
 10
-1.2943268929
 20
3.094441062
 10
-1.2943268929
 20
3.094441062
 10
-1.3038321013
 20
3.0879306453
 10
-1.3121654346
 20
3.079987937
 10
-1.3191966846
 20
3.0708733536
 10
-1.3249258513
 20
3.060456687
 10
-1.3293529346
 20
3.048737937
 10
-1.3324779346
 20
3.0357171036
 10
-1.3344310596
 20
3.0215243953
 10
-1.3350821013
 20
3.0058993953
 10
-1.3350821013
 20
3.0058993953
 10
-1.3348216846
 20
2.9875400203
 10
-1.3340404346
 20
2.971784812
 10
-1.3326081429
 20
2.9582431453
 10
-1.3307852263
 20
2.9473056453
 10
-1.3283112679
 20
2.9387118953
 10
-1.3254466846
 20
2.932722312
 10
-1.3219310596
 20
2.9289462703
 10
-1.3178946013
 20
2.9277743953
 10
-1.3178946013
 20
2.9277743953
 10
-1.3082591846
 20
2.9289462703
 10
-1.2999258513
 20
2.9325921036
 10
-1.2927643929
 20
2.9387118953
 10
-1.2870352263
 20
2.9473056453
 10
-1.2824779346
 20
2.9582431453
 10
-1.2793529346
 20
2.9716546036
 10
-1.2773998096
 20
2.9875400203
 10
-1.2767487679
 20
3.005769187
 10
-1.2767487679
 20
3.005769187
 10
-1.2767487679
 20
3.1215243953
  0
LWPOLYLINE
  5
78
330
1F
100
AcDbEntity
  8
0
  6
Continuous
 62
     7
100
AcDbPolyline
 90
       83
 70
   128
 43
0.0
 10
-0.6741443722
 20
3.1361077286
 10
-0.8051341846
 20
3.1361077286
 10
-0.8051341846
 20
3.1361077286
 10
-0.8030508513
 20
3.152644187
 10
-0.8012279346
 20
3.1664462703
 10
-0.7994050179
 20
3.1771233536
 10
-0.7977123096
 20
3.185066062
 10
-0.7977123096
 20
3.185066062
 10
-0.7944571013
 20
3.201862937
 10
-0.7934154346
 20
3.2160556453
 10
-0.7934154346
 20
3.2160556453
 10
-0.7940664763
 20
3.2247796036
 10
-0.7958893929
 20
3.231159812
 10
-0.7991446013
 20
3.2348056453
 10
-0.8035716846
 20
3.2361077286
 10
-0.8035716846
 20
3.2361077286
 10
-0.8038321013
 20
3.2355868953
 10
-0.8044831429
 20
3.2340243953
 10
-0.8053946013
 20
3.2314202286
 10
-0.8066966846
 20
3.2279046036
 10
-0.8083893929
 20
3.2232171036
 10
-0.8103425179
 20
3.217487937
 10
-0.8126862679
 20
3.210847312
 10
-0.8154206429
 20
3.203034812
 10
-0.8203685596
 20
3.1859775203
 10
-0.8238841846
 20
3.167878562
 10
-0.8260977263
 20
3.1486077286
 10
-0.8267487679
 20
3.1281650203
 10
-0.8267487679
 20
3.1281650203
 10
-0.8267487679
 20
2.8611077286
 10
-0.8267487679
 20
2.8611077286
 10
-1.0100821013
 20
2.8611077286
 10
-1.0100821013
 20
2.8611077286
 10
-1.0100821013
 20
3.3111077286
 10
-1.0100821013
 20
3.3111077286
 10
-0.9708893929
 20
3.3111077286
 10
-0.9708893929
 20
3.3111077286
 10
-0.9568268929
 20
3.311237937
 10
-0.9415925179
 20
3.3118889786
 10
-0.9253164763
 20
3.3126702286
 10
-0.9078685596
 20
3.313972312
 10
-0.8892487679
 20
3.315534812
 10
-0.8695873096
 20
3.3176181453
 10
-0.8487539763
 20
3.319831687
 10
-0.8267487679
 20
3.322566062
 10
-0.8267487679
 20
3.322566062
 10
-0.8267487679
 20
3.2504306453
 10
-0.8267487679
 20
3.2504306453
 10
-0.8220612679
 20
3.2685296036
 10
-0.8160716846
 20
3.284284812
 10
-0.8087800179
 20
3.297566062
 10
-0.7999258513
 20
3.308503562
 10
-0.7898998096
 20
3.3168368953
 10
-0.7783112679
 20
3.322956687
 10
-0.7654206429
 20
3.3266025203
 10
-0.7512279346
 20
3.3277743953
 10
-0.7512279346
 20
3.3277743953
 10
-0.7401602263
 20
3.3273837703
 10
-0.7298737679
 20
3.3263421036
 10
-0.7202383513
 20
3.3243889786
 10
-0.7113841846
 20
3.321784812
 10
-0.7031810596
 20
3.3185296036
 10
-0.6956289763
 20
3.314362937
 10
-0.6888581429
 20
3.3095452286
 10
-0.6828685596
 20
3.3040764786
 10
-0.6775300179
 20
3.2976962703
 10
-0.6728425179
 20
3.2906650203
 10
-0.6689362679
 20
3.2828525203
 10
-0.6658112679
 20
3.2743889786
 10
-0.6633373096
 20
3.265144187
 10
-0.6615143929
 20
3.2551181453
 10
-0.6604727263
 20
3.2443108536
 10
-0.6600821013
 20
3.2328525203
 10
-0.6600821013
 20
3.2328525203
 10
-0.6604727263
 20
3.221394187
 10
-0.6616446013
 20
3.208503562
 10
-0.6634675179
 20
3.194441062
 10
-0.6662018929
 20
3.1790764786
 10
-0.6662018929
 20
3.1790764786
 10
-0.6675039763
 20
3.1719150203
 10
-0.6691966846
 20
3.1622796036
 10
-0.6714102263
 20
3.1504306453
 10
-0.6741446013
 20
3.1361077286
  0
LWPOLYLINE
  5
79
330
1F
100
AcDbEntity
  8
0
  6
Continuous
 62
     7
100
AcDbPolyline
 90
       63
 70
   128
 43
0.0
 10
-0.360081867
 20
3.3111077286
 10
-0.3600821013
 20
3.244441062
 10
-0.3600821013
 20
3.244441062
 10
-0.4267487679
 20
3.244441062
 10
-0.4267487679
 20
3.244441062
 10
-0.4267487679
 20
2.946394187
 10
-0.4267487679
 20
2.946394187
 10
-0.4266185596
 20
2.938191062
 10
-0.4264883513
 20
2.9324618953
 10
-0.4260977263
 20
2.9289462703
 10
-0.4257071013
 20
2.9277743953
 10
-0.4257071013
 20
2.9277743953
 10
-0.4231029346
 20
2.928816062
 10
-0.4208893929
 20
2.9322014786
 10
-0.4190664763
 20
2.9375400203
 10
-0.4176341846
 20
2.945222312
 10
-0.4176341846
 20
2.945222312
 10
-0.3505768929
 20
2.9391025203
 10
-0.3505768929
 20
2.9391025203
 10
-0.3572175179
 20
2.9208733536
 10
-0.3667227263
 20
2.904987937
 10
-0.3790925179
 20
2.8915764786
 10
-0.3944571013
 20
2.8806389786
 10
-0.4125560596
 20
2.8720452286
 10
-0.4336498096
 20
2.865925437
 10
-0.4574779346
 20
2.8622796036
 10
-0.4843008513
 20
2.8611077286
 10
-0.4843008513
 20
2.8611077286
 10
-0.4995352263
 20
2.8614983536
 10
-0.5137279346
 20
2.862800437
 10
-0.5270091846
 20
2.864753562
 10
-0.5393789763
 20
2.8676181453
 10
-0.5505768929
 20
2.8712639786
 10
-0.5609935596
 20
2.8758212703
 10
-0.5702383513
 20
2.8810296036
 10
-0.5785716846
 20
2.8871493953
 10
-0.5859935596
 20
2.894050437
 10
-0.5923737679
 20
2.901862937
 10
-0.5978425179
 20
2.9103264786
 10
-0.6022696013
 20
2.9197014786
 10
-0.6056550179
 20
2.9298577286
 10
-0.6081289763
 20
2.940925437
 10
-0.6095612679
 20
2.952644187
 10
-0.6100821013
 20
2.9652743953
 10
-0.6100821013
 20
2.9652743953
 10
-0.6100821013
 20
3.244441062
 10
-0.6100821013
 20
3.244441062
 10
-0.6600821013
 20
3.244441062
 10
-0.6600821013
 20
3.244441062
 10
-0.6600821013
 20
3.3111077286
 10
-0.6600821013
 20
3.3111077286
 10
-0.6100821013
 20
3.3111077286
 10
-0.6100821013
 20
3.3111077286
 10
-0.6100821013
 20
3.386628562
 10
-0.6100821013
 20
3.386628562
 10
-0.5659414763
 20
3.4000400203
 10
-0.5206289763
 20
3.4160556453
 10
-0.4742748096
 20
3.4344150203
 10
-0.4267487679
 20
3.4552483536
 10
-0.4267487679
 20
3.4552483536
 10
-0.4267487679
 20
3.3111077286
 10
-0.4267487679
 20
3.3111077286
 10
-0.3600821013
 20
3.3111077286
  0
LWPOLYLINE
  5
7A
330
1F
100
AcDbEntity
  8
0
  6
Continuous
 62
     7
100
AcDbPolyline
 90
      103
 70
   128
 43
0.0
 10
-0.0051341815
 20
3.0340243953
 10
0.0832772737
 20
3.012019187
 10
0.0832772737
 20
3.012019187
 10
0.0813241487
 20
2.9927483536
 10
0.0779387321
 20
2.9746493953
 10
0.0732512321
 20
2.9578525203
 10
0.0671314404
 20
2.9423577286
 10
0.0598397737
 20
2.928034812
 10
0.0509856071
 20
2.9150139786
 10
0.0409595654
 20
2.9031650203
 10
0.0295012321
 20
2.8926181453
 10
0.0167408154
 20
2.8832431453
 10
0.0026783154
 20
2.8751702286
 10
-0.0128164763
 20
2.868269187
 10
-0.0296133513
 20
2.8626702286
 10
-0.0478425179
 20
2.8583733536
 10
-0.0672435596
 20
2.8552483536
 10
-0.0882071013
 20
2.853425437
 10
-0.1103425179
 20
2.8527743953
 10
-0.1103425179
 20
2.8527743953
 10
-0.1375560596
 20
2.8536858536
 10
-0.1630768929
 20
2.8562900203
 10
-0.1867748096
 20
2.8607171036
 10
-0.2086498096
 20
2.8669671036
 10
-0.2288321013
 20
2.874909812
 10
-0.2473216846
 20
2.8845452286
 10
-0.2639883513
 20
2.896003562
 10
-0.2788321013
 20
2.909284812
 10
-0.2921133513
 20
2.9242587703
 10
-0.3034414763
 20
2.9410556453
 10
-0.3130768929
 20
2.959675437
 10
-0.3210196013
 20
2.979987937
 10
-0.3271393929
 20
3.0019931453
 10
-0.3315664763
 20
3.0258212703
 10
-0.3341706429
 20
3.051472312
 10
-0.3350821013
 20
3.078816062
 10
-0.3350821013
 20
3.078816062
 10
-0.3341706429
 20
3.105378562
 10
-0.3313060596
 20
3.130769187
 10
-0.3266185596
 20
3.1548577286
 10
-0.3201081429
 20
3.1777743953
 10
-0.3117748096
 20
3.199519187
 10
-0.3014883513
 20
3.2200921036
 10
-0.2893789763
 20
3.2394931453
 10
-0.2753164763
 20
3.2575921036
 10
-0.2598216846
 20
3.2739983536
 10
-0.2432852263
 20
3.2883212703
 10
-0.2257071013
 20
3.300300437
 10
-0.2069571013
 20
3.3101962703
 10
-0.1872956429
 20
3.317878562
 10
-0.1665925179
 20
3.323347312
 10
-0.1447175179
 20
3.3267327286
 10
-0.1219310596
 20
3.3277743953
 10
-0.1219310596
 20
3.3277743953
 10
-0.0971914763
 20
3.3267327286
 10
-0.0740143929
 20
3.3236077286
 10
-0.0523998096
 20
3.3183993953
 10
-0.0324779346
 20
3.3111077286
 10
-0.0141185596
 20
3.3017327286
 10
0.0026783154
 20
3.2902743953
 10
0.0177824821
 20
3.2767327286
 10
0.0314543571
 20
3.2611077286
 10
0.0433033154
 20
3.2433993953
 10
0.0537199821
 20
3.2236077286
 10
0.0625741487
 20
3.2017327286
 10
0.0697356071
 20
3.1777743953
 10
0.0753345654
 20
3.1517327286
 10
0.0792408154
 20
3.1236077286
 10
0.0817147737
 20
3.0933993953
 10
0.0824960237
 20
3.0611077286
 10
0.0824960237
 20
3.0611077286
 10
-0.1470612679
 20
3.0611077286
 10
-0.1470612679
 20
3.0611077286
 10
-0.1468008513
 20
3.0430087703
 10
-0.1458893929
 20
3.0259514786
 10
-0.1445873096
 20
3.0101962703
 10
-0.1426341846
 20
2.9954827286
 10
-0.1400300179
 20
2.9820712703
 10
-0.1370352263
 20
2.9697014786
 10
-0.1333893929
 20
2.9586337703
 10
-0.1292227263
 20
2.9486077286
 10
-0.1245352263
 20
2.9398837703
 10
-0.1191966846
 20
2.9322014786
 10
-0.1133373096
 20
2.9258212703
 10
-0.1069571013
 20
2.9204827286
 10
-0.0999258513
 20
2.9164462703
 10
-0.0923737679
 20
2.9134514786
 10
-0.0843008513
 20
2.9117587703
 10
-0.0757071013
 20
2.9111077286
 10
-0.0757071013
 20
2.9111077286
 10
-0.0583893929
 20
2.912409812
 10
-0.0432852263
 20
2.9164462703
 10
-0.0306550179
 20
2.9232171036
 10
-0.0202383513
 20
2.9325921036
 10
-0.0121654346
 20
2.9445712703
 10
-0.0063060596
 20
2.959284812
 10
-0.0029206429
 20
2.9767327286
 10
-0.0017487679
 20
2.996784812
 10
-0.0017487679
 20
2.996784812
 10
-0.0020091846
 20
3.003425437
 10
-0.0025300179
 20
3.0118889786
 10
-0.0037018929
 20
3.0220452286
 10
-0.0051341846
 20
3.0340243953
  0
LWPOLYLINE
  5
7B
330
1F
100
AcDbEntity
  8
0
  6
Continuous
 62
     7
100
AcDbPolyline
 90
       30
 70
   128
 43
0.0
 10
-0.14745183
 20
3.1277743953
 10
-0.0784414763
 20
3.1277743953
 10
-0.0784414763
 20
3.1277743953
 10
-0.0785716846
 20
3.1449618953
 10
-0.0789623096
 20
3.1609775203
 10
-0.0797435596
 20
3.1759514786
 10
-0.0807852263
 20
3.189753562
 10
-0.0820873096
 20
3.2025139786
 10
-0.0836498096
 20
3.2141025203
 10
-0.0856029346
 20
3.2246493953
 10
-0.0878164763
 20
3.2340243953
 10
-0.0902904346
 20
3.2423577286
 10
-0.0930248096
 20
3.249519187
 10
-0.0961498096
 20
3.2556389786
 10
-0.0994050179
 20
3.2605868953
 10
-0.1030508513
 20
3.2644931453
 10
-0.1070873096
 20
3.2672275203
 10
-0.1112539763
 20
3.2689202286
 10
-0.1158112679
 20
3.269441062
 10
-0.1158112679
 20
3.269441062
 10
-0.1218008513
 20
3.2677483536
 10
-0.1272696013
 20
3.2625400203
 10
-0.1319571013
 20
3.2540764786
 10
-0.1359935596
 20
3.242097312
 10
-0.1395091846
 20
3.2266025203
 10
-0.1423737679
 20
3.2078525203
 10
-0.1444571013
 20
3.1855868953
 10
-0.1460196013
 20
3.1599358536
 10
-0.1460196013
 20
3.1599358536
 10
-0.1474518929
 20
3.1277743953
  0
LWPOLYLINE
  5
7C
330
1F
100
AcDbEntity
  8
0
  6
Continuous
 62
     7
100
AcDbPolyline
 90
       67
 70
   128
 43
0.0
 10
0.5815844015
 20
2.8611077286
 10
0.3982512321
 20
2.8611077286
 10
0.3982512321
 20
2.8611077286
 10
0.3982512321
 20
3.1875400203
 10
0.3982512321
 20
3.1875400203
 10
0.3979908154
 20
3.1988681453
 10
0.3969491487
 20
3.2087639786
 10
0.3953866487
 20
3.217097312
 10
0.3931731071
 20
3.2239983536
 10
0.3903085237
 20
3.2293368953
 10
0.3869231071
 20
3.233112937
 10
0.3827564404
 20
3.2353264786
 10
0.3780689404
 20
3.2361077286
 10
0.3780689404
 20
3.2361077286
 10
0.3739022737
 20
3.2355868953
 10
0.3696053987
 20
3.2337639786
 10
0.3651783154
 20
3.2308993953
 10
0.3607512321
 20
3.226862937
 10
0.3563241487
 20
3.2216546036
 10
0.3516366487
 20
3.2154046036
 10
0.3469491487
 20
3.2078525203
 10
0.3422616487
 20
3.1992587703
 10
0.3339283154
 20
3.1797275203
 10
0.3280689404
 20
3.1578525203
 10
0.3244231071
 20
3.133503562
 10
0.3232512321
 20
3.1068108536
 10
0.3232512321
 20
3.1068108536
 10
0.3232512321
 20
2.8611077286
 10
0.3232512321
 20
2.8611077286
 10
0.1399178987
 20
2.8611077286
 10
0.1399178987
 20
2.8611077286
 10
0.1399178987
 20
3.312019187
 10
0.1399178987
 20
3.312019187
 10
0.1849699821
 20
3.3126702286
 10
0.2305428987
 20
3.314753562
 10
0.2766366487
 20
3.3181389786
 10
0.3232512321
 20
3.322956687
 10
0.3232512321
 20
3.322956687
 10
0.3232512321
 20
3.2414462703
 10
0.3232512321
 20
3.2414462703
 10
0.3337981071
 20
3.261628562
 10
0.3459074821
 20
3.279206687
 10
0.3597095654
 20
3.294050437
 10
0.3750741487
 20
3.306159812
 10
0.3921314404
 20
3.3156650203
 10
0.4107512321
 20
3.3224358536
 10
0.4310637321
 20
3.326472312
 10
0.4529387321
 20
3.3277743953
 10
0.4529387321
 20
3.3277743953
 10
0.4685637321
 20
3.327253562
 10
0.4831470654
 20
3.3258212703
 10
0.4966887321
 20
3.323347312
 10
0.5091887321
 20
3.3199618953
 10
0.5207772737
 20
3.3156650203
 10
0.5313241487
 20
3.3101962703
 10
0.5408293571
 20
3.3039462703
 10
0.5494231071
 20
3.2966546036
 10
0.5569751904
 20
3.2883212703
 10
0.5634856071
 20
3.2790764786
 10
0.5690845654
 20
3.2689202286
 10
0.5735116487
 20
3.257722312
 10
0.5770272737
 20
3.2454827286
 10
0.5796314404
 20
3.232331687
 10
0.5810637321
 20
3.218269187
 10
0.5815845654
 20
3.2031650203
 10
0.5815845654
 20
3.2031650203
 10
0.5815845654
 20
2.8611077286
  0
LWPOLYLINE
  5
7D
330
1F
100
AcDbEntity
  8
0
  6
Continuous
 62
     7
100
AcDbPolyline
 90
       65
 70
   128
 43
0.0
 10
1.073250855
 20
3.478425437
 10
1.0732512321
 20
2.8611077286
 10
1.0732512321
 20
2.8611077286
 10
0.8899178987
 20
2.8611077286
 10
0.8899178987
 20
2.8611077286
 10
0.8899178987
 20
2.8984775203
 10
0.8899178987
 20
2.8984775203
 10
0.8837981071
 20
2.887800437
 10
0.8761158154
 20
2.878425437
 10
0.8666106071
 20
2.870612937
 10
0.8554126904
 20
2.8642327286
 10
0.8423918571
 20
2.8591546036
 10
0.8278085237
 20
2.8556389786
 10
0.8114022737
 20
2.853425437
 10
0.7933033154
 20
2.8527743953
 10
0.7933033154
 20
2.8527743953
 10
0.7746835237
 20
2.8536858536
 10
0.7573658154
 20
2.8564202286
 10
0.7412199821
 20
2.8609775203
 10
0.7262460237
 20
2.8673577286
 10
0.7124439404
 20
2.875691062
 10
0.6998137321
 20
2.8857171036
 10
0.6884856071
 20
2.897566062
 10
0.6783293571
 20
2.9113681453
 10
0.6692147737
 20
2.926862937
 10
0.6615324821
 20
2.9443108536
 10
0.6548918571
 20
2.9634514786
 10
0.6495533154
 20
2.9845452286
 10
0.6452564404
 20
3.0074618953
 10
0.6422616487
 20
3.0320712703
 10
0.6405689404
 20
3.0586337703
 10
0.6399178987
 20
3.087019187
 10
0.6399178987
 20
3.087019187
 10
0.6405689404
 20
3.1161858536
 10
0.6423918571
 20
3.1433993953
 10
0.6456470654
 20
3.1687900203
 10
0.6500741487
 20
3.1923577286
 10
0.6556731071
 20
3.213972312
 10
0.6627043571
 20
3.2337639786
 10
0.6709074821
 20
3.2516025203
 10
0.6804126904
 20
3.2676181453
 10
0.6912199821
 20
3.2816806453
 10
0.7031991487
 20
3.2939202286
 10
0.7164803987
 20
3.304206687
 10
0.7310637321
 20
3.3126702286
 10
0.7468189404
 20
3.3193108536
 10
0.7638762321
 20
3.3239983536
 10
0.7822356071
 20
3.326862937
 10
0.8018970654
 20
3.3277743953
 10
0.8018970654
 20
3.3277743953
 10
0.8190845654
 20
3.326862937
 10
0.8344491487
 20
3.324128562
 10
0.8481210237
 20
3.3195712703
 10
0.8599699821
 20
3.313191062
 10
0.8701262321
 20
3.304987937
 10
0.8784595654
 20
3.2949618953
 10
0.8851001904
 20
3.283112937
 10
0.8899178987
 20
3.269441062
 10
0.8899178987
 20
3.269441062
 10
0.8899178987
 20
3.469441062
 10
0.8899178987
 20
3.469441062
 10
0.9314543571
 20
3.4699618953
 10
0.9759856071
 20
3.4716546036
 10
1.0231210237
 20
3.474519187
 10
1.0732512321
 20
3.478425437
  0
LWPOLYLINE
  5
7E
330
1F
100
AcDbEntity
  8
0
  6
Continuous
 62
     7
100
AcDbPolyline
 90
       44
 70
   128
 43
0.0
 10
0.8517668003
 20
3.244441062
 10
0.8464283154
 20
3.243269187
 10
0.8417408154
 20
3.2398837703
 10
0.8377043571
 20
3.2340243953
 10
0.8344491487
 20
3.226081687
 10
0.8319751904
 20
3.2156650203
 10
0.8301522737
 20
3.203034812
 10
0.8291106071
 20
3.1880608536
 10
0.8287199821
 20
3.1707431453
 10
0.8287199821
 20
3.1707431453
 10
0.8313241487
 20
3.0864983536
 10
0.8313241487
 20
3.0864983536
 10
0.8274178987
 20
3.0083733536
 10
0.8274178987
 20
3.0083733536
 10
0.8278085237
 20
2.9914462703
 10
0.8292408154
 20
2.9767327286
 10
0.8313241487
 20
2.964362937
 10
0.8344491487
 20
2.954206687
 10
0.8383553987
 20
2.9462639786
 10
0.8433033154
 20
2.9406650203
 10
0.8489022737
 20
2.9372796036
 10
0.8555428987
 20
2.9361077286
 10
0.8555428987
 20
2.9361077286
 10
0.8638762321
 20
2.9371493953
 10
0.8710376904
 20
2.9402743953
 10
0.8770272737
 20
2.9453525203
 10
0.8819751904
 20
2.9525139786
 10
0.8858814404
 20
2.9617587703
 10
0.8886158154
 20
2.9730868953
 10
0.8903085237
 20
2.9863681453
 10
0.8908293571
 20
3.0017327286
 10
0.8908293571
 20
3.0017327286
 10
0.8899178987
 20
3.1074618953
 10
0.8899178987
 20
3.1074618953
 10
0.8895272737
 20
3.1789462703
 10
0.8895272737
 20
3.1789462703
 10
0.8875741487
 20
3.1943108536
 10
0.8848397737
 20
3.2075921036
 10
0.8813241487
 20
3.2189202286
 10
0.8770272737
 20
3.228034812
 10
0.8718189404
 20
3.2351962703
 10
0.8659595654
 20
3.2404046036
 10
0.8591887321
 20
3.2433993953
 10
0.8517668571
 20
3.244441062
  0
LWPOLYLINE
  5
7F
330
1F
100
AcDbEntity
  8
0
  6
Continuous
 62
     7
100
AcDbPolyline
 90
       80
 70
   128
 43
0.0
 10
1.6232503681
 20
3.469441062
 10
1.6232512321
 20
3.062409812
 10
1.6232512321
 20
3.062409812
 10
1.6223397737
 20
3.037019187
 10
1.6194751904
 20
3.0133212703
 10
1.6147876904
 20
2.9911858536
 10
1.6081470654
 20
2.9707431453
 10
1.5995533154
 20
2.951862937
 10
1.5892668571
 20
2.934675437
 10
1.5768970654
 20
2.919050437
 10
1.5627043571
 20
2.9052483536
 10
1.5466887321
 20
2.892878562
 10
1.5287199821
 20
2.8822014786
 10
1.5087981071
 20
2.8732171036
 10
1.4870533154
 20
2.865925437
 10
1.4634856071
 20
2.8601962703
 10
1.4379647737
 20
2.8560296036
 10
1.4104908154
 20
2.8535556453
 10
1.3811939404
 20
2.8527743953
 10
1.3811939404
 20
2.8527743953
 10
1.3529387321
 20
2.8535556453
 10
1.3266366487
 20
2.8560296036
 10
1.3020272737
 20
2.8601962703
 10
1.2792408154
 20
2.865925437
 10
1.2584074821
 20
2.8732171036
 10
1.2392668571
 20
2.8822014786
 10
1.2219491487
 20
2.892878562
 10
1.2064543571
 20
2.9052483536
 10
1.1927824821
 20
2.919050437
 10
1.1810637321
 20
2.934675437
 10
1.1710376904
 20
2.951862937
 10
1.1628345654
 20
2.9707431453
 10
1.1564543571
 20
2.9911858536
 10
1.1518970654
 20
3.0133212703
 10
1.1491626904
 20
3.037019187
 10
1.1482512321
 20
3.062409812
 10
1.1482512321
 20
3.062409812
 10
1.1482512321
 20
3.469441062
 10
1.1482512321
 20
3.469441062
 10
1.3482512321
 20
3.469441062
 10
1.3482512321
 20
3.469441062
 10
1.3482512321
 20
3.057331687
 10
1.3482512321
 20
3.057331687
 10
1.3485116487
 20
3.0396233536
 10
1.3494231071
 20
3.023347312
 10
1.3508553987
 20
3.0087639786
 10
1.3529387321
 20
2.9957431453
 10
1.3555428987
 20
2.984284812
 10
1.3586678987
 20
2.974519187
 10
1.3624439404
 20
2.9661858536
 10
1.3668710237
 20
2.9595452286
 10
1.3720793571
 20
2.9540764786
 10
1.3780689404
 20
2.9492587703
 10
1.3851001904
 20
2.945222312
 10
1.3930428987
 20
2.9419671036
 10
1.4018970654
 20
2.939362937
 10
1.4117928987
 20
2.9375400203
 10
1.4224699821
 20
2.9364983536
 10
1.4341887321
 20
2.9361077286
 10
1.4341887321
 20
2.9361077286
 10
1.4469491487
 20
2.936628562
 10
1.4589283154
 20
2.9380608536
 10
1.4701262321
 20
2.940534812
 10
1.4804126904
 20
2.944050437
 10
1.4899178987
 20
2.9484775203
 10
1.4986418571
 20
2.953816062
 10
1.5064543571
 20
2.9603264786
 10
1.5134856071
 20
2.9677483536
 10
1.5197356071
 20
2.976081687
 10
1.5250741487
 20
2.985456687
 10
1.5296314404
 20
2.9957431453
 10
1.5332772737
 20
3.0072014786
 10
1.5361418571
 20
3.019441062
 10
1.5382251904
 20
3.0328525203
 10
1.5395272737
 20
3.047175437
 10
1.5399178987
 20
3.062409812
 10
1.5399178987
 20
3.062409812
 10
1.5399178987
 20
3.469441062
 10
1.5399178987
 20
3.469441062
 10
1.6232512321
 20
3.469441062
  0
LWPOLYLINE
  5
80
330
1F
100
AcDbEntity
  8
0
  6
Continuous
 62
     7
100
AcDbPolyline
 90
      191
 70
   128
 43
0.0
 10
2.1172614079
 20
3.286237937
 10
2.0128345654
 20
3.2691806453
 10
2.0128345654
 20
3.2691806453
 10
2.0137460237
 20
3.284284812
 10
2.0143970654
 20
3.2973056453
 10
2.0147876904
 20
3.3082431453
 10
2.0149178987
 20
3.317097312
 10
2.0149178987
 20
3.317097312
 10
2.0145272737
 20
3.328425437
 10
2.0130949821
 20
3.3391025203
 10
2.0110116487
 20
3.3489983536
 10
2.0078866487
 20
3.3582431453
 10
2.0038501904
 20
3.366706687
 10
1.9990324821
 20
3.3743889786
 10
1.9933033154
 20
3.3814202286
 10
1.9867928987
 20
3.3876702286
 10
1.9792408154
 20
3.3931389786
 10
1.9709074821
 20
3.3978264786
 10
1.9616626904
 20
3.401862937
 10
1.9515064404
 20
3.4052483536
 10
1.9404387321
 20
3.4078525203
 10
1.9285897737
 20
3.409675437
 10
1.9158293571
 20
3.4107171036
 10
1.9021574821
 20
3.4111077286
 10
1.9021574821
 20
3.4111077286
 10
1.8836678987
 20
3.4101962703
 10
1.8676522737
 20
3.4072014786
 10
1.8541106071
 20
3.4023837703
 10
1.8430428987
 20
3.395612937
 10
1.8343189404
 20
3.3868889786
 10
1.8281991487
 20
3.3763421036
 10
1.8244231071
 20
3.3637118953
 10
1.8232512321
 20
3.3492587703
 10
1.8232512321
 20
3.3492587703
 10
1.8248137321
 20
3.3372796036
 10
1.8292408154
 20
3.3258212703
 10
1.8367928987
 20
3.314753562
 10
1.8474699821
 20
3.304206687
 10
1.8610116487
 20
3.2941806453
 10
1.8776783154
 20
3.2845452286
 10
1.8973397737
 20
3.2754306453
 10
1.9199960237
 20
3.266706687
 10
1.9199960237
 20
3.266706687
 10
1.9466887321
 20
3.256941062
 10
1.9715585237
 20
3.2465243953
 10
1.9947356071
 20
3.2355868953
 10
2.0162199821
 20
3.224128562
 10
2.0360116487
 20
3.2121493953
 10
2.0539803987
 20
3.1996493953
 10
2.0703866487
 20
3.186628562
 10
2.0849699821
 20
3.1730868953
 10
2.0978606071
 20
3.158894187
 10
2.1089283154
 20
3.1441806453
 10
2.1184335237
 20
3.1289462703
 10
2.1261158154
 20
3.113191062
 10
2.1322356071
 20
3.0969150203
 10
2.1365324821
 20
3.0801181453
 10
2.1390064404
 20
3.062800437
 10
2.1399178987
 20
3.044831687
 10
2.1399178987
 20
3.044831687
 10
2.1388762321
 20
3.0242587703
 10
2.1360116487
 20
3.004597312
 10
2.1310637321
 20
2.985847312
 10
2.1241626904
 20
2.9681389786
 10
2.1151783154
 20
2.9512118953
 10
2.1043710237
 20
2.935456687
 10
2.0914803987
 20
2.9204827286
 10
2.0766366487
 20
2.906550437
 10
2.0602303987
 20
2.8939202286
 10
2.0423918571
 20
2.8829827286
 10
2.0231210237
 20
2.873737937
 10
2.0026783154
 20
2.8661858536
 10
1.9808033154
 20
2.8603264786
 10
1.9574960237
 20
2.856159812
 10
1.9328866487
 20
2.8535556453
 10
1.9069751904
 20
2.8527743953
 10
1.9069751904
 20
2.8527743953
 10
1.8796314404
 20
2.853425437
 10
1.8541106071
 20
2.8555087703
 10
1.8304126904
 20
2.858894187
 10
1.8084074821
 20
2.8637118953
 10
1.7880949821
 20
2.869831687
 10
1.7696053987
 20
2.8773837703
 10
1.7529387321
 20
2.8863681453
 10
1.7379647737
 20
2.8966546036
 10
1.7246835237
 20
2.9082431453
 10
1.7132251904
 20
2.9212639786
 10
1.7035897737
 20
2.9355868953
 10
1.6956470654
 20
2.9513421036
 10
1.6895272737
 20
2.9685296036
 10
1.6851001904
 20
2.987019187
 10
1.6824960237
 20
3.0068108536
 10
1.6815845654
 20
3.028034812
 10
1.6815845654
 20
3.028034812
 10
1.6817147737
 20
3.035847312
 10
1.6819751904
 20
3.0450921036
 10
1.6824960237
 20
3.0560296036
 10
1.6832772737
 20
3.0683993953
 10
1.6832772737
 20
3.0683993953
 10
1.7903085237
 20
3.0880608536
 10
1.7903085237
 20
3.0880608536
 10
1.7865324821
 20
3.0669671036
 10
1.7837981071
 20
3.047956687
 10
1.7821053987
 20
3.0312900203
 10
1.7815845654
 20
3.0168368953
 10
1.7815845654
 20
3.0168368953
 10
1.7819751904
 20
3.004987937
 10
1.7832772737
 20
2.994050437
 10
1.7853606071
 20
2.9837639786
 10
1.7883553987
 20
2.9742587703
 10
1.7921314404
 20
2.965534812
 10
1.7968189404
 20
2.9574618953
 10
1.8022876904
 20
2.950300437
 10
1.8086678987
 20
2.9437900203
 10
1.8158293571
 20
2.9380608536
 10
1.8239022737
 20
2.933112937
 10
1.8327564404
 20
2.9289462703
 10
1.8425220654
 20
2.9255608536
 10
1.8530689404
 20
2.9228264786
 10
1.8645272737
 20
2.921003562
 10
1.8767668571
 20
2.919831687
 10
1.8899178987
 20
2.919441062
 10
1.8899178987
 20
2.919441062
 10
1.9114022737
 20
2.9204827286
 10
1.9300220654
 20
2.9238681453
 10
1.9457772737
 20
2.9293368953
 10
1.9586678987
 20
2.937019187
 10
1.9686939404
 20
2.946784812
 10
1.9758553987
 20
2.958894187
 10
1.9801522737
 20
2.9730868953
 10
1.9815845654
 20
2.9894931453
 10
1.9815845654
 20
2.9894931453
 10
1.9797616487
 20
3.0023837703
 10
1.9744231071
 20
3.0150139786
 10
1.9655689404
 20
3.027253562
 10
1.9530689404
 20
3.0392327286
 10
1.9370533154
 20
3.0508212703
 10
1.9175220654
 20
3.0621493953
 10
1.8943449821
 20
3.0732171036
 10
1.8676522737
 20
3.083894187
 10
1.8676522737
 20
3.083894187
 10
1.8461678987
 20
3.0923577286
 10
1.8259856071
 20
3.101472312
 10
1.8072356071
 20
3.1111077286
 10
1.7899178987
 20
3.1215243953
 10
1.7739022737
 20
3.1324618953
 10
1.7593189404
 20
3.144050437
 10
1.7461678987
 20
3.1562900203
 10
1.7343189404
 20
3.1691806453
 10
1.7239022737
 20
3.1825921036
 10
1.7149178987
 20
3.1966546036
 10
1.7072356071
 20
3.2113681453
 10
1.7009856071
 20
3.2267327286
 10
1.6961678987
 20
3.2426181453
 10
1.6926522737
 20
3.259284812
 10
1.6905689404
 20
3.276472312
 10
1.6899178987
 20
3.2943108536
 10
1.6899178987
 20
3.2943108536
 10
1.6908293571
 20
3.3144931453
 10
1.6936939404
 20
3.3336337703
 10
1.6983814404
 20
3.351862937
 10
1.7050220654
 20
3.369050437
 10
1.7134856071
 20
3.385066062
 10
1.7237720654
 20
3.4001702286
 10
1.7360116487
 20
3.414362937
 10
1.7502043571
 20
3.4273837703
 10
1.7658293571
 20
3.4392327286
 10
1.7826262321
 20
3.4493889786
 10
1.8005949821
 20
3.458112937
 10
1.8197356071
 20
3.465144187
 10
1.8399178987
 20
3.4707431453
 10
1.8614022737
 20
3.4746493953
 10
1.8839283154
 20
3.4769931453
 10
1.9076262321
 20
3.4777743953
 10
1.9076262321
 20
3.4777743953
 10
1.9330168571
 20
3.4769931453
 10
1.9567147737
 20
3.4747796036
 10
1.9788501904
 20
3.471003562
 10
1.9992928987
 20
3.4657952286
 10
2.0181731071
 20
3.4590243953
 10
2.0353606071
 20
3.4508212703
 10
2.0509856071
 20
3.4410556453
 10
2.0649178987
 20
3.4298577286
 10
2.0771574821
 20
3.4172275203
 10
2.0878345654
 20
3.4029046036
 10
2.0968189404
 20
3.3872796036
 10
2.1041106071
 20
3.3700921036
 10
2.1098397737
 20
3.3513421036
 10
2.1140064404
 20
3.331159812
 10
2.1164803987
 20
3.3094150203
 10
2.1172616487
 20
3.286237937
  0
LINE
  5
89
330
1F
100
AcDbEntity
  8
0
  6
Continuous
 62
     7
370
    25
100
AcDbLine
 10
-2.9375
 20
5.0
 30
0.0
 11
-1.25
 21
0.0
 31
0.0
  0
LINE
  5
8A
330
1F
100
AcDbEntity
  8
0
  6
Continuous
 62
     7
370
    25
100
AcDbLine
 10
-4.0
 20
5.0
 30
0.0
 11
-2.9375
 21
5.0
 31
0.0
  0
LINE
  5
8B
330
1F
100
AcDbEntity
  8
0
  6
Continuous
 62
     7
370
    25
100
AcDbLine
 10
-4.0
 20
5.5
 30
0.0
 11
-4.0
 21
5.0
 31
0.0
  0
LINE
  5
8C
330
1F
100
AcDbEntity
  8
0
  6
Continuous
 62
     7
370
    25
100
AcDbLine
 10
4.0
 20
5.5
 30
0.0
 11
-4.0
 21
5.5
 31
0.0
  0
LINE
  5
8D
330
1F
100
AcDbEntity
  8
0
  6
Continuous
 62
     7
370
    25
100
AcDbLine
 10
4.0
 20
5.0
 30
0.0
 11
4.0
 21
5.5
 31
0.0
  0
LINE
  5
8E
330
1F
100
AcDbEntity
  8
0
  6
Continuous
 62
     7
370
    25
100
AcDbLine
 10
2.9375
 20
5.0
 30
0.0
 11
4.0
 21
5.0
 31
0.0
  0
LINE
  5
8F
330
1F
100
AcDbEntity
  8
0
  6
Continuous
 62
     7
370
    25
100
AcDbLine
 10
1.25
 20
0.0
 30
0.0
 11
2.9375
 21
5.0
 31
0.0
  0
LINE
  5
90
330
1F
100
AcDbEntity
  8
0
  6
Continuous
 62
     7
370
    25
100
AcDbLine
 10
-1.25
 20
0.0
 30
0.0
 11
1.25
 21
0.0
 31
0.0
  0
MTEXT
  5
92
330
1F
100
AcDbEntity
  8
0
  6
Continuous
 62
     7
100
AcDbMText
 10
-4.0
 20
-0.0401404091
 30
0.0
 40
0.1903
 41
0.0
 71
     1
 72
     1
  1
Produit d'ducation SOLIDWORKS  A titre ducatif uniquement.
  7
SLDTEXTSTYLE0
 73
     1
 44
1.0
  0
ENDSEC
  0
SECTION
  2
OBJECTS
  0
DICTIONARY
  5
C
330
0
100
AcDbDictionary
281
     1
  3
ACAD_GROUP
350
D
  3
ACAD_LAYOUT
350
1A
  3
ACAD_MLINESTYLE
350
17
  3
ACAD_PLOTSETTINGS
350
19
  3
ACAD_PLOTSTYLENAME
350
E
  3
ACAD_SCALELIST
350
47
  3
DWGPROPS
350
93
  0
DICTIONARY
  5
D
102
{ACAD_REACTORS
330
C
102
}
330
C
100
AcDbDictionary
281
     1
  0
DICTIONARY
  5
1A
102
{ACAD_REACTORS
330
C
102
}
330
C
100
AcDbDictionary
281
     1
  3
Layout1
350
1E
  3
Layout2
350
26
  3
Model
350
22
  0
DICTIONARY
  5
17
102
{ACAD_REACTORS
330
C
102
}
330
C
100
AcDbDictionary
281
     1
  3
Standard
350
18
  0
DICTIONARY
  5
19
102
{ACAD_REACTORS
330
C
102
}
330
C
100
AcDbDictionary
281
     1
  0
ACDBDICTIONARYWDFLT
  5
E
102
{ACAD_REACTORS
330
C
102
}
330
C
100
AcDbDictionary
281
     1
  3
Normal
350
F
100
AcDbDictionaryWithDefault
340
F
  0
DICTIONARY
  5
47
102
{ACAD_REACTORS
330
C
102
}
330
C
100
AcDbDictionary
281
     1
  3
A0
350
48
  3
A1
350
49
  3
A2
350
4A
  3
A3
350
4B
  3
A4
350
4C
  3
A5
350
4D
  3
A6
350
4E
  3
A7
350
4F
  3
A8
350
50
  3
A9
350
51
  3
B0
350
52
  3
B1
350
53
  3
B2
350
54
  3
B3
350
55
  3
B4
350
56
  3
B5
350
57
  3
B6
350
58
  3
B7
350
59
  3
B8
350
5A
  3
B9
350
5B
  3
C0
350
5C
  3
C1
350
5D
  3
C2
350
5E
  3
C3
350
5F
  3
C4
350
60
  3
C5
350
61
  3
C6
350
62
  3
C7
350
63
  3
C8
350
64
  3
C9
350
65
  3
D0
350
66
  3
D1
350
67
  3
D2
350
68
  0
XRECORD
  5
93
102
{ACAD_REACTORS
330
C
102
}
330
C
100
AcDbXrecord
280
     1
  1
DWGPROPS COOKIE
  2

  3

  4

  6

  7

  8
Utilisateur
  9

300
=
301
=
302
=
303
=
304
=
305
=
306
=
307
=
308
=
309
=
 40
0.0
 41
2459658.859782789
 42
2459658.859848542
  1

 90
        0
  0
LAYOUT
  5
1E
102
{ACAD_REACTORS
330
1A
102
}
330
1A
100
AcDbPlotSettings
  1

  2
none_device
  4

  6

 40
0.0
 41
0.0
 42
0.0
 43
0.0
 44
0.0
 45
0.0
 46
0.0
 47
0.0
 48
0.0
 49
0.0
140
0.0
141
0.0
142
1.0
143
1.0
 70
   688
 72
     0
 73
     0
 74
     5
  7

 75
    16
147
1.0
148
0.0
149
0.0
100
AcDbLayout
  1
Layout1
 70
     1
 71
     1
 10
0.0
 20
0.0
 11
12.0
 21
9.0
 12
0.0
 22
0.0
 32
0.0
 14
1.0000000000E+20
 24
1.0000000000E+20
 34
1.0000000000E+20
 15
-1.0000000000E+20
 25
-1.0000000000E+20
 35
-1.0000000000E+20
146
0.0
 13
0.0
 23
0.0
 33
0.0
 16
1.0
 26
0.0
 36
0.0
 17
0.0
 27
1.0
 37
0.0
 76
     0
330
1B
  0
LAYOUT
  5
26
102
{ACAD_REACTORS
330
1A
102
}
330
1A
100
AcDbPlotSettings
  1

  2
none_device
  4

  6

 40
0.0
 41
0.0
 42
0.0
 43
0.0
 44
0.0
 45
0.0
 46
0.0
 47
0.0
 48
0.0
 49
0.0
140
0.0
141
0.0
142
1.0
143
1.0
 70
   688
 72
     0
 73
     0
 74
     5
  7

 75
    16
147
1.0
148
0.0
149
0.0
100
AcDbLayout
  1
Layout2
 70
     1
 71
     2
 10
0.0
 20
0.0
 11
0.0
 21
0.0
 12
0.0
 22
0.0
 32
0.0
 14
0.0
 24
0.0
 34
0.0
 15
0.0
 25
0.0
 35
0.0
146
0.0
 13
0.0
 23
0.0
 33
0.0
 16
1.0
 26
0.0
 36
0.0
 17
0.0
 27
1.0
 37
0.0
 76
     0
330
23
  0
LAYOUT
  5
22
102
{ACAD_REACTORS
330
1A
102
}
330
1A
100
AcDbPlotSettings
  1

  2
none_device
  4
ANSI_A_(11.00_x_8.50_Inches)
  6

 40
6.35
 41
19.05
 42
6.35000508
 43
19.05000254
 44
279.4
 45
215.9
 46
133.34999746
 47
-6.18331377
 48
0.0
 49
0.0
140
0.0
141
0.0
142
1.36125
143
1.0
 70
  1696
 72
     0
 73
     0
 74
     0
  7

 75
     0
147
0.5913241897
148
-39.4088153714
149
0.0
100
AcDbLayout
  1
Model
 70
     1
 71
     0
 10
0.0
 20
0.0
 11
12.0
 21
9.0
 12
0.0
 22
0.0
 32
0.0
 14
-4.0
 24
0.0
 34
0.0
 15
4.0
 25
5.5
 35
0.0
146
0.0
 13
0.0
 23
0.0
 33
0.0
 16
1.0
 26
0.0
 36
0.0
 17
0.0
 27
1.0
 37
0.0
 76
     0
330
1F
331
29
  0
MLINESTYLE
  5
18
102
{ACAD_REACTORS
330
17
102
}
330
17
100
AcDbMlineStyle
  2
Standard
 70
     0
  3

 62
   256
 51
90.0
 52
90.0
 71
     2
 49
0.5
 62
   256
  6
BYLAYER
 49
-0.5
 62
   256
  6
BYLAYER
  0
ACDBPLACEHOLDER
  5
F
102
{ACAD_REACTORS
330
E
102
}
330
E
  0
SCALE
  5
48
102
{ACAD_REACTORS
330
47
102
}
330
47
100
AcDbScale
 70
     0
300
1:1
140
1.0
141
1.0
290
     1
  0
SCALE
  5
49
102
{ACAD_REACTORS
330
47
102
}
330
47
100
AcDbScale
 70
     0
300
1:2
140
1.0
141
2.0
290
     0
  0
SCALE
  5
4A
102
{ACAD_REACTORS
330
47
102
}
330
47
100
AcDbScale
 70
     0
300
1:4
140
1.0
141
4.0
290
     0
  0
SCALE
  5
4B
102
{ACAD_REACTORS
330
47
102
}
330
47
100
AcDbScale
 70
     0
300
1:5
140
1.0
141
5.0
290
     0
  0
SCALE
  5
4C
102
{ACAD_REACTORS
330
47
102
}
330
47
100
AcDbScale
 70
     0
300
1:8
140
1.0
141
8.0
290
     0
  0
SCALE
  5
4D
102
{ACAD_REACTORS
330
47
102
}
330
47
100
AcDbScale
 70
     0
300
1:10
140
1.0
141
10.0
290
     0
  0
SCALE
  5
4E
102
{ACAD_REACTORS
330
47
102
}
330
47
100
AcDbScale
 70
     0
300
1:16
140
1.0
141
16.0
290
     0
  0
SCALE
  5
4F
102
{ACAD_REACTORS
330
47
102
}
330
47
100
AcDbScale
 70
     0
300
1:20
140
1.0
141
20.0
290
     0
  0
SCALE
  5
50
102
{ACAD_REACTORS
330
47
102
}
330
47
100
AcDbScale
 70
     0
300
1:30
140
1.0
141
30.0
290
     0
  0
SCALE
  5
51
102
{ACAD_REACTORS
330
47
102
}
330
47
100
AcDbScale
 70
     0
300
1:40
140
1.0
141
40.0
290
     0
  0
SCALE
  5
52
102
{ACAD_REACTORS
330
47
102
}
330
47
100
AcDbScale
 70
     0
300
1:50
140
1.0
141
50.0
290
     0
  0
SCALE
  5
53
102
{ACAD_REACTORS
330
47
102
}
330
47
100
AcDbScale
 70
     0
300
1:100
140
1.0
141
100.0
290
     0
  0
SCALE
  5
54
102
{ACAD_REACTORS
330
47
102
}
330
47
100
AcDbScale
 70
     0
300
2:1
140
2.0
141
1.0
290
     0
  0
SCALE
  5
55
102
{ACAD_REACTORS
330
47
102
}
330
47
100
AcDbScale
 70
     0
300
4:1
140
4.0
141
1.0
290
     0
  0
SCALE
  5
56
102
{ACAD_REACTORS
330
47
102
}
330
47
100
AcDbScale
 70
     0
300
8:1
140
8.0
141
1.0
290
     0
  0
SCALE
  5
57
102
{ACAD_REACTORS
330
47
102
}
330
47
100
AcDbScale
 70
     0
300
10:1
140
10.0
141
1.0
290
     0
  0
SCALE
  5
58
102
{ACAD_REACTORS
330
47
102
}
330
47
100
AcDbScale
 70
     0
300
100:1
140
100.0
141
1.0
290
     0
  0
SCALE
  5
59
102
{ACAD_REACTORS
330
47
102
}
330
47
100
AcDbScale
 70
     0
300
1/128" = 1'-0"
140
0.0078125
141
12.0
290
     0
  0
SCALE
  5
5A
102
{ACAD_REACTORS
330
47
102
}
330
47
100
AcDbScale
 70
     0
300
1/64" = 1'-0"
140
0.015625
141
12.0
290
     0
  0
SCALE
  5
5B
102
{ACAD_REACTORS
330
47
102
}
330
47
100
AcDbScale
 70
     0
300
1/32" = 1'-0"
140
0.03125
141
12.0
290
     0
  0
SCALE
  5
5C
102
{ACAD_REACTORS
330
47
102
}
330
47
100
AcDbScale
 70
     0
300
1/16" = 1'-0"
140
0.0625
141
12.0
290
     0
  0
SCALE
  5
5D
102
{ACAD_REACTORS
330
47
102
}
330
47
100
AcDbScale
 70
     0
300
3/32" = 1'-0"
140
0.09375
141
12.0
290
     0
  0
SCALE
  5
5E
102
{ACAD_REACTORS
330
47
102
}
330
47
100
AcDbScale
 70
     0
300
1/8" = 1'-0"
140
0.125
141
12.0
290
     0
  0
SCALE
  5
5F
102
{ACAD_REACTORS
330
47
102
}
330
47
100
AcDbScale
 70
     0
300
3/16" = 1'-0"
140
0.1875
141
12.0
290
     0
  0
SCALE
  5
60
102
{ACAD_REACTORS
330
47
102
}
330
47
100
AcDbScale
 70
     0
300
1/4" = 1'-0"
140
0.25
141
12.0
290
     0
  0
SCALE
  5
61
102
{ACAD_REACTORS
330
47
102
}
330
47
100
AcDbScale
 70
     0
300
3/8" = 1'-0"
140
0.375
141
12.0
290
     0
  0
SCALE
  5
62
102
{ACAD_REACTORS
330
47
102
}
330
47
100
AcDbScale
 70
     0
300
1/2" = 1'-0"
140
0.5
141
12.0
290
     0
  0
SCALE
  5
63
102
{ACAD_REACTORS
330
47
102
}
330
47
100
AcDbScale
 70
     0
300
3/4" = 1'-0"
140
0.75
141
12.0
290
     0
  0
SCALE
  5
64
102
{ACAD_REACTORS
330
47
102
}
330
47
100
AcDbScale
 70
     0
300
1" = 1'-0"
140
1.0
141
12.0
290
     0
  0
SCALE
  5
65
102
{ACAD_REACTORS
330
47
102
}
330
47
100
AcDbScale
 70
     0
300
1-1/2" = 1'-0"
140
1.5
141
12.0
290
     0
  0
SCALE
  5
66
102
{ACAD_REACTORS
330
47
102
}
330
47
100
AcDbScale
 70
     0
300
3" = 1'-0"
140
3.0
141
12.0
290
     0
  0
SCALE
  5
67
102
{ACAD_REACTORS
330
47
102
}
330
47
100
AcDbScale
 70
     0
300
6" = 1'-0"
140
6.0
141
12.0
290
     0
  0
SCALE
  5
68
102
{ACAD_REACTORS
330
47
102
}
330
47
100
AcDbScale
 70
     0
300
1'-0" = 1'-0"
140
12.0
141
12.0
290
     0
  0
ENDSEC
  0
EOF
