  0
SECTION
  2
HEADER
  9
$ACADVER
  1
AC1015
  9
$ACADMAINTVER
 70
     6
  9
$DWGCODEPAGE
  3
ANSI_1252
  9
$INSBASE
 10
0.0
 20
0.0
 30
0.0
  9
$EXTMIN
 10
-1.25
 20
-1.25
 30
0.0
  9
$EXTMAX
 10
1.25
 20
1.25
 30
0.0
  9
$LIMMIN
 10
0.0
 20
0.0
  9
$LIMMAX
 10
12.0
 20
9.0
  9
$ORTHOMODE
 70
     0
  9
$REGENMODE
 70
     1
  9
$FILLMODE
 70
     1
  9
$QTEXTMODE
 70
     0
  9
$MIRRTEXT
 70
     1
  9
$LTSCALE
 40
1.0
  9
$ATTMODE
 70
     1
  9
$TEXTSIZE
 40
0.25
  9
$TRACEWID
 40
0.05
  9
$TEXTSTYLE
  7
Standard
  9
$CLAYER
  8
0
  9
$CELTYPE
  6
ByLayer
  9
$CECOLOR
 62
   256
  9
$CELTSCALE
 40
1.0
  9
$DISPSILH
 70
     0
  9
$DIMSCALE
 40
1.0
  9
$DIMASZ
 40
0.236
  9
$DIMEXO
 40
0.0
  9
$DIMDLI
 40
0.38
  9
$DIMRND
 40
0.0
  9
$DIMDLE
 40
0.0
  9
$DIMEXE
 40
0.039
  9
$DIMTP
 40
0.0
  9
$DIMTM
 40
0.0
  9
$DIMTXT
 40
0.25
  9
$DIMCEN
 40
0.09
  9
$DIMTSZ
 40
0.0
  9
$DIMTOL
 70
     0
  9
$DIMLIM
 70
     0
  9
$DIMTIH
 70
     1
  9
$DIMTOH
 70
     1
  9
$DIMSE1
 70
     0
  9
$DIMSE2
 70
     0
  9
$DIMTAD
 70
     1
  9
$DIMZIN
 70
     0
  9
$DIMBLK
  1

  9
$DIMASO
 70
     1
  9
$DIMSHO
 70
     1
  9
$DIMPOST
  1

  9
$DIMAPOST
  1

  9
$DIMALT
 70
     0
  9
$DIMALTD
 70
     2
  9
$DIMALTF
 40
25.4
  9
$DIMLFAC
 40
1.0
  9
$DIMTOFL
 70
     0
  9
$DIMTVP
 40
0.0
  9
$DIMTIX
 70
     0
  9
$DIMSOXD
 70
     0
  9
$DIMSAH
 70
     0
  9
$DIMBLK1
  1

  9
$DIMBLK2
  1

  9
$DIMSTYLE
  2
Standard
  9
$DIMCLRD
 70
     0
  9
$DIMCLRE
 70
     0
  9
$DIMCLRT
 70
     0
  9
$DIMTFAC
 40
1.0
  9
$DIMGAP
 40
0.06
  9
$DIMJUST
 70
     0
  9
$DIMSD1
 70
     0
  9
$DIMSD2
 70
     0
  9
$DIMTOLJ
 70
     1
  9
$DIMTZIN
 70
     0
  9
$DIMALTZ
 70
     0
  9
$DIMALTTZ
 70
     0
  9
$DIMUPT
 70
     0
  9
$DIMDEC
 70
     2
  9
$DIMTDEC
 70
     2
  9
$DIMALTU
 70
     2
  9
$DIMALTTD
 70
     2
  9
$DIMTXSTY
  7
Standard
  9
$DIMAUNIT
 70
     0
  9
$DIMADEC
 70
     2
  9
$DIMALTRND
 40
0.0
  9
$DIMAZIN
 70
     0
  9
$DIMDSEP
 70
    46
  9
$DIMATFIT
 70
     3
  9
$DIMFRAC
 70
     0
  9
$DIMLDRBLK
  1

  9
$DIMLUNIT
 70
     2
  9
$DIMLWD
 70
    -2
  9
$DIMLWE
 70
    -2
  9
$DIMTMOVE
 70
     0
  9
$LUNITS
 70
     2
  9
$LUPREC
 70
     2
  9
$SKETCHINC
 40
0.1
  9
$FILLETRAD
 40
0.5
  9
$AUNITS
 70
     0
  9
$AUPREC
 70
     2
  9
$MENU
  1
.
  9
$ELEVATION
 40
0.0
  9
$PELEVATION
 40
0.0
  9
$THICKNESS
 40
0.0
  9
$LIMCHECK
 70
     0
  9
$CHAMFERA
 40
0.0
  9
$CHAMFERB
 40
0.0
  9
$CHAMFERC
 40
0.0
  9
$CHAMFERD
 40
0.0
  9
$SKPOLY
 70
     0
  9
$TDCREATE
 40
2459658.695073113
  9
$TDUCREATE
 40
2459658.86173978
  9
$TDUPDATE
 40
2459658.695125602
  9
$TDUUPDATE
 40
2459658.861792269
  9
$TDINDWG
 40
0.0000000116
  9
$TDUSRTIMER
 40
0.0000000116
  9
$USRTIMER
 70
     1
  9
$ANGBASE
 50
0.0
  9
$ANGDIR
 70
     0
  9
$PDMODE
 70
     0
  9
$PDSIZE
 40
-1.0
  9
$PLINEWID
 40
0.0
  9
$SPLFRAME
 70
     0
  9
$SPLINETYPE
 70
     6
  9
$SPLINESEGS
 70
     8
  9
$HANDSEED
  5
87
  9
$SURFTAB1
 70
     6
  9
$SURFTAB2
 70
     6
  9
$SURFTYPE
 70
     6
  9
$SURFU
 70
     6
  9
$SURFV
 70
     6
  9
$UCSBASE
  2

  9
$UCSNAME
  2

  9
$UCSORG
 10
0.0
 20
0.0
 30
0.0
  9
$UCSXDIR
 10
1.0
 20
0.0
 30
0.0
  9
$UCSYDIR
 10
0.0
 20
1.0
 30
0.0
  9
$UCSORTHOREF
  2

  9
$UCSORTHOVIEW
 70
     0
  9
$UCSORGTOP
 10
0.0
 20
0.0
 30
0.0
  9
$UCSORGBOTTOM
 10
0.0
 20
0.0
 30
0.0
  9
$UCSORGLEFT
 10
0.0
 20
0.0
 30
0.0
  9
$UCSORGRIGHT
 10
0.0
 20
0.0
 30
0.0
  9
$UCSORGFRONT
 10
0.0
 20
0.0
 30
0.0
  9
$UCSORGBACK
 10
0.0
 20
0.0
 30
0.0
  9
$PUCSBASE
  2

  9
$PUCSNAME
  2

  9
$PUCSORG
 10
0.0
 20
0.0
 30
0.0
  9
$PUCSXDIR
 10
1.0
 20
0.0
 30
0.0
  9
$PUCSYDIR
 10
0.0
 20
1.0
 30
0.0
  9
$PUCSORTHOREF
  2

  9
$PUCSORTHOVIEW
 70
     0
  9
$PUCSORGTOP
 10
0.0
 20
0.0
 30
0.0
  9
$PUCSORGBOTTOM
 10
0.0
 20
0.0
 30
0.0
  9
$PUCSORGLEFT
 10
0.0
 20
0.0
 30
0.0
  9
$PUCSORGRIGHT
 10
0.0
 20
0.0
 30
0.0
  9
$PUCSORGFRONT
 10
0.0
 20
0.0
 30
0.0
  9
$PUCSORGBACK
 10
0.0
 20
0.0
 30
0.0
  9
$USERI1
 70
     0
  9
$USERI2
 70
     0
  9
$USERI3
 70
     0
  9
$USERI4
 70
     0
  9
$USERI5
 70
     0
  9
$USERR1
 40
0.0
  9
$USERR2
 40
0.0
  9
$USERR3
 40
0.0
  9
$USERR4
 40
0.0
  9
$USERR5
 40
0.0
  9
$WORLDVIEW
 70
     1
  9
$SHADEDGE
 70
     3
  9
$SHADEDIF
 70
    70
  9
$TILEMODE
 70
     1
  9
$MAXACTVP
 70
    64
  9
$PINSBASE
 10
0.0
 20
0.0
 30
0.0
  9
$PLIMCHECK
 70
     0
  9
$PEXTMIN
 10
1.0000000000E+20
 20
1.0000000000E+20
 30
1.0000000000E+20
  9
$PEXTMAX
 10
-1.0000000000E+20
 20
-1.0000000000E+20
 30
-1.0000000000E+20
  9
$PLIMMIN
 10
0.0
 20
0.0
  9
$PLIMMAX
 10
12.0
 20
9.0
  9
$UNITMODE
 70
     0
  9
$VISRETAIN
 70
     1
  9
$PLINEGEN
 70
     0
  9
$PSLTSCALE
 70
     1
  9
$TREEDEPTH
 70
  3020
  9
$CMLSTYLE
  2
Standard
  9
$CMLJUST
 70
     0
  9
$CMLSCALE
 40
1.0
  9
$PROXYGRAPHICS
 70
     1
  9
$MEASUREMENT
 70
     0
  9
$CELWEIGHT
370
    -1
  9
$ENDCAPS
280
     0
  9
$JOINSTYLE
280
     0
  9
$LWDISPLAY
290
     1
  9
$INSUNITS
 70
     1
  9
$HYPERLINKBASE
  1

  9
$STYLESHEET
  1

  9
$XEDIT
290
     1
  9
$CEPSNTYPE
380
     0
  9
$PSTYLEMODE
290
     1
  9
$FINGERPRINTGUID
  2
{484741e8-bd30-4288-8cc5-db2d711e3b15}
  9
$VERSIONGUID
  2
{FAEB1C32-E019-11D5-929B-00C0DF256EC4}
  9
$EXTNAMES
290
     1
  9
$PSVPSCALE
 40
0.0
  9
$OLESTARTUP
290
     0
  0
ENDSEC
  0
SECTION
  2
CLASSES
  0
CLASS
  1
ACDBDICTIONARYWDFLT
  2
AcDbDictionaryWithDefault
  3
ObjectDBX Classes
 90
        0
280
     0
281
     0
  0
CLASS
  1
VISUALSTYLE
  2
AcDbVisualStyle
  3
ObjectDBX Classes
 90
     4095
280
     0
281
     0
  0
CLASS
  1
MATERIAL
  2
AcDbMaterial
  3
ObjectDBX Classes
 90
     1153
280
     0
281
     0
  0
CLASS
  1
SCALE
  2
AcDbScale
  3
ObjectDBX Classes
 90
     1153
280
     0
281
     0
  0
CLASS
  1
TABLESTYLE
  2
AcDbTableStyle
  3
ObjectDBX Classes
 90
     4095
280
     0
281
     0
  0
CLASS
  1
MLEADERSTYLE
  2
AcDbMLeaderStyle
  3
ACDB_MLEADERSTYLE_CLASS
 90
     4095
280
     0
281
     0
  0
CLASS
  1
SUN
  2
AcDbSun
  3
SCENEOE
 90
     1153
280
     0
281
     0
  0
CLASS
  1
ACDBPLACEHOLDER
  2
AcDbPlaceHolder
  3
ObjectDBX Classes
 90
        0
280
     0
281
     0
  0
CLASS
  1
LAYOUT
  2
AcDbLayout
  3
ObjectDBX Classes
 90
        0
280
     0
281
     0
  0
ENDSEC
  0
SECTION
  2
TABLES
  0
TABLE
  2
VPORT
  5
8
330
0
100
AcDbSymbolTable
 70
     1
  0
VPORT
  5
29
330
8
100
AcDbSymbolTableRecord
100
AcDbViewportTableRecord
  2
*Active
 70
     0
 10
0.0
 20
0.0
 11
1.0
 21
1.0
 12
0.0
 22
0.0
 13
0.0
 23
0.0
 14
0.5
 24
0.5
 15
0.5
 25
0.5
 16
0.0
 26
0.0
 36
1.0
 17
0.0
 27
0.0
 37
0.0
 40
2.55
 41
1.0
 42
50.0
 43
0.0
 44
0.0
 50
0.0
 51
0.0
 71
     0
 72
   100
 73
     1
 74
     3
 75
     0
 76
     0
 77
     0
 78
     0
281
     0
 65
     1
110
0.0
120
0.0
130
0.0
111
1.0
121
0.0
131
0.0
112
0.0
122
1.0
132
0.0
 79
     0
146
0.0
  0
ENDTAB
  0
TABLE
  2
LTYPE
  5
5
330
0
100
AcDbSymbolTable
 70
     6
  0
LTYPE
  5
14
330
5
100
AcDbSymbolTableRecord
100
AcDbLinetypeTableRecord
  2
ByBlock
 70
     0
  3

 72
    65
 73
     0
 40
0.0
  0
LTYPE
  5
15
330
5
100
AcDbSymbolTableRecord
100
AcDbLinetypeTableRecord
  2
ByLayer
 70
     0
  3

 72
    65
 73
     0
 40
0.0
  0
LTYPE
  5
16
330
5
100
AcDbSymbolTableRecord
100
AcDbLinetypeTableRecord
  2
Continuous
 70
     0
  3
Solid line
 72
    65
 73
     0
 40
0.0
  0
LTYPE
  5
6E
330
5
100
AcDbSymbolTableRecord
100
AcDbLinetypeTableRecord
  2
HIDDEN
 70
     0
  3
Hidden __ __ __ __ __ __ __ __ __ __ __ __ __ __
 72
    65
 73
     2
 40
0.075
 49
0.05
 74
     0
 49
-0.025
 74
     0
  0
LTYPE
  5
6F
330
5
100
AcDbSymbolTableRecord
100
AcDbLinetypeTableRecord
  2
PHANTOM
 70
     0
  3
Phantom ______  __  __  ______  __  __  ______
 72
    65
 73
     6
 40
0.5
 49
0.25
 74
     0
 49
-0.05
 74
     0
 49
0.05
 74
     0
 49
-0.05
 74
     0
 49
0.05
 74
     0
 49
-0.05
 74
     0
  0
LTYPE
  5
70
330
5
100
AcDbSymbolTableRecord
100
AcDbLinetypeTableRecord
  2
CENTER
 70
     0
  3
Center ____ _ ____ _ ____ _ ____ _ ____ _ ____
 72
    65
 73
     4
 40
0.4
 49
0.25
 74
     0
 49
-0.05
 74
     0
 49
0.05
 74
     0
 49
-0.05
 74
     0
  0
LTYPE
  5
71
330
5
100
AcDbSymbolTableRecord
100
AcDbLinetypeTableRecord
  2
CENTERX2
 70
     0
  3
Center (2x) ________  __  ________  __  _____
 72
    65
 73
     4
 40
0.8
 49
0.5
 74
     0
 49
-0.1
 74
     0
 49
0.1
 74
     0
 49
-0.1
 74
     0
  0
LTYPE
  5
72
330
5
100
AcDbSymbolTableRecord
100
AcDbLinetypeTableRecord
  2
DOT2
 70
     0
  3
Dot (.5x) ........................................
 72
    65
 73
     2
 40
0.025
 49
0.0
 74
     0
 49
-0.025
 74
     0
  0
ENDTAB
  0
TABLE
  2
LAYER
  5
2
330
0
100
AcDbSymbolTable
 70
     1
  0
LAYER
  5
10
330
2
100
AcDbSymbolTableRecord
100
AcDbLayerTableRecord
  2
0
 70
     0
 62
     7
  6
Continuous
370
    -3
390
F
  0
ENDTAB
  0
TABLE
  2
STYLE
  5
3
330
0
100
AcDbSymbolTable
 70
     2
  0
STYLE
  5
11
330
3
100
AcDbSymbolTableRecord
100
AcDbTextStyleTableRecord
  2
Standard
 70
     0
 40
0.0
 41
1.0
 50
0.0
 71
     0
 42
0.25
  3
txt
  4

  0
STYLE
  5
84
330
3
100
AcDbSymbolTableRecord
100
AcDbTextStyleTableRecord
  2
SLDTEXTSTYLE0
 70
     0
 40
0.0
 41
0.7
 50
0.0
 71
     0
 42
0.25
  3
TXT
  4
bigfont
  0
ENDTAB
  0
TABLE
  2
VIEW
  5
6
330
0
100
AcDbSymbolTable
 70
     0
  0
ENDTAB
  0
TABLE
  2
UCS
  5
7
330
0
100
AcDbSymbolTable
 70
     0
  0
ENDTAB
  0
TABLE
  2
APPID
  5
9
330
0
100
AcDbSymbolTable
 70
     1
  0
APPID
  5
12
330
9
100
AcDbSymbolTableRecord
100
AcDbRegAppTableRecord
  2
ACAD
 70
     0
  0
ENDTAB
  0
TABLE
  2
DIMSTYLE
  5
A
330
0
100
AcDbSymbolTable
 70
     1
100
AcDbDimStyleTable
  0
DIMSTYLE
105
27
330
A
100
AcDbSymbolTableRecord
100
AcDbDimStyleTableRecord
  2
Standard
 70
     0
178
     0
340
11
  0
ENDTAB
  0
TABLE
  2
BLOCK_RECORD
  5
1
330
0
100
AcDbSymbolTable
 70
     1
  0
BLOCK_RECORD
  5
1F
330
1
100
AcDbSymbolTableRecord
100
AcDbBlockTableRecord
  2
*Model_Space
340
22
  0
BLOCK_RECORD
  5
1B
330
1
100
AcDbSymbolTableRecord
100
AcDbBlockTableRecord
  2
*Paper_Space
340
1E
  0
BLOCK_RECORD
  5
23
330
1
100
AcDbSymbolTableRecord
100
AcDbBlockTableRecord
  2
*Paper_Space0
340
26
  0
ENDTAB
  0
ENDSEC
  0
SECTION
  2
BLOCKS
  0
BLOCK
  5
20
330
1F
100
AcDbEntity
  8
0
100
AcDbBlockBegin
  2
*Model_Space
 70
     0
 10
0.0
 20
0.0
 30
0.0
  3
*Model_Space
  1

  0
ENDBLK
  5
21
330
1F
100
AcDbEntity
  8
0
100
AcDbBlockEnd
  0
BLOCK
  5
1C
330
1B
100
AcDbEntity
 67
     1
  8
0
100
AcDbBlockBegin
  2
*Paper_Space
 70
     0
 10
0.0
 20
0.0
 30
0.0
  3
*Paper_Space
  1

  0
ENDBLK
  5
1D
330
1B
100
AcDbEntity
 67
     1
  8
0
100
AcDbBlockEnd
  0
BLOCK
  5
24
330
23
100
AcDbEntity
  8
0
100
AcDbBlockBegin
  2
*Paper_Space0
 70
     0
 10
0.0
 20
0.0
 30
0.0
  3
*Paper_Space0
  1

  0
ENDBLK
  5
25
330
23
100
AcDbEntity
  8
0
100
AcDbBlockEnd
  0
ENDSEC
  0
SECTION
  2
ENTITIES
  0
LWPOLYLINE
  5
73
330
1F
100
AcDbEntity
  8
0
  6
Continuous
 62
     7
100
AcDbPolyline
 90
      140
 70
   128
 43
0.0
 10
-0.7929166002
 20
0.0208333333
 10
-0.62625
 20
0.0208333333
 10
-0.62625
 20
0.0208333333
 10
-0.62625
 20
-0.1875
 10
-0.62625
 20
-0.1875
 10
-0.6742643229
 20
-0.1875
 10
-0.6742643229
 20
-0.1875
 10
-0.6840299479
 20
-0.1621907552
 10
-0.6840299479
 20
-0.1621907552
 10
-0.6938769531
 20
-0.1693522135
 10
-0.7042936198
 20
-0.1755371094
 10
-0.7151171875
 20
-0.1808268229
 10
-0.7264290365
 20
-0.1850585937
 10
-0.7383105469
 20
-0.1883951823
 10
-0.7506803385
 20
-0.1908365885
 10
-0.7634570312
 20
-0.1922200521
 10
-0.7768033854
 20
-0.1927083333
 10
-0.7768033854
 20
-0.1927083333
 10
-0.7972298177
 20
-0.1918945312
 10
-0.8165169271
 20
-0.1895345052
 10
-0.8346647135
 20
-0.1856282552
 10
-0.8515917969
 20
-0.180094401
 10
-0.8673795573
 20
-0.1730143229
 10
-0.8819466146
 20
-0.1643066406
 10
-0.895374349
 20
-0.1540527344
 10
-0.9076627604
 20
-0.1422526042
 10
-0.9186490885
 20
-0.1289876302
 10
-0.9280891927
 20
-0.1145019531
 10
-0.9361458333
 20
-0.0987141927
 10
-0.94265625
 20
-0.081624349
 10
-0.9477832031
 20
-0.0633138021
 10
-0.9514453125
 20
-0.0437011719
 10
-0.9536425781
 20
-0.0228678385
 10
-0.954375
 20
-0.0007324219
 10
-0.954375
 20
-0.0007324219
 10
-0.9536425781
 20
0.0208333333
 10
-0.9512825521
 20
0.0413411458
 10
-0.9474576823
 20
0.0608723958
 10
-0.9420052083
 20
0.0793457031
 10
-0.9350878906
 20
0.0967610677
 10
-0.926624349
 20
0.1131184896
 10
-0.9165332031
 20
0.1284179688
 10
-0.9049772135
 20
0.1427408854
 10
-0.8921191406
 20
0.1556803385
 10
-0.8783658854
 20
0.1669108073
 10
-0.8636360677
 20
0.1763509115
 10
-0.8479296875
 20
0.1841634115
 10
-0.8312467448
 20
0.1901855469
 10
-0.8136686198
 20
0.1944986979
 10
-0.7951139323
 20
0.1970214844
 10
-0.7756640625
 20
0.1979166667
 10
-0.7756640625
 20
0.1979166667
 10
-0.7620735677
 20
0.1975097656
 10
-0.7492154948
 20
0.1961263021
 10
-0.7370084635
 20
0.1939290365
 10
-0.725452474
 20
0.1908365885
 10
-0.7146289062
 20
0.1869303385
 10
-0.7044563802
 20
0.182047526
 10
-0.695016276
 20
0.1763509115
 10
-0.6862272135
 20
0.1696777344
 10
-0.6781705729
 20
0.1621907552
 10
-0.670764974
 20
0.1538085938
 10
-0.6640917969
 20
0.14453125
 10
-0.6580696615
 20
0.1344401042
 10
-0.6527799479
 20
0.1233723958
 10
-0.648141276
 20
0.1114908854
 10
-0.6441536458
 20
0.0987141927
 10
-0.6408984375
 20
0.0850423177
 10
-0.6408984375
 20
0.0850423177
 10
-0.7069791667
 20
0.0589192708
 10
-0.7069791667
 20
0.0589192708
 10
-0.704375
 20
0.0733235677
 10
-0.704375
 20
0.0733235677
 10
-0.7077115885
 20
0.0916341146
 10
-0.7077115885
 20
0.0916341146
 10
-0.7085253906
 20
0.0994466146
 10
-0.7096647135
 20
0.1067708333
 10
-0.7112109375
 20
0.1136067708
 10
-0.7130826823
 20
0.1198730469
 10
-0.7152799479
 20
0.1257324219
 10
-0.7178841146
 20
0.1310221354
 10
-0.7208138021
 20
0.1358235677
 10
-0.7241503906
 20
0.1401367188
 10
-0.7278125
 20
0.1438802083
 10
-0.7318815104
 20
0.1471354167
 10
-0.7361946615
 20
0.1499023438
 10
-0.7409960937
 20
0.1521809896
 10
-0.7460416667
 20
0.1539713542
 10
-0.7515755208
 20
0.1552734375
 10
-0.7573535156
 20
0.1560058594
 10
-0.7635384115
 20
0.15625
 10
-0.7635384115
 20
0.15625
 10
-0.7714322917
 20
0.1557617188
 10
-0.7787565104
 20
0.1542154948
 10
-0.7855110677
 20
0.1516927083
 10
-0.7916959635
 20
0.1481933594
 10
-0.7972298177
 20
0.1436360677
 10
-0.8021940104
 20
0.1381022135
 10
-0.8065885417
 20
0.1315917969
 10
-0.8103320312
 20
0.1240234375
 10
-0.8135872396
 20
0.1149902344
 10
-0.8163541667
 20
0.1040039063
 10
-0.8187955729
 20
0.0909830729
 10
-0.8206673177
 20
0.0760091146
 10
-0.8222135417
 20
0.0590820313
 10
-0.8232714844
 20
0.0402018229
 10
-0.823922526
 20
0.0193684896
 10
-0.8241666667
 20
-0.003499349
 10
-0.8241666667
 20
-0.003499349
 10
-0.8240039062
 20
-0.0249023437
 10
-0.8234342448
 20
-0.0443522135
 10
-0.8226204427
 20
-0.0620117187
 10
-0.8213997396
 20
-0.077718099
 10
-0.8197721354
 20
-0.0916341146
 10
-0.8179003906
 20
-0.1035970052
 10
-0.8156217448
 20
-0.113688151
 10
-0.8130175781
 20
-0.1219075521
 10
-0.8100065104
 20
-0.1287434896
 10
-0.8065071615
 20
-0.1346842448
 10
-0.8026009115
 20
-0.1396484375
 10
-0.798125
 20
-0.1437174479
 10
-0.7933235677
 20
-0.1469726562
 10
-0.787952474
 20
-0.1492513021
 10
-0.7821744792
 20
-0.1505533854
 10
-0.7759082031
 20
-0.1510416667
 10
-0.7759082031
 20
-0.1510416667
 10
-0.7676888021
 20
-0.150390625
 10
-0.7605273437
 20
-0.1485188802
 10
-0.7545052083
 20
-0.1454264323
 10
-0.7496223958
 20
-0.1411132812
 10
-0.745797526
 20
-0.1354980469
 10
-0.743030599
 20
-0.1286621094
 10
-0.7414029948
 20
-0.1206054687
 10
-0.7408333333
 20
-0.1112467448
 10
-0.7408333333
 20
-0.1112467448
 10
-0.7408333333
 20
-0.0260416667
 10
-0.7408333333
 20
-0.0260416667
 10
-0.7929166667
 20
-0.0260416667
 10
-0.7929166667
 20
-0.0260416667
 10
-0.7929166667
 20
0.0208333333
  0
LWPOLYLINE
  5
74
330
1F
100
AcDbEntity
  8
0
  6
Continuous
 62
     7
100
AcDbPolyline
 90
       90
 70
   128
 43
0.0
 10
-0.579374747
 20
-0.1875
 10
-0.579375
 20
0.1927083333
 10
-0.579375
 20
0.1927083333
 10
-0.4132779948
 20
0.1927083333
 10
-0.4132779948
 20
0.1927083333
 10
-0.3970833333
 20
0.1923014323
 10
-0.381702474
 20
0.1909179688
 10
-0.3672167969
 20
0.1887207031
 10
-0.3534635417
 20
0.1856282552
 10
-0.3406054687
 20
0.181640625
 10
-0.3285611979
 20
0.1767578125
 10
-0.3173307292
 20
0.1710611979
 10
-0.3069140625
 20
0.1643880208
 10
-0.2975553385
 20
0.1570638021
 10
-0.2894173177
 20
0.1491699219
 10
-0.2825
 20
0.1407877604
 10
-0.2768847656
 20
0.1319173177
 10
-0.2724902344
 20
0.1224772135
 10
-0.2693977865
 20
0.1125488281
 10
-0.2675260417
 20
0.1020507813
 10
-0.266875
 20
0.0910644531
 10
-0.266875
 20
0.0910644531
 10
-0.2672005208
 20
0.082438151
 10
-0.2680957031
 20
0.0743001302
 10
-0.2696419271
 20
0.0664876302
 10
-0.2718391927
 20
0.0590820313
 10
-0.2746875
 20
0.0521647135
 10
-0.2781054687
 20
0.0455729167
 10
-0.282093099
 20
0.0393880208
 10
-0.286813151
 20
0.0336914063
 10
-0.2921028646
 20
0.0283203125
 10
-0.2979622396
 20
0.0234375
 10
-0.3045540365
 20
0.0188802083
 10
-0.3117154948
 20
0.0148111979
 10
-0.3194466146
 20
0.0110677083
 10
-0.3279101562
 20
0.0078125
 10
-0.3368619792
 20
0.0048828125
 10
-0.346546224
 20
0.0024414063
 10
-0.346546224
 20
0.0024414063
 10
-0.3372688802
 20
-0.0004882812
 10
-0.3287239583
 20
-0.0037434896
 10
-0.3210742187
 20
-0.0071614583
 10
-0.3142382812
 20
-0.0109049479
 10
-0.3081347656
 20
-0.0148111979
 10
-0.3029264323
 20
-0.0190429687
 10
-0.2984505208
 20
-0.0235188802
 10
-0.2948697917
 20
-0.0282389323
 10
-0.2917773437
 20
-0.033610026
 10
-0.2890104167
 20
-0.0399576823
 10
-0.28640625
 20
-0.0473632812
 10
-0.2841276042
 20
-0.0558268229
 10
-0.2821744792
 20
-0.0652669271
 10
-0.2803841146
 20
-0.075764974
 10
-0.2789192708
 20
-0.0872395833
 10
-0.2776985677
 20
-0.0997721354
 10
-0.2776985677
 20
-0.0997721354
 10
-0.276233724
 20
-0.1147460937
 10
-0.2744433594
 20
-0.128499349
 10
-0.272327474
 20
-0.1411946615
 10
-0.2698860677
 20
-0.1526692708
 10
-0.2671191406
 20
-0.1630859375
 10
-0.2640266927
 20
-0.1723632812
 10
-0.2605273437
 20
-0.1805013021
 10
-0.2567838542
 20
-0.1875
 10
-0.2567838542
 20
-0.1875
 10
-0.3865852865
 20
-0.1875
 10
-0.3865852865
 20
-0.1875
 10
-0.3922005208
 20
-0.1720377604
 10
-0.396188151
 20
-0.1553548177
 10
-0.3985481771
 20
-0.1375325521
 10
-0.3993619792
 20
-0.1184082031
 10
-0.3993619792
 20
-0.1184082031
 10
-0.3998502604
 20
-0.0965983073
 10
-0.3998502604
 20
-0.0965983073
 10
-0.4004199219
 20
-0.0690104167
 10
-0.4004199219
 20
-0.0690104167
 10
-0.4011523437
 20
-0.0552571615
 10
-0.4032682292
 20
-0.043375651
 10
-0.4069303385
 20
-0.0332845052
 10
-0.4118945312
 20
-0.0250651042
 10
-0.4184049479
 20
-0.0186360677
 10
-0.4262988281
 20
-0.014078776
 10
-0.4356575521
 20
-0.011311849
 10
-0.4464811198
 20
-0.0104166667
 10
-0.4464811198
 20
-0.0104166667
 10
-0.454375
 20
-0.0104166667
 10
-0.454375
 20
-0.0104166667
 10
-0.454375
 20
-0.1875
 10
-0.454375
 20
-0.1875
 10
-0.579375
 20
-0.1875
  0
LWPOLYLINE
  5
75
330
1F
100
AcDbEntity
  8
0
  6
Continuous
 62
     7
100
AcDbPolyline
 90
       40
 70
   128
 43
0.0
 10
-0.454374831
 20
0.03125
 10
-0.4432259115
 20
0.03125
 10
-0.4432259115
 20
0.03125
 10
-0.436389974
 20
0.0314941406
 10
-0.4299609375
 20
0.0321451823
 10
-0.4240201823
 20
0.0332845052
 10
-0.4184863281
 20
0.0348307292
 10
-0.413359375
 20
0.0368652344
 10
-0.4087207031
 20
0.0393066406
 10
-0.4045703125
 20
0.0422363281
 10
-0.4008268229
 20
0.0455729167
 10
-0.3974902344
 20
0.0493977865
 10
-0.3946419271
 20
0.0536295573
 10
-0.3922005208
 20
0.0583496094
 10
-0.3901660156
 20
0.0634765625
 10
-0.3886197917
 20
0.0690917969
 10
-0.387561849
 20
0.0751139323
 10
-0.3869108073
 20
0.081624349
 10
-0.3866666667
 20
0.0885416667
 10
-0.3866666667
 20
0.0885416667
 10
-0.3869108073
 20
0.0954589844
 10
-0.387561849
 20
0.101969401
 10
-0.3886197917
 20
0.1079915365
 10
-0.3901660156
 20
0.1136067708
 10
-0.3922005208
 20
0.118733724
 10
-0.3946419271
 20
0.123453776
 10
-0.3974902344
 20
0.1276855469
 10
-0.4008268229
 20
0.1315104167
 10
-0.4045703125
 20
0.1348470052
 10
-0.4087207031
 20
0.1377766927
 10
-0.413359375
 20
0.140218099
 10
-0.4184863281
 20
0.1422526042
 10
-0.4240201823
 20
0.1437988281
 10
-0.4299609375
 20
0.144938151
 10
-0.436389974
 20
0.1455891927
 10
-0.4432259115
 20
0.1458333333
 10
-0.4432259115
 20
0.1458333333
 10
-0.454375
 20
0.1458333333
 10
-0.454375
 20
0.1458333333
 10
-0.454375
 20
0.03125
  0
LWPOLYLINE
  5
76
330
1F
100
AcDbEntity
  8
0
  6
Continuous
 62
     7
100
AcDbPolyline
 90
       68
 70
   128
 43
0.0
 10
-0.0633430983
 20
0.1979166667
 10
-0.0425911458
 20
0.1971842448
 10
-0.023141276
 20
0.194905599
 10
-0.0050748698
 20
0.1910807292
 10
0.0116894531
 20
0.1857096354
 10
0.0270703125
 20
0.1788736979
 10
0.0411490885
 20
0.1704915365
 10
0.053844401
 20
0.160563151
 10
0.0652376302
 20
0.1490885417
 10
0.075328776
 20
0.1361490885
 10
0.0840364583
 20
0.1216634115
 10
0.0913606771
 20
0.1056315104
 10
0.0973828125
 20
0.0880533854
 10
0.1021028646
 20
0.0690104167
 10
0.1054394531
 20
0.048421224
 10
0.1074739583
 20
0.0262858073
 10
0.108125
 20
0.0026041667
 10
0.108125
 20
0.0026041667
 10
0.1074739583
 20
-0.021077474
 10
0.1054394531
 20
-0.0431315104
 10
0.1020214844
 20
-0.0638020833
 10
0.0972200521
 20
-0.0828450521
 10
0.0911165365
 20
-0.1004231771
 10
0.0836295573
 20
-0.1163736979
 10
0.0747591146
 20
-0.1309407552
 10
0.0645052083
 20
-0.1438802083
 10
0.0529492188
 20
-0.1553548177
 10
0.0400097656
 20
-0.1652018229
 10
0.025686849
 20
-0.1736653646
 10
0.0099804688
 20
-0.1805013021
 10
-0.0070279948
 20
-0.1858723958
 10
-0.0254199219
 20
-0.1896158854
 10
-0.0451953125
 20
-0.1919759115
 10
-0.0663541667
 20
-0.1927083333
 10
-0.0663541667
 20
-0.1927083333
 10
-0.0868619792
 20
-0.1918945312
 10
-0.1059863281
 20
-0.1896158854
 10
-0.123889974
 20
-0.1857096354
 10
-0.1404101562
 20
-0.1802571615
 10
-0.1556282552
 20
-0.1731770833
 10
-0.1694628906
 20
-0.1646321615
 10
-0.1820768229
 20
-0.1544596354
 10
-0.1933072917
 20
-0.1428222656
 10
-0.2032356771
 20
-0.1295572917
 10
-0.211780599
 20
-0.1147460937
 10
-0.2191048177
 20
-0.0983886719
 10
-0.2250455729
 20
-0.0804036458
 10
-0.2296842448
 20
-0.060953776
 10
-0.2329394531
 20
-0.0398763021
 10
-0.2349739583
 20
-0.0172526042
 10
-0.235625
 20
0.0069173177
 10
-0.235625
 20
0.0069173177
 10
-0.2349739583
 20
0.0300292969
 10
-0.2329394531
 20
0.0516764323
 10
-0.2296028646
 20
0.071858724
 10
-0.2248828125
 20
0.0904947917
 10
-0.2187792969
 20
0.1076660156
 10
-0.2113736979
 20
0.1232910156
 10
-0.2026660156
 20
0.1374511719
 10
-0.1925748698
 20
0.1501464844
 10
-0.1811002604
 20
0.1613769531
 10
-0.1683235677
 20
0.1710611979
 10
-0.1541634115
 20
0.179280599
 10
-0.1387011719
 20
0.185953776
 10
-0.1218554687
 20
0.1911621094
 10
-0.1037076823
 20
0.194905599
 10
-0.0841764323
 20
0.1971842448
 10
-0.063343099
 20
0.1979166667
  0
LWPOLYLINE
  5
77
330
1F
100
AcDbEntity
  8
0
  6
Continuous
 62
     7
100
AcDbPolyline
 90
       68
 70
   128
 43
0.0
 10
-0.0663541301
 20
0.15625
 10
-0.0712369792
 20
0.1557617188
 10
-0.0757942708
 20
0.1543782552
 10
-0.0800260417
 20
0.1520182292
 10
-0.0839322917
 20
0.1486816406
 10
-0.0874316406
 20
0.1444498698
 10
-0.090686849
 20
0.1392415365
 10
-0.0935351562
 20
0.1330566406
 10
-0.0960579427
 20
0.1259765625
 10
-0.0982552083
 20
0.1174316406
 10
-0.1001269531
 20
0.1069335938
 10
-0.1017545573
 20
0.0944010417
 10
-0.1030566406
 20
0.0799967448
 10
-0.1041145833
 20
0.0635579427
 10
-0.1048470052
 20
0.0452473958
 10
-0.1052539062
 20
0.0249023438
 10
-0.1054166667
 20
0.0026041667
 10
-0.1054166667
 20
0.0026041667
 10
-0.1052539062
 20
-0.0196940104
 10
-0.1048470052
 20
-0.0400390625
 10
-0.1041145833
 20
-0.0584309896
 10
-0.1030566406
 20
-0.0748697917
 10
-0.1017545573
 20
-0.0892740885
 10
-0.1001269531
 20
-0.1018066406
 10
-0.0982552083
 20
-0.1123046875
 10
-0.0960579427
 20
-0.1208496094
 10
-0.0935351562
 20
-0.1279296875
 10
-0.090686849
 20
-0.1340332031
 10
-0.0874316406
 20
-0.1392415365
 10
-0.0839322917
 20
-0.1434733073
 10
-0.0800260417
 20
-0.1468098958
 10
-0.0757942708
 20
-0.1491699219
 10
-0.0712369792
 20
-0.1505533854
 10
-0.0663541667
 20
-0.1510416667
 10
-0.0663541667
 20
-0.1510416667
 10
-0.0603320312
 20
-0.1505533854
 10
-0.0547167969
 20
-0.1490885417
 10
-0.049671224
 20
-0.1467285156
 10
-0.0451139323
 20
-0.1433105469
 10
-0.0410449219
 20
-0.1389973958
 10
-0.0373828125
 20
-0.1337076823
 10
-0.0342903646
 20
-0.1275227865
 10
-0.0316861979
 20
-0.1202799479
 10
-0.0294075521
 20
-0.1115722656
 10
-0.0274544271
 20
-0.1009928385
 10
-0.0258268229
 20
-0.0885416667
 10
-0.0244433594
 20
-0.0741373698
 10
-0.0234667969
 20
-0.0577799479
 10
-0.0226529948
 20
-0.0395507812
 10
-0.0222460937
 20
-0.0194498698
 10
-0.0220833333
 20
0.0026041667
 10
-0.0220833333
 20
0.0026041667
 10
-0.0222460937
 20
0.0245768229
 10
-0.0226529948
 20
0.0446777344
 10
-0.0234667969
 20
0.062906901
 10
-0.0244433594
 20
0.0791829427
 10
-0.0258268229
 20
0.0935872396
 10
-0.0274544271
 20
0.1060384115
 10
-0.0294075521
 20
0.1166178385
 10
-0.0316861979
 20
0.1253255208
 10
-0.0342903646
 20
0.1325683594
 10
-0.0373828125
 20
0.1388346354
 10
-0.0410449219
 20
0.1442057292
 10
-0.0451139323
 20
0.1485188802
 10
-0.049671224
 20
0.151936849
 10
-0.0547167969
 20
0.154296875
 10
-0.0603320312
 20
0.1557617188
 10
-0.0663541667
 20
0.15625
  0
LWPOLYLINE
  5
78
330
1F
100
AcDbEntity
  8
0
  6
Continuous
 62
     7
100
AcDbPolyline
 90
      132
 70
   128
 43
0.0
 10
0.6034049227
 20
0.0858561198
 10
0.5387076823
 20
0.0763346354
 10
0.5387076823
 20
0.0763346354
 10
0.5394401042
 20
0.0872395833
 10
0.5400097656
 20
0.0968424479
 10
0.5403352865
 20
0.105061849
 10
0.5404166667
 20
0.1119791667
 10
0.5404166667
 20
0.1119791667
 10
0.539765625
 20
0.1223958333
 10
0.5378125
 20
0.1313476563
 10
0.5346386719
 20
0.1389973958
 10
0.5301627604
 20
0.1451822917
 10
0.5243847656
 20
0.1500651042
 10
0.5173046875
 20
0.1534830729
 10
0.508922526
 20
0.1555989583
 10
0.4993196615
 20
0.15625
 10
0.4993196615
 20
0.15625
 10
0.4932161458
 20
0.155843099
 10
0.4875195313
 20
0.154703776
 10
0.4821484375
 20
0.1528320313
 10
0.477265625
 20
0.1502278646
 10
0.4727897135
 20
0.1468098958
 10
0.4687207031
 20
0.1426595052
 10
0.4649772135
 20
0.1377766927
 10
0.4617220052
 20
0.1320800781
 10
0.4587109375
 20
0.1253255208
 10
0.4559440104
 20
0.1170247396
 10
0.4533398438
 20
0.1073404948
 10
0.4509798177
 20
0.096110026
 10
0.4487825521
 20
0.0833333333
 10
0.4467480469
 20
0.0690917969
 10
0.4448763021
 20
0.0533854167
 10
0.4432486979
 20
0.0362141927
 10
0.4432486979
 20
0.0362141927
 10
0.4488639323
 20
0.0436197917
 10
0.4549674479
 20
0.0499674479
 10
0.461640625
 20
0.0554199219
 10
0.4688834635
 20
0.0598144531
 10
0.4766145833
 20
0.0633138021
 10
0.4849153646
 20
0.0657552083
 10
0.4937044271
 20
0.0672200521
 10
0.503063151
 20
0.0677083333
 10
0.503063151
 20
0.0677083333
 10
0.5160839844
 20
0.0671386719
 10
0.5285351563
 20
0.0655110677
 10
0.5403352865
 20
0.0627441406
 10
0.5515657552
 20
0.0588378906
 10
0.5621451823
 20
0.0537923177
 10
0.5720735677
 20
0.0476888021
 10
0.5814322917
 20
0.0404459635
 10
0.590139974
 20
0.0321451823
 10
0.5980338542
 20
0.023030599
 10
0.6048697917
 20
0.0134277344
 10
0.6106477865
 20
0.0034179688
 10
0.6153678385
 20
-0.0071614583
 10
0.6190299479
 20
-0.0181477865
 10
0.6216341146
 20
-0.029703776
 10
0.6232617188
 20
-0.0416666667
 10
0.62375
 20
-0.0541178385
 10
0.62375
 20
-0.0541178385
 10
0.6231803385
 20
-0.0690917969
 10
0.6213085938
 20
-0.0833333333
 10
0.618297526
 20
-0.0969238281
 10
0.613984375
 20
-0.1097005208
 10
0.608531901
 20
-0.1219075521
 10
0.6017773438
 20
-0.1333007812
 10
0.5938834635
 20
-0.1440429687
 10
0.5846875
 20
-0.1540527344
 10
0.574514974
 20
-0.1630859375
 10
0.5634472656
 20
-0.1709798177
 10
0.5515657552
 20
-0.1775716146
 10
0.5387076823
 20
-0.1830240885
 10
0.5250358073
 20
-0.1872558594
 10
0.5105501302
 20
-0.1902669271
 10
0.4950878906
 20
-0.1921386719
 10
0.478811849
 20
-0.1927083333
 10
0.478811849
 20
-0.1927083333
 10
0.4591178385
 20
-0.1919759115
 10
0.4407259115
 20
-0.1897786458
 10
0.4236360677
 20
-0.1860351562
 10
0.4077669271
 20
-0.1809082031
 10
0.3931998698
 20
-0.174235026
 10
0.3798535156
 20
-0.1660970052
 10
0.3678092448
 20
-0.1564941406
 10
0.3570670573
 20
-0.1453450521
 10
0.3475455729
 20
-0.1328125
 10
0.3393261719
 20
-0.118733724
 10
0.332327474
 20
-0.1032714844
 10
0.3266308594
 20
-0.0862630208
 10
0.3221549479
 20
-0.0677083333
 10
0.3189811198
 20
-0.0477701823
 10
0.317109375
 20
-0.0263671875
 10
0.3164583333
 20
-0.0034179687
 10
0.3164583333
 20
-0.0034179687
 10
0.3171907552
 20
0.0188802083
 10
0.3193066406
 20
0.0400390625
 10
0.32296875
 20
0.0600585938
 10
0.3280143229
 20
0.0789388021
 10
0.3344433594
 20
0.0966796875
 10
0.3423372396
 20
0.11328125
 10
0.3516959635
 20
0.1286621094
 10
0.3625195313
 20
0.142985026
 10
0.3745638021
 20
0.155843099
 10
0.3875032552
 20
0.1669921875
 10
0.401500651
 20
0.1764322917
 10
0.4165559896
 20
0.1841634115
 10
0.4325065104
 20
0.1901855469
 10
0.449514974
 20
0.1944986979
 10
0.4675
 20
0.1970214844
 10
0.4864615885
 20
0.1979166667
 10
0.4864615885
 20
0.1979166667
 10
0.5005403646
 20
0.1975911458
 10
0.5137239583
 20
0.1965332031
 10
0.5260123698
 20
0.1947428385
 10
0.537405599
 20
0.1922200521
 10
0.5479036458
 20
0.189046224
 10
0.5574251302
 20
0.185139974
 10
0.5660514323
 20
0.1805013021
 10
0.5737825521
 20
0.1751302083
 10
0.5806184896
 20
0.1691080729
 10
0.5865592448
 20
0.1623535156
 10
0.5915234375
 20
0.1548665365
 10
0.5956738281
 20
0.1467285156
 10
0.5988476563
 20
0.1377766927
 10
0.6011263021
 20
0.1281738281
 10
0.6024283854
 20
0.1179199219
 10
0.6029166667
 20
0.1068522135
 10
0.6029166667
 20
0.1068522135
 10
0.6029166667
 20
0.1027832031
 10
0.6029980469
 20
0.0979817708
 10
0.6031608073
 20
0.0922851563
 10
0.6034049479
 20
0.0858561198
  0
LWPOLYLINE
  5
79
330
1F
100
AcDbEntity
  8
0
  6
Continuous
 62
     7
100
AcDbPolyline
 90
       68
 70
   128
 43
0.0
 10
0.4730338421
 20
0.0208333333
 10
0.4692089844
 20
0.0205078125
 10
0.4656282552
 20
0.0196126302
 10
0.4622916667
 20
0.0180664063
 10
0.4591992188
 20
0.0158691406
 10
0.4563509115
 20
0.0130208333
 10
0.453828125
 20
0.0096028646
 10
0.451468099
 20
0.0056152344
 10
0.4493522135
 20
0.0009765625
 10
0.4474804688
 20
-0.004313151
 10
0.4459342448
 20
-0.0102539062
 10
0.4445507813
 20
-0.0167643229
 10
0.4434114583
 20
-0.0239257812
 10
0.4425976563
 20
-0.0317382812
 10
0.4419466146
 20
-0.0401204427
 10
0.4416210938
 20
-0.0491536458
 10
0.4414583333
 20
-0.0587565104
 10
0.4414583333
 20
-0.0587565104
 10
0.4415397135
 20
-0.069905599
 10
0.4419466146
 20
-0.0804036458
 10
0.442516276
 20
-0.0900878906
 10
0.4432486979
 20
-0.0991210937
 10
0.4443066406
 20
-0.107421875
 10
0.4455273438
 20
-0.1149902344
 10
0.4470735677
 20
-0.1218261719
 10
0.4487825521
 20
-0.1279296875
 10
0.4507356771
 20
-0.1333821615
 10
0.4528515625
 20
-0.1381022135
 10
0.4552929688
 20
-0.1420084635
 10
0.4578971354
 20
-0.1452636719
 10
0.4607454427
 20
-0.1477864583
 10
0.4638378906
 20
-0.1495768229
 10
0.4671744792
 20
-0.1507161458
 10
0.4706738281
 20
-0.1510416667
 10
0.4706738281
 20
-0.1510416667
 10
0.4747428385
 20
-0.1506347656
 10
0.4784863281
 20
-0.1494954427
 10
0.4819856771
 20
-0.1476236979
 10
0.4852408854
 20
-0.144938151
 10
0.4882519531
 20
-0.1415201823
 10
0.4909375
 20
-0.1372884115
 10
0.4934602865
 20
-0.1323242187
 10
0.4956575521
 20
-0.126546224
 10
0.4976106771
 20
-0.1200358073
 10
0.4992382813
 20
-0.1127929687
 10
0.500703125
 20
-0.1047363281
 10
0.5018424479
 20
-0.0959472656
 10
0.5028190104
 20
-0.0864257812
 10
0.5034700521
 20
-0.0760904948
 10
0.5037955729
 20
-0.0650227865
 10
0.5039583333
 20
-0.053141276
 10
0.5039583333
 20
-0.053141276
 10
0.5038769531
 20
-0.0441894531
 10
0.5034700521
 20
-0.0358072917
 10
0.5029003906
 20
-0.0279947917
 10
0.5020052083
 20
-0.0207519531
 10
0.5009472656
 20
-0.0141601562
 10
0.4996451823
 20
-0.0080566406
 10
0.4980175781
 20
-0.0026041667
 10
0.4962272135
 20
0.002360026
 10
0.4941927083
 20
0.0066731771
 10
0.4919140625
 20
0.0104166667
 10
0.4893098958
 20
0.0135904948
 10
0.4865429688
 20
0.0161946615
 10
0.483531901
 20
0.0182291667
 10
0.4802766927
 20
0.0196940104
 10
0.4767773438
 20
0.0205078125
 10
0.4730338542
 20
0.0208333333
  0
LWPOLYLINE
  5
7A
330
1F
100
AcDbEntity
  8
0
  6
Continuous
 62
     7
100
AcDbPolyline
 90
      132
 70
   128
 43
0.0
 10
0.9523631316
 20
0.0858561198
 10
0.8876660156
 20
0.0763346354
 10
0.8876660156
 20
0.0763346354
 10
0.8883984375
 20
0.0872395833
 10
0.888968099
 20
0.0968424479
 10
0.8892936198
 20
0.105061849
 10
0.889375
 20
0.1119791667
 10
0.889375
 20
0.1119791667
 10
0.8887239583
 20
0.1223958333
 10
0.8867708333
 20
0.1313476563
 10
0.8835970052
 20
0.1389973958
 10
0.8791210938
 20
0.1451822917
 10
0.873343099
 20
0.1500651042
 10
0.8662630208
 20
0.1534830729
 10
0.8578808594
 20
0.1555989583
 10
0.8482779948
 20
0.15625
 10
0.8482779948
 20
0.15625
 10
0.8421744792
 20
0.155843099
 10
0.8364778646
 20
0.154703776
 10
0.8311067708
 20
0.1528320313
 10
0.8262239583
 20
0.1502278646
 10
0.8217480469
 20
0.1468098958
 10
0.8176790365
 20
0.1426595052
 10
0.8139355469
 20
0.1377766927
 10
0.8106803385
 20
0.1320800781
 10
0.8076692708
 20
0.1253255208
 10
0.8049023438
 20
0.1170247396
 10
0.8022981771
 20
0.1073404948
 10
0.799938151
 20
0.096110026
 10
0.7977408854
 20
0.0833333333
 10
0.7957063802
 20
0.0690917969
 10
0.7938346354
 20
0.0533854167
 10
0.7922070313
 20
0.0362141927
 10
0.7922070313
 20
0.0362141927
 10
0.7978222656
 20
0.0436197917
 10
0.8039257813
 20
0.0499674479
 10
0.8105989583
 20
0.0554199219
 10
0.8178417969
 20
0.0598144531
 10
0.8255729167
 20
0.0633138021
 10
0.8338736979
 20
0.0657552083
 10
0.8426627604
 20
0.0672200521
 10
0.8520214844
 20
0.0677083333
 10
0.8520214844
 20
0.0677083333
 10
0.8650423177
 20
0.0671386719
 10
0.8774934896
 20
0.0655110677
 10
0.8892936198
 20
0.0627441406
 10
0.9005240885
 20
0.0588378906
 10
0.9111035156
 20
0.0537923177
 10
0.921031901
 20
0.0476888021
 10
0.930390625
 20
0.0404459635
 10
0.9390983073
 20
0.0321451823
 10
0.9469921875
 20
0.023030599
 10
0.953828125
 20
0.0134277344
 10
0.9596061198
 20
0.0034179688
 10
0.9643261719
 20
-0.0071614583
 10
0.9679882813
 20
-0.0181477865
 10
0.9705924479
 20
-0.029703776
 10
0.9722200521
 20
-0.0416666667
 10
0.9727083333
 20
-0.0541178385
 10
0.9727083333
 20
-0.0541178385
 10
0.9721386719
 20
-0.0690917969
 10
0.9702669271
 20
-0.0833333333
 10
0.9672558594
 20
-0.0969238281
 10
0.9629427083
 20
-0.1097005208
 10
0.9574902344
 20
-0.1219075521
 10
0.9507356771
 20
-0.1333007812
 10
0.9428417969
 20
-0.1440429687
 10
0.9336458333
 20
-0.1540527344
 10
0.9234733073
 20
-0.1630859375
 10
0.912405599
 20
-0.1709798177
 10
0.9005240885
 20
-0.1775716146
 10
0.8876660156
 20
-0.1830240885
 10
0.8739941406
 20
-0.1872558594
 10
0.8595084635
 20
-0.1902669271
 10
0.844046224
 20
-0.1921386719
 10
0.8277701823
 20
-0.1927083333
 10
0.8277701823
 20
-0.1927083333
 10
0.8080761719
 20
-0.1919759115
 10
0.7896842448
 20
-0.1897786458
 10
0.772594401
 20
-0.1860351562
 10
0.7567252604
 20
-0.1809082031
 10
0.7421582031
 20
-0.174235026
 10
0.728811849
 20
-0.1660970052
 10
0.7167675781
 20
-0.1564941406
 10
0.7060253906
 20
-0.1453450521
 10
0.6965039063
 20
-0.1328125
 10
0.6882845052
 20
-0.118733724
 10
0.6812858073
 20
-0.1032714844
 10
0.6755891927
 20
-0.0862630208
 10
0.6711132813
 20
-0.0677083333
 10
0.6679394531
 20
-0.0477701823
 10
0.6660677083
 20
-0.0263671875
 10
0.6654166667
 20
-0.0034179687
 10
0.6654166667
 20
-0.0034179687
 10
0.6661490885
 20
0.0188802083
 10
0.668264974
 20
0.0400390625
 10
0.6719270833
 20
0.0600585938
 10
0.6769726563
 20
0.0789388021
 10
0.6834016927
 20
0.0966796875
 10
0.6912955729
 20
0.11328125
 10
0.7006542969
 20
0.1286621094
 10
0.7114778646
 20
0.142985026
 10
0.7235221354
 20
0.155843099
 10
0.7364615885
 20
0.1669921875
 10
0.7504589844
 20
0.1764322917
 10
0.7655143229
 20
0.1841634115
 10
0.7814648438
 20
0.1901855469
 10
0.7984733073
 20
0.1944986979
 10
0.8164583333
 20
0.1970214844
 10
0.8354199219
 20
0.1979166667
 10
0.8354199219
 20
0.1979166667
 10
0.8494986979
 20
0.1975911458
 10
0.8626822917
 20
0.1965332031
 10
0.8749707031
 20
0.1947428385
 10
0.8863639323
 20
0.1922200521
 10
0.8968619792
 20
0.189046224
 10
0.9063834635
 20
0.185139974
 10
0.9150097656
 20
0.1805013021
 10
0.9227408854
 20
0.1751302083
 10
0.9295768229
 20
0.1691080729
 10
0.9355175781
 20
0.1623535156
 10
0.9404817708
 20
0.1548665365
 10
0.9446321615
 20
0.1467285156
 10
0.9478059896
 20
0.1377766927
 10
0.9500846354
 20
0.1281738281
 10
0.9513867188
 20
0.1179199219
 10
0.951875
 20
0.1068522135
 10
0.951875
 20
0.1068522135
 10
0.951875
 20
0.1027832031
 10
0.9519563802
 20
0.0979817708
 10
0.9521191406
 20
0.0922851563
 10
0.9523632813
 20
0.0858561198
  0
LWPOLYLINE
  5
7B
330
1F
100
AcDbEntity
  8
0
  6
Continuous
 62
     7
100
AcDbPolyline
 90
       68
 70
   128
 43
0.0
 10
0.8219920509
 20
0.0208333333
 10
0.8181673177
 20
0.0205078125
 10
0.8145865885
 20
0.0196126302
 10
0.81125
 20
0.0180664063
 10
0.8081575521
 20
0.0158691406
 10
0.8053092448
 20
0.0130208333
 10
0.8027864583
 20
0.0096028646
 10
0.8004264323
 20
0.0056152344
 10
0.7983105469
 20
0.0009765625
 10
0.7964388021
 20
-0.004313151
 10
0.7948925781
 20
-0.0102539062
 10
0.7935091146
 20
-0.0167643229
 10
0.7923697917
 20
-0.0239257812
 10
0.7915559896
 20
-0.0317382812
 10
0.7909049479
 20
-0.0401204427
 10
0.7905794271
 20
-0.0491536458
 10
0.7904166667
 20
-0.0587565104
 10
0.7904166667
 20
-0.0587565104
 10
0.7904980469
 20
-0.069905599
 10
0.7909049479
 20
-0.0804036458
 10
0.7914746094
 20
-0.0900878906
 10
0.7922070313
 20
-0.0991210937
 10
0.793264974
 20
-0.107421875
 10
0.7944856771
 20
-0.1149902344
 10
0.796031901
 20
-0.1218261719
 10
0.7977408854
 20
-0.1279296875
 10
0.7996940104
 20
-0.1333821615
 10
0.8018098958
 20
-0.1381022135
 10
0.8042513021
 20
-0.1420084635
 10
0.8068554688
 20
-0.1452636719
 10
0.809703776
 20
-0.1477864583
 10
0.812796224
 20
-0.1495768229
 10
0.8161328125
 20
-0.1507161458
 10
0.8196321615
 20
-0.1510416667
 10
0.8196321615
 20
-0.1510416667
 10
0.8237011719
 20
-0.1506347656
 10
0.8274446615
 20
-0.1494954427
 10
0.8309440104
 20
-0.1476236979
 10
0.8341992188
 20
-0.144938151
 10
0.8372102865
 20
-0.1415201823
 10
0.8398958333
 20
-0.1372884115
 10
0.8424186198
 20
-0.1323242187
 10
0.8446158854
 20
-0.126546224
 10
0.8465690104
 20
-0.1200358073
 10
0.8481966146
 20
-0.1127929687
 10
0.8496614583
 20
-0.1047363281
 10
0.8508007813
 20
-0.0959472656
 10
0.8517773438
 20
-0.0864257812
 10
0.8524283854
 20
-0.0760904948
 10
0.8527539063
 20
-0.0650227865
 10
0.8529166667
 20
-0.053141276
 10
0.8529166667
 20
-0.053141276
 10
0.8528352865
 20
-0.0441894531
 10
0.8524283854
 20
-0.0358072917
 10
0.851858724
 20
-0.0279947917
 10
0.8509635417
 20
-0.0207519531
 10
0.849905599
 20
-0.0141601562
 10
0.8486035156
 20
-0.0080566406
 10
0.8469759115
 20
-0.0026041667
 10
0.8451855469
 20
0.002360026
 10
0.8431510417
 20
0.0066731771
 10
0.8408723958
 20
0.0104166667
 10
0.8382682292
 20
0.0135904948
 10
0.8355013021
 20
0.0161946615
 10
0.8324902344
 20
0.0182291667
 10
0.829235026
 20
0.0196940104
 10
0.8257356771
 20
0.0205078125
 10
0.8219921875
 20
0.0208333333
  0
LINE
  5
80
330
1F
100
AcDbEntity
  8
0
  6
Continuous
 62
     7
370
    25
100
AcDbLine
 10
-1.25
 20
-1.25
 30
0.0
 11
1.25
 21
-1.25
 31
0.0
  0
LINE
  5
81
330
1F
100
AcDbEntity
  8
0
  6
Continuous
 62
     7
370
    25
100
AcDbLine
 10
-1.25
 20
1.25
 30
0.0
 11
-1.25
 21
-1.25
 31
0.0
  0
LINE
  5
82
330
1F
100
AcDbEntity
  8
0
  6
Continuous
 62
     7
370
    25
100
AcDbLine
 10
1.25
 20
1.25
 30
0.0
 11
-1.25
 21
1.25
 31
0.0
  0
LINE
  5
83
330
1F
100
AcDbEntity
  8
0
  6
Continuous
 62
     7
370
    25
100
AcDbLine
 10
1.25
 20
-1.25
 30
0.0
 11
1.25
 21
1.25
 31
0.0
  0
MTEXT
  5
85
330
1F
100
AcDbEntity
  8
0
  6
Continuous
 62
     7
100
AcDbMText
 10
-1.25
 20
-1.2901404091
 30
0.0
 40
0.1903
 41
0.0
 71
     1
 72
     1
  1
Produit d'éducation SOLIDWORKS – A titre éducatif uniquement.
  7
SLDTEXTSTYLE0
 73
     1
 44
1.0
  0
ENDSEC
  0
SECTION
  2
OBJECTS
  0
DICTIONARY
  5
C
330
0
100
AcDbDictionary
281
     1
  3
ACAD_GROUP
350
D
  3
ACAD_LAYOUT
350
1A
  3
ACAD_MLINESTYLE
350
17
  3
ACAD_PLOTSETTINGS
350
19
  3
ACAD_PLOTSTYLENAME
350
E
  3
ACAD_SCALELIST
350
47
  3
DWGPROPS
350
86
  0
DICTIONARY
  5
D
102
{ACAD_REACTORS
330
C
102
}
330
C
100
AcDbDictionary
281
     1
  0
DICTIONARY
  5
1A
102
{ACAD_REACTORS
330
C
102
}
330
C
100
AcDbDictionary
281
     1
  3
Layout1
350
1E
  3
Layout2
350
26
  3
Model
350
22
  0
DICTIONARY
  5
17
102
{ACAD_REACTORS
330
C
102
}
330
C
100
AcDbDictionary
281
     1
  3
Standard
350
18
  0
DICTIONARY
  5
19
102
{ACAD_REACTORS
330
C
102
}
330
C
100
AcDbDictionary
281
     1
  0
ACDBDICTIONARYWDFLT
  5
E
102
{ACAD_REACTORS
330
C
102
}
330
C
100
AcDbDictionary
281
     1
  3
Normal
350
F
100
AcDbDictionaryWithDefault
340
F
  0
DICTIONARY
  5
47
102
{ACAD_REACTORS
330
C
102
}
330
C
100
AcDbDictionary
281
     1
  3
A0
350
48
  3
A1
350
49
  3
A2
350
4A
  3
A3
350
4B
  3
A4
350
4C
  3
A5
350
4D
  3
A6
350
4E
  3
A7
350
4F
  3
A8
350
50
  3
A9
350
51
  3
B0
350
52
  3
B1
350
53
  3
B2
350
54
  3
B3
350
55
  3
B4
350
56
  3
B5
350
57
  3
B6
350
58
  3
B7
350
59
  3
B8
350
5A
  3
B9
350
5B
  3
C0
350
5C
  3
C1
350
5D
  3
C2
350
5E
  3
C3
350
5F
  3
C4
350
60
  3
C5
350
61
  3
C6
350
62
  3
C7
350
63
  3
C8
350
64
  3
C9
350
65
  3
D0
350
66
  3
D1
350
67
  3
D2
350
68
  0
XRECORD
  5
86
102
{ACAD_REACTORS
330
C
102
}
330
C
100
AcDbXrecord
280
     1
  1
DWGPROPS COOKIE
  2

  3

  4

  6

  7

  8
Utilisateur
  9

300
=
301
=
302
=
303
=
304
=
305
=
306
=
307
=
308
=
309
=
 40
0.0
 41
2459658.86173978
 42
2459658.861792269
  1

 90
        0
  0
LAYOUT
  5
1E
102
{ACAD_REACTORS
330
1A
102
}
330
1A
100
AcDbPlotSettings
  1

  2
none_device
  4

  6

 40
0.0
 41
0.0
 42
0.0
 43
0.0
 44
0.0
 45
0.0
 46
0.0
 47
0.0
 48
0.0
 49
0.0
140
0.0
141
0.0
142
1.0
143
1.0
 70
   688
 72
     0
 73
     0
 74
     5
  7

 75
    16
147
1.0
148
0.0
149
0.0
100
AcDbLayout
  1
Layout1
 70
     1
 71
     1
 10
0.0
 20
0.0
 11
12.0
 21
9.0
 12
0.0
 22
0.0
 32
0.0
 14
1.0000000000E+20
 24
1.0000000000E+20
 34
1.0000000000E+20
 15
-1.0000000000E+20
 25
-1.0000000000E+20
 35
-1.0000000000E+20
146
0.0
 13
0.0
 23
0.0
 33
0.0
 16
1.0
 26
0.0
 36
0.0
 17
0.0
 27
1.0
 37
0.0
 76
     0
330
1B
  0
LAYOUT
  5
26
102
{ACAD_REACTORS
330
1A
102
}
330
1A
100
AcDbPlotSettings
  1

  2
none_device
  4

  6

 40
0.0
 41
0.0
 42
0.0
 43
0.0
 44
0.0
 45
0.0
 46
0.0
 47
0.0
 48
0.0
 49
0.0
140
0.0
141
0.0
142
1.0
143
1.0
 70
   688
 72
     0
 73
     0
 74
     5
  7

 75
    16
147
1.0
148
0.0
149
0.0
100
AcDbLayout
  1
Layout2
 70
     1
 71
     2
 10
0.0
 20
0.0
 11
0.0
 21
0.0
 12
0.0
 22
0.0
 32
0.0
 14
0.0
 24
0.0
 34
0.0
 15
0.0
 25
0.0
 35
0.0
146
0.0
 13
0.0
 23
0.0
 33
0.0
 16
1.0
 26
0.0
 36
0.0
 17
0.0
 27
1.0
 37
0.0
 76
     0
330
23
  0
LAYOUT
  5
22
102
{ACAD_REACTORS
330
1A
102
}
330
1A
100
AcDbPlotSettings
  1

  2
none_device
  4
ANSI_A_(11.00_x_8.50_Inches)
  6

 40
6.35
 41
19.05
 42
6.35000508
 43
19.05000254
 44
279.4
 45
215.9
 46
133.34999746
 47
88.89999873
 48
0.0
 49
0.0
140
0.0
141
0.0
142
3.366
143
1.0
 70
  1696
 72
     0
 73
     0
 74
     0
  7

 75
     0
147
0.5913241897
148
-39.4088153714
149
0.0
100
AcDbLayout
  1
Model
 70
     1
 71
     0
 10
0.0
 20
0.0
 11
12.0
 21
9.0
 12
0.0
 22
0.0
 32
0.0
 14
-1.25
 24
-1.25
 34
0.0
 15
1.25
 25
1.25
 35
0.0
146
0.0
 13
0.0
 23
0.0
 33
0.0
 16
1.0
 26
0.0
 36
0.0
 17
0.0
 27
1.0
 37
0.0
 76
     0
330
1F
331
29
  0
MLINESTYLE
  5
18
102
{ACAD_REACTORS
330
17
102
}
330
17
100
AcDbMlineStyle
  2
Standard
 70
     0
  3

 62
   256
 51
90.0
 52
90.0
 71
     2
 49
0.5
 62
   256
  6
BYLAYER
 49
-0.5
 62
   256
  6
BYLAYER
  0
ACDBPLACEHOLDER
  5
F
102
{ACAD_REACTORS
330
E
102
}
330
E
  0
SCALE
  5
48
102
{ACAD_REACTORS
330
47
102
}
330
47
100
AcDbScale
 70
     0
300
1:1
140
1.0
141
1.0
290
     1
  0
SCALE
  5
49
102
{ACAD_REACTORS
330
47
102
}
330
47
100
AcDbScale
 70
     0
300
1:2
140
1.0
141
2.0
290
     0
  0
SCALE
  5
4A
102
{ACAD_REACTORS
330
47
102
}
330
47
100
AcDbScale
 70
     0
300
1:4
140
1.0
141
4.0
290
     0
  0
SCALE
  5
4B
102
{ACAD_REACTORS
330
47
102
}
330
47
100
AcDbScale
 70
     0
300
1:5
140
1.0
141
5.0
290
     0
  0
SCALE
  5
4C
102
{ACAD_REACTORS
330
47
102
}
330
47
100
AcDbScale
 70
     0
300
1:8
140
1.0
141
8.0
290
     0
  0
SCALE
  5
4D
102
{ACAD_REACTORS
330
47
102
}
330
47
100
AcDbScale
 70
     0
300
1:10
140
1.0
141
10.0
290
     0
  0
SCALE
  5
4E
102
{ACAD_REACTORS
330
47
102
}
330
47
100
AcDbScale
 70
     0
300
1:16
140
1.0
141
16.0
290
     0
  0
SCALE
  5
4F
102
{ACAD_REACTORS
330
47
102
}
330
47
100
AcDbScale
 70
     0
300
1:20
140
1.0
141
20.0
290
     0
  0
SCALE
  5
50
102
{ACAD_REACTORS
330
47
102
}
330
47
100
AcDbScale
 70
     0
300
1:30
140
1.0
141
30.0
290
     0
  0
SCALE
  5
51
102
{ACAD_REACTORS
330
47
102
}
330
47
100
AcDbScale
 70
     0
300
1:40
140
1.0
141
40.0
290
     0
  0
SCALE
  5
52
102
{ACAD_REACTORS
330
47
102
}
330
47
100
AcDbScale
 70
     0
300
1:50
140
1.0
141
50.0
290
     0
  0
SCALE
  5
53
102
{ACAD_REACTORS
330
47
102
}
330
47
100
AcDbScale
 70
     0
300
1:100
140
1.0
141
100.0
290
     0
  0
SCALE
  5
54
102
{ACAD_REACTORS
330
47
102
}
330
47
100
AcDbScale
 70
     0
300
2:1
140
2.0
141
1.0
290
     0
  0
SCALE
  5
55
102
{ACAD_REACTORS
330
47
102
}
330
47
100
AcDbScale
 70
     0
300
4:1
140
4.0
141
1.0
290
     0
  0
SCALE
  5
56
102
{ACAD_REACTORS
330
47
102
}
330
47
100
AcDbScale
 70
     0
300
8:1
140
8.0
141
1.0
290
     0
  0
SCALE
  5
57
102
{ACAD_REACTORS
330
47
102
}
330
47
100
AcDbScale
 70
     0
300
10:1
140
10.0
141
1.0
290
     0
  0
SCALE
  5
58
102
{ACAD_REACTORS
330
47
102
}
330
47
100
AcDbScale
 70
     0
300
100:1
140
100.0
141
1.0
290
     0
  0
SCALE
  5
59
102
{ACAD_REACTORS
330
47
102
}
330
47
100
AcDbScale
 70
     0
300
1/128" = 1'-0"
140
0.0078125
141
12.0
290
     0
  0
SCALE
  5
5A
102
{ACAD_REACTORS
330
47
102
}
330
47
100
AcDbScale
 70
     0
300
1/64" = 1'-0"
140
0.015625
141
12.0
290
     0
  0
SCALE
  5
5B
102
{ACAD_REACTORS
330
47
102
}
330
47
100
AcDbScale
 70
     0
300
1/32" = 1'-0"
140
0.03125
141
12.0
290
     0
  0
SCALE
  5
5C
102
{ACAD_REACTORS
330
47
102
}
330
47
100
AcDbScale
 70
     0
300
1/16" = 1'-0"
140
0.0625
141
12.0
290
     0
  0
SCALE
  5
5D
102
{ACAD_REACTORS
330
47
102
}
330
47
100
AcDbScale
 70
     0
300
3/32" = 1'-0"
140
0.09375
141
12.0
290
     0
  0
SCALE
  5
5E
102
{ACAD_REACTORS
330
47
102
}
330
47
100
AcDbScale
 70
     0
300
1/8" = 1'-0"
140
0.125
141
12.0
290
     0
  0
SCALE
  5
5F
102
{ACAD_REACTORS
330
47
102
}
330
47
100
AcDbScale
 70
     0
300
3/16" = 1'-0"
140
0.1875
141
12.0
290
     0
  0
SCALE
  5
60
102
{ACAD_REACTORS
330
47
102
}
330
47
100
AcDbScale
 70
     0
300
1/4" = 1'-0"
140
0.25
141
12.0
290
     0
  0
SCALE
  5
61
102
{ACAD_REACTORS
330
47
102
}
330
47
100
AcDbScale
 70
     0
300
3/8" = 1'-0"
140
0.375
141
12.0
290
     0
  0
SCALE
  5
62
102
{ACAD_REACTORS
330
47
102
}
330
47
100
AcDbScale
 70
     0
300
1/2" = 1'-0"
140
0.5
141
12.0
290
     0
  0
SCALE
  5
63
102
{ACAD_REACTORS
330
47
102
}
330
47
100
AcDbScale
 70
     0
300
3/4" = 1'-0"
140
0.75
141
12.0
290
     0
  0
SCALE
  5
64
102
{ACAD_REACTORS
330
47
102
}
330
47
100
AcDbScale
 70
     0
300
1" = 1'-0"
140
1.0
141
12.0
290
     0
  0
SCALE
  5
65
102
{ACAD_REACTORS
330
47
102
}
330
47
100
AcDbScale
 70
     0
300
1-1/2" = 1'-0"
140
1.5
141
12.0
290
     0
  0
SCALE
  5
66
102
{ACAD_REACTORS
330
47
102
}
330
47
100
AcDbScale
 70
     0
300
3" = 1'-0"
140
3.0
141
12.0
290
     0
  0
SCALE
  5
67
102
{ACAD_REACTORS
330
47
102
}
330
47
100
AcDbScale
 70
     0
300
6" = 1'-0"
140
6.0
141
12.0
290
     0
  0
SCALE
  5
68
102
{ACAD_REACTORS
330
47
102
}
330
47
100
AcDbScale
 70
     0
300
1'-0" = 1'-0"
140
12.0
141
12.0
290
     0
  0
ENDSEC
  0
EOF
