  0
SECTION
  2
HEADER
  9
$ACADVER
  1
AC1015
  9
$ACADMAINTVER
 70
     6
  9
$DWGCODEPAGE
  3
ANSI_1252
  9
$INSBASE
 10
0.0
 20
0.0
 30
0.0
  9
$EXTMIN
 10
-7.0
 20
-2.125
 30
0.0
  9
$EXTMAX
 10
7.0
 20
2.125
 30
0.0
  9
$LIMMIN
 10
0.0
 20
0.0
  9
$LIMMAX
 10
12.0
 20
9.0
  9
$ORTHOMODE
 70
     0
  9
$REGENMODE
 70
     1
  9
$FILLMODE
 70
     1
  9
$QTEXTMODE
 70
     0
  9
$MIRRTEXT
 70
     1
  9
$LTSCALE
 40
1.0
  9
$ATTMODE
 70
     1
  9
$TEXTSIZE
 40
0.25
  9
$TRACEWID
 40
0.05
  9
$TEXTSTYLE
  7
Standard
  9
$CLAYER
  8
0
  9
$CELTYPE
  6
ByLayer
  9
$CECOLOR
 62
   256
  9
$CELTSCALE
 40
1.0
  9
$DISPSILH
 70
     0
  9
$DIMSCALE
 40
1.0
  9
$DIMASZ
 40
0.236
  9
$DIMEXO
 40
0.0
  9
$DIMDLI
 40
0.38
  9
$DIMRND
 40
0.0
  9
$DIMDLE
 40
0.0
  9
$DIMEXE
 40
0.039
  9
$DIMTP
 40
0.0
  9
$DIMTM
 40
0.0
  9
$DIMTXT
 40
0.25
  9
$DIMCEN
 40
0.09
  9
$DIMTSZ
 40
0.0
  9
$DIMTOL
 70
     0
  9
$DIMLIM
 70
     0
  9
$DIMTIH
 70
     1
  9
$DIMTOH
 70
     1
  9
$DIMSE1
 70
     0
  9
$DIMSE2
 70
     0
  9
$DIMTAD
 70
     1
  9
$DIMZIN
 70
     0
  9
$DIMBLK
  1

  9
$DIMASO
 70
     1
  9
$DIMSHO
 70
     1
  9
$DIMPOST
  1

  9
$DIMAPOST
  1

  9
$DIMALT
 70
     0
  9
$DIMALTD
 70
     2
  9
$DIMALTF
 40
25.4
  9
$DIMLFAC
 40
1.0
  9
$DIMTOFL
 70
     0
  9
$DIMTVP
 40
0.0
  9
$DIMTIX
 70
     0
  9
$DIMSOXD
 70
     0
  9
$DIMSAH
 70
     0
  9
$DIMBLK1
  1

  9
$DIMBLK2
  1

  9
$DIMSTYLE
  2
Standard
  9
$DIMCLRD
 70
     0
  9
$DIMCLRE
 70
     0
  9
$DIMCLRT
 70
     0
  9
$DIMTFAC
 40
1.0
  9
$DIMGAP
 40
0.06
  9
$DIMJUST
 70
     0
  9
$DIMSD1
 70
     0
  9
$DIMSD2
 70
     0
  9
$DIMTOLJ
 70
     1
  9
$DIMTZIN
 70
     0
  9
$DIMALTZ
 70
     0
  9
$DIMALTTZ
 70
     0
  9
$DIMUPT
 70
     0
  9
$DIMDEC
 70
     2
  9
$DIMTDEC
 70
     2
  9
$DIMALTU
 70
     2
  9
$DIMALTTD
 70
     2
  9
$DIMTXSTY
  7
Standard
  9
$DIMAUNIT
 70
     0
  9
$DIMADEC
 70
     2
  9
$DIMALTRND
 40
0.0
  9
$DIMAZIN
 70
     0
  9
$DIMDSEP
 70
    46
  9
$DIMATFIT
 70
     3
  9
$DIMFRAC
 70
     0
  9
$DIMLDRBLK
  1

  9
$DIMLUNIT
 70
     2
  9
$DIMLWD
 70
    -2
  9
$DIMLWE
 70
    -2
  9
$DIMTMOVE
 70
     0
  9
$LUNITS
 70
     2
  9
$LUPREC
 70
     2
  9
$SKETCHINC
 40
0.1
  9
$FILLETRAD
 40
0.5
  9
$AUNITS
 70
     0
  9
$AUPREC
 70
     2
  9
$MENU
  1
.
  9
$ELEVATION
 40
0.0
  9
$PELEVATION
 40
0.0
  9
$THICKNESS
 40
0.0
  9
$LIMCHECK
 70
     0
  9
$CHAMFERA
 40
0.0
  9
$CHAMFERB
 40
0.0
  9
$CHAMFERC
 40
0.0
  9
$CHAMFERD
 40
0.0
  9
$SKPOLY
 70
     0
  9
$TDCREATE
 40
2459655.729278137
  9
$TDUCREATE
 40
2459655.895944803
  9
$TDUPDATE
 40
2459655.72930897
  9
$TDUUPDATE
 40
2459655.895975637
  9
$TDINDWG
 40
0.0000000116
  9
$TDUSRTIMER
 40
0.0000000116
  9
$USRTIMER
 70
     1
  9
$ANGBASE
 50
0.0
  9
$ANGDIR
 70
     0
  9
$PDMODE
 70
     0
  9
$PDSIZE
 40
-1.0
  9
$PLINEWID
 40
0.0
  9
$SPLFRAME
 70
     0
  9
$SPLINETYPE
 70
     6
  9
$SPLINESEGS
 70
     8
  9
$HANDSEED
  5
137
  9
$SURFTAB1
 70
     6
  9
$SURFTAB2
 70
     6
  9
$SURFTYPE
 70
     6
  9
$SURFU
 70
     6
  9
$SURFV
 70
     6
  9
$UCSBASE
  2

  9
$UCSNAME
  2

  9
$UCSORG
 10
0.0
 20
0.0
 30
0.0
  9
$UCSXDIR
 10
1.0
 20
0.0
 30
0.0
  9
$UCSYDIR
 10
0.0
 20
1.0
 30
0.0
  9
$UCSORTHOREF
  2

  9
$UCSORTHOVIEW
 70
     0
  9
$UCSORGTOP
 10
0.0
 20
0.0
 30
0.0
  9
$UCSORGBOTTOM
 10
0.0
 20
0.0
 30
0.0
  9
$UCSORGLEFT
 10
0.0
 20
0.0
 30
0.0
  9
$UCSORGRIGHT
 10
0.0
 20
0.0
 30
0.0
  9
$UCSORGFRONT
 10
0.0
 20
0.0
 30
0.0
  9
$UCSORGBACK
 10
0.0
 20
0.0
 30
0.0
  9
$PUCSBASE
  2

  9
$PUCSNAME
  2

  9
$PUCSORG
 10
0.0
 20
0.0
 30
0.0
  9
$PUCSXDIR
 10
1.0
 20
0.0
 30
0.0
  9
$PUCSYDIR
 10
0.0
 20
1.0
 30
0.0
  9
$PUCSORTHOREF
  2

  9
$PUCSORTHOVIEW
 70
     0
  9
$PUCSORGTOP
 10
0.0
 20
0.0
 30
0.0
  9
$PUCSORGBOTTOM
 10
0.0
 20
0.0
 30
0.0
  9
$PUCSORGLEFT
 10
0.0
 20
0.0
 30
0.0
  9
$PUCSORGRIGHT
 10
0.0
 20
0.0
 30
0.0
  9
$PUCSORGFRONT
 10
0.0
 20
0.0
 30
0.0
  9
$PUCSORGBACK
 10
0.0
 20
0.0
 30
0.0
  9
$USERI1
 70
     0
  9
$USERI2
 70
     0
  9
$USERI3
 70
     0
  9
$USERI4
 70
     0
  9
$USERI5
 70
     0
  9
$USERR1
 40
0.0
  9
$USERR2
 40
0.0
  9
$USERR3
 40
0.0
  9
$USERR4
 40
0.0
  9
$USERR5
 40
0.0
  9
$WORLDVIEW
 70
     1
  9
$SHADEDGE
 70
     3
  9
$SHADEDIF
 70
    70
  9
$TILEMODE
 70
     1
  9
$MAXACTVP
 70
    64
  9
$PINSBASE
 10
0.0
 20
0.0
 30
0.0
  9
$PLIMCHECK
 70
     0
  9
$PEXTMIN
 10
1.0000000000E+20
 20
1.0000000000E+20
 30
1.0000000000E+20
  9
$PEXTMAX
 10
-1.0000000000E+20
 20
-1.0000000000E+20
 30
-1.0000000000E+20
  9
$PLIMMIN
 10
0.0
 20
0.0
  9
$PLIMMAX
 10
12.0
 20
9.0
  9
$UNITMODE
 70
     0
  9
$VISRETAIN
 70
     1
  9
$PLINEGEN
 70
     0
  9
$PSLTSCALE
 70
     1
  9
$TREEDEPTH
 70
  3020
  9
$CMLSTYLE
  2
Standard
  9
$CMLJUST
 70
     0
  9
$CMLSCALE
 40
1.0
  9
$PROXYGRAPHICS
 70
     1
  9
$MEASUREMENT
 70
     0
  9
$CELWEIGHT
370
    -1
  9
$ENDCAPS
280
     0
  9
$JOINSTYLE
280
     0
  9
$LWDISPLAY
290
     1
  9
$INSUNITS
 70
     1
  9
$HYPERLINKBASE
  1

  9
$STYLESHEET
  1

  9
$XEDIT
290
     1
  9
$CEPSNTYPE
380
     0
  9
$PSTYLEMODE
290
     1
  9
$FINGERPRINTGUID
  2
{e11d4639-16bb-4f56-b940-5d13d2d063d0}
  9
$VERSIONGUID
  2
{FAEB1C32-E019-11D5-929B-00C0DF256EC4}
  9
$EXTNAMES
290
     1
  9
$PSVPSCALE
 40
0.0
  9
$OLESTARTUP
290
     0
  0
ENDSEC
  0
SECTION
  2
CLASSES
  0
CLASS
  1
ACDBDICTIONARYWDFLT
  2
AcDbDictionaryWithDefault
  3
ObjectDBX Classes
 90
        0
280
     0
281
     0
  0
CLASS
  1
VISUALSTYLE
  2
AcDbVisualStyle
  3
ObjectDBX Classes
 90
     4095
280
     0
281
     0
  0
CLASS
  1
MATERIAL
  2
AcDbMaterial
  3
ObjectDBX Classes
 90
     1153
280
     0
281
     0
  0
CLASS
  1
SCALE
  2
AcDbScale
  3
ObjectDBX Classes
 90
     1153
280
     0
281
     0
  0
CLASS
  1
TABLESTYLE
  2
AcDbTableStyle
  3
ObjectDBX Classes
 90
     4095
280
     0
281
     0
  0
CLASS
  1
MLEADERSTYLE
  2
AcDbMLeaderStyle
  3
ACDB_MLEADERSTYLE_CLASS
 90
     4095
280
     0
281
     0
  0
CLASS
  1
SUN
  2
AcDbSun
  3
SCENEOE
 90
     1153
280
     0
281
     0
  0
CLASS
  1
ACDBPLACEHOLDER
  2
AcDbPlaceHolder
  3
ObjectDBX Classes
 90
        0
280
     0
281
     0
  0
CLASS
  1
LAYOUT
  2
AcDbLayout
  3
ObjectDBX Classes
 90
        0
280
     0
281
     0
  0
ENDSEC
  0
SECTION
  2
TABLES
  0
TABLE
  2
VPORT
  5
8
330
0
100
AcDbSymbolTable
 70
     1
  0
VPORT
  5
29
330
8
100
AcDbSymbolTableRecord
100
AcDbViewportTableRecord
  2
*Active
 70
     0
 10
0.0
 20
0.0
 11
1.0
 21
1.0
 12
0.0
 22
0.0
 13
0.0
 23
0.0
 14
0.5
 24
0.5
 15
0.5
 25
0.5
 16
0.0
 26
0.0
 36
1.0
 17
0.0
 27
0.0
 37
0.0
 40
4.335
 41
3.2941176471
 42
50.0
 43
0.0
 44
0.0
 50
0.0
 51
0.0
 71
     0
 72
   100
 73
     1
 74
     3
 75
     0
 76
     0
 77
     0
 78
     0
281
     0
 65
     1
110
0.0
120
0.0
130
0.0
111
1.0
121
0.0
131
0.0
112
0.0
122
1.0
132
0.0
 79
     0
146
0.0
  0
ENDTAB
  0
TABLE
  2
LTYPE
  5
5
330
0
100
AcDbSymbolTable
 70
     6
  0
LTYPE
  5
14
330
5
100
AcDbSymbolTableRecord
100
AcDbLinetypeTableRecord
  2
ByBlock
 70
     0
  3

 72
    65
 73
     0
 40
0.0
  0
LTYPE
  5
15
330
5
100
AcDbSymbolTableRecord
100
AcDbLinetypeTableRecord
  2
ByLayer
 70
     0
  3

 72
    65
 73
     0
 40
0.0
  0
LTYPE
  5
16
330
5
100
AcDbSymbolTableRecord
100
AcDbLinetypeTableRecord
  2
Continuous
 70
     0
  3
Solid line
 72
    65
 73
     0
 40
0.0
  0
LTYPE
  5
6E
330
5
100
AcDbSymbolTableRecord
100
AcDbLinetypeTableRecord
  2
HIDDEN
 70
     0
  3
Hidden __ __ __ __ __ __ __ __ __ __ __ __ __ __
 72
    65
 73
     2
 40
0.075
 49
0.05
 74
     0
 49
-0.025
 74
     0
  0
LTYPE
  5
6F
330
5
100
AcDbSymbolTableRecord
100
AcDbLinetypeTableRecord
  2
PHANTOM
 70
     0
  3
Phantom ______  __  __  ______  __  __  ______
 72
    65
 73
     6
 40
0.5
 49
0.25
 74
     0
 49
-0.05
 74
     0
 49
0.05
 74
     0
 49
-0.05
 74
     0
 49
0.05
 74
     0
 49
-0.05
 74
     0
  0
LTYPE
  5
70
330
5
100
AcDbSymbolTableRecord
100
AcDbLinetypeTableRecord
  2
CENTER
 70
     0
  3
Center ____ _ ____ _ ____ _ ____ _ ____ _ ____
 72
    65
 73
     4
 40
0.4
 49
0.25
 74
     0
 49
-0.05
 74
     0
 49
0.05
 74
     0
 49
-0.05
 74
     0
  0
LTYPE
  5
71
330
5
100
AcDbSymbolTableRecord
100
AcDbLinetypeTableRecord
  2
CENTERX2
 70
     0
  3
Center (2x) ________  __  ________  __  _____
 72
    65
 73
     4
 40
0.8
 49
0.5
 74
     0
 49
-0.1
 74
     0
 49
0.1
 74
     0
 49
-0.1
 74
     0
  0
LTYPE
  5
72
330
5
100
AcDbSymbolTableRecord
100
AcDbLinetypeTableRecord
  2
DOT2
 70
     0
  3
Dot (.5x) ........................................
 72
    65
 73
     2
 40
0.025
 49
0.0
 74
     0
 49
-0.025
 74
     0
  0
ENDTAB
  0
TABLE
  2
LAYER
  5
2
330
0
100
AcDbSymbolTable
 70
     1
  0
LAYER
  5
10
330
2
100
AcDbSymbolTableRecord
100
AcDbLayerTableRecord
  2
0
 70
     0
 62
     7
  6
Continuous
370
    -3
390
F
  0
ENDTAB
  0
TABLE
  2
STYLE
  5
3
330
0
100
AcDbSymbolTable
 70
     2
  0
STYLE
  5
11
330
3
100
AcDbSymbolTableRecord
100
AcDbTextStyleTableRecord
  2
Standard
 70
     0
 40
0.0
 41
1.0
 50
0.0
 71
     0
 42
0.25
  3
txt
  4

  0
STYLE
  5
134
330
3
100
AcDbSymbolTableRecord
100
AcDbTextStyleTableRecord
  2
SLDTEXTSTYLE0
 70
     0
 40
0.0
 41
0.7
 50
0.0
 71
     0
 42
0.25
  3
TXT
  4
bigfont
  0
ENDTAB
  0
TABLE
  2
VIEW
  5
6
330
0
100
AcDbSymbolTable
 70
     0
  0
ENDTAB
  0
TABLE
  2
UCS
  5
7
330
0
100
AcDbSymbolTable
 70
     0
  0
ENDTAB
  0
TABLE
  2
APPID
  5
9
330
0
100
AcDbSymbolTable
 70
     1
  0
APPID
  5
12
330
9
100
AcDbSymbolTableRecord
100
AcDbRegAppTableRecord
  2
ACAD
 70
     0
  0
ENDTAB
  0
TABLE
  2
DIMSTYLE
  5
A
330
0
100
AcDbSymbolTable
 70
     1
100
AcDbDimStyleTable
  0
DIMSTYLE
105
27
330
A
100
AcDbSymbolTableRecord
100
AcDbDimStyleTableRecord
  2
Standard
 70
     0
178
     0
340
11
  0
ENDTAB
  0
TABLE
  2
BLOCK_RECORD
  5
1
330
0
100
AcDbSymbolTable
 70
     1
  0
BLOCK_RECORD
  5
1F
330
1
100
AcDbSymbolTableRecord
100
AcDbBlockTableRecord
  2
*Model_Space
340
22
  0
BLOCK_RECORD
  5
1B
330
1
100
AcDbSymbolTableRecord
100
AcDbBlockTableRecord
  2
*Paper_Space
340
1E
  0
BLOCK_RECORD
  5
23
330
1
100
AcDbSymbolTableRecord
100
AcDbBlockTableRecord
  2
*Paper_Space0
340
26
  0
ENDTAB
  0
ENDSEC
  0
SECTION
  2
BLOCKS
  0
BLOCK
  5
20
330
1F
100
AcDbEntity
  8
0
100
AcDbBlockBegin
  2
*Model_Space
 70
     0
 10
0.0
 20
0.0
 30
0.0
  3
*Model_Space
  1

  0
ENDBLK
  5
21
330
1F
100
AcDbEntity
  8
0
100
AcDbBlockEnd
  0
BLOCK
  5
1C
330
1B
100
AcDbEntity
 67
     1
  8
0
100
AcDbBlockBegin
  2
*Paper_Space
 70
     0
 10
0.0
 20
0.0
 30
0.0
  3
*Paper_Space
  1

  0
ENDBLK
  5
1D
330
1B
100
AcDbEntity
 67
     1
  8
0
100
AcDbBlockEnd
  0
BLOCK
  5
24
330
23
100
AcDbEntity
  8
0
100
AcDbBlockBegin
  2
*Paper_Space0
 70
     0
 10
0.0
 20
0.0
 30
0.0
  3
*Paper_Space0
  1

  0
ENDBLK
  5
25
330
23
100
AcDbEntity
  8
0
100
AcDbBlockEnd
  0
ENDSEC
  0
SECTION
  2
ENTITIES
  0
LWPOLYLINE
  5
73
330
1F
100
AcDbEntity
  8
0
  6
Continuous
 62
     7
100
AcDbPolyline
 90
       46
 70
   128
 43
0.0
 10
-4.1145813747
 20
1.6354166667
 10
-4.1145833333
 20
1.5118815104
 10
-4.1145833333
 20
1.5118815104
 10
-4.1372070313
 20
1.4803059896
 10
-4.1585286458
 20
1.4479166667
 10
-4.1782226563
 20
1.4150390625
 10
-4.1966145833
 20
1.3816731771
 10
-4.2133789063
 20
1.34765625
 10
-4.2288411458
 20
1.3129882812
 10
-4.2426757813
 20
1.2776692708
 10
-4.2552083333
 20
1.2418619792
 10
-4.2661132813
 20
1.2052408854
 10
-4.2757161458
 20
1.1682942708
 10
-4.2836914063
 20
1.1305338542
 10
-4.2903645833
 20
1.0922851562
 10
-4.2954101563
 20
1.0533854167
 10
-4.2991536458
 20
1.0138346354
 10
-4.3012695313
 20
0.9737955729
 10
-4.3020833333
 20
0.9331054687
 10
-4.3020833333
 20
0.9331054687
 10
-4.3058268229
 20
0.875
 10
-4.3058268229
 20
0.875
 10
-4.5743815104
 20
0.875
 10
-4.5743815104
 20
0.875
 10
-4.5711263021
 20
0.9168294271
 10
-4.5660807292
 20
0.9580078125
 10
-4.5594075521
 20
0.9982096354
 10
-4.5509440104
 20
1.0375976562
 10
-4.541015625
 20
1.0763346354
 10
-4.5291341146
 20
1.1140950521
 10
-4.515625
 20
1.1512044271
 10
-4.5004882813
 20
1.1873372396
 10
-4.4835611979
 20
1.2228190104
 10
-4.4650065104
 20
1.2573242187
 10
-4.4448242188
 20
1.2911783854
 10
-4.4226888021
 20
1.3240559896
 10
-4.3990885417
 20
1.3562825521
 10
-4.3736979167
 20
1.3876953125
 10
-4.3466796875
 20
1.4181315104
 10
-4.3178710938
 20
1.4479166667
 10
-4.3178710938
 20
1.4479166667
 10
-4.6967773438
 20
1.4479166667
 10
-4.6967773438
 20
1.4479166667
 10
-4.6702473958
 20
1.6354166667
 10
-4.6702473958
 20
1.6354166667
 10
-4.1145833333
 20
1.6354166667
  0
LWPOLYLINE
  5
74
330
1F
100
AcDbEntity
  8
0
  6
Continuous
 62
     7
100
AcDbPolyline
 90
      112
 70
   128
 43
0.0
 10
-0.0963541202
 20
1.2364908854
 10
-0.1201171875
 20
1.2529296875
 10
-0.1407877604
 20
1.2708333333
 10
-0.158203125
 20
1.2902018229
 10
-0.1725260417
 20
1.3111979167
 10
-0.18359375
 20
1.3334960937
 10
-0.1915690104
 20
1.3575846354
 10
-0.1962890625
 20
1.3829752604
 10
-0.1979166667
 20
1.4099934896
 10
-0.1979166667
 20
1.4099934896
 10
-0.1966145833
 20
1.4358723958
 10
-0.1928710938
 20
1.4604492187
 10
-0.1865234375
 20
1.4837239583
 10
-0.1775716146
 20
1.5056966146
 10
-0.1661783854
 20
1.5263671875
 10
-0.1521809896
 20
1.5458984375
 10
-0.1357421875
 20
1.5639648437
 10
-0.1166992188
 20
1.5808919271
 10
-0.0955403646
 20
1.5961914062
 10
-0.0729166667
 20
1.609375
 10
-0.0486653646
 20
1.6204427083
 10
-0.0229492188
 20
1.6295572917
 10
0.0042317708
 20
1.63671875
 10
0.0330403646
 20
1.6417643229
 10
0.0634765625
 20
1.6448567708
 10
0.0953776042
 20
1.6458333333
 10
0.0953776042
 20
1.6458333333
 10
0.1246744792
 20
1.6450195312
 10
0.1525065104
 20
1.642578125
 10
0.1790364583
 20
1.6383463542
 10
0.2039388021
 20
1.6326497396
 10
0.2275390625
 20
1.6251627604
 10
0.2498372396
 20
1.6162109375
 10
0.2705078125
 20
1.60546875
 10
0.2898763021
 20
1.5930989583
 10
0.3074544271
 20
1.5794270833
 10
0.3225911458
 20
1.5649414062
 10
0.3354492187
 20
1.5496419271
 10
0.3458658854
 20
1.5335286458
 10
0.3540039062
 20
1.5164388021
 10
0.3598632812
 20
1.4983723958
 10
0.3634440104
 20
1.4796549479
 10
0.3645833333
 20
1.4599609375
 10
0.3645833333
 20
1.4599609375
 10
0.3631184896
 20
1.4379882812
 10
0.3587239583
 20
1.4173177083
 10
0.3512369792
 20
1.3979492187
 10
0.3408203125
 20
1.3798828125
 10
0.3274739583
 20
1.3631184896
 10
0.3111979167
 20
1.3474934896
 10
0.2919921875
 20
1.3333333333
 10
0.2696940104
 20
1.3203125
 10
0.2696940104
 20
1.3203125
 10
0.2874348958
 20
1.3108723958
 10
0.3041992187
 20
1.3009440104
 10
0.3196614583
 20
1.2905273438
 10
0.333984375
 20
1.2797851562
 10
0.3471679687
 20
1.2685546875
 10
0.3592122396
 20
1.2568359375
 10
0.3701171875
 20
1.2446289062
 10
0.3798828125
 20
1.2320963542
 10
0.3885091146
 20
1.2189127604
 10
0.3959960937
 20
1.2054036458
 10
0.40234375
 20
1.19140625
 10
0.4075520833
 20
1.1770833333
 10
0.4114583333
 20
1.1622721354
 10
0.4143880208
 20
1.1468098958
 10
0.416015625
 20
1.1311848958
 10
0.4166666667
 20
1.1149088542
 10
0.4166666667
 20
1.1149088542
 10
0.4152018229
 20
1.0882161458
 10
0.4111328125
 20
1.0628255208
 10
0.4041341146
 20
1.0385742187
 10
0.3943684896
 20
1.015625
 10
0.3818359375
 20
0.9936523437
 10
0.3663736979
 20
0.9729817708
 10
0.3483072917
 20
0.9534505208
 10
0.3273111979
 20
0.9352213542
 10
0.3041992187
 20
0.9186197917
 10
0.2791341146
 20
0.904296875
 10
0.2524414062
 20
0.8922526042
 10
0.2239583333
 20
0.8823242187
 10
0.1936848958
 20
0.8745117187
 10
0.1617838542
 20
0.8689778646
 10
0.1279296875
 20
0.8657226562
 10
0.0924479167
 20
0.8645833333
 10
0.0924479167
 20
0.8645833333
 10
0.0608723958
 20
0.8655598958
 10
0.0307617187
 20
0.8684895833
 10
0.001953125
 20
0.8733723958
 10
-0.0255533854
 20
0.8802083333
 10
-0.0517578125
 20
0.8889973958
 10
-0.0766601563
 20
0.8995768229
 10
-0.1002604167
 20
0.9122721354
 10
-0.1223958333
 20
0.9269205729
 10
-0.142578125
 20
0.9430338542
 10
-0.1599934896
 20
0.9602864583
 10
-0.1748046875
 20
0.978515625
 10
-0.1868489583
 20
0.9977213542
 10
-0.1962890625
 20
1.0180664062
 10
-0.2029622396
 20
1.0393880208
 10
-0.20703125
 20
1.0616861979
 10
-0.2083333333
 20
1.0851236979
 10
-0.2083333333
 20
1.0851236979
 10
-0.2065429688
 20
1.1105143229
 10
-0.2013346354
 20
1.1339518229
 10
-0.1925455729
 20
1.1557617188
 10
-0.1803385417
 20
1.1756184896
 10
-0.1645507813
 20
1.1935221354
 10
-0.1453450521
 20
1.2096354167
 10
-0.1225585938
 20
1.2239583333
 10
-0.0963541667
 20
1.2364908854
  0
LWPOLYLINE
  5
75
330
1F
100
AcDbEntity
  8
0
  6
Continuous
 62
     7
100
AcDbPolyline
 90
       53
 70
   128
 43
0.0
 10
-0.0291340984
 20
1.1936848958
 10
-0.0418294271
 20
1.1840820312
 10
-0.0528971354
 20
1.1733398438
 10
-0.0621744792
 20
1.1616210938
 10
-0.0698242188
 20
1.1489257812
 10
-0.0756835938
 20
1.1350911458
 10
-0.0799153646
 20
1.1201171875
 10
-0.0825195313
 20
1.1041666667
 10
-0.0833333333
 20
1.0870768229
 10
-0.0833333333
 20
1.0870768229
 10
-0.0825195313
 20
1.0724283854
 10
-0.0802408854
 20
1.0584309896
 10
-0.0763346354
 20
1.044921875
 10
-0.0708007813
 20
1.0322265625
 10
-0.0638020833
 20
1.0200195312
 10
-0.0551757813
 20
1.0086263021
 10
-0.044921875
 20
0.9977213542
 10
-0.033203125
 20
0.9874674479
 10
-0.0203450521
 20
0.9781901042
 10
-0.0069986979
 20
0.9702148437
 10
0.0069986979
 20
0.9633789062
 10
0.021484375
 20
0.9578450521
 10
0.0364583333
 20
0.9534505208
 10
0.0519205729
 20
0.9503580729
 10
0.0680338542
 20
0.9485677083
 10
0.0846354167
 20
0.9479166667
 10
0.0846354167
 20
0.9479166667
 10
0.1119791667
 20
0.9497070312
 10
0.1368815104
 20
0.9554036458
 10
0.1596679687
 20
0.9646809896
 10
0.1800130208
 20
0.9777018229
 10
0.1891276042
 20
0.9853515625
 10
0.1969401042
 20
0.9933268229
 10
0.2036132812
 20
1.0016276042
 10
0.2091471354
 20
1.0102539062
 10
0.2133789062
 20
1.0192057292
 10
0.2163085937
 20
1.0286458333
 10
0.2180989583
 20
1.0382486979
 10
0.21875
 20
1.0483398437
 10
0.21875
 20
1.0483398437
 10
0.2169596354
 20
1.0646158854
 10
0.2117513021
 20
1.0799153646
 10
0.2027994792
 20
1.0940755208
 10
0.1904296875
 20
1.1070963542
 10
0.1744791667
 20
1.119140625
 10
0.1551106771
 20
1.1302083333
 10
0.1319986979
 20
1.1401367187
 10
0.10546875
 20
1.1490885417
 10
0.10546875
 20
1.1490885417
 10
0.0747070312
 20
1.1583658854
 10
0.0419921875
 20
1.1689453125
 10
0.0074869792
 20
1.1806640625
 10
-0.0291341146
 20
1.1936848958
  0
LWPOLYLINE
  5
76
330
1F
100
AcDbEntity
  8
0
  6
Continuous
 62
     7
100
AcDbPolyline
 90
       49
 70
   128
 43
0.0
 10
0.1972655612
 20
1.3531901042
 10
0.2071940104
 20
1.3623046875
 10
0.2158203125
 20
1.3719075521
 10
0.2229817708
 20
1.3818359375
 10
0.2290039062
 20
1.3924153646
 10
0.2335611979
 20
1.4034830729
 10
0.2369791667
 20
1.4150390625
 10
0.2389322917
 20
1.4269205729
 10
0.2395833333
 20
1.439453125
 10
0.2395833333
 20
1.439453125
 10
0.2389322917
 20
1.4544270833
 10
0.2373046875
 20
1.4682617188
 10
0.234375
 20
1.4812825521
 10
0.2303059896
 20
1.4933268229
 10
0.2252604167
 20
1.5043945312
 10
0.2189127604
 20
1.5144856771
 10
0.2114257812
 20
1.5236002604
 10
0.2027994792
 20
1.5317382812
 10
0.1928710937
 20
1.5388997396
 10
0.1819661458
 20
1.5452473958
 10
0.169921875
 20
1.5504557292
 10
0.1565755208
 20
1.5548502604
 10
0.1422526042
 20
1.5581054687
 10
0.1266276042
 20
1.560546875
 10
0.1100260417
 20
1.5620117188
 10
0.0921223958
 20
1.5625
 10
0.0921223958
 20
1.5625
 10
0.0655924479
 20
1.5611979167
 10
0.0426432292
 20
1.5571289062
 10
0.0232747396
 20
1.5504557292
 10
0.0074869792
 20
1.5411783854
 10
-0.0048828125
 20
1.5291341146
 10
-0.0138346354
 20
1.5143229167
 10
-0.0190429688
 20
1.4969075521
 10
-0.0208333333
 20
1.4768880208
 10
-0.0208333333
 20
1.4768880208
 10
-0.0192057292
 20
1.4640299479
 10
-0.0143229167
 20
1.4516601562
 10
-0.0063476563
 20
1.4401041667
 10
0.0050455729
 20
1.4290364583
 10
0.01953125
 20
1.4186197917
 10
0.0372721354
 20
1.4088541667
 10
0.0582682292
 20
1.3997395833
 10
0.0825195312
 20
1.3912760417
 10
0.0825195312
 20
1.3912760417
 10
0.166015625
 20
1.3650716146
 10
0.166015625
 20
1.3650716146
 10
0.1800130208
 20
1.3598632812
 10
0.197265625
 20
1.3531901042
  0
LWPOLYLINE
  5
77
330
1F
100
AcDbEntity
  8
0
  6
Continuous
 62
     7
100
AcDbPolyline
 90
      132
 70
   128
 43
0.0
 10
4.3308899159
 20
1.0786132812
 10
4.4596354167
 20
1.1000976562
 10
4.4596354167
 20
1.1000976562
 10
4.458984375
 20
1.0804036458
 10
4.4586588542
 20
1.0628255208
 10
4.4583333333
 20
1.0476888021
 10
4.4583333333
 20
1.0348307292
 10
4.4583333333
 20
1.0348307292
 10
4.4594726562
 20
1.0144856771
 10
4.462890625
 20
0.9967447917
 10
4.4685872396
 20
0.9819335937
 10
4.4767252604
 20
0.9697265625
 10
4.4869791667
 20
0.9601236979
 10
4.4996744792
 20
0.9532877604
 10
4.5144856771
 20
0.94921875
 10
4.5317382812
 20
0.9479166667
 10
4.5317382812
 20
0.9479166667
 10
4.5458984375
 20
0.9485677083
 10
4.5589192708
 20
0.9508463542
 10
4.5709635417
 20
0.9544270833
 10
4.5817057292
 20
0.9594726562
 10
4.5914713542
 20
0.9659830729
 10
4.6002604167
 20
0.9739583333
 10
4.6077473958
 20
0.9832356771
 10
4.6142578125
 20
0.994140625
 10
4.6199544271
 20
1.0071614583
 10
4.6254882812
 20
1.0232747396
 10
4.6305338542
 20
1.0421549479
 10
4.6352539062
 20
1.0639648437
 10
4.6396484375
 20
1.0888671875
 10
4.6435546875
 20
1.1165364583
 10
4.6472981771
 20
1.1472981771
 10
4.6505533854
 20
1.1808268229
 10
4.6505533854
 20
1.1808268229
 10
4.638671875
 20
1.1653645833
 10
4.6254882812
 20
1.1518554687
 10
4.611328125
 20
1.1404622396
 10
4.5958658854
 20
1.1311848958
 10
4.5794270833
 20
1.1238606771
 10
4.5616861979
 20
1.1186523437
 10
4.54296875
 20
1.1155598958
 10
4.5229492187
 20
1.1145833333
 10
4.5229492187
 20
1.1145833333
 10
4.498046875
 20
1.1157226562
 10
4.4744466146
 20
1.119140625
 10
4.4518229167
 20
1.1246744792
 10
4.4305013021
 20
1.1324869792
 10
4.41015625
 20
1.142578125
 10
4.3911132812
 20
1.1549479167
 10
4.3732096354
 20
1.1695963542
 10
4.3564453125
 20
1.1863606771
 10
4.3413085937
 20
1.2049153646
 10
4.328125
 20
1.2247721354
 10
4.3168945312
 20
1.2457682292
 10
4.3079427083
 20
1.2680664062
 10
4.30078125
 20
1.2915039062
 10
4.2957356771
 20
1.3162434896
 10
4.2926432292
 20
1.3422851562
 10
4.2916666667
 20
1.3694661458
 10
4.2916666667
 20
1.3694661458
 10
4.2928059896
 20
1.3997395833
 10
4.2965494792
 20
1.4285481771
 10
4.3025716146
 20
1.4558919271
 10
4.3110351562
 20
1.4816080729
 10
4.3219401042
 20
1.505859375
 10
4.3352864583
 20
1.5286458333
 10
4.3510742187
 20
1.5499674479
 10
4.3693033854
 20
1.5696614583
 10
4.3894856771
 20
1.5875651042
 10
4.4112955729
 20
1.6030273438
 10
4.4345703125
 20
1.6160481771
 10
4.4593098958
 20
1.6267903646
 10
4.4855143229
 20
1.6350911458
 10
4.5133463542
 20
1.6411132812
 10
4.5426432292
 20
1.6446940104
 10
4.5735677083
 20
1.6458333333
 10
4.5735677083
 20
1.6458333333
 10
4.6139322917
 20
1.6443684896
 10
4.6515299479
 20
1.6398111979
 10
4.6866861979
 20
1.6323242188
 10
4.7190755208
 20
1.6217447917
 10
4.7490234375
 20
1.6082356771
 10
4.7763671875
 20
1.5916341146
 10
4.8009440104
 20
1.5721028646
 10
4.8230794271
 20
1.5494791667
 10
4.8426106771
 20
1.5237630208
 10
4.8595377604
 20
1.4952799479
 10
4.8736979167
 20
1.4635416667
 10
4.8854166667
 20
1.4288736979
 10
4.89453125
 20
1.3912760417
 10
4.9010416667
 20
1.3505859375
 10
4.9049479167
 20
1.3069661458
 10
4.90625
 20
1.2602539062
 10
4.90625
 20
1.2602539062
 10
4.9047851562
 20
1.2163085937
 10
4.900390625
 20
1.1746419271
 10
4.8930664062
 20
1.1352539062
 10
4.8829752604
 20
1.0981445312
 10
4.8697916667
 20
1.0633138021
 10
4.8536783854
 20
1.0307617187
 10
4.8347981771
 20
1.0003255208
 10
4.8128255208
 20
0.9723307292
 10
4.7882486979
 20
0.9471028646
 10
4.7615559896
 20
0.9251302083
 10
4.7322591146
 20
0.9067382812
 10
4.7008463542
 20
0.8916015625
 10
4.6669921875
 20
0.8797200521
 10
4.6310221354
 20
0.8712565104
 10
4.5924479167
 20
0.8662109375
 10
4.5517578125
 20
0.8645833333
 10
4.5517578125
 20
0.8645833333
 10
4.5252278646
 20
0.865234375
 10
4.5004882812
 20
0.8671875
 10
4.4775390625
 20
0.8704427083
 10
4.4562174479
 20
0.8748372396
 10
4.4365234375
 20
0.8806966146
 10
4.4186197917
 20
0.8878580729
 10
4.4025065104
 20
0.8961588542
 10
4.3880208333
 20
0.9059244792
 10
4.3751627604
 20
0.9168294271
 10
4.3640950521
 20
0.9290364583
 10
4.3546549479
 20
0.9427083333
 10
4.3470052083
 20
0.9575195312
 10
4.3409830729
 20
0.9736328125
 10
4.3367513021
 20
0.9910481771
 10
4.3341471354
 20
1.009765625
 10
4.3333333333
 20
1.0297851562
 10
4.3333333333
 20
1.0297851562
 10
4.3331705729
 20
1.0380859375
 10
4.3326822917
 20
1.0489908854
 10
4.33203125
 20
1.0625
 10
4.3308919271
 20
1.0786132812
  0
LWPOLYLINE
  5
78
330
1F
100
AcDbEntity
  8
0
  6
Continuous
 62
     7
100
AcDbPolyline
 90
       68
 70
   128
 43
0.0
 10
4.588865389
 20
1.5625
 10
4.5818684896
 20
1.5616861979
 10
4.5753580729
 20
1.5594075521
 10
4.5693359375
 20
1.5556640625
 10
4.5636393229
 20
1.5502929688
 10
4.5584309896
 20
1.5432942708
 10
4.5537109375
 20
1.5348307292
 10
4.5494791667
 20
1.5249023437
 10
4.5457356771
 20
1.5135091146
 10
4.5423177083
 20
1.5003255208
 10
4.5393880208
 20
1.4858398438
 10
4.5369466146
 20
1.4697265625
 10
4.5348307292
 20
1.4521484375
 10
4.533203125
 20
1.4329427083
 10
4.5322265625
 20
1.4122721354
 10
4.5314127604
 20
1.3899739583
 10
4.53125
 20
1.3662109375
 10
4.53125
 20
1.3662109375
 10
4.5314127604
 20
1.3471679688
 10
4.5320638021
 20
1.3292643229
 10
4.5328776042
 20
1.3125
 10
4.5341796875
 20
1.2972005208
 10
4.5359700521
 20
1.2828776042
 10
4.5379231771
 20
1.2700195312
 10
4.5403645833
 20
1.2583007812
 10
4.5432942708
 20
1.2478841146
 10
4.5463867187
 20
1.2386067708
 10
4.5499674479
 20
1.23046875
 10
4.5538736979
 20
1.2237955729
 10
4.5581054687
 20
1.2182617187
 10
4.5628255208
 20
1.2138671875
 10
4.5678710937
 20
1.2107747396
 10
4.5732421875
 20
1.208984375
 10
4.5791015625
 20
1.2083333333
 10
4.5791015625
 20
1.2083333333
 10
4.5883789062
 20
1.208984375
 10
4.5971679687
 20
1.2109375
 10
4.6053059896
 20
1.2143554688
 10
4.6127929687
 20
1.2190755208
 10
4.6197916667
 20
1.2249348958
 10
4.6261393229
 20
1.2322591146
 10
4.6318359375
 20
1.2410481771
 10
4.6370442708
 20
1.2509765625
 10
4.6414388021
 20
1.2623697917
 10
4.6453450521
 20
1.2749023437
 10
4.6487630208
 20
1.2888997396
 10
4.6513671875
 20
1.3043619792
 10
4.6534830729
 20
1.3209635417
 10
4.6551106771
 20
1.3388671875
 10
4.6559244792
 20
1.3582356771
 10
4.65625
 20
1.37890625
 10
4.65625
 20
1.37890625
 10
4.6559244792
 20
1.4012044271
 10
4.6552734375
 20
1.421875
 10
4.6538085937
 20
1.4412434896
 10
4.6520182292
 20
1.4593098958
 10
4.6497395833
 20
1.4757486979
 10
4.6468098958
 20
1.4907226562
 10
4.6433919271
 20
1.5043945312
 10
4.6394856771
 20
1.5166015625
 10
4.6349283854
 20
1.52734375
 10
4.6298828125
 20
1.5366210937
 10
4.6243489583
 20
1.5445963542
 10
4.6183268229
 20
1.5511067708
 10
4.6118164062
 20
1.5559895833
 10
4.6046549479
 20
1.5595703125
 10
4.5970052083
 20
1.5618489583
 10
4.5888671875
 20
1.5625
  0
CIRCLE
  5
B0
330
1F
100
AcDbEntity
  8
0
  6
Continuous
 62
     7
370
    25
100
AcDbCircle
 10
-1.5
 20
-1.375
 30
0.0
 40
0.1875000000000002
  0
CIRCLE
  5
B1
330
1F
100
AcDbEntity
  8
0
  6
Continuous
 62
     7
370
    25
100
AcDbCircle
 10
3.0
 20
-1.375
 30
0.0
 40
0.1875000000000013
  0
CIRCLE
  5
B2
330
1F
100
AcDbEntity
  8
0
  6
Continuous
 62
     7
370
    25
100
AcDbCircle
 10
-6.0
 20
-1.375
 30
0.0
 40
0.1874999999999982
  0
LINE
  5
D8
330
1F
100
AcDbEntity
  8
0
  6
Continuous
 62
     7
370
    25
100
AcDbLine
 10
5.5
 20
-1.875
 30
0.0
 11
5.5
 21
-2.125
 31
0.0
  0
LINE
  5
D9
330
1F
100
AcDbEntity
  8
0
  6
Continuous
 62
     7
370
    25
100
AcDbLine
 10
4.5
 20
-2.125
 30
0.0
 11
4.5
 21
-1.875
 31
0.0
  0
LINE
  5
DA
330
1F
100
AcDbEntity
  8
0
  6
Continuous
 62
     7
370
    25
100
AcDbLine
 10
4.5
 20
-1.875
 30
0.0
 11
3.5
 21
-1.875
 31
0.0
  0
LINE
  5
DB
330
1F
100
AcDbEntity
  8
0
  6
Continuous
 62
     7
370
    25
100
AcDbLine
 10
3.5
 20
-1.875
 30
0.0
 11
3.5
 21
-2.125
 31
0.0
  0
LINE
  5
DC
330
1F
100
AcDbEntity
  8
0
  6
Continuous
 62
     7
370
    25
100
AcDbLine
 10
2.5
 20
-2.125
 30
0.0
 11
2.5
 21
-1.875
 31
0.0
  0
LINE
  5
DD
330
1F
100
AcDbEntity
  8
0
  6
Continuous
 62
     7
370
    25
100
AcDbLine
 10
2.5
 20
-1.875
 30
0.0
 11
1.5
 21
-1.875
 31
0.0
  0
LINE
  5
DE
330
1F
100
AcDbEntity
  8
0
  6
Continuous
 62
     7
370
    25
100
AcDbLine
 10
1.5
 20
-1.875
 30
0.0
 11
1.5
 21
-2.125
 31
0.0
  0
LINE
  5
DF
330
1F
100
AcDbEntity
  8
0
  6
Continuous
 62
     7
370
    25
100
AcDbLine
 10
0.5
 20
-2.125
 30
0.0
 11
0.5
 21
-1.875
 31
0.0
  0
LINE
  5
E0
330
1F
100
AcDbEntity
  8
0
  6
Continuous
 62
     7
370
    25
100
AcDbLine
 10
0.5
 20
-1.875
 30
0.0
 11
-0.5
 21
-1.875
 31
0.0
  0
LINE
  5
E1
330
1F
100
AcDbEntity
  8
0
  6
Continuous
 62
     7
370
    25
100
AcDbLine
 10
-0.5
 20
-1.875
 30
0.0
 11
-0.5
 21
-2.125
 31
0.0
  0
LINE
  5
E2
330
1F
100
AcDbEntity
  8
0
  6
Continuous
 62
     7
370
    25
100
AcDbLine
 10
-1.5
 20
-2.125
 30
0.0
 11
-1.5
 21
-1.875
 31
0.0
  0
LINE
  5
E3
330
1F
100
AcDbEntity
  8
0
  6
Continuous
 62
     7
370
    25
100
AcDbLine
 10
-1.5
 20
-1.875
 30
0.0
 11
-2.5
 21
-1.875
 31
0.0
  0
LINE
  5
E4
330
1F
100
AcDbEntity
  8
0
  6
Continuous
 62
     7
370
    25
100
AcDbLine
 10
-2.5
 20
-1.875
 30
0.0
 11
-2.5
 21
-2.125
 31
0.0
  0
LINE
  5
E5
330
1F
100
AcDbEntity
  8
0
  6
Continuous
 62
     7
370
    25
100
AcDbLine
 10
-3.5
 20
-2.125
 30
0.0
 11
-3.5
 21
-1.875
 31
0.0
  0
LINE
  5
E6
330
1F
100
AcDbEntity
  8
0
  6
Continuous
 62
     7
370
    25
100
AcDbLine
 10
-3.5
 20
-1.875
 30
0.0
 11
-4.5
 21
-1.875
 31
0.0
  0
LINE
  5
E7
330
1F
100
AcDbEntity
  8
0
  6
Continuous
 62
     7
370
    25
100
AcDbLine
 10
-4.5
 20
-1.875
 30
0.0
 11
-4.5
 21
-2.125
 31
0.0
  0
LINE
  5
E8
330
1F
100
AcDbEntity
  8
0
  6
Continuous
 62
     7
370
    25
100
AcDbLine
 10
-5.5
 20
-2.125
 30
0.0
 11
-5.5
 21
-1.875
 31
0.0
  0
LINE
  5
E9
330
1F
100
AcDbEntity
  8
0
  6
Continuous
 62
     7
370
    25
100
AcDbLine
 10
-5.5
 20
-1.875
 30
0.0
 11
-6.75
 21
-1.875
 31
0.0
  0
LINE
  5
EA
330
1F
100
AcDbEntity
  8
0
  6
Continuous
 62
     7
370
    25
100
AcDbLine
 10
-6.75
 20
-1.875
 30
0.0
 11
-6.75
 21
-1.475
 31
0.0
  0
LINE
  5
EB
330
1F
100
AcDbEntity
  8
0
  6
Continuous
 62
     7
370
    25
100
AcDbLine
 10
-6.75
 20
-1.475
 30
0.0
 11
-7.0
 21
-1.475
 31
0.0
  0
LINE
  5
EC
330
1F
100
AcDbEntity
  8
0
  6
Continuous
 62
     7
370
    25
100
AcDbLine
 10
-7.0
 20
-1.075
 30
0.0
 11
-6.75
 21
-1.075
 31
0.0
  0
LINE
  5
ED
330
1F
100
AcDbEntity
  8
0
  6
Continuous
 62
     7
370
    25
100
AcDbLine
 10
-6.75
 20
-1.075
 30
0.0
 11
-6.75
 21
-0.675
 31
0.0
  0
LINE
  5
EE
330
1F
100
AcDbEntity
  8
0
  6
Continuous
 62
     7
370
    25
100
AcDbLine
 10
-6.75
 20
-0.675
 30
0.0
 11
-7.0
 21
-0.675
 31
0.0
  0
LINE
  5
EF
330
1F
100
AcDbEntity
  8
0
  6
Continuous
 62
     7
370
    25
100
AcDbLine
 10
-7.0
 20
-0.275
 30
0.0
 11
-6.75
 21
-0.275
 31
0.0
  0
LINE
  5
F0
330
1F
100
AcDbEntity
  8
0
  6
Continuous
 62
     7
370
    25
100
AcDbLine
 10
-6.75
 20
-0.275
 30
0.0
 11
-6.75
 21
0.125
 31
0.0
  0
LINE
  5
F1
330
1F
100
AcDbEntity
  8
0
  6
Continuous
 62
     7
370
    25
100
AcDbLine
 10
-6.75
 20
0.125
 30
0.0
 11
-7.0
 21
0.125
 31
0.0
  0
LINE
  5
F2
330
1F
100
AcDbEntity
  8
0
  6
Continuous
 62
     7
370
    25
100
AcDbLine
 10
-7.0
 20
0.525
 30
0.0
 11
-6.75
 21
0.525
 31
0.0
  0
LINE
  5
F3
330
1F
100
AcDbEntity
  8
0
  6
Continuous
 62
     7
370
    25
100
AcDbLine
 10
-6.75
 20
0.525
 30
0.0
 11
-6.75
 21
0.925
 31
0.0
  0
LINE
  5
F4
330
1F
100
AcDbEntity
  8
0
  6
Continuous
 62
     7
370
    25
100
AcDbLine
 10
-6.75
 20
0.925
 30
0.0
 11
-7.0
 21
0.925
 31
0.0
  0
LINE
  5
F5
330
1F
100
AcDbEntity
  8
0
  6
Continuous
 62
     7
370
    25
100
AcDbLine
 10
-7.0
 20
1.325
 30
0.0
 11
-6.75
 21
1.325
 31
0.0
  0
LINE
  5
F6
330
1F
100
AcDbEntity
  8
0
  6
Continuous
 62
     7
370
    25
100
AcDbLine
 10
-6.75
 20
1.325
 30
0.0
 11
-6.75
 21
1.725
 31
0.0
  0
LINE
  5
F7
330
1F
100
AcDbEntity
  8
0
  6
Continuous
 62
     7
370
    25
100
AcDbLine
 10
-6.75
 20
1.725
 30
0.0
 11
-7.0
 21
1.725
 31
0.0
  0
LINE
  5
F8
330
1F
100
AcDbEntity
  8
0
  6
Continuous
 62
     7
370
    25
100
AcDbLine
 10
7.0
 20
1.725
 30
0.0
 11
6.75
 21
1.725
 31
0.0
  0
LINE
  5
F9
330
1F
100
AcDbEntity
  8
0
  6
Continuous
 62
     7
370
    25
100
AcDbLine
 10
6.75
 20
1.725
 30
0.0
 11
6.75
 21
1.325
 31
0.0
  0
LINE
  5
FA
330
1F
100
AcDbEntity
  8
0
  6
Continuous
 62
     7
370
    25
100
AcDbLine
 10
6.75
 20
1.325
 30
0.0
 11
7.0
 21
1.325
 31
0.0
  0
LINE
  5
FB
330
1F
100
AcDbEntity
  8
0
  6
Continuous
 62
     7
370
    25
100
AcDbLine
 10
7.0
 20
0.925
 30
0.0
 11
6.75
 21
0.925
 31
0.0
  0
LINE
  5
FC
330
1F
100
AcDbEntity
  8
0
  6
Continuous
 62
     7
370
    25
100
AcDbLine
 10
6.75
 20
0.925
 30
0.0
 11
6.75
 21
0.525
 31
0.0
  0
LINE
  5
FD
330
1F
100
AcDbEntity
  8
0
  6
Continuous
 62
     7
370
    25
100
AcDbLine
 10
6.75
 20
0.525
 30
0.0
 11
7.0
 21
0.525
 31
0.0
  0
LINE
  5
FE
330
1F
100
AcDbEntity
  8
0
  6
Continuous
 62
     7
370
    25
100
AcDbLine
 10
7.0
 20
0.125
 30
0.0
 11
6.75
 21
0.125
 31
0.0
  0
LINE
  5
FF
330
1F
100
AcDbEntity
  8
0
  6
Continuous
 62
     7
370
    25
100
AcDbLine
 10
6.75
 20
0.125
 30
0.0
 11
6.75
 21
-0.275
 31
0.0
  0
LINE
  5
100
330
1F
100
AcDbEntity
  8
0
  6
Continuous
 62
     7
370
    25
100
AcDbLine
 10
6.75
 20
-0.275
 30
0.0
 11
7.0
 21
-0.275
 31
0.0
  0
LINE
  5
101
330
1F
100
AcDbEntity
  8
0
  6
Continuous
 62
     7
370
    25
100
AcDbLine
 10
7.0
 20
-0.675
 30
0.0
 11
6.75
 21
-0.675
 31
0.0
  0
LINE
  5
102
330
1F
100
AcDbEntity
  8
0
  6
Continuous
 62
     7
370
    25
100
AcDbLine
 10
6.75
 20
-0.675
 30
0.0
 11
6.75
 21
-1.075
 31
0.0
  0
LINE
  5
103
330
1F
100
AcDbEntity
  8
0
  6
Continuous
 62
     7
370
    25
100
AcDbLine
 10
6.75
 20
-1.075
 30
0.0
 11
7.0
 21
-1.075
 31
0.0
  0
LINE
  5
104
330
1F
100
AcDbEntity
  8
0
  6
Continuous
 62
     7
370
    25
100
AcDbLine
 10
7.0
 20
-1.475
 30
0.0
 11
6.75
 21
-1.475
 31
0.0
  0
LINE
  5
105
330
1F
100
AcDbEntity
  8
0
  6
Continuous
 62
     7
370
    25
100
AcDbLine
 10
6.75
 20
-1.475
 30
0.0
 11
6.75
 21
-1.875
 31
0.0
  0
LINE
  5
106
330
1F
100
AcDbEntity
  8
0
  6
Continuous
 62
     7
370
    25
100
AcDbLine
 10
6.75
 20
-1.875
 30
0.0
 11
5.5
 21
-1.875
 31
0.0
  0
LINE
  5
107
330
1F
100
AcDbEntity
  8
0
  6
Continuous
 62
     7
370
    25
100
AcDbLine
 10
-6.5
 20
-0.125
 30
0.0
 11
-5.5
 21
-0.125
 31
0.0
  0
LINE
  5
108
330
1F
100
AcDbEntity
  8
0
  6
Continuous
 62
     7
370
    25
100
AcDbLine
 10
-5.5
 20
-0.125
 30
0.0
 11
-5.5
 21
0.125
 31
0.0
  0
LINE
  5
109
330
1F
100
AcDbEntity
  8
0
  6
Continuous
 62
     7
370
    25
100
AcDbLine
 10
-5.5
 20
0.125
 30
0.0
 11
-6.5
 21
0.125
 31
0.0
  0
LINE
  5
10A
330
1F
100
AcDbEntity
  8
0
  6
Continuous
 62
     7
370
    25
100
AcDbLine
 10
-6.5
 20
0.125
 30
0.0
 11
-6.5
 21
-0.125
 31
0.0
  0
LINE
  5
10B
330
1F
100
AcDbEntity
  8
0
  6
Continuous
 62
     7
370
    25
100
AcDbLine
 10
-4.5
 20
-0.125
 30
0.0
 11
-3.5
 21
-0.125
 31
0.0
  0
LINE
  5
10C
330
1F
100
AcDbEntity
  8
0
  6
Continuous
 62
     7
370
    25
100
AcDbLine
 10
-3.5
 20
-0.125
 30
0.0
 11
-3.5
 21
0.125
 31
0.0
  0
LINE
  5
10D
330
1F
100
AcDbEntity
  8
0
  6
Continuous
 62
     7
370
    25
100
AcDbLine
 10
-3.5
 20
0.125
 30
0.0
 11
-4.5
 21
0.125
 31
0.0
  0
LINE
  5
10E
330
1F
100
AcDbEntity
  8
0
  6
Continuous
 62
     7
370
    25
100
AcDbLine
 10
-4.5
 20
0.125
 30
0.0
 11
-4.5
 21
-0.125
 31
0.0
  0
LINE
  5
10F
330
1F
100
AcDbEntity
  8
0
  6
Continuous
 62
     7
370
    25
100
AcDbLine
 10
7.0
 20
2.125
 30
0.0
 11
-7.0
 21
2.125
 31
0.0
  0
LINE
  5
110
330
1F
100
AcDbEntity
  8
0
  6
Continuous
 62
     7
370
    25
100
AcDbLine
 10
-7.0
 20
2.125
 30
0.0
 11
-7.0
 21
1.725
 31
0.0
  0
LINE
  5
111
330
1F
100
AcDbEntity
  8
0
  6
Continuous
 62
     7
370
    25
100
AcDbLine
 10
-7.0
 20
-1.075
 30
0.0
 11
-7.0
 21
-1.475
 31
0.0
  0
LINE
  5
112
330
1F
100
AcDbEntity
  8
0
  6
Continuous
 62
     7
370
    25
100
AcDbLine
 10
-7.0
 20
-0.275
 30
0.0
 11
-7.0
 21
-0.675
 31
0.0
  0
LINE
  5
113
330
1F
100
AcDbEntity
  8
0
  6
Continuous
 62
     7
370
    25
100
AcDbLine
 10
-7.0
 20
0.525
 30
0.0
 11
-7.0
 21
0.125
 31
0.0
  0
LINE
  5
114
330
1F
100
AcDbEntity
  8
0
  6
Continuous
 62
     7
370
    25
100
AcDbLine
 10
-7.0
 20
1.325
 30
0.0
 11
-7.0
 21
0.925
 31
0.0
  0
LINE
  5
115
330
1F
100
AcDbEntity
  8
0
  6
Continuous
 62
     7
370
    25
100
AcDbLine
 10
7.0
 20
-1.475
 30
0.0
 11
7.0
 21
-1.075
 31
0.0
  0
LINE
  5
116
330
1F
100
AcDbEntity
  8
0
  6
Continuous
 62
     7
370
    25
100
AcDbLine
 10
7.0
 20
-0.675
 30
0.0
 11
7.0
 21
-0.275
 31
0.0
  0
LINE
  5
117
330
1F
100
AcDbEntity
  8
0
  6
Continuous
 62
     7
370
    25
100
AcDbLine
 10
7.0
 20
0.125
 30
0.0
 11
7.0
 21
0.525
 31
0.0
  0
LINE
  5
118
330
1F
100
AcDbEntity
  8
0
  6
Continuous
 62
     7
370
    25
100
AcDbLine
 10
7.0
 20
0.925
 30
0.0
 11
7.0
 21
1.325
 31
0.0
  0
LINE
  5
119
330
1F
100
AcDbEntity
  8
0
  6
Continuous
 62
     7
370
    25
100
AcDbLine
 10
7.0
 20
1.725
 30
0.0
 11
7.0
 21
2.125
 31
0.0
  0
LINE
  5
11A
330
1F
100
AcDbEntity
  8
0
  6
Continuous
 62
     7
370
    25
100
AcDbLine
 10
4.5
 20
-2.125
 30
0.0
 11
5.5
 21
-2.125
 31
0.0
  0
LINE
  5
11B
330
1F
100
AcDbEntity
  8
0
  6
Continuous
 62
     7
370
    25
100
AcDbLine
 10
2.5
 20
-2.125
 30
0.0
 11
3.5
 21
-2.125
 31
0.0
  0
LINE
  5
11C
330
1F
100
AcDbEntity
  8
0
  6
Continuous
 62
     7
370
    25
100
AcDbLine
 10
0.5
 20
-2.125
 30
0.0
 11
1.5
 21
-2.125
 31
0.0
  0
LINE
  5
11D
330
1F
100
AcDbEntity
  8
0
  6
Continuous
 62
     7
370
    25
100
AcDbLine
 10
-1.5
 20
-2.125
 30
0.0
 11
-0.5
 21
-2.125
 31
0.0
  0
LINE
  5
11E
330
1F
100
AcDbEntity
  8
0
  6
Continuous
 62
     7
370
    25
100
AcDbLine
 10
-3.5
 20
-2.125
 30
0.0
 11
-2.5
 21
-2.125
 31
0.0
  0
LINE
  5
11F
330
1F
100
AcDbEntity
  8
0
  6
Continuous
 62
     7
370
    25
100
AcDbLine
 10
-5.5
 20
-2.125
 30
0.0
 11
-4.5
 21
-2.125
 31
0.0
  0
LINE
  5
120
330
1F
100
AcDbEntity
  8
0
  6
Continuous
 62
     7
370
    25
100
AcDbLine
 10
-2.5
 20
0.125
 30
0.0
 11
-2.5
 21
-0.125
 31
0.0
  0
LINE
  5
121
330
1F
100
AcDbEntity
  8
0
  6
Continuous
 62
     7
370
    25
100
AcDbLine
 10
-1.5
 20
0.125
 30
0.0
 11
-2.5
 21
0.125
 31
0.0
  0
LINE
  5
122
330
1F
100
AcDbEntity
  8
0
  6
Continuous
 62
     7
370
    25
100
AcDbLine
 10
-1.5
 20
-0.125
 30
0.0
 11
-1.5
 21
0.125
 31
0.0
  0
LINE
  5
123
330
1F
100
AcDbEntity
  8
0
  6
Continuous
 62
     7
370
    25
100
AcDbLine
 10
-2.5
 20
-0.125
 30
0.0
 11
-1.5
 21
-0.125
 31
0.0
  0
LINE
  5
124
330
1F
100
AcDbEntity
  8
0
  6
Continuous
 62
     7
370
    25
100
AcDbLine
 10
-0.5
 20
0.125
 30
0.0
 11
-0.5
 21
-0.125
 31
0.0
  0
LINE
  5
125
330
1F
100
AcDbEntity
  8
0
  6
Continuous
 62
     7
370
    25
100
AcDbLine
 10
0.5
 20
0.125
 30
0.0
 11
-0.5
 21
0.125
 31
0.0
  0
LINE
  5
126
330
1F
100
AcDbEntity
  8
0
  6
Continuous
 62
     7
370
    25
100
AcDbLine
 10
0.5
 20
-0.125
 30
0.0
 11
0.5
 21
0.125
 31
0.0
  0
LINE
  5
127
330
1F
100
AcDbEntity
  8
0
  6
Continuous
 62
     7
370
    25
100
AcDbLine
 10
-0.5
 20
-0.125
 30
0.0
 11
0.5
 21
-0.125
 31
0.0
  0
LINE
  5
128
330
1F
100
AcDbEntity
  8
0
  6
Continuous
 62
     7
370
    25
100
AcDbLine
 10
1.5
 20
0.125
 30
0.0
 11
1.5
 21
-0.125
 31
0.0
  0
LINE
  5
129
330
1F
100
AcDbEntity
  8
0
  6
Continuous
 62
     7
370
    25
100
AcDbLine
 10
2.5
 20
0.125
 30
0.0
 11
1.5
 21
0.125
 31
0.0
  0
LINE
  5
12A
330
1F
100
AcDbEntity
  8
0
  6
Continuous
 62
     7
370
    25
100
AcDbLine
 10
2.5
 20
-0.125
 30
0.0
 11
2.5
 21
0.125
 31
0.0
  0
LINE
  5
12B
330
1F
100
AcDbEntity
  8
0
  6
Continuous
 62
     7
370
    25
100
AcDbLine
 10
1.5
 20
-0.125
 30
0.0
 11
2.5
 21
-0.125
 31
0.0
  0
LINE
  5
12C
330
1F
100
AcDbEntity
  8
0
  6
Continuous
 62
     7
370
    25
100
AcDbLine
 10
3.5
 20
0.125
 30
0.0
 11
3.5
 21
-0.125
 31
0.0
  0
LINE
  5
12D
330
1F
100
AcDbEntity
  8
0
  6
Continuous
 62
     7
370
    25
100
AcDbLine
 10
4.5
 20
0.125
 30
0.0
 11
3.5
 21
0.125
 31
0.0
  0
LINE
  5
12E
330
1F
100
AcDbEntity
  8
0
  6
Continuous
 62
     7
370
    25
100
AcDbLine
 10
4.5
 20
-0.125
 30
0.0
 11
4.5
 21
0.125
 31
0.0
  0
LINE
  5
12F
330
1F
100
AcDbEntity
  8
0
  6
Continuous
 62
     7
370
    25
100
AcDbLine
 10
3.5
 20
-0.125
 30
0.0
 11
4.5
 21
-0.125
 31
0.0
  0
LINE
  5
130
330
1F
100
AcDbEntity
  8
0
  6
Continuous
 62
     7
370
    25
100
AcDbLine
 10
5.5
 20
0.125
 30
0.0
 11
5.5
 21
-0.125
 31
0.0
  0
LINE
  5
131
330
1F
100
AcDbEntity
  8
0
  6
Continuous
 62
     7
370
    25
100
AcDbLine
 10
6.5
 20
0.125
 30
0.0
 11
5.5
 21
0.125
 31
0.0
  0
LINE
  5
132
330
1F
100
AcDbEntity
  8
0
  6
Continuous
 62
     7
370
    25
100
AcDbLine
 10
6.5
 20
-0.125
 30
0.0
 11
6.5
 21
0.125
 31
0.0
  0
LINE
  5
133
330
1F
100
AcDbEntity
  8
0
  6
Continuous
 62
     7
370
    25
100
AcDbLine
 10
5.5
 20
-0.125
 30
0.0
 11
6.5
 21
-0.125
 31
0.0
  0
MTEXT
  5
135
330
1F
100
AcDbEntity
  8
0
  6
Continuous
 62
     7
100
AcDbMText
 10
-7.0
 20
-2.1651404091
 30
0.0
 40
0.1903
 41
0.0
 71
     1
 72
     1
  1
Produit d'éducation SOLIDWORKS – A titre éducatif uniquement.
  7
SLDTEXTSTYLE0
 73
     1
 44
1.0
  0
ENDSEC
  0
SECTION
  2
OBJECTS
  0
DICTIONARY
  5
C
330
0
100
AcDbDictionary
281
     1
  3
ACAD_GROUP
350
D
  3
ACAD_LAYOUT
350
1A
  3
ACAD_MLINESTYLE
350
17
  3
ACAD_PLOTSETTINGS
350
19
  3
ACAD_PLOTSTYLENAME
350
E
  3
ACAD_SCALELIST
350
47
  3
DWGPROPS
350
136
  0
DICTIONARY
  5
D
102
{ACAD_REACTORS
330
C
102
}
330
C
100
AcDbDictionary
281
     1
  0
DICTIONARY
  5
1A
102
{ACAD_REACTORS
330
C
102
}
330
C
100
AcDbDictionary
281
     1
  3
Layout1
350
1E
  3
Layout2
350
26
  3
Model
350
22
  0
DICTIONARY
  5
17
102
{ACAD_REACTORS
330
C
102
}
330
C
100
AcDbDictionary
281
     1
  3
Standard
350
18
  0
DICTIONARY
  5
19
102
{ACAD_REACTORS
330
C
102
}
330
C
100
AcDbDictionary
281
     1
  0
ACDBDICTIONARYWDFLT
  5
E
102
{ACAD_REACTORS
330
C
102
}
330
C
100
AcDbDictionary
281
     1
  3
Normal
350
F
100
AcDbDictionaryWithDefault
340
F
  0
DICTIONARY
  5
47
102
{ACAD_REACTORS
330
C
102
}
330
C
100
AcDbDictionary
281
     1
  3
A0
350
48
  3
A1
350
49
  3
A2
350
4A
  3
A3
350
4B
  3
A4
350
4C
  3
A5
350
4D
  3
A6
350
4E
  3
A7
350
4F
  3
A8
350
50
  3
A9
350
51
  3
B0
350
52
  3
B1
350
53
  3
B2
350
54
  3
B3
350
55
  3
B4
350
56
  3
B5
350
57
  3
B6
350
58
  3
B7
350
59
  3
B8
350
5A
  3
B9
350
5B
  3
C0
350
5C
  3
C1
350
5D
  3
C2
350
5E
  3
C3
350
5F
  3
C4
350
60
  3
C5
350
61
  3
C6
350
62
  3
C7
350
63
  3
C8
350
64
  3
C9
350
65
  3
D0
350
66
  3
D1
350
67
  3
D2
350
68
  0
XRECORD
  5
136
102
{ACAD_REACTORS
330
C
102
}
330
C
100
AcDbXrecord
280
     1
  1
DWGPROPS COOKIE
  2

  3

  4

  6

  7

  8
Utilisateur
  9

300
=
301
=
302
=
303
=
304
=
305
=
306
=
307
=
308
=
309
=
 40
0.0
 41
2459655.895944803
 42
2459655.895975637
  1

 90
        0
  0
LAYOUT
  5
1E
102
{ACAD_REACTORS
330
1A
102
}
330
1A
100
AcDbPlotSettings
  1

  2
none_device
  4

  6

 40
0.0
 41
0.0
 42
0.0
 43
0.0
 44
0.0
 45
0.0
 46
0.0
 47
0.0
 48
0.0
 49
0.0
140
0.0
141
0.0
142
1.0
143
1.0
 70
   688
 72
     0
 73
     0
 74
     5
  7

 75
    16
147
1.0
148
0.0
149
0.0
100
AcDbLayout
  1
Layout1
 70
     1
 71
     1
 10
0.0
 20
0.0
 11
12.0
 21
9.0
 12
0.0
 22
0.0
 32
0.0
 14
1.0000000000E+20
 24
1.0000000000E+20
 34
1.0000000000E+20
 15
-1.0000000000E+20
 25
-1.0000000000E+20
 35
-1.0000000000E+20
146
0.0
 13
0.0
 23
0.0
 33
0.0
 16
1.0
 26
0.0
 36
0.0
 17
0.0
 27
1.0
 37
0.0
 76
     0
330
1B
  0
LAYOUT
  5
26
102
{ACAD_REACTORS
330
1A
102
}
330
1A
100
AcDbPlotSettings
  1

  2
none_device
  4

  6

 40
0.0
 41
0.0
 42
0.0
 43
0.0
 44
0.0
 45
0.0
 46
0.0
 47
0.0
 48
0.0
 49
0.0
140
0.0
141
0.0
142
1.0
143
1.0
 70
   688
 72
     0
 73
     0
 74
     5
  7

 75
    16
147
1.0
148
0.0
149
0.0
100
AcDbLayout
  1
Layout2
 70
     1
 71
     2
 10
0.0
 20
0.0
 11
0.0
 21
0.0
 12
0.0
 22
0.0
 32
0.0
 14
0.0
 24
0.0
 34
0.0
 15
0.0
 25
0.0
 35
0.0
146
0.0
 13
0.0
 23
0.0
 33
0.0
 16
1.0
 26
0.0
 36
0.0
 17
0.0
 27
1.0
 37
0.0
 76
     0
330
23
  0
LAYOUT
  5
22
102
{ACAD_REACTORS
330
1A
102
}
330
1A
100
AcDbPlotSettings
  1

  2
none_device
  4
ANSI_A_(11.00_x_8.50_Inches)
  6

 40
6.35
 41
19.05
 42
6.35000508
 43
19.05000254
 44
279.4
 45
215.9
 46
133.34999746
 47
88.89999873
 48
0.0
 49
0.0
140
0.0
141
0.0
142
0.7778571429
143
1.0
 70
  1696
 72
     0
 73
     0
 74
     0
  7

 75
     0
147
0.5913241897
148
-39.4088153714
149
0.0
100
AcDbLayout
  1
Model
 70
     1
 71
     0
 10
0.0
 20
0.0
 11
12.0
 21
9.0
 12
0.0
 22
0.0
 32
0.0
 14
-7.0
 24
-2.125
 34
0.0
 15
7.0
 25
2.125
 35
0.0
146
0.0
 13
0.0
 23
0.0
 33
0.0
 16
1.0
 26
0.0
 36
0.0
 17
0.0
 27
1.0
 37
0.0
 76
     0
330
1F
331
29
  0
MLINESTYLE
  5
18
102
{ACAD_REACTORS
330
17
102
}
330
17
100
AcDbMlineStyle
  2
Standard
 70
     0
  3

 62
   256
 51
90.0
 52
90.0
 71
     2
 49
0.5
 62
   256
  6
BYLAYER
 49
-0.5
 62
   256
  6
BYLAYER
  0
ACDBPLACEHOLDER
  5
F
102
{ACAD_REACTORS
330
E
102
}
330
E
  0
SCALE
  5
48
102
{ACAD_REACTORS
330
47
102
}
330
47
100
AcDbScale
 70
     0
300
1:1
140
1.0
141
1.0
290
     1
  0
SCALE
  5
49
102
{ACAD_REACTORS
330
47
102
}
330
47
100
AcDbScale
 70
     0
300
1:2
140
1.0
141
2.0
290
     0
  0
SCALE
  5
4A
102
{ACAD_REACTORS
330
47
102
}
330
47
100
AcDbScale
 70
     0
300
1:4
140
1.0
141
4.0
290
     0
  0
SCALE
  5
4B
102
{ACAD_REACTORS
330
47
102
}
330
47
100
AcDbScale
 70
     0
300
1:5
140
1.0
141
5.0
290
     0
  0
SCALE
  5
4C
102
{ACAD_REACTORS
330
47
102
}
330
47
100
AcDbScale
 70
     0
300
1:8
140
1.0
141
8.0
290
     0
  0
SCALE
  5
4D
102
{ACAD_REACTORS
330
47
102
}
330
47
100
AcDbScale
 70
     0
300
1:10
140
1.0
141
10.0
290
     0
  0
SCALE
  5
4E
102
{ACAD_REACTORS
330
47
102
}
330
47
100
AcDbScale
 70
     0
300
1:16
140
1.0
141
16.0
290
     0
  0
SCALE
  5
4F
102
{ACAD_REACTORS
330
47
102
}
330
47
100
AcDbScale
 70
     0
300
1:20
140
1.0
141
20.0
290
     0
  0
SCALE
  5
50
102
{ACAD_REACTORS
330
47
102
}
330
47
100
AcDbScale
 70
     0
300
1:30
140
1.0
141
30.0
290
     0
  0
SCALE
  5
51
102
{ACAD_REACTORS
330
47
102
}
330
47
100
AcDbScale
 70
     0
300
1:40
140
1.0
141
40.0
290
     0
  0
SCALE
  5
52
102
{ACAD_REACTORS
330
47
102
}
330
47
100
AcDbScale
 70
     0
300
1:50
140
1.0
141
50.0
290
     0
  0
SCALE
  5
53
102
{ACAD_REACTORS
330
47
102
}
330
47
100
AcDbScale
 70
     0
300
1:100
140
1.0
141
100.0
290
     0
  0
SCALE
  5
54
102
{ACAD_REACTORS
330
47
102
}
330
47
100
AcDbScale
 70
     0
300
2:1
140
2.0
141
1.0
290
     0
  0
SCALE
  5
55
102
{ACAD_REACTORS
330
47
102
}
330
47
100
AcDbScale
 70
     0
300
4:1
140
4.0
141
1.0
290
     0
  0
SCALE
  5
56
102
{ACAD_REACTORS
330
47
102
}
330
47
100
AcDbScale
 70
     0
300
8:1
140
8.0
141
1.0
290
     0
  0
SCALE
  5
57
102
{ACAD_REACTORS
330
47
102
}
330
47
100
AcDbScale
 70
     0
300
10:1
140
10.0
141
1.0
290
     0
  0
SCALE
  5
58
102
{ACAD_REACTORS
330
47
102
}
330
47
100
AcDbScale
 70
     0
300
100:1
140
100.0
141
1.0
290
     0
  0
SCALE
  5
59
102
{ACAD_REACTORS
330
47
102
}
330
47
100
AcDbScale
 70
     0
300
1/128" = 1'-0"
140
0.0078125
141
12.0
290
     0
  0
SCALE
  5
5A
102
{ACAD_REACTORS
330
47
102
}
330
47
100
AcDbScale
 70
     0
300
1/64" = 1'-0"
140
0.015625
141
12.0
290
     0
  0
SCALE
  5
5B
102
{ACAD_REACTORS
330
47
102
}
330
47
100
AcDbScale
 70
     0
300
1/32" = 1'-0"
140
0.03125
141
12.0
290
     0
  0
SCALE
  5
5C
102
{ACAD_REACTORS
330
47
102
}
330
47
100
AcDbScale
 70
     0
300
1/16" = 1'-0"
140
0.0625
141
12.0
290
     0
  0
SCALE
  5
5D
102
{ACAD_REACTORS
330
47
102
}
330
47
100
AcDbScale
 70
     0
300
3/32" = 1'-0"
140
0.09375
141
12.0
290
     0
  0
SCALE
  5
5E
102
{ACAD_REACTORS
330
47
102
}
330
47
100
AcDbScale
 70
     0
300
1/8" = 1'-0"
140
0.125
141
12.0
290
     0
  0
SCALE
  5
5F
102
{ACAD_REACTORS
330
47
102
}
330
47
100
AcDbScale
 70
     0
300
3/16" = 1'-0"
140
0.1875
141
12.0
290
     0
  0
SCALE
  5
60
102
{ACAD_REACTORS
330
47
102
}
330
47
100
AcDbScale
 70
     0
300
1/4" = 1'-0"
140
0.25
141
12.0
290
     0
  0
SCALE
  5
61
102
{ACAD_REACTORS
330
47
102
}
330
47
100
AcDbScale
 70
     0
300
3/8" = 1'-0"
140
0.375
141
12.0
290
     0
  0
SCALE
  5
62
102
{ACAD_REACTORS
330
47
102
}
330
47
100
AcDbScale
 70
     0
300
1/2" = 1'-0"
140
0.5
141
12.0
290
     0
  0
SCALE
  5
63
102
{ACAD_REACTORS
330
47
102
}
330
47
100
AcDbScale
 70
     0
300
3/4" = 1'-0"
140
0.75
141
12.0
290
     0
  0
SCALE
  5
64
102
{ACAD_REACTORS
330
47
102
}
330
47
100
AcDbScale
 70
     0
300
1" = 1'-0"
140
1.0
141
12.0
290
     0
  0
SCALE
  5
65
102
{ACAD_REACTORS
330
47
102
}
330
47
100
AcDbScale
 70
     0
300
1-1/2" = 1'-0"
140
1.5
141
12.0
290
     0
  0
SCALE
  5
66
102
{ACAD_REACTORS
330
47
102
}
330
47
100
AcDbScale
 70
     0
300
3" = 1'-0"
140
3.0
141
12.0
290
     0
  0
SCALE
  5
67
102
{ACAD_REACTORS
330
47
102
}
330
47
100
AcDbScale
 70
     0
300
6" = 1'-0"
140
6.0
141
12.0
290
     0
  0
SCALE
  5
68
102
{ACAD_REACTORS
330
47
102
}
330
47
100
AcDbScale
 70
     0
300
1'-0" = 1'-0"
140
12.0
141
12.0
290
     0
  0
ENDSEC
  0
EOF
