  0
SECTION
  2
HEADER
  9
$ACADVER
  1
AC1015
  9
$ACADMAINTVER
 70
     6
  9
$DWGCODEPAGE
  3
ANSI_1252
  9
$INSBASE
 10
0.0
 20
0.0
 30
0.0
  9
$EXTMIN
 10
-7.0
 20
-1.25
 30
0.0
  9
$EXTMAX
 10
7.0
 20
1.0
 30
0.0
  9
$LIMMIN
 10
0.0
 20
0.0
  9
$LIMMAX
 10
12.0
 20
9.0
  9
$ORTHOMODE
 70
     0
  9
$REGENMODE
 70
     1
  9
$FILLMODE
 70
     1
  9
$QTEXTMODE
 70
     0
  9
$MIRRTEXT
 70
     1
  9
$LTSCALE
 40
1.0
  9
$ATTMODE
 70
     1
  9
$TEXTSIZE
 40
0.25
  9
$TRACEWID
 40
0.05
  9
$TEXTSTYLE
  7
Standard
  9
$CLAYER
  8
0
  9
$CELTYPE
  6
ByLayer
  9
$CECOLOR
 62
   256
  9
$CELTSCALE
 40
1.0
  9
$DISPSILH
 70
     0
  9
$DIMSCALE
 40
1.0
  9
$DIMASZ
 40
0.236
  9
$DIMEXO
 40
0.0
  9
$DIMDLI
 40
0.38
  9
$DIMRND
 40
0.0
  9
$DIMDLE
 40
0.0
  9
$DIMEXE
 40
0.039
  9
$DIMTP
 40
0.0
  9
$DIMTM
 40
0.0
  9
$DIMTXT
 40
0.25
  9
$DIMCEN
 40
0.09
  9
$DIMTSZ
 40
0.0
  9
$DIMTOL
 70
     0
  9
$DIMLIM
 70
     0
  9
$DIMTIH
 70
     1
  9
$DIMTOH
 70
     1
  9
$DIMSE1
 70
     0
  9
$DIMSE2
 70
     0
  9
$DIMTAD
 70
     1
  9
$DIMZIN
 70
     0
  9
$DIMBLK
  1

  9
$DIMASO
 70
     1
  9
$DIMSHO
 70
     1
  9
$DIMPOST
  1

  9
$DIMAPOST
  1

  9
$DIMALT
 70
     0
  9
$DIMALTD
 70
     2
  9
$DIMALTF
 40
25.4
  9
$DIMLFAC
 40
1.0
  9
$DIMTOFL
 70
     0
  9
$DIMTVP
 40
0.0
  9
$DIMTIX
 70
     0
  9
$DIMSOXD
 70
     0
  9
$DIMSAH
 70
     0
  9
$DIMBLK1
  1

  9
$DIMBLK2
  1

  9
$DIMSTYLE
  2
Standard
  9
$DIMCLRD
 70
     0
  9
$DIMCLRE
 70
     0
  9
$DIMCLRT
 70
     0
  9
$DIMTFAC
 40
1.0
  9
$DIMGAP
 40
0.06
  9
$DIMJUST
 70
     0
  9
$DIMSD1
 70
     0
  9
$DIMSD2
 70
     0
  9
$DIMTOLJ
 70
     1
  9
$DIMTZIN
 70
     0
  9
$DIMALTZ
 70
     0
  9
$DIMALTTZ
 70
     0
  9
$DIMUPT
 70
     0
  9
$DIMDEC
 70
     2
  9
$DIMTDEC
 70
     2
  9
$DIMALTU
 70
     2
  9
$DIMALTTD
 70
     2
  9
$DIMTXSTY
  7
Standard
  9
$DIMAUNIT
 70
     0
  9
$DIMADEC
 70
     2
  9
$DIMALTRND
 40
0.0
  9
$DIMAZIN
 70
     0
  9
$DIMDSEP
 70
    46
  9
$DIMATFIT
 70
     3
  9
$DIMFRAC
 70
     0
  9
$DIMLDRBLK
  1

  9
$DIMLUNIT
 70
     2
  9
$DIMLWD
 70
    -2
  9
$DIMLWE
 70
    -2
  9
$DIMTMOVE
 70
     0
  9
$LUNITS
 70
     2
  9
$LUPREC
 70
     2
  9
$SKETCHINC
 40
0.1
  9
$FILLETRAD
 40
0.5
  9
$AUNITS
 70
     0
  9
$AUPREC
 70
     2
  9
$MENU
  1
.
  9
$ELEVATION
 40
0.0
  9
$PELEVATION
 40
0.0
  9
$THICKNESS
 40
0.0
  9
$LIMCHECK
 70
     0
  9
$CHAMFERA
 40
0.0
  9
$CHAMFERB
 40
0.0
  9
$CHAMFERC
 40
0.0
  9
$CHAMFERD
 40
0.0
  9
$SKPOLY
 70
     0
  9
$TDCREATE
 40
2459655.728270984
  9
$TDUCREATE
 40
2459655.89493765
  9
$TDUPDATE
 40
2459655.728348298
  9
$TDUUPDATE
 40
2459655.895014965
  9
$TDINDWG
 40
0.0000000116
  9
$TDUSRTIMER
 40
0.0000000116
  9
$USRTIMER
 70
     1
  9
$ANGBASE
 50
0.0
  9
$ANGDIR
 70
     0
  9
$PDMODE
 70
     0
  9
$PDSIZE
 40
-1.0
  9
$PLINEWID
 40
0.0
  9
$SPLFRAME
 70
     0
  9
$SPLINETYPE
 70
     6
  9
$SPLINESEGS
 70
     8
  9
$HANDSEED
  5
D9
  9
$SURFTAB1
 70
     6
  9
$SURFTAB2
 70
     6
  9
$SURFTYPE
 70
     6
  9
$SURFU
 70
     6
  9
$SURFV
 70
     6
  9
$UCSBASE
  2

  9
$UCSNAME
  2

  9
$UCSORG
 10
0.0
 20
0.0
 30
0.0
  9
$UCSXDIR
 10
1.0
 20
0.0
 30
0.0
  9
$UCSYDIR
 10
0.0
 20
1.0
 30
0.0
  9
$UCSORTHOREF
  2

  9
$UCSORTHOVIEW
 70
     0
  9
$UCSORGTOP
 10
0.0
 20
0.0
 30
0.0
  9
$UCSORGBOTTOM
 10
0.0
 20
0.0
 30
0.0
  9
$UCSORGLEFT
 10
0.0
 20
0.0
 30
0.0
  9
$UCSORGRIGHT
 10
0.0
 20
0.0
 30
0.0
  9
$UCSORGFRONT
 10
0.0
 20
0.0
 30
0.0
  9
$UCSORGBACK
 10
0.0
 20
0.0
 30
0.0
  9
$PUCSBASE
  2

  9
$PUCSNAME
  2

  9
$PUCSORG
 10
0.0
 20
0.0
 30
0.0
  9
$PUCSXDIR
 10
1.0
 20
0.0
 30
0.0
  9
$PUCSYDIR
 10
0.0
 20
1.0
 30
0.0
  9
$PUCSORTHOREF
  2

  9
$PUCSORTHOVIEW
 70
     0
  9
$PUCSORGTOP
 10
0.0
 20
0.0
 30
0.0
  9
$PUCSORGBOTTOM
 10
0.0
 20
0.0
 30
0.0
  9
$PUCSORGLEFT
 10
0.0
 20
0.0
 30
0.0
  9
$PUCSORGRIGHT
 10
0.0
 20
0.0
 30
0.0
  9
$PUCSORGFRONT
 10
0.0
 20
0.0
 30
0.0
  9
$PUCSORGBACK
 10
0.0
 20
0.0
 30
0.0
  9
$USERI1
 70
     0
  9
$USERI2
 70
     0
  9
$USERI3
 70
     0
  9
$USERI4
 70
     0
  9
$USERI5
 70
     0
  9
$USERR1
 40
0.0
  9
$USERR2
 40
0.0
  9
$USERR3
 40
0.0
  9
$USERR4
 40
0.0
  9
$USERR5
 40
0.0
  9
$WORLDVIEW
 70
     1
  9
$SHADEDGE
 70
     3
  9
$SHADEDIF
 70
    70
  9
$TILEMODE
 70
     1
  9
$MAXACTVP
 70
    64
  9
$PINSBASE
 10
0.0
 20
0.0
 30
0.0
  9
$PLIMCHECK
 70
     0
  9
$PEXTMIN
 10
1.0000000000E+20
 20
1.0000000000E+20
 30
1.0000000000E+20
  9
$PEXTMAX
 10
-1.0000000000E+20
 20
-1.0000000000E+20
 30
-1.0000000000E+20
  9
$PLIMMIN
 10
0.0
 20
0.0
  9
$PLIMMAX
 10
12.0
 20
9.0
  9
$UNITMODE
 70
     0
  9
$VISRETAIN
 70
     1
  9
$PLINEGEN
 70
     0
  9
$PSLTSCALE
 70
     1
  9
$TREEDEPTH
 70
  3020
  9
$CMLSTYLE
  2
Standard
  9
$CMLJUST
 70
     0
  9
$CMLSCALE
 40
1.0
  9
$PROXYGRAPHICS
 70
     1
  9
$MEASUREMENT
 70
     0
  9
$CELWEIGHT
370
    -1
  9
$ENDCAPS
280
     0
  9
$JOINSTYLE
280
     0
  9
$LWDISPLAY
290
     1
  9
$INSUNITS
 70
     1
  9
$HYPERLINKBASE
  1

  9
$STYLESHEET
  1

  9
$XEDIT
290
     1
  9
$CEPSNTYPE
380
     0
  9
$PSTYLEMODE
290
     1
  9
$FINGERPRINTGUID
  2
{2f9cb0a6-f049-4f5c-8c93-4d00ccc20a9f}
  9
$VERSIONGUID
  2
{FAEB1C32-E019-11D5-929B-00C0DF256EC4}
  9
$EXTNAMES
290
     1
  9
$PSVPSCALE
 40
0.0
  9
$OLESTARTUP
290
     0
  0
ENDSEC
  0
SECTION
  2
CLASSES
  0
CLASS
  1
ACDBDICTIONARYWDFLT
  2
AcDbDictionaryWithDefault
  3
ObjectDBX Classes
 90
        0
280
     0
281
     0
  0
CLASS
  1
VISUALSTYLE
  2
AcDbVisualStyle
  3
ObjectDBX Classes
 90
     4095
280
     0
281
     0
  0
CLASS
  1
MATERIAL
  2
AcDbMaterial
  3
ObjectDBX Classes
 90
     1153
280
     0
281
     0
  0
CLASS
  1
SCALE
  2
AcDbScale
  3
ObjectDBX Classes
 90
     1153
280
     0
281
     0
  0
CLASS
  1
TABLESTYLE
  2
AcDbTableStyle
  3
ObjectDBX Classes
 90
     4095
280
     0
281
     0
  0
CLASS
  1
MLEADERSTYLE
  2
AcDbMLeaderStyle
  3
ACDB_MLEADERSTYLE_CLASS
 90
     4095
280
     0
281
     0
  0
CLASS
  1
SUN
  2
AcDbSun
  3
SCENEOE
 90
     1153
280
     0
281
     0
  0
CLASS
  1
ACDBPLACEHOLDER
  2
AcDbPlaceHolder
  3
ObjectDBX Classes
 90
        0
280
     0
281
     0
  0
CLASS
  1
LAYOUT
  2
AcDbLayout
  3
ObjectDBX Classes
 90
        0
280
     0
281
     0
  0
ENDSEC
  0
SECTION
  2
TABLES
  0
TABLE
  2
VPORT
  5
8
330
0
100
AcDbSymbolTable
 70
     1
  0
VPORT
  5
29
330
8
100
AcDbSymbolTableRecord
100
AcDbViewportTableRecord
  2
*Active
 70
     0
 10
0.0
 20
0.0
 11
1.0
 21
1.0
 12
0.0
 22
-0.125
 13
0.0
 23
0.0
 14
0.5
 24
0.5
 15
0.5
 25
0.5
 16
0.0
 26
0.0
 36
1.0
 17
0.0
 27
0.0
 37
0.0
 40
2.295
 41
6.2222222222
 42
50.0
 43
0.0
 44
0.0
 50
0.0
 51
0.0
 71
     0
 72
   100
 73
     1
 74
     3
 75
     0
 76
     0
 77
     0
 78
     0
281
     0
 65
     1
110
0.0
120
0.0
130
0.0
111
1.0
121
0.0
131
0.0
112
0.0
122
1.0
132
0.0
 79
     0
146
0.0
  0
ENDTAB
  0
TABLE
  2
LTYPE
  5
5
330
0
100
AcDbSymbolTable
 70
     6
  0
LTYPE
  5
14
330
5
100
AcDbSymbolTableRecord
100
AcDbLinetypeTableRecord
  2
ByBlock
 70
     0
  3

 72
    65
 73
     0
 40
0.0
  0
LTYPE
  5
15
330
5
100
AcDbSymbolTableRecord
100
AcDbLinetypeTableRecord
  2
ByLayer
 70
     0
  3

 72
    65
 73
     0
 40
0.0
  0
LTYPE
  5
16
330
5
100
AcDbSymbolTableRecord
100
AcDbLinetypeTableRecord
  2
Continuous
 70
     0
  3
Solid line
 72
    65
 73
     0
 40
0.0
  0
LTYPE
  5
6E
330
5
100
AcDbSymbolTableRecord
100
AcDbLinetypeTableRecord
  2
HIDDEN
 70
     0
  3
Hidden __ __ __ __ __ __ __ __ __ __ __ __ __ __
 72
    65
 73
     2
 40
0.075
 49
0.05
 74
     0
 49
-0.025
 74
     0
  0
LTYPE
  5
6F
330
5
100
AcDbSymbolTableRecord
100
AcDbLinetypeTableRecord
  2
PHANTOM
 70
     0
  3
Phantom ______  __  __  ______  __  __  ______
 72
    65
 73
     6
 40
0.5
 49
0.25
 74
     0
 49
-0.05
 74
     0
 49
0.05
 74
     0
 49
-0.05
 74
     0
 49
0.05
 74
     0
 49
-0.05
 74
     0
  0
LTYPE
  5
70
330
5
100
AcDbSymbolTableRecord
100
AcDbLinetypeTableRecord
  2
CENTER
 70
     0
  3
Center ____ _ ____ _ ____ _ ____ _ ____ _ ____
 72
    65
 73
     4
 40
0.4
 49
0.25
 74
     0
 49
-0.05
 74
     0
 49
0.05
 74
     0
 49
-0.05
 74
     0
  0
LTYPE
  5
71
330
5
100
AcDbSymbolTableRecord
100
AcDbLinetypeTableRecord
  2
CENTERX2
 70
     0
  3
Center (2x) ________  __  ________  __  _____
 72
    65
 73
     4
 40
0.8
 49
0.5
 74
     0
 49
-0.1
 74
     0
 49
0.1
 74
     0
 49
-0.1
 74
     0
  0
LTYPE
  5
72
330
5
100
AcDbSymbolTableRecord
100
AcDbLinetypeTableRecord
  2
DOT2
 70
     0
  3
Dot (.5x) ........................................
 72
    65
 73
     2
 40
0.025
 49
0.0
 74
     0
 49
-0.025
 74
     0
  0
ENDTAB
  0
TABLE
  2
LAYER
  5
2
330
0
100
AcDbSymbolTable
 70
     1
  0
LAYER
  5
10
330
2
100
AcDbSymbolTableRecord
100
AcDbLayerTableRecord
  2
0
 70
     0
 62
     7
  6
Continuous
370
    -3
390
F
  0
ENDTAB
  0
TABLE
  2
STYLE
  5
3
330
0
100
AcDbSymbolTable
 70
     2
  0
STYLE
  5
11
330
3
100
AcDbSymbolTableRecord
100
AcDbTextStyleTableRecord
  2
Standard
 70
     0
 40
0.0
 41
1.0
 50
0.0
 71
     0
 42
0.25
  3
txt
  4

  0
STYLE
  5
D6
330
3
100
AcDbSymbolTableRecord
100
AcDbTextStyleTableRecord
  2
SLDTEXTSTYLE0
 70
     0
 40
0.0
 41
0.7
 50
0.0
 71
     0
 42
0.25
  3
TXT
  4
bigfont
  0
ENDTAB
  0
TABLE
  2
VIEW
  5
6
330
0
100
AcDbSymbolTable
 70
     0
  0
ENDTAB
  0
TABLE
  2
UCS
  5
7
330
0
100
AcDbSymbolTable
 70
     0
  0
ENDTAB
  0
TABLE
  2
APPID
  5
9
330
0
100
AcDbSymbolTable
 70
     1
  0
APPID
  5
12
330
9
100
AcDbSymbolTableRecord
100
AcDbRegAppTableRecord
  2
ACAD
 70
     0
  0
ENDTAB
  0
TABLE
  2
DIMSTYLE
  5
A
330
0
100
AcDbSymbolTable
 70
     1
100
AcDbDimStyleTable
  0
DIMSTYLE
105
27
330
A
100
AcDbSymbolTableRecord
100
AcDbDimStyleTableRecord
  2
Standard
 70
     0
178
     0
340
11
  0
ENDTAB
  0
TABLE
  2
BLOCK_RECORD
  5
1
330
0
100
AcDbSymbolTable
 70
     1
  0
BLOCK_RECORD
  5
1F
330
1
100
AcDbSymbolTableRecord
100
AcDbBlockTableRecord
  2
*Model_Space
340
22
  0
BLOCK_RECORD
  5
1B
330
1
100
AcDbSymbolTableRecord
100
AcDbBlockTableRecord
  2
*Paper_Space
340
1E
  0
BLOCK_RECORD
  5
23
330
1
100
AcDbSymbolTableRecord
100
AcDbBlockTableRecord
  2
*Paper_Space0
340
26
  0
ENDTAB
  0
ENDSEC
  0
SECTION
  2
BLOCKS
  0
BLOCK
  5
20
330
1F
100
AcDbEntity
  8
0
100
AcDbBlockBegin
  2
*Model_Space
 70
     0
 10
0.0
 20
0.0
 30
0.0
  3
*Model_Space
  1

  0
ENDBLK
  5
21
330
1F
100
AcDbEntity
  8
0
100
AcDbBlockEnd
  0
BLOCK
  5
1C
330
1B
100
AcDbEntity
 67
     1
  8
0
100
AcDbBlockBegin
  2
*Paper_Space
 70
     0
 10
0.0
 20
0.0
 30
0.0
  3
*Paper_Space
  1

  0
ENDBLK
  5
1D
330
1B
100
AcDbEntity
 67
     1
  8
0
100
AcDbBlockEnd
  0
BLOCK
  5
24
330
23
100
AcDbEntity
  8
0
100
AcDbBlockBegin
  2
*Paper_Space0
 70
     0
 10
0.0
 20
0.0
 30
0.0
  3
*Paper_Space0
  1

  0
ENDBLK
  5
25
330
23
100
AcDbEntity
  8
0
100
AcDbBlockEnd
  0
ENDSEC
  0
SECTION
  2
ENTITIES
  0
LWPOLYLINE
  5
73
330
1F
100
AcDbEntity
  8
0
  6
Continuous
 62
     7
100
AcDbPolyline
 90
       28
 70
   128
 43
0.0
 10
-4.2916658356
 20
0.5104166667
 10
-4.2916666667
 20
-0.25
 10
-4.2916666667
 20
-0.25
 10
-4.5104166667
 20
-0.25
 10
-4.5104166667
 20
-0.25
 10
-4.5104166667
 20
0.302734375
 10
-4.5104166667
 20
0.302734375
 10
-4.5257161458
 20
0.2934570313
 10
-4.5419921875
 20
0.28515625
 10
-4.5589192708
 20
0.2778320313
 10
-4.5766601562
 20
0.2718098958
 10
-4.5953776042
 20
0.2666015625
 10
-4.6149088542
 20
0.2626953125
 10
-4.6350911458
 20
0.259765625
 10
-4.65625
 20
0.2578125
 10
-4.65625
 20
0.2578125
 10
-4.65625
 20
0.3763020833
 10
-4.65625
 20
0.3763020833
 10
-4.6183268229
 20
0.3821614583
 10
-4.5833333333
 20
0.3911132813
 10
-4.5514322917
 20
0.4031575521
 10
-4.5226236979
 20
0.4184570313
 10
-4.4969075521
 20
0.4366861979
 10
-4.4741210938
 20
0.4581705729
 10
-4.4544270833
 20
0.4827473958
 10
-4.4376627604
 20
0.5104166667
 10
-4.4376627604
 20
0.5104166667
 10
-4.2916666667
 20
0.5104166667
  0
LWPOLYLINE
  5
74
330
1F
100
AcDbEntity
  8
0
  6
Continuous
 62
     7
100
AcDbPolyline
 90
      128
 70
   128
 43
0.0
 10
0.3645833083
 20
-0.0729166667
 10
0.3645833333
 20
-0.25
 10
0.3645833333
 20
-0.25
 10
-0.1979166667
 20
-0.25
 10
-0.1979166667
 20
-0.25
 10
-0.1979166667
 20
-0.1458333333
 10
-0.1979166667
 20
-0.1458333333
 10
-0.1616210937
 20
-0.1069335937
 10
-0.1225585937
 20
-0.0667317708
 10
-0.0810546875
 20
-0.025390625
 10
-0.0369466146
 20
0.0172526042
 10
-0.0369466146
 20
0.0172526042
 10
-0.0123697917
 20
0.041015625
 10
0.0107421875
 20
0.0639648438
 10
0.0322265625
 20
0.0862630208
 10
0.0520833333
 20
0.1079101563
 10
0.0704752604
 20
0.1287434896
 10
0.0870768229
 20
0.1489257813
 10
0.1022135417
 20
0.1684570313
 10
0.1157226563
 20
0.1871744792
 10
0.1277669271
 20
0.2052408854
 10
0.1380208333
 20
0.22265625
 10
0.1468098958
 20
0.2392578125
 10
0.1539713542
 20
0.2552083333
 10
0.1595052083
 20
0.2705078125
 10
0.1634114583
 20
0.2849934896
 10
0.1658528646
 20
0.298828125
 10
0.1666666667
 20
0.3120117188
 10
0.1666666667
 20
0.3120117188
 10
0.1661783854
 20
0.3284505208
 10
0.1650390625
 20
0.3439127604
 10
0.1629231771
 20
0.3582356771
 10
0.1599934896
 20
0.3714192708
 10
0.1560872396
 20
0.3836263021
 10
0.1515299479
 20
0.3948567708
 10
0.1459960938
 20
0.4049479167
 10
0.1396484375
 20
0.4138997396
 10
0.1324869792
 20
0.421875
 10
0.1245117188
 20
0.4288736979
 10
0.1155598958
 20
0.4345703125
 10
0.1059570313
 20
0.439453125
 10
0.0953776042
 20
0.4431966146
 10
0.083984375
 20
0.4458007813
 10
0.0716145833
 20
0.4474283854
 10
0.05859375
 20
0.4479166667
 10
0.05859375
 20
0.4479166667
 10
0.0426432292
 20
0.447265625
 10
0.0278320313
 20
0.4453125
 10
0.0138346354
 20
0.4420572917
 10
0.0011393229
 20
0.4375
 10
-0.0107421875
 20
0.431640625
 10
-0.021484375
 20
0.4244791667
 10
-0.03125
 20
0.416015625
 10
-0.0400390625
 20
0.4064127604
 10
-0.0476888021
 20
0.3953450521
 10
-0.0543619792
 20
0.3829752604
 10
-0.0600585937
 20
0.3693033854
 10
-0.0646158854
 20
0.3543294271
 10
-0.068359375
 20
0.3380533854
 10
-0.0708007812
 20
0.3206380208
 10
-0.0724283854
 20
0.3017578125
 10
-0.0729166667
 20
0.2815755208
 10
-0.0729166667
 20
0.2815755208
 10
-0.0719401042
 20
0.2599283854
 10
-0.0690104167
 20
0.2342122396
 10
-0.0642903646
 20
0.2045898438
 10
-0.0576171875
 20
0.1708984375
 10
-0.0576171875
 20
0.1708984375
 10
-0.1741536458
 20
0.1985677083
 10
-0.1741536458
 20
0.1985677083
 10
-0.1800130208
 20
0.2231445313
 10
-0.1840820312
 20
0.2452799479
 10
-0.1866861979
 20
0.2648111979
 10
-0.1875
 20
0.2817382813
 10
-0.1875
 20
0.2817382813
 10
-0.1863606771
 20
0.3094075521
 10
-0.1831054687
 20
0.3352864583
 10
-0.1774088542
 20
0.359375
 10
-0.1695963542
 20
0.3818359375
 10
-0.1596679687
 20
0.40234375
 10
-0.1472981771
 20
0.4210611979
 10
-0.1328125
 20
0.4379882813
 10
-0.1160481771
 20
0.4532877604
 10
-0.0971679687
 20
0.4666341146
 10
-0.0758463542
 20
0.4781901042
 10
-0.0524088542
 20
0.4881184896
 10
-0.0268554687
 20
0.49609375
 10
0.0011393229
 20
0.5024414063
 10
0.03125
 20
0.5068359375
 10
0.0634765625
 20
0.5096028646
 10
0.0981445313
 20
0.5104166667
 10
0.0981445313
 20
0.5104166667
 10
0.1277669271
 20
0.5094401042
 10
0.1559244792
 20
0.5066731771
 10
0.1827799479
 20
0.5021158854
 10
0.2083333333
 20
0.4956054688
 10
0.2325846354
 20
0.4873046875
 10
0.2553710938
 20
0.4772135417
 10
0.2768554688
 20
0.4651692708
 10
0.2970377604
 20
0.4513346354
 10
0.3152669271
 20
0.4360351563
 10
0.3312174479
 20
0.4197591146
 10
0.3445638021
 20
0.4025065104
 10
0.35546875
 20
0.3841145833
 10
0.3640950521
 20
0.3647460938
 10
0.3701171875
 20
0.3442382813
 10
0.3738606771
 20
0.3227539063
 10
0.375
 20
0.3002929688
 10
0.375
 20
0.3002929688
 10
0.3725585938
 20
0.2736002604
 10
0.365234375
 20
0.2464192708
 10
0.3530273438
 20
0.21875
 10
0.3359375
 20
0.1902669271
 10
0.3139648438
 20
0.1612955729
 10
0.2872721354
 20
0.1318359375
 10
0.2555338542
 20
0.1017252604
 10
0.2189127604
 20
0.0709635417
 10
0.2189127604
 20
0.0709635417
 10
0.1490885417
 20
0.0157877604
 10
0.1490885417
 20
0.0157877604
 10
0.0734049479
 20
-0.0475260417
 10
0.0734049479
 20
-0.0475260417
 10
0.0685221354
 20
-0.0514322917
 10
0.0610351563
 20
-0.0569661458
 10
0.05078125
 20
-0.0641276042
 10
0.0380859375
 20
-0.0729166667
 10
0.0380859375
 20
-0.0729166667
 10
0.3645833333
 20
-0.0729166667
  0
LWPOLYLINE
  5
75
330
1F
100
AcDbEntity
  8
0
  6
Continuous
 62
     7
100
AcDbPolyline
 90
      179
 70
   128
 43
0.0
 10
4.4519225443
 20
0.3173076923
 10
4.3173076923
 20
0.3173076923
 10
4.3173076923
 20
0.3173076923
 10
4.3204627404
 20
0.3374399038
 10
4.3248197115
 20
0.3565204327
 10
4.3302283654
 20
0.3745492788
 10
4.3368389423
 20
0.3915264423
 10
4.3446514423
 20
0.4076021635
 10
4.353515625
 20
0.4226262019
 10
4.3635817308
 20
0.4365985577
 10
4.3748497596
 20
0.4495192308
 10
4.3748497596
 20
0.4495192308
 10
4.3918269231
 20
0.4658954327
 10
4.4098557692
 20
0.4800180288
 10
4.4289362981
 20
0.4920372596
 10
4.44921875
 20
0.5018028846
 10
4.4704026442
 20
0.5094651442
 10
4.4927884615
 20
0.5148737981
 10
4.5160757212
 20
0.5181790865
 10
4.5405649038
 20
0.5192307692
 10
4.5405649038
 20
0.5192307692
 10
4.5623497596
 20
0.5183293269
 10
4.5832331731
 20
0.515625
 10
4.6032151442
 20
0.5109675481
 10
4.6222956731
 20
0.5046574519
 10
4.6404747596
 20
0.4963942308
 10
4.6579026442
 20
0.4864783654
 10
4.6742788462
 20
0.474609375
 10
4.6897536058
 20
0.4609375
 10
4.7038762019
 20
0.4460637019
 10
4.7160456731
 20
0.4304387019
 10
4.7264122596
 20
0.4142127404
 10
4.7349759615
 20
0.3972355769
 10
4.7415865385
 20
0.3795072115
 10
4.7462439904
 20
0.3611778846
 10
4.7490985577
 20
0.3422475962
 10
4.75
 20
0.3225661058
 10
4.75
 20
0.3225661058
 10
4.7483473558
 20
0.2982271635
 10
4.7435396635
 20
0.2750901442
 10
4.7355769231
 20
0.2528545673
 10
4.7243088942
 20
0.2318209135
 10
4.7100360577
 20
0.2122896635
 10
4.6927584135
 20
0.1947115385
 10
4.6726262019
 20
0.1790865385
 10
4.6496394231
 20
0.1654146635
 10
4.6496394231
 20
0.1654146635
 10
4.6655649038
 20
0.1598557692
 10
4.6804387019
 20
0.1532451923
 10
4.6945612981
 20
0.1457331731
 10
4.7077824519
 20
0.1371694712
 10
4.7201021635
 20
0.1277043269
 10
4.7315204327
 20
0.1173377404
 10
4.7420372596
 20
0.1060697115
 10
4.7516526442
 20
0.09375
 10
4.7602163462
 20
0.0806790865
 10
4.7677283654
 20
0.0671574519
 10
4.7740384615
 20
0.0530348558
 10
4.779296875
 20
0.0383112981
 10
4.7833533654
 20
0.0229867788
 10
4.7862079327
 20
0.0070612981
 10
4.7878605769
 20
-0.0094651442
 10
4.7884615385
 20
-0.0264423077
 10
4.7884615385
 20
-0.0264423077
 10
4.7872596154
 20
-0.0513822115
 10
4.7839543269
 20
-0.0754206731
 10
4.7780949519
 20
-0.0984074519
 10
4.7701322115
 20
-0.1203425481
 10
4.759765625
 20
-0.1413762019
 10
4.7472956731
 20
-0.1615084135
 10
4.7322716346
 20
-0.1805889423
 10
4.7151442308
 20
-0.1987680288
 10
4.6962139423
 20
-0.2152944712
 10
4.6759314904
 20
-0.2295673077
 10
4.6544471154
 20
-0.2417367788
 10
4.6317608173
 20
-0.2516526442
 10
4.6078725962
 20
-0.2593149038
 10
4.5826322115
 20
-0.2648737981
 10
4.5561899038
 20
-0.2681790865
 10
4.5283954327
 20
-0.2692307692
 10
4.5283954327
 20
-0.2692307692
 10
4.5021033654
 20
-0.2681790865
 10
4.4771634615
 20
-0.2650240385
 10
4.4534254808
 20
-0.259765625
 10
4.4308894231
 20
-0.2524038462
 10
4.4095552885
 20
-0.2429387019
 10
4.3894230769
 20
-0.2315204327
 10
4.3706430288
 20
-0.2178485577
 10
4.3530649038
 20
-0.2020733173
 10
4.3371394231
 20
-0.1844951923
 10
4.3230168269
 20
-0.1654146635
 10
4.3108473558
 20
-0.1448317308
 10
4.3006310096
 20
-0.1227463942
 10
4.2923677885
 20
-0.0991586538
 10
4.2859074519
 20
-0.0740685096
 10
4.2814002404
 20
-0.0473257212
 10
4.2788461538
 20
-0.0192307692
 10
4.2788461538
 20
-0.0192307692
 10
4.4134615385
 20
-0.0192307692
 10
4.4134615385
 20
-0.0192307692
 10
4.4161658654
 20
-0.0333533654
 10
4.4194711538
 20
-0.0465745192
 10
4.4236778846
 20
-0.0588942308
 10
4.4284855769
 20
-0.0701622596
 10
4.4338942308
 20
-0.0806790865
 10
4.4402043269
 20
-0.0901442308
 10
4.4471153846
 20
-0.0985576923
 10
4.4547776442
 20
-0.1062199519
 10
4.4719050481
 20
-0.1186899038
 10
4.4909855769
 20
-0.1275540865
 10
4.5123197115
 20
-0.1328125
 10
4.5357572115
 20
-0.1346153846
 10
4.5357572115
 20
-0.1346153846
 10
4.5482271635
 20
-0.1341646635
 10
4.5600961538
 20
-0.1326622596
 10
4.5715144231
 20
-0.1301081731
 10
4.5823317308
 20
-0.1266526442
 10
4.5925480769
 20
-0.1222956731
 10
4.6023137019
 20
-0.1167367788
 10
4.6114783654
 20
-0.1102764423
 10
4.6201923077
 20
-0.1029146635
 10
4.6281550481
 20
-0.0948016827
 10
4.6349158654
 20
-0.0860877404
 10
4.6407752404
 20
-0.0770733173
 10
4.6454326923
 20
-0.0674579327
 10
4.6491887019
 20
-0.0575420673
 10
4.6517427885
 20
-0.0471754808
 10
4.6533954327
 20
-0.0363581731
 10
4.6538461538
 20
-0.0250901442
 10
4.6538461538
 20
-0.0250901442
 10
4.6530949519
 20
-0.0127704327
 10
4.6508413462
 20
-0.0007512019
 10
4.6472355769
 20
0.0105168269
 10
4.6421274038
 20
0.021484375
 10
4.6355168269
 20
0.0318509615
 10
4.6274038462
 20
0.0419170673
 10
4.6177884615
 20
0.0512319712
 10
4.6068209135
 20
0.0602463942
 10
4.5943509615
 20
0.068359375
 10
4.5806790865
 20
0.0755709135
 10
4.5656550481
 20
0.0815805288
 10
4.5494290865
 20
0.0866887019
 10
4.5318509615
 20
0.0905949519
 10
4.5129206731
 20
0.0934495192
 10
4.4926382212
 20
0.0954026442
 10
4.4711538462
 20
0.0961538462
 10
4.4711538462
 20
0.0961538462
 10
4.4711538462
 20
0.2211538462
 10
4.4711538462
 20
0.2211538462
 10
4.4978966346
 20
0.2237079327
 10
4.5210336538
 20
0.2271634615
 10
4.5404146635
 20
0.2316706731
 10
4.5561899038
 20
0.2370793269
 10
4.5694110577
 20
0.2436899038
 10
4.5811298077
 20
0.2513521635
 10
4.5911959135
 20
0.2600661058
 10
4.5997596154
 20
0.2698317308
 10
4.6066706731
 20
0.2804987981
 10
4.6114783654
 20
0.2913161058
 10
4.6144831731
 20
0.3025841346
 10
4.6153846154
 20
0.3140024038
 10
4.6153846154
 20
0.3140024038
 10
4.6140324519
 20
0.3285757212
 10
4.6101262019
 20
0.3419471154
 10
4.603515625
 20
0.3538161058
 10
4.5943509615
 20
0.3644831731
 10
4.5830829327
 20
0.3733473558
 10
4.5703125
 20
0.3796574519
 10
4.5557391827
 20
0.3834134615
 10
4.5396634615
 20
0.3846153846
 10
4.5396634615
 20
0.3846153846
 10
4.5250901442
 20
0.3834134615
 10
4.5111177885
 20
0.3799579327
 10
4.4978966346
 20
0.3740985577
 10
4.4852764423
 20
0.3658353365
 10
4.4740084135
 20
0.3557692308
 10
4.46484375
 20
0.3443509615
 10
4.4573317308
 20
0.3314302885
 10
4.4519230769
 20
0.3173076923
  0
LINE
  5
A6
330
1F
100
AcDbEntity
  8
0
  6
Continuous
 62
     7
370
    25
100
AcDbLine
 10
6.75
 20
-0.2
 30
0.0
 11
6.75
 21
-0.6
 31
0.0
  0
LINE
  5
A7
330
1F
100
AcDbEntity
  8
0
  6
Continuous
 62
     7
370
    25
100
AcDbLine
 10
6.75
 20
-0.6
 30
0.0
 11
7.0
 21
-0.6
 31
0.0
  0
LINE
  5
A8
330
1F
100
AcDbEntity
  8
0
  6
Continuous
 62
     7
370
    25
100
AcDbLine
 10
6.5
 20
-1.25
 30
0.0
 11
6.5
 21
-1.0
 31
0.0
  0
LINE
  5
A9
330
1F
100
AcDbEntity
  8
0
  6
Continuous
 62
     7
370
    25
100
AcDbLine
 10
5.5
 20
-1.25
 30
0.0
 11
6.5
 21
-1.25
 31
0.0
  0
LINE
  5
AA
330
1F
100
AcDbEntity
  8
0
  6
Continuous
 62
     7
370
    25
100
AcDbLine
 10
5.5
 20
-1.0
 30
0.0
 11
5.5
 21
-1.25
 31
0.0
  0
LINE
  5
AB
330
1F
100
AcDbEntity
  8
0
  6
Continuous
 62
     7
370
    25
100
AcDbLine
 10
4.5
 20
-1.25
 30
0.0
 11
4.5
 21
-1.0
 31
0.0
  0
LINE
  5
AC
330
1F
100
AcDbEntity
  8
0
  6
Continuous
 62
     7
370
    25
100
AcDbLine
 10
3.5
 20
-1.25
 30
0.0
 11
4.5
 21
-1.25
 31
0.0
  0
LINE
  5
AD
330
1F
100
AcDbEntity
  8
0
  6
Continuous
 62
     7
370
    25
100
AcDbLine
 10
3.5
 20
-1.0
 30
0.0
 11
3.5
 21
-1.25
 31
0.0
  0
LINE
  5
AE
330
1F
100
AcDbEntity
  8
0
  6
Continuous
 62
     7
370
    25
100
AcDbLine
 10
2.5
 20
-1.25
 30
0.0
 11
2.5
 21
-1.0
 31
0.0
  0
LINE
  5
AF
330
1F
100
AcDbEntity
  8
0
  6
Continuous
 62
     7
370
    25
100
AcDbLine
 10
1.5
 20
-1.25
 30
0.0
 11
2.5
 21
-1.25
 31
0.0
  0
LINE
  5
B0
330
1F
100
AcDbEntity
  8
0
  6
Continuous
 62
     7
370
    25
100
AcDbLine
 10
1.5
 20
-1.0
 30
0.0
 11
1.5
 21
-1.25
 31
0.0
  0
LINE
  5
B1
330
1F
100
AcDbEntity
  8
0
  6
Continuous
 62
     7
370
    25
100
AcDbLine
 10
0.5
 20
-1.25
 30
0.0
 11
0.5
 21
-1.0
 31
0.0
  0
LINE
  5
B2
330
1F
100
AcDbEntity
  8
0
  6
Continuous
 62
     7
370
    25
100
AcDbLine
 10
-0.5
 20
-1.25
 30
0.0
 11
0.5
 21
-1.25
 31
0.0
  0
LINE
  5
B3
330
1F
100
AcDbEntity
  8
0
  6
Continuous
 62
     7
370
    25
100
AcDbLine
 10
-0.5
 20
-1.0
 30
0.0
 11
-0.5
 21
-1.25
 31
0.0
  0
LINE
  5
B4
330
1F
100
AcDbEntity
  8
0
  6
Continuous
 62
     7
370
    25
100
AcDbLine
 10
-1.5
 20
-1.25
 30
0.0
 11
-1.5
 21
-1.0
 31
0.0
  0
LINE
  5
B5
330
1F
100
AcDbEntity
  8
0
  6
Continuous
 62
     7
370
    25
100
AcDbLine
 10
-2.5
 20
-1.25
 30
0.0
 11
-1.5
 21
-1.25
 31
0.0
  0
LINE
  5
B6
330
1F
100
AcDbEntity
  8
0
  6
Continuous
 62
     7
370
    25
100
AcDbLine
 10
-2.5
 20
-1.0
 30
0.0
 11
-2.5
 21
-1.25
 31
0.0
  0
LINE
  5
B7
330
1F
100
AcDbEntity
  8
0
  6
Continuous
 62
     7
370
    25
100
AcDbLine
 10
-3.5
 20
-1.25
 30
0.0
 11
-3.5
 21
-1.0
 31
0.0
  0
LINE
  5
B8
330
1F
100
AcDbEntity
  8
0
  6
Continuous
 62
     7
370
    25
100
AcDbLine
 10
-4.5
 20
-1.25
 30
0.0
 11
-3.5
 21
-1.25
 31
0.0
  0
LINE
  5
B9
330
1F
100
AcDbEntity
  8
0
  6
Continuous
 62
     7
370
    25
100
AcDbLine
 10
-4.5
 20
-1.0
 30
0.0
 11
-4.5
 21
-1.25
 31
0.0
  0
LINE
  5
BA
330
1F
100
AcDbEntity
  8
0
  6
Continuous
 62
     7
370
    25
100
AcDbLine
 10
-5.5
 20
-1.25
 30
0.0
 11
-5.5
 21
-1.0
 31
0.0
  0
LINE
  5
BB
330
1F
100
AcDbEntity
  8
0
  6
Continuous
 62
     7
370
    25
100
AcDbLine
 10
-6.5
 20
-1.25
 30
0.0
 11
-5.5
 21
-1.25
 31
0.0
  0
LINE
  5
BC
330
1F
100
AcDbEntity
  8
0
  6
Continuous
 62
     7
370
    25
100
AcDbLine
 10
-6.5
 20
-1.0
 30
0.0
 11
-6.5
 21
-1.25
 31
0.0
  0
LINE
  5
BD
330
1F
100
AcDbEntity
  8
0
  6
Continuous
 62
     7
370
    25
100
AcDbLine
 10
-7.0
 20
-0.6
 30
0.0
 11
-6.75
 21
-0.6
 31
0.0
  0
LINE
  5
BE
330
1F
100
AcDbEntity
  8
0
  6
Continuous
 62
     7
370
    25
100
AcDbLine
 10
-6.75
 20
-0.6
 30
0.0
 11
-6.75
 21
-0.2
 31
0.0
  0
LINE
  5
BF
330
1F
100
AcDbEntity
  8
0
  6
Continuous
 62
     7
370
    25
100
AcDbLine
 10
-6.75
 20
-0.2
 30
0.0
 11
-7.0
 21
-0.2
 31
0.0
  0
LINE
  5
C0
330
1F
100
AcDbEntity
  8
0
  6
Continuous
 62
     7
370
    25
100
AcDbLine
 10
-7.0
 20
0.2
 30
0.0
 11
-6.75
 21
0.2
 31
0.0
  0
LINE
  5
C1
330
1F
100
AcDbEntity
  8
0
  6
Continuous
 62
     7
370
    25
100
AcDbLine
 10
-6.75
 20
0.2
 30
0.0
 11
-6.75
 21
0.6
 31
0.0
  0
LINE
  5
C2
330
1F
100
AcDbEntity
  8
0
  6
Continuous
 62
     7
370
    25
100
AcDbLine
 10
-6.75
 20
0.6
 30
0.0
 11
-7.0
 21
0.6
 31
0.0
  0
LINE
  5
C3
330
1F
100
AcDbEntity
  8
0
  6
Continuous
 62
     7
370
    25
100
AcDbLine
 10
7.0
 20
0.6
 30
0.0
 11
6.75
 21
0.6
 31
0.0
  0
LINE
  5
C4
330
1F
100
AcDbEntity
  8
0
  6
Continuous
 62
     7
370
    25
100
AcDbLine
 10
6.75
 20
0.6
 30
0.0
 11
6.75
 21
0.2
 31
0.0
  0
LINE
  5
C5
330
1F
100
AcDbEntity
  8
0
  6
Continuous
 62
     7
370
    25
100
AcDbLine
 10
6.75
 20
0.2
 30
0.0
 11
7.0
 21
0.2
 31
0.0
  0
LINE
  5
C6
330
1F
100
AcDbEntity
  8
0
  6
Continuous
 62
     7
370
    25
100
AcDbLine
 10
7.0
 20
-0.2
 30
0.0
 11
6.75
 21
-0.2
 31
0.0
  0
LINE
  5
C7
330
1F
100
AcDbEntity
  8
0
  6
Continuous
 62
     7
370
    25
100
AcDbLine
 10
-7.0
 20
-1.0
 30
0.0
 11
-6.5
 21
-1.0
 31
0.0
  0
LINE
  5
C8
330
1F
100
AcDbEntity
  8
0
  6
Continuous
 62
     7
370
    25
100
AcDbLine
 10
-7.0
 20
-0.6
 30
0.0
 11
-7.0
 21
-1.0
 31
0.0
  0
LINE
  5
C9
330
1F
100
AcDbEntity
  8
0
  6
Continuous
 62
     7
370
    25
100
AcDbLine
 10
7.0
 20
1.0
 30
0.0
 11
-7.0
 21
1.0
 31
0.0
  0
LINE
  5
CA
330
1F
100
AcDbEntity
  8
0
  6
Continuous
 62
     7
370
    25
100
AcDbLine
 10
7.0
 20
-1.0
 30
0.0
 11
7.0
 21
-0.6
 31
0.0
  0
LINE
  5
CB
330
1F
100
AcDbEntity
  8
0
  6
Continuous
 62
     7
370
    25
100
AcDbLine
 10
-7.0
 20
0.2
 30
0.0
 11
-7.0
 21
-0.2
 31
0.0
  0
LINE
  5
CC
330
1F
100
AcDbEntity
  8
0
  6
Continuous
 62
     7
370
    25
100
AcDbLine
 10
7.0
 20
0.6
 30
0.0
 11
7.0
 21
1.0
 31
0.0
  0
LINE
  5
CD
330
1F
100
AcDbEntity
  8
0
  6
Continuous
 62
     7
370
    25
100
AcDbLine
 10
7.0
 20
-0.2
 30
0.0
 11
7.0
 21
0.2
 31
0.0
  0
LINE
  5
CE
330
1F
100
AcDbEntity
  8
0
  6
Continuous
 62
     7
370
    25
100
AcDbLine
 10
-7.0
 20
1.0
 30
0.0
 11
-7.0
 21
0.6
 31
0.0
  0
LINE
  5
CF
330
1F
100
AcDbEntity
  8
0
  6
Continuous
 62
     7
370
    25
100
AcDbLine
 10
6.5
 20
-1.0
 30
0.0
 11
7.0
 21
-1.0
 31
0.0
  0
LINE
  5
D0
330
1F
100
AcDbEntity
  8
0
  6
Continuous
 62
     7
370
    25
100
AcDbLine
 10
-5.5
 20
-1.0
 30
0.0
 11
-4.5
 21
-1.0
 31
0.0
  0
LINE
  5
D1
330
1F
100
AcDbEntity
  8
0
  6
Continuous
 62
     7
370
    25
100
AcDbLine
 10
-3.5
 20
-1.0
 30
0.0
 11
-2.5
 21
-1.0
 31
0.0
  0
LINE
  5
D2
330
1F
100
AcDbEntity
  8
0
  6
Continuous
 62
     7
370
    25
100
AcDbLine
 10
-1.5
 20
-1.0
 30
0.0
 11
-0.5
 21
-1.0
 31
0.0
  0
LINE
  5
D3
330
1F
100
AcDbEntity
  8
0
  6
Continuous
 62
     7
370
    25
100
AcDbLine
 10
0.5
 20
-1.0
 30
0.0
 11
1.5
 21
-1.0
 31
0.0
  0
LINE
  5
D4
330
1F
100
AcDbEntity
  8
0
  6
Continuous
 62
     7
370
    25
100
AcDbLine
 10
2.5
 20
-1.0
 30
0.0
 11
3.5
 21
-1.0
 31
0.0
  0
LINE
  5
D5
330
1F
100
AcDbEntity
  8
0
  6
Continuous
 62
     7
370
    25
100
AcDbLine
 10
4.5
 20
-1.0
 30
0.0
 11
5.5
 21
-1.0
 31
0.0
  0
MTEXT
  5
D7
330
1F
100
AcDbEntity
  8
0
  6
Continuous
 62
     7
100
AcDbMText
 10
-7.0
 20
-1.2901404091
 30
0.0
 40
0.1903
 41
0.0
 71
     1
 72
     1
  1
Produit d'éducation SOLIDWORKS – A titre éducatif uniquement.
  7
SLDTEXTSTYLE0
 73
     1
 44
1.0
  0
ENDSEC
  0
SECTION
  2
OBJECTS
  0
DICTIONARY
  5
C
330
0
100
AcDbDictionary
281
     1
  3
ACAD_GROUP
350
D
  3
ACAD_LAYOUT
350
1A
  3
ACAD_MLINESTYLE
350
17
  3
ACAD_PLOTSETTINGS
350
19
  3
ACAD_PLOTSTYLENAME
350
E
  3
ACAD_SCALELIST
350
47
  3
DWGPROPS
350
D8
  0
DICTIONARY
  5
D
102
{ACAD_REACTORS
330
C
102
}
330
C
100
AcDbDictionary
281
     1
  0
DICTIONARY
  5
1A
102
{ACAD_REACTORS
330
C
102
}
330
C
100
AcDbDictionary
281
     1
  3
Layout1
350
1E
  3
Layout2
350
26
  3
Model
350
22
  0
DICTIONARY
  5
17
102
{ACAD_REACTORS
330
C
102
}
330
C
100
AcDbDictionary
281
     1
  3
Standard
350
18
  0
DICTIONARY
  5
19
102
{ACAD_REACTORS
330
C
102
}
330
C
100
AcDbDictionary
281
     1
  0
ACDBDICTIONARYWDFLT
  5
E
102
{ACAD_REACTORS
330
C
102
}
330
C
100
AcDbDictionary
281
     1
  3
Normal
350
F
100
AcDbDictionaryWithDefault
340
F
  0
DICTIONARY
  5
47
102
{ACAD_REACTORS
330
C
102
}
330
C
100
AcDbDictionary
281
     1
  3
A0
350
48
  3
A1
350
49
  3
A2
350
4A
  3
A3
350
4B
  3
A4
350
4C
  3
A5
350
4D
  3
A6
350
4E
  3
A7
350
4F
  3
A8
350
50
  3
A9
350
51
  3
B0
350
52
  3
B1
350
53
  3
B2
350
54
  3
B3
350
55
  3
B4
350
56
  3
B5
350
57
  3
B6
350
58
  3
B7
350
59
  3
B8
350
5A
  3
B9
350
5B
  3
C0
350
5C
  3
C1
350
5D
  3
C2
350
5E
  3
C3
350
5F
  3
C4
350
60
  3
C5
350
61
  3
C6
350
62
  3
C7
350
63
  3
C8
350
64
  3
C9
350
65
  3
D0
350
66
  3
D1
350
67
  3
D2
350
68
  0
XRECORD
  5
D8
102
{ACAD_REACTORS
330
C
102
}
330
C
100
AcDbXrecord
280
     1
  1
DWGPROPS COOKIE
  2

  3

  4

  6

  7

  8
Utilisateur
  9

300
=
301
=
302
=
303
=
304
=
305
=
306
=
307
=
308
=
309
=
 40
0.0
 41
2459655.89493765
 42
2459655.895014965
  1

 90
        0
  0
LAYOUT
  5
1E
102
{ACAD_REACTORS
330
1A
102
}
330
1A
100
AcDbPlotSettings
  1

  2
none_device
  4

  6

 40
0.0
 41
0.0
 42
0.0
 43
0.0
 44
0.0
 45
0.0
 46
0.0
 47
0.0
 48
0.0
 49
0.0
140
0.0
141
0.0
142
1.0
143
1.0
 70
   688
 72
     0
 73
     0
 74
     5
  7

 75
    16
147
1.0
148
0.0
149
0.0
100
AcDbLayout
  1
Layout1
 70
     1
 71
     1
 10
0.0
 20
0.0
 11
12.0
 21
9.0
 12
0.0
 22
0.0
 32
0.0
 14
1.0000000000E+20
 24
1.0000000000E+20
 34
1.0000000000E+20
 15
-1.0000000000E+20
 25
-1.0000000000E+20
 35
-1.0000000000E+20
146
0.0
 13
0.0
 23
0.0
 33
0.0
 16
1.0
 26
0.0
 36
0.0
 17
0.0
 27
1.0
 37
0.0
 76
     0
330
1B
  0
LAYOUT
  5
26
102
{ACAD_REACTORS
330
1A
102
}
330
1A
100
AcDbPlotSettings
  1

  2
none_device
  4

  6

 40
0.0
 41
0.0
 42
0.0
 43
0.0
 44
0.0
 45
0.0
 46
0.0
 47
0.0
 48
0.0
 49
0.0
140
0.0
141
0.0
142
1.0
143
1.0
 70
   688
 72
     0
 73
     0
 74
     5
  7

 75
    16
147
1.0
148
0.0
149
0.0
100
AcDbLayout
  1
Layout2
 70
     1
 71
     2
 10
0.0
 20
0.0
 11
0.0
 21
0.0
 12
0.0
 22
0.0
 32
0.0
 14
0.0
 24
0.0
 34
0.0
 15
0.0
 25
0.0
 35
0.0
146
0.0
 13
0.0
 23
0.0
 33
0.0
 16
1.0
 26
0.0
 36
0.0
 17
0.0
 27
1.0
 37
0.0
 76
     0
330
23
  0
LAYOUT
  5
22
102
{ACAD_REACTORS
330
1A
102
}
330
1A
100
AcDbPlotSettings
  1

  2
none_device
  4
ANSI_A_(11.00_x_8.50_Inches)
  6

 40
6.35
 41
19.05
 42
6.35000508
 43
19.05000254
 44
279.4
 45
215.9
 46
133.34999746
 47
91.3696951586
 48
0.0
 49
0.0
140
0.0
141
0.0
142
0.7778571429
143
1.0
 70
  1696
 72
     0
 73
     0
 74
     0
  7

 75
     0
147
0.5913241897
148
-39.4088153714
149
0.0
100
AcDbLayout
  1
Model
 70
     1
 71
     0
 10
0.0
 20
0.0
 11
12.0
 21
9.0
 12
0.0
 22
0.0
 32
0.0
 14
-7.0
 24
-1.25
 34
0.0
 15
7.0
 25
1.0
 35
0.0
146
0.0
 13
0.0
 23
0.0
 33
0.0
 16
1.0
 26
0.0
 36
0.0
 17
0.0
 27
1.0
 37
0.0
 76
     0
330
1F
331
29
  0
MLINESTYLE
  5
18
102
{ACAD_REACTORS
330
17
102
}
330
17
100
AcDbMlineStyle
  2
Standard
 70
     0
  3

 62
   256
 51
90.0
 52
90.0
 71
     2
 49
0.5
 62
   256
  6
BYLAYER
 49
-0.5
 62
   256
  6
BYLAYER
  0
ACDBPLACEHOLDER
  5
F
102
{ACAD_REACTORS
330
E
102
}
330
E
  0
SCALE
  5
48
102
{ACAD_REACTORS
330
47
102
}
330
47
100
AcDbScale
 70
     0
300
1:1
140
1.0
141
1.0
290
     1
  0
SCALE
  5
49
102
{ACAD_REACTORS
330
47
102
}
330
47
100
AcDbScale
 70
     0
300
1:2
140
1.0
141
2.0
290
     0
  0
SCALE
  5
4A
102
{ACAD_REACTORS
330
47
102
}
330
47
100
AcDbScale
 70
     0
300
1:4
140
1.0
141
4.0
290
     0
  0
SCALE
  5
4B
102
{ACAD_REACTORS
330
47
102
}
330
47
100
AcDbScale
 70
     0
300
1:5
140
1.0
141
5.0
290
     0
  0
SCALE
  5
4C
102
{ACAD_REACTORS
330
47
102
}
330
47
100
AcDbScale
 70
     0
300
1:8
140
1.0
141
8.0
290
     0
  0
SCALE
  5
4D
102
{ACAD_REACTORS
330
47
102
}
330
47
100
AcDbScale
 70
     0
300
1:10
140
1.0
141
10.0
290
     0
  0
SCALE
  5
4E
102
{ACAD_REACTORS
330
47
102
}
330
47
100
AcDbScale
 70
     0
300
1:16
140
1.0
141
16.0
290
     0
  0
SCALE
  5
4F
102
{ACAD_REACTORS
330
47
102
}
330
47
100
AcDbScale
 70
     0
300
1:20
140
1.0
141
20.0
290
     0
  0
SCALE
  5
50
102
{ACAD_REACTORS
330
47
102
}
330
47
100
AcDbScale
 70
     0
300
1:30
140
1.0
141
30.0
290
     0
  0
SCALE
  5
51
102
{ACAD_REACTORS
330
47
102
}
330
47
100
AcDbScale
 70
     0
300
1:40
140
1.0
141
40.0
290
     0
  0
SCALE
  5
52
102
{ACAD_REACTORS
330
47
102
}
330
47
100
AcDbScale
 70
     0
300
1:50
140
1.0
141
50.0
290
     0
  0
SCALE
  5
53
102
{ACAD_REACTORS
330
47
102
}
330
47
100
AcDbScale
 70
     0
300
1:100
140
1.0
141
100.0
290
     0
  0
SCALE
  5
54
102
{ACAD_REACTORS
330
47
102
}
330
47
100
AcDbScale
 70
     0
300
2:1
140
2.0
141
1.0
290
     0
  0
SCALE
  5
55
102
{ACAD_REACTORS
330
47
102
}
330
47
100
AcDbScale
 70
     0
300
4:1
140
4.0
141
1.0
290
     0
  0
SCALE
  5
56
102
{ACAD_REACTORS
330
47
102
}
330
47
100
AcDbScale
 70
     0
300
8:1
140
8.0
141
1.0
290
     0
  0
SCALE
  5
57
102
{ACAD_REACTORS
330
47
102
}
330
47
100
AcDbScale
 70
     0
300
10:1
140
10.0
141
1.0
290
     0
  0
SCALE
  5
58
102
{ACAD_REACTORS
330
47
102
}
330
47
100
AcDbScale
 70
     0
300
100:1
140
100.0
141
1.0
290
     0
  0
SCALE
  5
59
102
{ACAD_REACTORS
330
47
102
}
330
47
100
AcDbScale
 70
     0
300
1/128" = 1'-0"
140
0.0078125
141
12.0
290
     0
  0
SCALE
  5
5A
102
{ACAD_REACTORS
330
47
102
}
330
47
100
AcDbScale
 70
     0
300
1/64" = 1'-0"
140
0.015625
141
12.0
290
     0
  0
SCALE
  5
5B
102
{ACAD_REACTORS
330
47
102
}
330
47
100
AcDbScale
 70
     0
300
1/32" = 1'-0"
140
0.03125
141
12.0
290
     0
  0
SCALE
  5
5C
102
{ACAD_REACTORS
330
47
102
}
330
47
100
AcDbScale
 70
     0
300
1/16" = 1'-0"
140
0.0625
141
12.0
290
     0
  0
SCALE
  5
5D
102
{ACAD_REACTORS
330
47
102
}
330
47
100
AcDbScale
 70
     0
300
3/32" = 1'-0"
140
0.09375
141
12.0
290
     0
  0
SCALE
  5
5E
102
{ACAD_REACTORS
330
47
102
}
330
47
100
AcDbScale
 70
     0
300
1/8" = 1'-0"
140
0.125
141
12.0
290
     0
  0
SCALE
  5
5F
102
{ACAD_REACTORS
330
47
102
}
330
47
100
AcDbScale
 70
     0
300
3/16" = 1'-0"
140
0.1875
141
12.0
290
     0
  0
SCALE
  5
60
102
{ACAD_REACTORS
330
47
102
}
330
47
100
AcDbScale
 70
     0
300
1/4" = 1'-0"
140
0.25
141
12.0
290
     0
  0
SCALE
  5
61
102
{ACAD_REACTORS
330
47
102
}
330
47
100
AcDbScale
 70
     0
300
3/8" = 1'-0"
140
0.375
141
12.0
290
     0
  0
SCALE
  5
62
102
{ACAD_REACTORS
330
47
102
}
330
47
100
AcDbScale
 70
     0
300
1/2" = 1'-0"
140
0.5
141
12.0
290
     0
  0
SCALE
  5
63
102
{ACAD_REACTORS
330
47
102
}
330
47
100
AcDbScale
 70
     0
300
3/4" = 1'-0"
140
0.75
141
12.0
290
     0
  0
SCALE
  5
64
102
{ACAD_REACTORS
330
47
102
}
330
47
100
AcDbScale
 70
     0
300
1" = 1'-0"
140
1.0
141
12.0
290
     0
  0
SCALE
  5
65
102
{ACAD_REACTORS
330
47
102
}
330
47
100
AcDbScale
 70
     0
300
1-1/2" = 1'-0"
140
1.5
141
12.0
290
     0
  0
SCALE
  5
66
102
{ACAD_REACTORS
330
47
102
}
330
47
100
AcDbScale
 70
     0
300
3" = 1'-0"
140
3.0
141
12.0
290
     0
  0
SCALE
  5
67
102
{ACAD_REACTORS
330
47
102
}
330
47
100
AcDbScale
 70
     0
300
6" = 1'-0"
140
6.0
141
12.0
290
     0
  0
SCALE
  5
68
102
{ACAD_REACTORS
330
47
102
}
330
47
100
AcDbScale
 70
     0
300
1'-0" = 1'-0"
140
12.0
141
12.0
290
     0
  0
ENDSEC
  0
EOF
