  0
SECTION
  2
HEADER
  9
$ACADVER
  1
AC1015
  9
$ACADMAINTVER
 70
     6
  9
$DWGCODEPAGE
  3
ANSI_1252
  9
$INSBASE
 10
0.0
 20
0.0
 30
0.0
  9
$EXTMIN
 10
-7.0
 20
-2.125
 30
0.0
  9
$EXTMAX
 10
7.0
 20
2.125
 30
0.0
  9
$LIMMIN
 10
0.0
 20
0.0
  9
$LIMMAX
 10
12.0
 20
9.0
  9
$ORTHOMODE
 70
     0
  9
$REGENMODE
 70
     1
  9
$FILLMODE
 70
     1
  9
$QTEXTMODE
 70
     0
  9
$MIRRTEXT
 70
     1
  9
$LTSCALE
 40
1.0
  9
$ATTMODE
 70
     1
  9
$TEXTSIZE
 40
0.25
  9
$TRACEWID
 40
0.05
  9
$TEXTSTYLE
  7
Standard
  9
$CLAYER
  8
0
  9
$CELTYPE
  6
ByLayer
  9
$CECOLOR
 62
   256
  9
$CELTSCALE
 40
1.0
  9
$DISPSILH
 70
     0
  9
$DIMSCALE
 40
1.0
  9
$DIMASZ
 40
0.236
  9
$DIMEXO
 40
0.0
  9
$DIMDLI
 40
0.38
  9
$DIMRND
 40
0.0
  9
$DIMDLE
 40
0.0
  9
$DIMEXE
 40
0.039
  9
$DIMTP
 40
0.0
  9
$DIMTM
 40
0.0
  9
$DIMTXT
 40
0.25
  9
$DIMCEN
 40
0.09
  9
$DIMTSZ
 40
0.0
  9
$DIMTOL
 70
     0
  9
$DIMLIM
 70
     0
  9
$DIMTIH
 70
     1
  9
$DIMTOH
 70
     1
  9
$DIMSE1
 70
     0
  9
$DIMSE2
 70
     0
  9
$DIMTAD
 70
     1
  9
$DIMZIN
 70
     0
  9
$DIMBLK
  1

  9
$DIMASO
 70
     1
  9
$DIMSHO
 70
     1
  9
$DIMPOST
  1

  9
$DIMAPOST
  1

  9
$DIMALT
 70
     0
  9
$DIMALTD
 70
     2
  9
$DIMALTF
 40
25.4
  9
$DIMLFAC
 40
1.0
  9
$DIMTOFL
 70
     0
  9
$DIMTVP
 40
0.0
  9
$DIMTIX
 70
     0
  9
$DIMSOXD
 70
     0
  9
$DIMSAH
 70
     0
  9
$DIMBLK1
  1

  9
$DIMBLK2
  1

  9
$DIMSTYLE
  2
Standard
  9
$DIMCLRD
 70
     0
  9
$DIMCLRE
 70
     0
  9
$DIMCLRT
 70
     0
  9
$DIMTFAC
 40
1.0
  9
$DIMGAP
 40
0.06
  9
$DIMJUST
 70
     0
  9
$DIMSD1
 70
     0
  9
$DIMSD2
 70
     0
  9
$DIMTOLJ
 70
     1
  9
$DIMTZIN
 70
     0
  9
$DIMALTZ
 70
     0
  9
$DIMALTTZ
 70
     0
  9
$DIMUPT
 70
     0
  9
$DIMDEC
 70
     2
  9
$DIMTDEC
 70
     2
  9
$DIMALTU
 70
     2
  9
$DIMALTTD
 70
     2
  9
$DIMTXSTY
  7
Standard
  9
$DIMAUNIT
 70
     0
  9
$DIMADEC
 70
     2
  9
$DIMALTRND
 40
0.0
  9
$DIMAZIN
 70
     0
  9
$DIMDSEP
 70
    46
  9
$DIMATFIT
 70
     3
  9
$DIMFRAC
 70
     0
  9
$DIMLDRBLK
  1

  9
$DIMLUNIT
 70
     2
  9
$DIMLWD
 70
    -2
  9
$DIMLWE
 70
    -2
  9
$DIMTMOVE
 70
     0
  9
$LUNITS
 70
     2
  9
$LUPREC
 70
     2
  9
$SKETCHINC
 40
0.1
  9
$FILLETRAD
 40
0.5
  9
$AUNITS
 70
     0
  9
$AUPREC
 70
     2
  9
$MENU
  1
.
  9
$ELEVATION
 40
0.0
  9
$PELEVATION
 40
0.0
  9
$THICKNESS
 40
0.0
  9
$LIMCHECK
 70
     0
  9
$CHAMFERA
 40
0.0
  9
$CHAMFERB
 40
0.0
  9
$CHAMFERC
 40
0.0
  9
$CHAMFERD
 40
0.0
  9
$SKPOLY
 70
     0
  9
$TDCREATE
 40
2459655.728821401
  9
$TDUCREATE
 40
2459655.895488067
  9
$TDUPDATE
 40
2459655.728850544
  9
$TDUUPDATE
 40
2459655.89551721
  9
$TDINDWG
 40
0.0000000116
  9
$TDUSRTIMER
 40
0.0000000116
  9
$USRTIMER
 70
     1
  9
$ANGBASE
 50
0.0
  9
$ANGDIR
 70
     0
  9
$PDMODE
 70
     0
  9
$PDSIZE
 40
-1.0
  9
$PLINEWID
 40
0.0
  9
$SPLFRAME
 70
     0
  9
$SPLINETYPE
 70
     6
  9
$SPLINESEGS
 70
     8
  9
$HANDSEED
  5
13E
  9
$SURFTAB1
 70
     6
  9
$SURFTAB2
 70
     6
  9
$SURFTYPE
 70
     6
  9
$SURFU
 70
     6
  9
$SURFV
 70
     6
  9
$UCSBASE
  2

  9
$UCSNAME
  2

  9
$UCSORG
 10
0.0
 20
0.0
 30
0.0
  9
$UCSXDIR
 10
1.0
 20
0.0
 30
0.0
  9
$UCSYDIR
 10
0.0
 20
1.0
 30
0.0
  9
$UCSORTHOREF
  2

  9
$UCSORTHOVIEW
 70
     0
  9
$UCSORGTOP
 10
0.0
 20
0.0
 30
0.0
  9
$UCSORGBOTTOM
 10
0.0
 20
0.0
 30
0.0
  9
$UCSORGLEFT
 10
0.0
 20
0.0
 30
0.0
  9
$UCSORGRIGHT
 10
0.0
 20
0.0
 30
0.0
  9
$UCSORGFRONT
 10
0.0
 20
0.0
 30
0.0
  9
$UCSORGBACK
 10
0.0
 20
0.0
 30
0.0
  9
$PUCSBASE
  2

  9
$PUCSNAME
  2

  9
$PUCSORG
 10
0.0
 20
0.0
 30
0.0
  9
$PUCSXDIR
 10
1.0
 20
0.0
 30
0.0
  9
$PUCSYDIR
 10
0.0
 20
1.0
 30
0.0
  9
$PUCSORTHOREF
  2

  9
$PUCSORTHOVIEW
 70
     0
  9
$PUCSORGTOP
 10
0.0
 20
0.0
 30
0.0
  9
$PUCSORGBOTTOM
 10
0.0
 20
0.0
 30
0.0
  9
$PUCSORGLEFT
 10
0.0
 20
0.0
 30
0.0
  9
$PUCSORGRIGHT
 10
0.0
 20
0.0
 30
0.0
  9
$PUCSORGFRONT
 10
0.0
 20
0.0
 30
0.0
  9
$PUCSORGBACK
 10
0.0
 20
0.0
 30
0.0
  9
$USERI1
 70
     0
  9
$USERI2
 70
     0
  9
$USERI3
 70
     0
  9
$USERI4
 70
     0
  9
$USERI5
 70
     0
  9
$USERR1
 40
0.0
  9
$USERR2
 40
0.0
  9
$USERR3
 40
0.0
  9
$USERR4
 40
0.0
  9
$USERR5
 40
0.0
  9
$WORLDVIEW
 70
     1
  9
$SHADEDGE
 70
     3
  9
$SHADEDIF
 70
    70
  9
$TILEMODE
 70
     1
  9
$MAXACTVP
 70
    64
  9
$PINSBASE
 10
0.0
 20
0.0
 30
0.0
  9
$PLIMCHECK
 70
     0
  9
$PEXTMIN
 10
1.0000000000E+20
 20
1.0000000000E+20
 30
1.0000000000E+20
  9
$PEXTMAX
 10
-1.0000000000E+20
 20
-1.0000000000E+20
 30
-1.0000000000E+20
  9
$PLIMMIN
 10
0.0
 20
0.0
  9
$PLIMMAX
 10
12.0
 20
9.0
  9
$UNITMODE
 70
     0
  9
$VISRETAIN
 70
     1
  9
$PLINEGEN
 70
     0
  9
$PSLTSCALE
 70
     1
  9
$TREEDEPTH
 70
  3020
  9
$CMLSTYLE
  2
Standard
  9
$CMLJUST
 70
     0
  9
$CMLSCALE
 40
1.0
  9
$PROXYGRAPHICS
 70
     1
  9
$MEASUREMENT
 70
     0
  9
$CELWEIGHT
370
    -1
  9
$ENDCAPS
280
     0
  9
$JOINSTYLE
280
     0
  9
$LWDISPLAY
290
     1
  9
$INSUNITS
 70
     1
  9
$HYPERLINKBASE
  1

  9
$STYLESHEET
  1

  9
$XEDIT
290
     1
  9
$CEPSNTYPE
380
     0
  9
$PSTYLEMODE
290
     1
  9
$FINGERPRINTGUID
  2
{9783f233-069e-4f1d-9244-86b7d580654b}
  9
$VERSIONGUID
  2
{FAEB1C32-E019-11D5-929B-00C0DF256EC4}
  9
$EXTNAMES
290
     1
  9
$PSVPSCALE
 40
0.0
  9
$OLESTARTUP
290
     0
  0
ENDSEC
  0
SECTION
  2
CLASSES
  0
CLASS
  1
ACDBDICTIONARYWDFLT
  2
AcDbDictionaryWithDefault
  3
ObjectDBX Classes
 90
        0
280
     0
281
     0
  0
CLASS
  1
VISUALSTYLE
  2
AcDbVisualStyle
  3
ObjectDBX Classes
 90
     4095
280
     0
281
     0
  0
CLASS
  1
MATERIAL
  2
AcDbMaterial
  3
ObjectDBX Classes
 90
     1153
280
     0
281
     0
  0
CLASS
  1
SCALE
  2
AcDbScale
  3
ObjectDBX Classes
 90
     1153
280
     0
281
     0
  0
CLASS
  1
TABLESTYLE
  2
AcDbTableStyle
  3
ObjectDBX Classes
 90
     4095
280
     0
281
     0
  0
CLASS
  1
MLEADERSTYLE
  2
AcDbMLeaderStyle
  3
ACDB_MLEADERSTYLE_CLASS
 90
     4095
280
     0
281
     0
  0
CLASS
  1
SUN
  2
AcDbSun
  3
SCENEOE
 90
     1153
280
     0
281
     0
  0
CLASS
  1
ACDBPLACEHOLDER
  2
AcDbPlaceHolder
  3
ObjectDBX Classes
 90
        0
280
     0
281
     0
  0
CLASS
  1
LAYOUT
  2
AcDbLayout
  3
ObjectDBX Classes
 90
        0
280
     0
281
     0
  0
ENDSEC
  0
SECTION
  2
TABLES
  0
TABLE
  2
VPORT
  5
8
330
0
100
AcDbSymbolTable
 70
     1
  0
VPORT
  5
29
330
8
100
AcDbSymbolTableRecord
100
AcDbViewportTableRecord
  2
*Active
 70
     0
 10
0.0
 20
0.0
 11
1.0
 21
1.0
 12
0.0
 22
0.0
 13
0.0
 23
0.0
 14
0.5
 24
0.5
 15
0.5
 25
0.5
 16
0.0
 26
0.0
 36
1.0
 17
0.0
 27
0.0
 37
0.0
 40
4.335
 41
3.2941176471
 42
50.0
 43
0.0
 44
0.0
 50
0.0
 51
0.0
 71
     0
 72
   100
 73
     1
 74
     3
 75
     0
 76
     0
 77
     0
 78
     0
281
     0
 65
     1
110
0.0
120
0.0
130
0.0
111
1.0
121
0.0
131
0.0
112
0.0
122
1.0
132
0.0
 79
     0
146
0.0
  0
ENDTAB
  0
TABLE
  2
LTYPE
  5
5
330
0
100
AcDbSymbolTable
 70
     6
  0
LTYPE
  5
14
330
5
100
AcDbSymbolTableRecord
100
AcDbLinetypeTableRecord
  2
ByBlock
 70
     0
  3

 72
    65
 73
     0
 40
0.0
  0
LTYPE
  5
15
330
5
100
AcDbSymbolTableRecord
100
AcDbLinetypeTableRecord
  2
ByLayer
 70
     0
  3

 72
    65
 73
     0
 40
0.0
  0
LTYPE
  5
16
330
5
100
AcDbSymbolTableRecord
100
AcDbLinetypeTableRecord
  2
Continuous
 70
     0
  3
Solid line
 72
    65
 73
     0
 40
0.0
  0
LTYPE
  5
6E
330
5
100
AcDbSymbolTableRecord
100
AcDbLinetypeTableRecord
  2
HIDDEN
 70
     0
  3
Hidden __ __ __ __ __ __ __ __ __ __ __ __ __ __
 72
    65
 73
     2
 40
0.075
 49
0.05
 74
     0
 49
-0.025
 74
     0
  0
LTYPE
  5
6F
330
5
100
AcDbSymbolTableRecord
100
AcDbLinetypeTableRecord
  2
PHANTOM
 70
     0
  3
Phantom ______  __  __  ______  __  __  ______
 72
    65
 73
     6
 40
0.5
 49
0.25
 74
     0
 49
-0.05
 74
     0
 49
0.05
 74
     0
 49
-0.05
 74
     0
 49
0.05
 74
     0
 49
-0.05
 74
     0
  0
LTYPE
  5
70
330
5
100
AcDbSymbolTableRecord
100
AcDbLinetypeTableRecord
  2
CENTER
 70
     0
  3
Center ____ _ ____ _ ____ _ ____ _ ____ _ ____
 72
    65
 73
     4
 40
0.4
 49
0.25
 74
     0
 49
-0.05
 74
     0
 49
0.05
 74
     0
 49
-0.05
 74
     0
  0
LTYPE
  5
71
330
5
100
AcDbSymbolTableRecord
100
AcDbLinetypeTableRecord
  2
CENTERX2
 70
     0
  3
Center (2x) ________  __  ________  __  _____
 72
    65
 73
     4
 40
0.8
 49
0.5
 74
     0
 49
-0.1
 74
     0
 49
0.1
 74
     0
 49
-0.1
 74
     0
  0
LTYPE
  5
72
330
5
100
AcDbSymbolTableRecord
100
AcDbLinetypeTableRecord
  2
DOT2
 70
     0
  3
Dot (.5x) ........................................
 72
    65
 73
     2
 40
0.025
 49
0.0
 74
     0
 49
-0.025
 74
     0
  0
ENDTAB
  0
TABLE
  2
LAYER
  5
2
330
0
100
AcDbSymbolTable
 70
     1
  0
LAYER
  5
10
330
2
100
AcDbSymbolTableRecord
100
AcDbLayerTableRecord
  2
0
 70
     0
 62
     7
  6
Continuous
370
    -3
390
F
  0
ENDTAB
  0
TABLE
  2
STYLE
  5
3
330
0
100
AcDbSymbolTable
 70
     2
  0
STYLE
  5
11
330
3
100
AcDbSymbolTableRecord
100
AcDbTextStyleTableRecord
  2
Standard
 70
     0
 40
0.0
 41
1.0
 50
0.0
 71
     0
 42
0.25
  3
txt
  4

  0
STYLE
  5
13B
330
3
100
AcDbSymbolTableRecord
100
AcDbTextStyleTableRecord
  2
SLDTEXTSTYLE0
 70
     0
 40
0.0
 41
0.7
 50
0.0
 71
     0
 42
0.25
  3
TXT
  4
bigfont
  0
ENDTAB
  0
TABLE
  2
VIEW
  5
6
330
0
100
AcDbSymbolTable
 70
     0
  0
ENDTAB
  0
TABLE
  2
UCS
  5
7
330
0
100
AcDbSymbolTable
 70
     0
  0
ENDTAB
  0
TABLE
  2
APPID
  5
9
330
0
100
AcDbSymbolTable
 70
     1
  0
APPID
  5
12
330
9
100
AcDbSymbolTableRecord
100
AcDbRegAppTableRecord
  2
ACAD
 70
     0
  0
ENDTAB
  0
TABLE
  2
DIMSTYLE
  5
A
330
0
100
AcDbSymbolTable
 70
     1
100
AcDbDimStyleTable
  0
DIMSTYLE
105
27
330
A
100
AcDbSymbolTableRecord
100
AcDbDimStyleTableRecord
  2
Standard
 70
     0
178
     0
340
11
  0
ENDTAB
  0
TABLE
  2
BLOCK_RECORD
  5
1
330
0
100
AcDbSymbolTable
 70
     1
  0
BLOCK_RECORD
  5
1F
330
1
100
AcDbSymbolTableRecord
100
AcDbBlockTableRecord
  2
*Model_Space
340
22
  0
BLOCK_RECORD
  5
1B
330
1
100
AcDbSymbolTableRecord
100
AcDbBlockTableRecord
  2
*Paper_Space
340
1E
  0
BLOCK_RECORD
  5
23
330
1
100
AcDbSymbolTableRecord
100
AcDbBlockTableRecord
  2
*Paper_Space0
340
26
  0
ENDTAB
  0
ENDSEC
  0
SECTION
  2
BLOCKS
  0
BLOCK
  5
20
330
1F
100
AcDbEntity
  8
0
100
AcDbBlockBegin
  2
*Model_Space
 70
     0
 10
0.0
 20
0.0
 30
0.0
  3
*Model_Space
  1

  0
ENDBLK
  5
21
330
1F
100
AcDbEntity
  8
0
100
AcDbBlockEnd
  0
BLOCK
  5
1C
330
1B
100
AcDbEntity
 67
     1
  8
0
100
AcDbBlockBegin
  2
*Paper_Space
 70
     0
 10
0.0
 20
0.0
 30
0.0
  3
*Paper_Space
  1

  0
ENDBLK
  5
1D
330
1B
100
AcDbEntity
 67
     1
  8
0
100
AcDbBlockEnd
  0
BLOCK
  5
24
330
23
100
AcDbEntity
  8
0
100
AcDbBlockBegin
  2
*Paper_Space0
 70
     0
 10
0.0
 20
0.0
 30
0.0
  3
*Paper_Space0
  1

  0
ENDBLK
  5
25
330
23
100
AcDbEntity
  8
0
100
AcDbBlockEnd
  0
ENDSEC
  0
SECTION
  2
ENTITIES
  0
LWPOLYLINE
  5
73
330
1F
100
AcDbEntity
  8
0
  6
Continuous
 62
     7
100
AcDbPolyline
 90
       22
 70
   128
 43
0.0
 10
-4.1041646417
 20
1.03125
 10
-4.1875
 20
1.03125
 10
-4.1875
 20
1.03125
 10
-4.1875
 20
0.875
 10
-4.1875
 20
0.875
 10
-4.4270833333
 20
0.875
 10
-4.4270833333
 20
0.875
 10
-4.4270833333
 20
1.03125
 10
-4.4270833333
 20
1.03125
 10
-4.7083333333
 20
1.03125
 10
-4.7083333333
 20
1.03125
 10
-4.7083333333
 20
1.1362304688
 10
-4.7083333333
 20
1.1362304688
 10
-4.35546875
 20
1.6354166667
 10
-4.35546875
 20
1.6354166667
 10
-4.1875
 20
1.6354166667
 10
-4.1875
 20
1.6354166667
 10
-4.1875
 20
1.1354166667
 10
-4.1875
 20
1.1354166667
 10
-4.1041666667
 20
1.1354166667
 10
-4.1041666667
 20
1.1354166667
 10
-4.1041666667
 20
1.03125
  0
LWPOLYLINE
  5
74
330
1F
100
AcDbEntity
  8
0
  6
Continuous
 62
     7
100
AcDbPolyline
 90
        6
 70
   128
 43
0.0
 10
-4.5791010218
 20
1.1354166667
 10
-4.4270833333
 20
1.1354166667
 10
-4.4270833333
 20
1.1354166667
 10
-4.4270833333
 20
1.3916015625
 10
-4.4270833333
 20
1.3916015625
 10
-4.5791015625
 20
1.1354166667
  0
LWPOLYLINE
  5
75
330
1F
100
AcDbEntity
  8
0
  6
Continuous
 62
     7
100
AcDbPolyline
 90
      136
 70
   128
 43
0.0
 10
0.3527016856
 20
1.6354166667
 10
0.3225911458
 20
1.4583333333
 10
0.3225911458
 20
1.4583333333
 10
-0.0258789063
 20
1.4583333333
 10
-0.0258789063
 20
1.4583333333
 10
-0.0515950521
 20
1.3181966146
 10
-0.0515950521
 20
1.3181966146
 10
-0.0348307292
 20
1.3315429688
 10
-0.0169270833
 20
1.3430989583
 10
0.001953125
 20
1.3528645833
 10
0.0219726562
 20
1.3608398438
 10
0.0428059896
 20
1.3670247396
 10
0.0647786458
 20
1.3714192708
 10
0.0877278646
 20
1.3741861979
 10
0.1118164062
 20
1.375
 10
0.1118164062
 20
1.375
 10
0.142578125
 20
1.3738606771
 10
0.171875
 20
1.3706054688
 10
0.1995442708
 20
1.3650716146
 10
0.2259114583
 20
1.3572591146
 10
0.2508138021
 20
1.3471679688
 10
0.2742513021
 20
1.3349609375
 10
0.2962239583
 20
1.3204752604
 10
0.3167317708
 20
1.3038736979
 10
0.3352864583
 20
1.2856445313
 10
0.3513997396
 20
1.2662760417
 10
0.3649088542
 20
1.2457682292
 10
0.3761393229
 20
1.2242838542
 10
0.384765625
 20
1.2018229167
 10
0.3909505208
 20
1.1782226563
 10
0.39453125
 20
1.1534830729
 10
0.3958333333
 20
1.1277669271
 10
0.3958333333
 20
1.1277669271
 10
0.39453125
 20
1.0991210938
 10
0.3902994792
 20
1.0717773438
 10
0.3834635417
 20
1.0458984375
 10
0.3736979167
 20
1.0213216146
 10
0.361328125
 20
0.9982096354
 10
0.3461914063
 20
0.9765625
 10
0.328125
 20
0.9562174479
 10
0.3074544271
 20
0.9373372396
 10
0.2843424479
 20
0.9202473958
 10
0.2594401042
 20
0.9054361979
 10
0.232421875
 20
0.8930664063
 10
0.2034505208
 20
0.8828125
 10
0.1725260417
 20
0.8748372396
 10
0.1394856771
 20
0.869140625
 10
0.1046549479
 20
0.8657226563
 10
0.0677083333
 20
0.8645833333
 10
0.0677083333
 20
0.8645833333
 10
0.0354817708
 20
0.865234375
 10
0.0055338542
 20
0.8675130208
 10
-0.0226236979
 20
0.87109375
 10
-0.0485026042
 20
0.8759765625
 10
-0.0724283854
 20
0.8824869792
 10
-0.0940755208
 20
0.8902994792
 10
-0.1139322917
 20
0.8995768229
 10
-0.1315104167
 20
0.9103190104
 10
-0.1471354167
 20
0.9225260417
 10
-0.1604817708
 20
0.9360351563
 10
-0.1720377604
 20
0.9510091146
 10
-0.1813151042
 20
0.9674479167
 10
-0.1886393229
 20
0.9853515625
 10
-0.1936848958
 20
1.0047200521
 10
-0.1969401042
 20
1.025390625
 10
-0.1979166667
 20
1.0475260417
 10
-0.1979166667
 20
1.0475260417
 10
-0.1974283854
 20
1.0616861979
 10
-0.1958007813
 20
1.0782877604
 10
-0.1930338542
 20
1.0970052083
 10
-0.1892903646
 20
1.1180013021
 10
-0.1892903646
 20
1.1180013021
 10
-0.0639648438
 20
1.1398111979
 10
-0.0639648438
 20
1.1398111979
 10
-0.0678710938
 20
1.1137695313
 10
-0.0706380208
 20
1.08984375
 10
-0.0724283854
 20
1.0678710938
 10
-0.0729166667
 20
1.0480143229
 10
-0.0729166667
 20
1.0480143229
 10
-0.0714518229
 20
1.0245768229
 10
-0.0667317708
 20
1.0042317708
 10
-0.0592447917
 20
0.9869791667
 10
-0.0485026042
 20
0.9729817708
 10
-0.0348307292
 20
0.9619140625
 10
-0.0179036458
 20
0.9541015625
 10
0.0017903646
 20
0.9495442708
 10
0.0247395833
 20
0.9479166667
 10
0.0247395833
 20
0.9479166667
 10
0.0406901042
 20
0.9485677083
 10
0.0555013021
 20
0.9508463542
 10
0.0694986979
 20
0.9544270833
 10
0.0823567708
 20
0.9594726563
 10
0.0940755208
 20
0.9659830729
 10
0.1048177083
 20
0.9739583333
 10
0.1145833333
 20
0.9832356771
 10
0.1233723958
 20
0.994140625
 10
0.1310221354
 20
1.0063476563
 10
0.1376953125
 20
1.0201822917
 10
0.1433919271
 20
1.0353190104
 10
0.1481119792
 20
1.0519205729
 10
0.1516927083
 20
1.0699869792
 10
0.1541341146
 20
1.0895182292
 10
0.1557617187
 20
1.1103515625
 10
0.15625
 20
1.1328125
 10
0.15625
 20
1.1328125
 10
0.1557617187
 20
1.1482747396
 10
0.1544596354
 20
1.1627604167
 10
0.15234375
 20
1.1761067708
 10
0.1494140625
 20
1.1886393229
 10
0.1455078125
 20
1.2000325521
 10
0.1407877604
 20
1.2106119792
 10
0.1350911458
 20
1.2200520833
 10
0.1287434896
 20
1.228515625
 10
0.1212565104
 20
1.2360026042
 10
0.1131184896
 20
1.2425130208
 10
0.1041666667
 20
1.2478841146
 10
0.0942382812
 20
1.2524414063
 10
0.0833333333
 20
1.255859375
 10
0.0717773437
 20
1.2584635417
 10
0.0592447917
 20
1.2599283854
 10
0.0458984375
 20
1.2604166667
 10
0.0458984375
 20
1.2604166667
 10
0.0310872396
 20
1.2592773438
 10
0.0162760417
 20
1.2561848958
 10
0.0014648437
 20
1.2508138021
 10
-0.0133463542
 20
1.2433268229
 10
-0.0281575521
 20
1.2337239583
 10
-0.0428059896
 20
1.2220052083
 10
-0.0576171875
 20
1.2080078125
 10
-0.072265625
 20
1.1920572917
 10
-0.072265625
 20
1.1920572917
 10
-0.1782226563
 20
1.21484375
 10
-0.1782226563
 20
1.21484375
 10
-0.1077473958
 20
1.6354166667
 10
-0.1077473958
 20
1.6354166667
 10
0.3527018229
 20
1.6354166667
  0
LWPOLYLINE
  5
76
330
1F
100
AcDbEntity
  8
0
  6
Continuous
 62
     7
100
AcDbPolyline
 90
      132
 70
   128
 43
0.0
 10
4.8759743923
 20
1.4217122396
 10
4.7465820312
 20
1.4026692708
 10
4.7465820312
 20
1.4026692708
 10
4.748046875
 20
1.4244791667
 10
4.7491861979
 20
1.4436848958
 10
4.7498372396
 20
1.4601236979
 10
4.75
 20
1.4739583333
 10
4.75
 20
1.4739583333
 10
4.7486979167
 20
1.4947916667
 10
4.7447916667
 20
1.5126953125
 10
4.7384440104
 20
1.5279947917
 10
4.7294921875
 20
1.5403645833
 10
4.7179361979
 20
1.5501302083
 10
4.7037760417
 20
1.5569661458
 10
4.6870117188
 20
1.5611979167
 10
4.6678059896
 20
1.5625
 10
4.6678059896
 20
1.5625
 10
4.6555989583
 20
1.5616861979
 10
4.6442057292
 20
1.5594075521
 10
4.6334635417
 20
1.5556640625
 10
4.6236979167
 20
1.5504557292
 10
4.6147460938
 20
1.5436197917
 10
4.6066080729
 20
1.5353190104
 10
4.5991210938
 20
1.5255533854
 10
4.5926106771
 20
1.5141601563
 10
4.5865885417
 20
1.5006510417
 10
4.5810546875
 20
1.4840494792
 10
4.5758463542
 20
1.4646809896
 10
4.5711263021
 20
1.4422200521
 10
4.5667317708
 20
1.4166666667
 10
4.5626627604
 20
1.3881835938
 10
4.5589192708
 20
1.3567708333
 10
4.5556640625
 20
1.3224283854
 10
4.5556640625
 20
1.3224283854
 10
4.5668945312
 20
1.3372395833
 10
4.5791015625
 20
1.3499348958
 10
4.5924479167
 20
1.3608398438
 10
4.6069335938
 20
1.3696289063
 10
4.6223958333
 20
1.3766276042
 10
4.6389973958
 20
1.3815104167
 10
4.6565755208
 20
1.3844401042
 10
4.6752929688
 20
1.3854166667
 10
4.6752929688
 20
1.3854166667
 10
4.7013346354
 20
1.3842773438
 10
4.7262369792
 20
1.3810221354
 10
4.7498372396
 20
1.3754882813
 10
4.7722981771
 20
1.3676757813
 10
4.7934570312
 20
1.3575846354
 10
4.8133138021
 20
1.3453776042
 10
4.83203125
 20
1.3308919271
 10
4.8494466146
 20
1.3142903646
 10
4.865234375
 20
1.2960611979
 10
4.87890625
 20
1.2768554688
 10
4.8904622396
 20
1.2568359375
 10
4.8999023438
 20
1.2356770833
 10
4.9072265625
 20
1.2137044271
 10
4.9124348958
 20
1.1905924479
 10
4.9156901042
 20
1.1666666667
 10
4.9166666667
 20
1.1417643229
 10
4.9166666667
 20
1.1417643229
 10
4.9155273438
 20
1.1118164063
 10
4.9117838542
 20
1.0833333333
 10
4.9057617188
 20
1.0561523438
 10
4.8971354167
 20
1.0305989583
 10
4.8862304688
 20
1.0061848958
 10
4.8727213542
 20
0.9833984375
 10
4.8569335938
 20
0.9619140625
 10
4.8385416667
 20
0.9418945313
 10
4.8181966146
 20
0.923828125
 10
4.7960611979
 20
0.9080403646
 10
4.7722981771
 20
0.8948567708
 10
4.7465820312
 20
0.8839518229
 10
4.7192382812
 20
0.8754882813
 10
4.6902669271
 20
0.8694661458
 10
4.6593424479
 20
0.8657226563
 10
4.6267903646
 20
0.8645833333
 10
4.6267903646
 20
0.8645833333
 10
4.5874023438
 20
0.8660481771
 10
4.5506184896
 20
0.8704427083
 10
4.5164388021
 20
0.8779296875
 10
4.4847005208
 20
0.8881835938
 10
4.4555664062
 20
0.9015299479
 10
4.4288736979
 20
0.9178059896
 10
4.4047851562
 20
0.9370117188
 10
4.3833007812
 20
0.9593098958
 10
4.3642578125
 20
0.984375
 10
4.3478190104
 20
1.0125325521
 10
4.3338216146
 20
1.0434570313
 10
4.3224283854
 20
1.0774739583
 10
4.3134765625
 20
1.1145833333
 10
4.3071289062
 20
1.1544596354
 10
4.3033854167
 20
1.197265625
 10
4.3020833333
 20
1.2431640625
 10
4.3020833333
 20
1.2431640625
 10
4.3035481771
 20
1.2877604167
 10
4.3077799479
 20
1.330078125
 10
4.3151041667
 20
1.3701171875
 10
4.3251953125
 20
1.4078776042
 10
4.3380533854
 20
1.443359375
 10
4.3538411458
 20
1.4765625
 10
4.3725585938
 20
1.5073242188
 10
4.3942057292
 20
1.5359700521
 10
4.4182942708
 20
1.5616861979
 10
4.4441731771
 20
1.583984375
 10
4.4721679687
 20
1.6028645833
 10
4.5022786458
 20
1.6183268229
 10
4.5341796875
 20
1.6303710938
 10
4.5681966146
 20
1.6389973958
 10
4.6041666667
 20
1.6440429688
 10
4.6420898438
 20
1.6458333333
 10
4.6420898438
 20
1.6458333333
 10
4.6702473958
 20
1.6451822917
 10
4.6966145833
 20
1.6430664063
 10
4.7211914062
 20
1.6394856771
 10
4.7439778646
 20
1.6344401042
 10
4.7649739583
 20
1.6280924479
 10
4.7840169271
 20
1.6202799479
 10
4.8012695312
 20
1.6110026042
 10
4.8167317708
 20
1.6002604167
 10
4.8304036458
 20
1.5882161458
 10
4.8422851562
 20
1.5747070313
 10
4.8522135417
 20
1.5597330729
 10
4.8605143229
 20
1.5434570313
 10
4.8668619792
 20
1.5255533854
 10
4.8714192708
 20
1.5063476563
 10
4.8740234375
 20
1.4858398438
 10
4.875
 20
1.4637044271
 10
4.875
 20
1.4637044271
 10
4.875
 20
1.4555664063
 10
4.8751627604
 20
1.4459635417
 10
4.8754882812
 20
1.4345703125
 10
4.8759765625
 20
1.4217122396
  0
LWPOLYLINE
  5
77
330
1F
100
AcDbEntity
  8
0
  6
Continuous
 62
     7
100
AcDbPolyline
 90
       68
 70
   128
 43
0.0
 10
4.6152322311
 20
1.2916666667
 10
4.6075846354
 20
1.291015625
 10
4.6004231771
 20
1.2892252604
 10
4.59375
 20
1.2861328125
 10
4.5875651042
 20
1.2817382813
 10
4.5818684896
 20
1.2760416667
 10
4.5768229167
 20
1.2692057292
 10
4.5721028646
 20
1.2612304688
 10
4.5678710938
 20
1.251953125
 10
4.5641276042
 20
1.2413736979
 10
4.5610351562
 20
1.2294921875
 10
4.5582682292
 20
1.2164713542
 10
4.5559895833
 20
1.2021484375
 10
4.5543619792
 20
1.1865234375
 10
4.5530598958
 20
1.1697591146
 10
4.5524088542
 20
1.1516927083
 10
4.5520833333
 20
1.1324869792
 10
4.5520833333
 20
1.1324869792
 10
4.5522460938
 20
1.1101888021
 10
4.5530598958
 20
1.0891927083
 10
4.5541992188
 20
1.0698242188
 10
4.5556640625
 20
1.0517578125
 10
4.5577799479
 20
1.03515625
 10
4.5602213542
 20
1.0200195313
 10
4.5633138021
 20
1.0063476563
 10
4.5667317708
 20
0.994140625
 10
4.5706380208
 20
0.9832356771
 10
4.5748697917
 20
0.9737955729
 10
4.5797526042
 20
0.9659830729
 10
4.5849609375
 20
0.9594726563
 10
4.5906575521
 20
0.9544270833
 10
4.5968424479
 20
0.9508463542
 10
4.603515625
 20
0.9485677083
 10
4.6105143229
 20
0.9479166667
 10
4.6105143229
 20
0.9479166667
 10
4.6186523438
 20
0.9487304688
 10
4.6261393229
 20
0.9510091146
 10
4.6331380208
 20
0.9547526042
 10
4.6396484375
 20
0.9601236979
 10
4.6456705729
 20
0.9669596354
 10
4.6510416667
 20
0.9754231771
 10
4.6560872396
 20
0.9853515625
 10
4.6604817708
 20
0.9969075521
 10
4.6643880208
 20
1.0099283854
 10
4.6676432292
 20
1.0244140625
 10
4.6705729167
 20
1.0405273438
 10
4.6728515625
 20
1.0581054688
 10
4.6748046875
 20
1.0771484375
 10
4.6761067708
 20
1.0978190104
 10
4.6767578125
 20
1.1199544271
 10
4.6770833333
 20
1.1437174479
 10
4.6770833333
 20
1.1437174479
 10
4.6769205729
 20
1.1616210938
 10
4.6761067708
 20
1.1783854167
 10
4.6749674479
 20
1.1940104167
 10
4.6731770833
 20
1.2084960938
 10
4.6710611979
 20
1.2216796875
 10
4.6684570312
 20
1.2338867188
 10
4.6652018229
 20
1.2447916667
 10
4.6616210938
 20
1.2547200521
 10
4.6575520833
 20
1.2633463542
 10
4.6529947917
 20
1.2708333333
 10
4.6477864583
 20
1.2771809896
 10
4.6422526042
 20
1.2823893229
 10
4.6362304688
 20
1.2864583333
 10
4.6297200521
 20
1.2893880208
 10
4.6227213542
 20
1.291015625
 10
4.615234375
 20
1.2916666667
  0
CIRCLE
  5
B2
330
1F
100
AcDbEntity
  8
0
  6
Continuous
 62
     7
370
    25
100
AcDbCircle
 10
-1.5
 20
-1.375
 30
0.0
 40
0.1875000000000002
  0
CIRCLE
  5
B3
330
1F
100
AcDbEntity
  8
0
  6
Continuous
 62
     7
370
    25
100
AcDbCircle
 10
3.0
 20
-1.375
 30
0.0
 40
0.1875000000000013
  0
CIRCLE
  5
B4
330
1F
100
AcDbEntity
  8
0
  6
Continuous
 62
     7
370
    25
100
AcDbCircle
 10
-6.0
 20
-1.375
 30
0.0
 40
0.1874999999999982
  0
LINE
  5
DB
330
1F
100
AcDbEntity
  8
0
  6
Continuous
 62
     7
370
    25
100
AcDbLine
 10
-6.75
 20
-1.875
 30
0.0
 11
-6.75
 21
-1.475
 31
0.0
  0
LINE
  5
DC
330
1F
100
AcDbEntity
  8
0
  6
Continuous
 62
     7
370
    25
100
AcDbLine
 10
-6.75
 20
-1.475
 30
0.0
 11
-7.0
 21
-1.475
 31
0.0
  0
LINE
  5
DD
330
1F
100
AcDbEntity
  8
0
  6
Continuous
 62
     7
370
    25
100
AcDbLine
 10
-7.0
 20
-1.075
 30
0.0
 11
-6.75
 21
-1.075
 31
0.0
  0
LINE
  5
DE
330
1F
100
AcDbEntity
  8
0
  6
Continuous
 62
     7
370
    25
100
AcDbLine
 10
-6.75
 20
-1.075
 30
0.0
 11
-6.75
 21
-0.675
 31
0.0
  0
LINE
  5
DF
330
1F
100
AcDbEntity
  8
0
  6
Continuous
 62
     7
370
    25
100
AcDbLine
 10
-6.75
 20
-0.675
 30
0.0
 11
-7.0
 21
-0.675
 31
0.0
  0
LINE
  5
E0
330
1F
100
AcDbEntity
  8
0
  6
Continuous
 62
     7
370
    25
100
AcDbLine
 10
-7.0
 20
-0.275
 30
0.0
 11
-6.75
 21
-0.275
 31
0.0
  0
LINE
  5
E1
330
1F
100
AcDbEntity
  8
0
  6
Continuous
 62
     7
370
    25
100
AcDbLine
 10
-6.75
 20
-0.275
 30
0.0
 11
-6.75
 21
0.125
 31
0.0
  0
LINE
  5
E2
330
1F
100
AcDbEntity
  8
0
  6
Continuous
 62
     7
370
    25
100
AcDbLine
 10
-6.75
 20
0.125
 30
0.0
 11
-7.0
 21
0.125
 31
0.0
  0
LINE
  5
E3
330
1F
100
AcDbEntity
  8
0
  6
Continuous
 62
     7
370
    25
100
AcDbLine
 10
-7.0
 20
0.525
 30
0.0
 11
-6.75
 21
0.525
 31
0.0
  0
LINE
  5
E4
330
1F
100
AcDbEntity
  8
0
  6
Continuous
 62
     7
370
    25
100
AcDbLine
 10
-6.75
 20
0.525
 30
0.0
 11
-6.75
 21
0.925
 31
0.0
  0
LINE
  5
E5
330
1F
100
AcDbEntity
  8
0
  6
Continuous
 62
     7
370
    25
100
AcDbLine
 10
-6.75
 20
0.925
 30
0.0
 11
-7.0
 21
0.925
 31
0.0
  0
LINE
  5
E6
330
1F
100
AcDbEntity
  8
0
  6
Continuous
 62
     7
370
    25
100
AcDbLine
 10
-7.0
 20
1.325
 30
0.0
 11
-6.75
 21
1.325
 31
0.0
  0
LINE
  5
E7
330
1F
100
AcDbEntity
  8
0
  6
Continuous
 62
     7
370
    25
100
AcDbLine
 10
-6.75
 20
1.325
 30
0.0
 11
-6.75
 21
1.725
 31
0.0
  0
LINE
  5
E8
330
1F
100
AcDbEntity
  8
0
  6
Continuous
 62
     7
370
    25
100
AcDbLine
 10
-6.75
 20
1.725
 30
0.0
 11
-7.0
 21
1.725
 31
0.0
  0
LINE
  5
E9
330
1F
100
AcDbEntity
  8
0
  6
Continuous
 62
     7
370
    25
100
AcDbLine
 10
7.0
 20
1.725
 30
0.0
 11
6.75
 21
1.725
 31
0.0
  0
LINE
  5
EA
330
1F
100
AcDbEntity
  8
0
  6
Continuous
 62
     7
370
    25
100
AcDbLine
 10
6.75
 20
1.725
 30
0.0
 11
6.75
 21
1.325
 31
0.0
  0
LINE
  5
EB
330
1F
100
AcDbEntity
  8
0
  6
Continuous
 62
     7
370
    25
100
AcDbLine
 10
6.75
 20
1.325
 30
0.0
 11
7.0
 21
1.325
 31
0.0
  0
LINE
  5
EC
330
1F
100
AcDbEntity
  8
0
  6
Continuous
 62
     7
370
    25
100
AcDbLine
 10
7.0
 20
0.925
 30
0.0
 11
6.75
 21
0.925
 31
0.0
  0
LINE
  5
ED
330
1F
100
AcDbEntity
  8
0
  6
Continuous
 62
     7
370
    25
100
AcDbLine
 10
6.75
 20
0.925
 30
0.0
 11
6.75
 21
0.525
 31
0.0
  0
LINE
  5
EE
330
1F
100
AcDbEntity
  8
0
  6
Continuous
 62
     7
370
    25
100
AcDbLine
 10
6.75
 20
0.525
 30
0.0
 11
7.0
 21
0.525
 31
0.0
  0
LINE
  5
EF
330
1F
100
AcDbEntity
  8
0
  6
Continuous
 62
     7
370
    25
100
AcDbLine
 10
7.0
 20
0.125
 30
0.0
 11
6.75
 21
0.125
 31
0.0
  0
LINE
  5
F0
330
1F
100
AcDbEntity
  8
0
  6
Continuous
 62
     7
370
    25
100
AcDbLine
 10
6.75
 20
0.125
 30
0.0
 11
6.75
 21
-0.275
 31
0.0
  0
LINE
  5
F1
330
1F
100
AcDbEntity
  8
0
  6
Continuous
 62
     7
370
    25
100
AcDbLine
 10
6.75
 20
-0.275
 30
0.0
 11
7.0
 21
-0.275
 31
0.0
  0
LINE
  5
F2
330
1F
100
AcDbEntity
  8
0
  6
Continuous
 62
     7
370
    25
100
AcDbLine
 10
7.0
 20
-0.675
 30
0.0
 11
6.75
 21
-0.675
 31
0.0
  0
LINE
  5
F3
330
1F
100
AcDbEntity
  8
0
  6
Continuous
 62
     7
370
    25
100
AcDbLine
 10
6.75
 20
-0.675
 30
0.0
 11
6.75
 21
-1.075
 31
0.0
  0
LINE
  5
F4
330
1F
100
AcDbEntity
  8
0
  6
Continuous
 62
     7
370
    25
100
AcDbLine
 10
6.75
 20
-1.075
 30
0.0
 11
7.0
 21
-1.075
 31
0.0
  0
LINE
  5
F5
330
1F
100
AcDbEntity
  8
0
  6
Continuous
 62
     7
370
    25
100
AcDbLine
 10
7.0
 20
-1.475
 30
0.0
 11
6.75
 21
-1.475
 31
0.0
  0
LINE
  5
F6
330
1F
100
AcDbEntity
  8
0
  6
Continuous
 62
     7
370
    25
100
AcDbLine
 10
6.75
 20
-1.475
 30
0.0
 11
6.75
 21
-1.875
 31
0.0
  0
LINE
  5
F7
330
1F
100
AcDbEntity
  8
0
  6
Continuous
 62
     7
370
    25
100
AcDbLine
 10
6.75
 20
-1.875
 30
0.0
 11
6.5
 21
-1.875
 31
0.0
  0
LINE
  5
F8
330
1F
100
AcDbEntity
  8
0
  6
Continuous
 62
     7
370
    25
100
AcDbLine
 10
6.5
 20
-1.875
 30
0.0
 11
6.5
 21
-2.125
 31
0.0
  0
LINE
  5
F9
330
1F
100
AcDbEntity
  8
0
  6
Continuous
 62
     7
370
    25
100
AcDbLine
 10
5.5
 20
-2.125
 30
0.0
 11
5.5
 21
-1.875
 31
0.0
  0
LINE
  5
FA
330
1F
100
AcDbEntity
  8
0
  6
Continuous
 62
     7
370
    25
100
AcDbLine
 10
5.5
 20
-1.875
 30
0.0
 11
4.5
 21
-1.875
 31
0.0
  0
LINE
  5
FB
330
1F
100
AcDbEntity
  8
0
  6
Continuous
 62
     7
370
    25
100
AcDbLine
 10
4.5
 20
-1.875
 30
0.0
 11
4.5
 21
-2.125
 31
0.0
  0
LINE
  5
FC
330
1F
100
AcDbEntity
  8
0
  6
Continuous
 62
     7
370
    25
100
AcDbLine
 10
3.5
 20
-2.125
 30
0.0
 11
3.5
 21
-1.875
 31
0.0
  0
LINE
  5
FD
330
1F
100
AcDbEntity
  8
0
  6
Continuous
 62
     7
370
    25
100
AcDbLine
 10
3.5
 20
-1.875
 30
0.0
 11
2.5
 21
-1.875
 31
0.0
  0
LINE
  5
FE
330
1F
100
AcDbEntity
  8
0
  6
Continuous
 62
     7
370
    25
100
AcDbLine
 10
2.5
 20
-1.875
 30
0.0
 11
2.5
 21
-2.125
 31
0.0
  0
LINE
  5
FF
330
1F
100
AcDbEntity
  8
0
  6
Continuous
 62
     7
370
    25
100
AcDbLine
 10
1.5
 20
-2.125
 30
0.0
 11
1.5
 21
-1.875
 31
0.0
  0
LINE
  5
100
330
1F
100
AcDbEntity
  8
0
  6
Continuous
 62
     7
370
    25
100
AcDbLine
 10
1.5
 20
-1.875
 30
0.0
 11
0.5
 21
-1.875
 31
0.0
  0
LINE
  5
101
330
1F
100
AcDbEntity
  8
0
  6
Continuous
 62
     7
370
    25
100
AcDbLine
 10
0.5
 20
-1.875
 30
0.0
 11
0.5
 21
-2.125
 31
0.0
  0
LINE
  5
102
330
1F
100
AcDbEntity
  8
0
  6
Continuous
 62
     7
370
    25
100
AcDbLine
 10
-0.5
 20
-2.125
 30
0.0
 11
-0.5
 21
-1.875
 31
0.0
  0
LINE
  5
103
330
1F
100
AcDbEntity
  8
0
  6
Continuous
 62
     7
370
    25
100
AcDbLine
 10
-0.5
 20
-1.875
 30
0.0
 11
-1.5
 21
-1.875
 31
0.0
  0
LINE
  5
104
330
1F
100
AcDbEntity
  8
0
  6
Continuous
 62
     7
370
    25
100
AcDbLine
 10
-1.5
 20
-1.875
 30
0.0
 11
-1.5
 21
-2.125
 31
0.0
  0
LINE
  5
105
330
1F
100
AcDbEntity
  8
0
  6
Continuous
 62
     7
370
    25
100
AcDbLine
 10
-2.5
 20
-2.125
 30
0.0
 11
-2.5
 21
-1.875
 31
0.0
  0
LINE
  5
106
330
1F
100
AcDbEntity
  8
0
  6
Continuous
 62
     7
370
    25
100
AcDbLine
 10
-2.5
 20
-1.875
 30
0.0
 11
-3.5
 21
-1.875
 31
0.0
  0
LINE
  5
107
330
1F
100
AcDbEntity
  8
0
  6
Continuous
 62
     7
370
    25
100
AcDbLine
 10
-3.5
 20
-1.875
 30
0.0
 11
-3.5
 21
-2.125
 31
0.0
  0
LINE
  5
108
330
1F
100
AcDbEntity
  8
0
  6
Continuous
 62
     7
370
    25
100
AcDbLine
 10
-4.5
 20
-2.125
 30
0.0
 11
-4.5
 21
-1.875
 31
0.0
  0
LINE
  5
109
330
1F
100
AcDbEntity
  8
0
  6
Continuous
 62
     7
370
    25
100
AcDbLine
 10
-4.5
 20
-1.875
 30
0.0
 11
-5.5
 21
-1.875
 31
0.0
  0
LINE
  5
10A
330
1F
100
AcDbEntity
  8
0
  6
Continuous
 62
     7
370
    25
100
AcDbLine
 10
-5.5
 20
-1.875
 30
0.0
 11
-5.5
 21
-2.125
 31
0.0
  0
LINE
  5
10B
330
1F
100
AcDbEntity
  8
0
  6
Continuous
 62
     7
370
    25
100
AcDbLine
 10
-6.5
 20
-2.125
 30
0.0
 11
-6.5
 21
-1.875
 31
0.0
  0
LINE
  5
10C
330
1F
100
AcDbEntity
  8
0
  6
Continuous
 62
     7
370
    25
100
AcDbLine
 10
-6.5
 20
-1.875
 30
0.0
 11
-6.75
 21
-1.875
 31
0.0
  0
LINE
  5
10D
330
1F
100
AcDbEntity
  8
0
  6
Continuous
 62
     7
370
    25
100
AcDbLine
 10
-6.5
 20
-0.125
 30
0.0
 11
-5.5
 21
-0.125
 31
0.0
  0
LINE
  5
10E
330
1F
100
AcDbEntity
  8
0
  6
Continuous
 62
     7
370
    25
100
AcDbLine
 10
-5.5
 20
-0.125
 30
0.0
 11
-5.5
 21
0.125
 31
0.0
  0
LINE
  5
10F
330
1F
100
AcDbEntity
  8
0
  6
Continuous
 62
     7
370
    25
100
AcDbLine
 10
-5.5
 20
0.125
 30
0.0
 11
-6.5
 21
0.125
 31
0.0
  0
LINE
  5
110
330
1F
100
AcDbEntity
  8
0
  6
Continuous
 62
     7
370
    25
100
AcDbLine
 10
-6.5
 20
0.125
 30
0.0
 11
-6.5
 21
-0.125
 31
0.0
  0
LINE
  5
111
330
1F
100
AcDbEntity
  8
0
  6
Continuous
 62
     7
370
    25
100
AcDbLine
 10
-4.5
 20
-0.125
 30
0.0
 11
-3.5
 21
-0.125
 31
0.0
  0
LINE
  5
112
330
1F
100
AcDbEntity
  8
0
  6
Continuous
 62
     7
370
    25
100
AcDbLine
 10
-3.5
 20
-0.125
 30
0.0
 11
-3.5
 21
0.125
 31
0.0
  0
LINE
  5
113
330
1F
100
AcDbEntity
  8
0
  6
Continuous
 62
     7
370
    25
100
AcDbLine
 10
-3.5
 20
0.125
 30
0.0
 11
-4.5
 21
0.125
 31
0.0
  0
LINE
  5
114
330
1F
100
AcDbEntity
  8
0
  6
Continuous
 62
     7
370
    25
100
AcDbLine
 10
-4.5
 20
0.125
 30
0.0
 11
-4.5
 21
-0.125
 31
0.0
  0
LINE
  5
115
330
1F
100
AcDbEntity
  8
0
  6
Continuous
 62
     7
370
    25
100
AcDbLine
 10
5.5
 20
-2.125
 30
0.0
 11
6.5
 21
-2.125
 31
0.0
  0
LINE
  5
116
330
1F
100
AcDbEntity
  8
0
  6
Continuous
 62
     7
370
    25
100
AcDbLine
 10
7.0
 20
2.125
 30
0.0
 11
-7.0
 21
2.125
 31
0.0
  0
LINE
  5
117
330
1F
100
AcDbEntity
  8
0
  6
Continuous
 62
     7
370
    25
100
AcDbLine
 10
-7.0
 20
2.125
 30
0.0
 11
-7.0
 21
1.725
 31
0.0
  0
LINE
  5
118
330
1F
100
AcDbEntity
  8
0
  6
Continuous
 62
     7
370
    25
100
AcDbLine
 10
-7.0
 20
-1.075
 30
0.0
 11
-7.0
 21
-1.475
 31
0.0
  0
LINE
  5
119
330
1F
100
AcDbEntity
  8
0
  6
Continuous
 62
     7
370
    25
100
AcDbLine
 10
-7.0
 20
-0.275
 30
0.0
 11
-7.0
 21
-0.675
 31
0.0
  0
LINE
  5
11A
330
1F
100
AcDbEntity
  8
0
  6
Continuous
 62
     7
370
    25
100
AcDbLine
 10
-7.0
 20
0.525
 30
0.0
 11
-7.0
 21
0.125
 31
0.0
  0
LINE
  5
11B
330
1F
100
AcDbEntity
  8
0
  6
Continuous
 62
     7
370
    25
100
AcDbLine
 10
-7.0
 20
1.325
 30
0.0
 11
-7.0
 21
0.925
 31
0.0
  0
LINE
  5
11C
330
1F
100
AcDbEntity
  8
0
  6
Continuous
 62
     7
370
    25
100
AcDbLine
 10
7.0
 20
-1.475
 30
0.0
 11
7.0
 21
-1.075
 31
0.0
  0
LINE
  5
11D
330
1F
100
AcDbEntity
  8
0
  6
Continuous
 62
     7
370
    25
100
AcDbLine
 10
7.0
 20
-0.675
 30
0.0
 11
7.0
 21
-0.275
 31
0.0
  0
LINE
  5
11E
330
1F
100
AcDbEntity
  8
0
  6
Continuous
 62
     7
370
    25
100
AcDbLine
 10
7.0
 20
0.125
 30
0.0
 11
7.0
 21
0.525
 31
0.0
  0
LINE
  5
11F
330
1F
100
AcDbEntity
  8
0
  6
Continuous
 62
     7
370
    25
100
AcDbLine
 10
7.0
 20
0.925
 30
0.0
 11
7.0
 21
1.325
 31
0.0
  0
LINE
  5
120
330
1F
100
AcDbEntity
  8
0
  6
Continuous
 62
     7
370
    25
100
AcDbLine
 10
7.0
 20
1.725
 30
0.0
 11
7.0
 21
2.125
 31
0.0
  0
LINE
  5
121
330
1F
100
AcDbEntity
  8
0
  6
Continuous
 62
     7
370
    25
100
AcDbLine
 10
-6.5
 20
-2.125
 30
0.0
 11
-5.5
 21
-2.125
 31
0.0
  0
LINE
  5
122
330
1F
100
AcDbEntity
  8
0
  6
Continuous
 62
     7
370
    25
100
AcDbLine
 10
3.5
 20
-2.125
 30
0.0
 11
4.5
 21
-2.125
 31
0.0
  0
LINE
  5
123
330
1F
100
AcDbEntity
  8
0
  6
Continuous
 62
     7
370
    25
100
AcDbLine
 10
1.5
 20
-2.125
 30
0.0
 11
2.5
 21
-2.125
 31
0.0
  0
LINE
  5
124
330
1F
100
AcDbEntity
  8
0
  6
Continuous
 62
     7
370
    25
100
AcDbLine
 10
-0.5
 20
-2.125
 30
0.0
 11
0.5
 21
-2.125
 31
0.0
  0
LINE
  5
125
330
1F
100
AcDbEntity
  8
0
  6
Continuous
 62
     7
370
    25
100
AcDbLine
 10
-2.5
 20
-2.125
 30
0.0
 11
-1.5
 21
-2.125
 31
0.0
  0
LINE
  5
126
330
1F
100
AcDbEntity
  8
0
  6
Continuous
 62
     7
370
    25
100
AcDbLine
 10
-4.5
 20
-2.125
 30
0.0
 11
-3.5
 21
-2.125
 31
0.0
  0
LINE
  5
127
330
1F
100
AcDbEntity
  8
0
  6
Continuous
 62
     7
370
    25
100
AcDbLine
 10
-2.5
 20
0.125
 30
0.0
 11
-2.5
 21
-0.125
 31
0.0
  0
LINE
  5
128
330
1F
100
AcDbEntity
  8
0
  6
Continuous
 62
     7
370
    25
100
AcDbLine
 10
-1.5
 20
0.125
 30
0.0
 11
-2.5
 21
0.125
 31
0.0
  0
LINE
  5
129
330
1F
100
AcDbEntity
  8
0
  6
Continuous
 62
     7
370
    25
100
AcDbLine
 10
-1.5
 20
-0.125
 30
0.0
 11
-1.5
 21
0.125
 31
0.0
  0
LINE
  5
12A
330
1F
100
AcDbEntity
  8
0
  6
Continuous
 62
     7
370
    25
100
AcDbLine
 10
-2.5
 20
-0.125
 30
0.0
 11
-1.5
 21
-0.125
 31
0.0
  0
LINE
  5
12B
330
1F
100
AcDbEntity
  8
0
  6
Continuous
 62
     7
370
    25
100
AcDbLine
 10
-0.5
 20
0.125
 30
0.0
 11
-0.5
 21
-0.125
 31
0.0
  0
LINE
  5
12C
330
1F
100
AcDbEntity
  8
0
  6
Continuous
 62
     7
370
    25
100
AcDbLine
 10
0.5
 20
0.125
 30
0.0
 11
-0.5
 21
0.125
 31
0.0
  0
LINE
  5
12D
330
1F
100
AcDbEntity
  8
0
  6
Continuous
 62
     7
370
    25
100
AcDbLine
 10
0.5
 20
-0.125
 30
0.0
 11
0.5
 21
0.125
 31
0.0
  0
LINE
  5
12E
330
1F
100
AcDbEntity
  8
0
  6
Continuous
 62
     7
370
    25
100
AcDbLine
 10
-0.5
 20
-0.125
 30
0.0
 11
0.5
 21
-0.125
 31
0.0
  0
LINE
  5
12F
330
1F
100
AcDbEntity
  8
0
  6
Continuous
 62
     7
370
    25
100
AcDbLine
 10
1.5
 20
0.125
 30
0.0
 11
1.5
 21
-0.125
 31
0.0
  0
LINE
  5
130
330
1F
100
AcDbEntity
  8
0
  6
Continuous
 62
     7
370
    25
100
AcDbLine
 10
2.5
 20
0.125
 30
0.0
 11
1.5
 21
0.125
 31
0.0
  0
LINE
  5
131
330
1F
100
AcDbEntity
  8
0
  6
Continuous
 62
     7
370
    25
100
AcDbLine
 10
2.5
 20
-0.125
 30
0.0
 11
2.5
 21
0.125
 31
0.0
  0
LINE
  5
132
330
1F
100
AcDbEntity
  8
0
  6
Continuous
 62
     7
370
    25
100
AcDbLine
 10
1.5
 20
-0.125
 30
0.0
 11
2.5
 21
-0.125
 31
0.0
  0
LINE
  5
133
330
1F
100
AcDbEntity
  8
0
  6
Continuous
 62
     7
370
    25
100
AcDbLine
 10
3.5
 20
0.125
 30
0.0
 11
3.5
 21
-0.125
 31
0.0
  0
LINE
  5
134
330
1F
100
AcDbEntity
  8
0
  6
Continuous
 62
     7
370
    25
100
AcDbLine
 10
4.5
 20
0.125
 30
0.0
 11
3.5
 21
0.125
 31
0.0
  0
LINE
  5
135
330
1F
100
AcDbEntity
  8
0
  6
Continuous
 62
     7
370
    25
100
AcDbLine
 10
4.5
 20
-0.125
 30
0.0
 11
4.5
 21
0.125
 31
0.0
  0
LINE
  5
136
330
1F
100
AcDbEntity
  8
0
  6
Continuous
 62
     7
370
    25
100
AcDbLine
 10
3.5
 20
-0.125
 30
0.0
 11
4.5
 21
-0.125
 31
0.0
  0
LINE
  5
137
330
1F
100
AcDbEntity
  8
0
  6
Continuous
 62
     7
370
    25
100
AcDbLine
 10
5.5
 20
0.125
 30
0.0
 11
5.5
 21
-0.125
 31
0.0
  0
LINE
  5
138
330
1F
100
AcDbEntity
  8
0
  6
Continuous
 62
     7
370
    25
100
AcDbLine
 10
6.5
 20
0.125
 30
0.0
 11
5.5
 21
0.125
 31
0.0
  0
LINE
  5
139
330
1F
100
AcDbEntity
  8
0
  6
Continuous
 62
     7
370
    25
100
AcDbLine
 10
6.5
 20
-0.125
 30
0.0
 11
6.5
 21
0.125
 31
0.0
  0
LINE
  5
13A
330
1F
100
AcDbEntity
  8
0
  6
Continuous
 62
     7
370
    25
100
AcDbLine
 10
5.5
 20
-0.125
 30
0.0
 11
6.5
 21
-0.125
 31
0.0
  0
MTEXT
  5
13C
330
1F
100
AcDbEntity
  8
0
  6
Continuous
 62
     7
100
AcDbMText
 10
-7.0
 20
-2.1651404091
 30
0.0
 40
0.1903
 41
0.0
 71
     1
 72
     1
  1
Produit d'éducation SOLIDWORKS – A titre éducatif uniquement.
  7
SLDTEXTSTYLE0
 73
     1
 44
1.0
  0
ENDSEC
  0
SECTION
  2
OBJECTS
  0
DICTIONARY
  5
C
330
0
100
AcDbDictionary
281
     1
  3
ACAD_GROUP
350
D
  3
ACAD_LAYOUT
350
1A
  3
ACAD_MLINESTYLE
350
17
  3
ACAD_PLOTSETTINGS
350
19
  3
ACAD_PLOTSTYLENAME
350
E
  3
ACAD_SCALELIST
350
47
  3
DWGPROPS
350
13D
  0
DICTIONARY
  5
D
102
{ACAD_REACTORS
330
C
102
}
330
C
100
AcDbDictionary
281
     1
  0
DICTIONARY
  5
1A
102
{ACAD_REACTORS
330
C
102
}
330
C
100
AcDbDictionary
281
     1
  3
Layout1
350
1E
  3
Layout2
350
26
  3
Model
350
22
  0
DICTIONARY
  5
17
102
{ACAD_REACTORS
330
C
102
}
330
C
100
AcDbDictionary
281
     1
  3
Standard
350
18
  0
DICTIONARY
  5
19
102
{ACAD_REACTORS
330
C
102
}
330
C
100
AcDbDictionary
281
     1
  0
ACDBDICTIONARYWDFLT
  5
E
102
{ACAD_REACTORS
330
C
102
}
330
C
100
AcDbDictionary
281
     1
  3
Normal
350
F
100
AcDbDictionaryWithDefault
340
F
  0
DICTIONARY
  5
47
102
{ACAD_REACTORS
330
C
102
}
330
C
100
AcDbDictionary
281
     1
  3
A0
350
48
  3
A1
350
49
  3
A2
350
4A
  3
A3
350
4B
  3
A4
350
4C
  3
A5
350
4D
  3
A6
350
4E
  3
A7
350
4F
  3
A8
350
50
  3
A9
350
51
  3
B0
350
52
  3
B1
350
53
  3
B2
350
54
  3
B3
350
55
  3
B4
350
56
  3
B5
350
57
  3
B6
350
58
  3
B7
350
59
  3
B8
350
5A
  3
B9
350
5B
  3
C0
350
5C
  3
C1
350
5D
  3
C2
350
5E
  3
C3
350
5F
  3
C4
350
60
  3
C5
350
61
  3
C6
350
62
  3
C7
350
63
  3
C8
350
64
  3
C9
350
65
  3
D0
350
66
  3
D1
350
67
  3
D2
350
68
  0
XRECORD
  5
13D
102
{ACAD_REACTORS
330
C
102
}
330
C
100
AcDbXrecord
280
     1
  1
DWGPROPS COOKIE
  2

  3

  4

  6

  7

  8
Utilisateur
  9

300
=
301
=
302
=
303
=
304
=
305
=
306
=
307
=
308
=
309
=
 40
0.0
 41
2459655.895488067
 42
2459655.89551721
  1

 90
        0
  0
LAYOUT
  5
1E
102
{ACAD_REACTORS
330
1A
102
}
330
1A
100
AcDbPlotSettings
  1

  2
none_device
  4

  6

 40
0.0
 41
0.0
 42
0.0
 43
0.0
 44
0.0
 45
0.0
 46
0.0
 47
0.0
 48
0.0
 49
0.0
140
0.0
141
0.0
142
1.0
143
1.0
 70
   688
 72
     0
 73
     0
 74
     5
  7

 75
    16
147
1.0
148
0.0
149
0.0
100
AcDbLayout
  1
Layout1
 70
     1
 71
     1
 10
0.0
 20
0.0
 11
12.0
 21
9.0
 12
0.0
 22
0.0
 32
0.0
 14
1.0000000000E+20
 24
1.0000000000E+20
 34
1.0000000000E+20
 15
-1.0000000000E+20
 25
-1.0000000000E+20
 35
-1.0000000000E+20
146
0.0
 13
0.0
 23
0.0
 33
0.0
 16
1.0
 26
0.0
 36
0.0
 17
0.0
 27
1.0
 37
0.0
 76
     0
330
1B
  0
LAYOUT
  5
26
102
{ACAD_REACTORS
330
1A
102
}
330
1A
100
AcDbPlotSettings
  1

  2
none_device
  4

  6

 40
0.0
 41
0.0
 42
0.0
 43
0.0
 44
0.0
 45
0.0
 46
0.0
 47
0.0
 48
0.0
 49
0.0
140
0.0
141
0.0
142
1.0
143
1.0
 70
   688
 72
     0
 73
     0
 74
     5
  7

 75
    16
147
1.0
148
0.0
149
0.0
100
AcDbLayout
  1
Layout2
 70
     1
 71
     2
 10
0.0
 20
0.0
 11
0.0
 21
0.0
 12
0.0
 22
0.0
 32
0.0
 14
0.0
 24
0.0
 34
0.0
 15
0.0
 25
0.0
 35
0.0
146
0.0
 13
0.0
 23
0.0
 33
0.0
 16
1.0
 26
0.0
 36
0.0
 17
0.0
 27
1.0
 37
0.0
 76
     0
330
23
  0
LAYOUT
  5
22
102
{ACAD_REACTORS
330
1A
102
}
330
1A
100
AcDbPlotSettings
  1

  2
none_device
  4
ANSI_A_(11.00_x_8.50_Inches)
  6

 40
6.35
 41
19.05
 42
6.35000508
 43
19.05000254
 44
279.4
 45
215.9
 46
133.34999746
 47
88.89999873
 48
0.0
 49
0.0
140
0.0
141
0.0
142
0.7778571429
143
1.0
 70
  1696
 72
     0
 73
     0
 74
     0
  7

 75
     0
147
0.5913241897
148
-39.4088153714
149
0.0
100
AcDbLayout
  1
Model
 70
     1
 71
     0
 10
0.0
 20
0.0
 11
12.0
 21
9.0
 12
0.0
 22
0.0
 32
0.0
 14
-7.0
 24
-2.125
 34
0.0
 15
7.0
 25
2.125
 35
0.0
146
0.0
 13
0.0
 23
0.0
 33
0.0
 16
1.0
 26
0.0
 36
0.0
 17
0.0
 27
1.0
 37
0.0
 76
     0
330
1F
331
29
  0
MLINESTYLE
  5
18
102
{ACAD_REACTORS
330
17
102
}
330
17
100
AcDbMlineStyle
  2
Standard
 70
     0
  3

 62
   256
 51
90.0
 52
90.0
 71
     2
 49
0.5
 62
   256
  6
BYLAYER
 49
-0.5
 62
   256
  6
BYLAYER
  0
ACDBPLACEHOLDER
  5
F
102
{ACAD_REACTORS
330
E
102
}
330
E
  0
SCALE
  5
48
102
{ACAD_REACTORS
330
47
102
}
330
47
100
AcDbScale
 70
     0
300
1:1
140
1.0
141
1.0
290
     1
  0
SCALE
  5
49
102
{ACAD_REACTORS
330
47
102
}
330
47
100
AcDbScale
 70
     0
300
1:2
140
1.0
141
2.0
290
     0
  0
SCALE
  5
4A
102
{ACAD_REACTORS
330
47
102
}
330
47
100
AcDbScale
 70
     0
300
1:4
140
1.0
141
4.0
290
     0
  0
SCALE
  5
4B
102
{ACAD_REACTORS
330
47
102
}
330
47
100
AcDbScale
 70
     0
300
1:5
140
1.0
141
5.0
290
     0
  0
SCALE
  5
4C
102
{ACAD_REACTORS
330
47
102
}
330
47
100
AcDbScale
 70
     0
300
1:8
140
1.0
141
8.0
290
     0
  0
SCALE
  5
4D
102
{ACAD_REACTORS
330
47
102
}
330
47
100
AcDbScale
 70
     0
300
1:10
140
1.0
141
10.0
290
     0
  0
SCALE
  5
4E
102
{ACAD_REACTORS
330
47
102
}
330
47
100
AcDbScale
 70
     0
300
1:16
140
1.0
141
16.0
290
     0
  0
SCALE
  5
4F
102
{ACAD_REACTORS
330
47
102
}
330
47
100
AcDbScale
 70
     0
300
1:20
140
1.0
141
20.0
290
     0
  0
SCALE
  5
50
102
{ACAD_REACTORS
330
47
102
}
330
47
100
AcDbScale
 70
     0
300
1:30
140
1.0
141
30.0
290
     0
  0
SCALE
  5
51
102
{ACAD_REACTORS
330
47
102
}
330
47
100
AcDbScale
 70
     0
300
1:40
140
1.0
141
40.0
290
     0
  0
SCALE
  5
52
102
{ACAD_REACTORS
330
47
102
}
330
47
100
AcDbScale
 70
     0
300
1:50
140
1.0
141
50.0
290
     0
  0
SCALE
  5
53
102
{ACAD_REACTORS
330
47
102
}
330
47
100
AcDbScale
 70
     0
300
1:100
140
1.0
141
100.0
290
     0
  0
SCALE
  5
54
102
{ACAD_REACTORS
330
47
102
}
330
47
100
AcDbScale
 70
     0
300
2:1
140
2.0
141
1.0
290
     0
  0
SCALE
  5
55
102
{ACAD_REACTORS
330
47
102
}
330
47
100
AcDbScale
 70
     0
300
4:1
140
4.0
141
1.0
290
     0
  0
SCALE
  5
56
102
{ACAD_REACTORS
330
47
102
}
330
47
100
AcDbScale
 70
     0
300
8:1
140
8.0
141
1.0
290
     0
  0
SCALE
  5
57
102
{ACAD_REACTORS
330
47
102
}
330
47
100
AcDbScale
 70
     0
300
10:1
140
10.0
141
1.0
290
     0
  0
SCALE
  5
58
102
{ACAD_REACTORS
330
47
102
}
330
47
100
AcDbScale
 70
     0
300
100:1
140
100.0
141
1.0
290
     0
  0
SCALE
  5
59
102
{ACAD_REACTORS
330
47
102
}
330
47
100
AcDbScale
 70
     0
300
1/128" = 1'-0"
140
0.0078125
141
12.0
290
     0
  0
SCALE
  5
5A
102
{ACAD_REACTORS
330
47
102
}
330
47
100
AcDbScale
 70
     0
300
1/64" = 1'-0"
140
0.015625
141
12.0
290
     0
  0
SCALE
  5
5B
102
{ACAD_REACTORS
330
47
102
}
330
47
100
AcDbScale
 70
     0
300
1/32" = 1'-0"
140
0.03125
141
12.0
290
     0
  0
SCALE
  5
5C
102
{ACAD_REACTORS
330
47
102
}
330
47
100
AcDbScale
 70
     0
300
1/16" = 1'-0"
140
0.0625
141
12.0
290
     0
  0
SCALE
  5
5D
102
{ACAD_REACTORS
330
47
102
}
330
47
100
AcDbScale
 70
     0
300
3/32" = 1'-0"
140
0.09375
141
12.0
290
     0
  0
SCALE
  5
5E
102
{ACAD_REACTORS
330
47
102
}
330
47
100
AcDbScale
 70
     0
300
1/8" = 1'-0"
140
0.125
141
12.0
290
     0
  0
SCALE
  5
5F
102
{ACAD_REACTORS
330
47
102
}
330
47
100
AcDbScale
 70
     0
300
3/16" = 1'-0"
140
0.1875
141
12.0
290
     0
  0
SCALE
  5
60
102
{ACAD_REACTORS
330
47
102
}
330
47
100
AcDbScale
 70
     0
300
1/4" = 1'-0"
140
0.25
141
12.0
290
     0
  0
SCALE
  5
61
102
{ACAD_REACTORS
330
47
102
}
330
47
100
AcDbScale
 70
     0
300
3/8" = 1'-0"
140
0.375
141
12.0
290
     0
  0
SCALE
  5
62
102
{ACAD_REACTORS
330
47
102
}
330
47
100
AcDbScale
 70
     0
300
1/2" = 1'-0"
140
0.5
141
12.0
290
     0
  0
SCALE
  5
63
102
{ACAD_REACTORS
330
47
102
}
330
47
100
AcDbScale
 70
     0
300
3/4" = 1'-0"
140
0.75
141
12.0
290
     0
  0
SCALE
  5
64
102
{ACAD_REACTORS
330
47
102
}
330
47
100
AcDbScale
 70
     0
300
1" = 1'-0"
140
1.0
141
12.0
290
     0
  0
SCALE
  5
65
102
{ACAD_REACTORS
330
47
102
}
330
47
100
AcDbScale
 70
     0
300
1-1/2" = 1'-0"
140
1.5
141
12.0
290
     0
  0
SCALE
  5
66
102
{ACAD_REACTORS
330
47
102
}
330
47
100
AcDbScale
 70
     0
300
3" = 1'-0"
140
3.0
141
12.0
290
     0
  0
SCALE
  5
67
102
{ACAD_REACTORS
330
47
102
}
330
47
100
AcDbScale
 70
     0
300
6" = 1'-0"
140
6.0
141
12.0
290
     0
  0
SCALE
  5
68
102
{ACAD_REACTORS
330
47
102
}
330
47
100
AcDbScale
 70
     0
300
1'-0" = 1'-0"
140
12.0
141
12.0
290
     0
  0
ENDSEC
  0
EOF
