<?xml version="1.0" encoding="UTF-8" standalone="no"?>
<!-- Created with Inkscape (http://www.inkscape.org/) -->

<svg
   xmlns:dc="http://purl.org/dc/elements/1.1/"
   xmlns:cc="http://creativecommons.org/ns#"
   xmlns:rdf="http://www.w3.org/1999/02/22-rdf-syntax-ns#"
   xmlns:svg="http://www.w3.org/2000/svg"
   xmlns="http://www.w3.org/2000/svg"
   xmlns:sodipodi="http://sodipodi.sourceforge.net/DTD/sodipodi-0.dtd"
   xmlns:inkscape="http://www.inkscape.org/namespaces/inkscape"
   width="32in"
   height="18in"
   viewBox="0 0 812.80001 457.20001"
   version="1.1"
   id="svg8"
   inkscape:version="0.92.4 (5da689c313, 2019-01-14)"
   sodipodi:docname="02_01_1_8.svg">
  <defs
     id="defs2">
    <marker
       style="overflow:visible"
       refY="0.0"
       refX="0.0"
       orient="auto"
       id="DistanceX">
      <path
         id="path12"
         style="stroke:#000000; stroke-width:0.5"
         d="M 3,-3 L -3,3 M 0,-5 L  0,5" />
    </marker>
    <pattern
       y="0"
       x="0"
       width="8"
       patternUnits="userSpaceOnUse"
       id="Hatch"
       height="8">
      <path
         id="path15"
         stroke-width="0.25"
         stroke="#000000"
         linecap="square"
         d="M8 4 l-4,4" />
      <path
         id="path17"
         stroke-width="0.25"
         stroke="#000000"
         linecap="square"
         d="M6 2 l-4,4" />
      <path
         id="path19"
         stroke-width="0.25"
         stroke="#000000"
         linecap="square"
         d="M4 0 l-4,4" />
    </pattern>
    <symbol
       id="*Model_Space" />
    <symbol
       id="*Paper_Space" />
    <symbol
       id="*Paper_Space0" />
    <marker
       style="overflow:visible"
       refY="0.0"
       refX="0.0"
       orient="auto"
       id="DistanceX-0">
      <path
         id="path206"
         style="stroke:#000000; stroke-width:0.5"
         d="M 3,-3 L -3,3 M 0,-5 L  0,5" />
    </marker>
    <pattern
       y="0"
       x="0"
       width="8"
       patternUnits="userSpaceOnUse"
       id="Hatch-6"
       height="8">
      <path
         id="path209"
         stroke-width="0.25"
         stroke="#000000"
         linecap="square"
         d="M8 4 l-4,4" />
      <path
         id="path211"
         stroke-width="0.25"
         stroke="#000000"
         linecap="square"
         d="M6 2 l-4,4" />
      <path
         id="path213"
         stroke-width="0.25"
         stroke="#000000"
         linecap="square"
         d="M4 0 l-4,4" />
    </pattern>
    <symbol
       id="*Model_Space-2" />
    <symbol
       id="*Paper_Space-8" />
    <symbol
       id="*Paper_Space0-6" />
    <marker
       style="overflow:visible"
       refY="0.0"
       refX="0.0"
       orient="auto"
       id="DistanceX-1">
      <path
         id="path337"
         style="stroke:#000000; stroke-width:0.5"
         d="M 3,-3 L -3,3 M 0,-5 L  0,5" />
    </marker>
    <pattern
       y="0"
       x="0"
       width="8"
       patternUnits="userSpaceOnUse"
       id="Hatch-61"
       height="8">
      <path
         id="path340"
         stroke-width="0.25"
         stroke="#000000"
         linecap="square"
         d="M8 4 l-4,4" />
      <path
         id="path342"
         stroke-width="0.25"
         stroke="#000000"
         linecap="square"
         d="M6 2 l-4,4" />
      <path
         id="path344"
         stroke-width="0.25"
         stroke="#000000"
         linecap="square"
         d="M4 0 l-4,4" />
    </pattern>
    <symbol
       id="*Model_Space-1" />
    <symbol
       id="*Paper_Space-6" />
    <symbol
       id="*Paper_Space0-2" />
    <marker
       style="overflow:visible"
       refY="0.0"
       refX="0.0"
       orient="auto"
       id="DistanceX-5">
      <path
         id="path534"
         style="stroke:#000000; stroke-width:0.5"
         d="M 3,-3 L -3,3 M 0,-5 L  0,5" />
    </marker>
    <pattern
       y="0"
       x="0"
       width="8"
       patternUnits="userSpaceOnUse"
       id="Hatch-5"
       height="8">
      <path
         id="path537"
         stroke-width="0.25"
         stroke="#000000"
         linecap="square"
         d="M8 4 l-4,4" />
      <path
         id="path539"
         stroke-width="0.25"
         stroke="#000000"
         linecap="square"
         d="M6 2 l-4,4" />
      <path
         id="path541"
         stroke-width="0.25"
         stroke="#000000"
         linecap="square"
         d="M4 0 l-4,4" />
    </pattern>
    <symbol
       id="*Model_Space-28" />
    <symbol
       id="*Paper_Space-4" />
    <symbol
       id="*Paper_Space0-0" />
    <marker
       style="overflow:visible"
       refY="0.0"
       refX="0.0"
       orient="auto"
       id="DistanceX-8">
      <path
         id="path647"
         style="stroke:#000000; stroke-width:0.5"
         d="M 3,-3 L -3,3 M 0,-5 L  0,5" />
    </marker>
    <pattern
       y="0"
       x="0"
       width="8"
       patternUnits="userSpaceOnUse"
       id="Hatch-3"
       height="8">
      <path
         id="path650"
         stroke-width="0.25"
         stroke="#000000"
         linecap="square"
         d="M8 4 l-4,4" />
      <path
         id="path652"
         stroke-width="0.25"
         stroke="#000000"
         linecap="square"
         d="M6 2 l-4,4" />
      <path
         id="path654"
         stroke-width="0.25"
         stroke="#000000"
         linecap="square"
         d="M4 0 l-4,4" />
    </pattern>
    <symbol
       id="*Model_Space-10" />
    <symbol
       id="*Paper_Space-2" />
    <symbol
       id="*Paper_Space0-20" />
    <marker
       style="overflow:visible"
       refY="0.0"
       refX="0.0"
       orient="auto"
       id="DistanceX-18">
      <path
         id="path772"
         style="stroke:#000000; stroke-width:0.5"
         d="M 3,-3 L -3,3 M 0,-5 L  0,5" />
    </marker>
    <pattern
       y="0"
       x="0"
       width="8"
       patternUnits="userSpaceOnUse"
       id="Hatch-8"
       height="8">
      <path
         id="path775"
         stroke-width="0.25"
         stroke="#000000"
         linecap="square"
         d="M8 4 l-4,4" />
      <path
         id="path777"
         stroke-width="0.25"
         stroke="#000000"
         linecap="square"
         d="M6 2 l-4,4" />
      <path
         id="path779"
         stroke-width="0.25"
         stroke="#000000"
         linecap="square"
         d="M4 0 l-4,4" />
    </pattern>
    <symbol
       id="*Model_Space-9" />
    <symbol
       id="*Paper_Space-7" />
    <symbol
       id="*Paper_Space0-8" />
  </defs>
  <sodipodi:namedview
     id="base"
     pagecolor="#ffffff"
     bordercolor="#666666"
     borderopacity="1.0"
     inkscape:pageopacity="0.0"
     inkscape:pageshadow="2"
     inkscape:zoom="0.49497475"
     inkscape:cx="649.28953"
     inkscape:cy="795.03217"
     inkscape:document-units="mm"
     inkscape:current-layer="layer1"
     showgrid="false"
     units="in"
     inkscape:window-width="2880"
     inkscape:window-height="1526"
     inkscape:window-x="-11"
     inkscape:window-y="-11"
     inkscape:window-maximized="1" />
  <metadata
     id="metadata5">
    <rdf:RDF>
      <cc:Work
         rdf:about="">
        <dc:format>image/svg+xml</dc:format>
        <dc:type
           rdf:resource="http://purl.org/dc/dcmitype/StillImage" />
        <dc:title></dc:title>
      </cc:Work>
    </rdf:RDF>
  </metadata>
  <g
     inkscape:label="Calque 1"
     inkscape:groupmode="layer"
     id="layer1"
     transform="translate(0,160.20002)">
    <g
       id="g1328"
       transform="translate(101.02788,-261.3896)"
       style="stroke:#ff0000;stroke-opacity:1;stroke-width:0.0254;stroke-miterlimit:4;stroke-dasharray:none">
      <path
         id="path352"
         style="fill:none;stroke:#ff0000;stroke-width:0.0254;stroke-linecap:round;stroke-opacity:1;stroke-miterlimit:4;stroke-dasharray:none"
         d="m 17.815476,121.79539 v -5.14462"
         inkscape:connector-curvature="0" />
      <path
         id="path354"
         style="fill:none;stroke:#ff0000;stroke-width:0.0254;stroke-linecap:round;stroke-opacity:1;stroke-miterlimit:4;stroke-dasharray:none"
         d="m 17.815476,121.79539 a 1.9999999,1.9999999 0 0 0 2,2"
         inkscape:connector-curvature="0" />
      <path
         id="path356"
         style="fill:none;stroke:#ff0000;stroke-width:0.0254;stroke-linecap:round;stroke-opacity:1;stroke-miterlimit:4;stroke-dasharray:none"
         d="M 26.282497,123.79539 H 19.815476"
         inkscape:connector-curvature="0" />
      <path
         id="path358"
         style="fill:none;stroke:#ff0000;stroke-width:0.0254;stroke-linecap:round;stroke-opacity:1;stroke-miterlimit:4;stroke-dasharray:none"
         d="m 26.282497,123.79539 a 5,5 0 0 0 4.322562,-2.48695"
         inkscape:connector-curvature="0" />
      <path
         id="path360"
         style="fill:none;stroke:#ff0000;stroke-width:0.0254;stroke-linecap:round;stroke-opacity:1;stroke-miterlimit:4;stroke-dasharray:none"
         d="m 38.807803,129.51118 a 5.9999998,5.9999998 0 1 0 -8.202744,-8.20274"
         inkscape:connector-curvature="0" />
      <path
         id="path362"
         style="fill:none;stroke:#ff0000;stroke-width:0.0254;stroke-linecap:round;stroke-opacity:1;stroke-miterlimit:4;stroke-dasharray:none"
         d="m 38.807803,129.51118 a 5,5 0 0 0 -2.486943,4.32257"
         inkscape:connector-curvature="0" />
      <path
         id="path364"
         style="fill:none;stroke:#ff0000;stroke-width:0.0254;stroke-linecap:round;stroke-opacity:1;stroke-miterlimit:4;stroke-dasharray:none"
         d="M 36.32086,169.76779 V 133.83375"
         inkscape:connector-curvature="0" />
      <path
         id="path366"
         style="fill:none;stroke:#ff0000;stroke-width:0.0254;stroke-linecap:round;stroke-opacity:1;stroke-miterlimit:4;stroke-dasharray:none"
         d="m 36.32086,169.76779 a 5,5 0 0 0 2.486943,4.32256"
         inkscape:connector-curvature="0" />
      <path
         id="path368"
         style="fill:none;stroke:#ff0000;stroke-width:0.0254;stroke-linecap:round;stroke-opacity:1;stroke-miterlimit:4;stroke-dasharray:none"
         d="m 30.605059,182.2931 a 5.9999998,5.9999998 0 1 0 8.202744,-8.20275"
         inkscape:connector-curvature="0" />
      <path
         id="path370"
         style="fill:none;stroke:#ff0000;stroke-width:0.0254;stroke-linecap:round;stroke-opacity:1;stroke-miterlimit:4;stroke-dasharray:none"
         d="m 30.605059,182.2931 a 5,5 0 0 0 -4.322562,-2.48695"
         inkscape:connector-curvature="0" />
      <path
         id="path372"
         style="fill:none;stroke:#ff0000;stroke-width:0.0254;stroke-linecap:round;stroke-opacity:1;stroke-miterlimit:4;stroke-dasharray:none"
         d="M -9.6515443,179.80615 H 26.282497"
         inkscape:connector-curvature="0" />
      <path
         id="path374"
         style="fill:none;stroke:#ff0000;stroke-width:0.0254;stroke-linecap:round;stroke-opacity:1;stroke-miterlimit:4;stroke-dasharray:none"
         d="m -9.6515443,179.80615 a 5,5 0 0 0 -4.3225627,2.48695"
         inkscape:connector-curvature="0" />
      <path
         id="path376"
         style="fill:none;stroke:#ff0000;stroke-width:0.0254;stroke-linecap:round;stroke-opacity:1;stroke-miterlimit:4;stroke-dasharray:none"
         d="m -22.17685,174.09035 a 5.9999998,5.9999998 0 1 0 8.202743,8.20275"
         inkscape:connector-curvature="0" />
      <path
         id="path378"
         style="fill:none;stroke:#ff0000;stroke-width:0.0254;stroke-linecap:round;stroke-opacity:1;stroke-miterlimit:4;stroke-dasharray:none"
         d="m -22.17685,174.09035 a 5,5 0 0 0 2.486943,-4.32256"
         inkscape:connector-curvature="0" />
      <path
         id="path380"
         style="fill:none;stroke:#ff0000;stroke-width:0.0254;stroke-linecap:round;stroke-opacity:1;stroke-miterlimit:4;stroke-dasharray:none"
         d="m -19.689907,133.83375 v 35.93404"
         inkscape:connector-curvature="0" />
      <path
         id="path382"
         style="fill:none;stroke:#ff0000;stroke-width:0.0254;stroke-linecap:round;stroke-opacity:1;stroke-miterlimit:4;stroke-dasharray:none"
         d="m -19.689907,133.83375 a 5,5 0 0 0 -2.486943,-4.32257"
         inkscape:connector-curvature="0" />
      <path
         id="path384"
         style="fill:none;stroke:#ff0000;stroke-width:0.0254;stroke-linecap:round;stroke-opacity:1;stroke-miterlimit:4;stroke-dasharray:none"
         d="m -13.974107,121.30844 a 5.9999998,5.9999998 0 1 0 -8.202743,8.20274"
         inkscape:connector-curvature="0" />
      <path
         id="path386"
         style="fill:none;stroke:#ff0000;stroke-width:0.0254;stroke-linecap:round;stroke-opacity:1;stroke-miterlimit:4;stroke-dasharray:none"
         d="m -13.974107,121.30844 a 5,5 0 0 0 4.3225627,2.48695"
         inkscape:connector-curvature="0" />
      <path
         id="path388"
         style="fill:none;stroke:#ff0000;stroke-width:0.0254;stroke-linecap:round;stroke-opacity:1;stroke-miterlimit:4;stroke-dasharray:none"
         d="M -3.1845237,123.79539 H -9.6515443"
         inkscape:connector-curvature="0" />
      <path
         id="path390"
         style="fill:none;stroke:#ff0000;stroke-width:0.0254;stroke-linecap:round;stroke-opacity:1;stroke-miterlimit:4;stroke-dasharray:none"
         d="m -3.1845237,123.79539 a 1.9999999,1.9999999 0 0 0 2,-2"
         inkscape:connector-curvature="0" />
      <path
         id="path392"
         style="fill:none;stroke:#ff0000;stroke-width:0.0254;stroke-linecap:round;stroke-opacity:1;stroke-miterlimit:4;stroke-dasharray:none"
         d="m -1.1845237,116.65077 v 5.14462"
         inkscape:connector-curvature="0" />
      <path
         id="path394"
         style="fill:none;stroke:#ff0000;stroke-width:0.0254;stroke-linecap:round;stroke-opacity:1;stroke-miterlimit:4;stroke-dasharray:none"
         d="m 0.81547621,114.65077 a 1.9999999,1.9999999 0 0 0 -1.99999991,2"
         inkscape:connector-curvature="0" />
      <path
         id="path396"
         style="fill:none;stroke:#ff0000;stroke-width:0.0254;stroke-linecap:round;stroke-opacity:1;stroke-miterlimit:4;stroke-dasharray:none"
         d="M 15.815476,114.65077 H 0.81547621"
         inkscape:connector-curvature="0" />
      <path
         id="path398"
         style="fill:none;stroke:#ff0000;stroke-width:0.0254;stroke-linecap:round;stroke-opacity:1;stroke-miterlimit:4;stroke-dasharray:none"
         d="m 17.815476,116.65077 a 1.9999999,1.9999999 0 0 0 -2,-2"
         inkscape:connector-curvature="0" />
      <path
         id="path400"
         style="fill:none;stroke:#ff0000;stroke-width:0.0254;stroke-linecap:round;stroke-opacity:1;stroke-miterlimit:4;stroke-dasharray:none"
         d="m 11.565476,292.80077 a 3.2500001,3.2500001 0 1 0 -6.4999999,0 3.2500001,3.2500001 0 1 0 6.4999999,0 z"
         inkscape:connector-curvature="0" />
      <path
         id="path402"
         style="fill:none;stroke:#ff0000;stroke-width:0.0254;stroke-linecap:round;stroke-opacity:1;stroke-miterlimit:4;stroke-dasharray:none"
         d="m -37.453762,207.80077 a 3.2500001,3.2500001 0 1 0 -6.499998,0 3.2500001,3.2500001 0 1 0 6.499998,0 z"
         inkscape:connector-curvature="0" />
      <path
         id="path404"
         style="fill:none;stroke:#ff0000;stroke-width:0.0254;stroke-linecap:round;stroke-opacity:1;stroke-miterlimit:4;stroke-dasharray:none"
         d="m 60.584712,207.80077 a 3.2500001,3.2500001 0 1 0 -6.499997,0 3.2500001,3.2500001 0 1 0 6.499997,0 z"
         inkscape:connector-curvature="0" />
      <path
         id="path406"
         style="fill:none;stroke:#ff0000;stroke-width:0.0254;stroke-linecap:round;stroke-opacity:1;stroke-miterlimit:4;stroke-dasharray:none"
         d="m 102.44047,182.69714 a 1.6249999,1.6249999 0 1 0 -3.249994,0 1.6249999,1.6249999 0 1 0 3.249994,0 z"
         inkscape:connector-curvature="0" />
      <path
         id="path408"
         style="fill:none;stroke:#ff0000;stroke-width:0.0254;stroke-linecap:round;stroke-opacity:1;stroke-miterlimit:4;stroke-dasharray:none"
         d="m 84.940475,213.00803 a 1.6250007,1.6250007 0 1 0 -3.250001,0 1.6250007,1.6250007 0 1 0 3.250001,0 z"
         inkscape:connector-curvature="0" />
      <path
         id="path410"
         style="fill:none;stroke:#ff0000;stroke-width:0.0254;stroke-linecap:round;stroke-opacity:1;stroke-miterlimit:4;stroke-dasharray:none"
         d="m 67.440476,182.69714 a 1.6250007,1.6250007 0 1 0 -3.250001,0 1.6250007,1.6250007 0 1 0 3.250001,0 z"
         inkscape:connector-curvature="0" />
      <path
         id="path412"
         style="fill:none;stroke:#ff0000;stroke-width:0.0254;stroke-linecap:round;stroke-opacity:1;stroke-miterlimit:4;stroke-dasharray:none"
         d="m -82.559523,182.69714 a 1.6249999,1.6249999 0 1 0 -3.249999,0 1.6249999,1.6249999 0 1 0 3.249999,0 z"
         inkscape:connector-curvature="0" />
      <path
         id="path414"
         style="fill:none;stroke:#ff0000;stroke-width:0.0254;stroke-linecap:round;stroke-opacity:1;stroke-miterlimit:4;stroke-dasharray:none"
         d="m -65.059522,213.00803 a 1.6250007,1.6250007 0 1 0 -3.250001,0 1.6250007,1.6250007 0 1 0 3.250001,0 z"
         inkscape:connector-curvature="0" />
      <path
         id="path416"
         style="fill:none;stroke:#ff0000;stroke-width:0.0254;stroke-linecap:round;stroke-opacity:1;stroke-miterlimit:4;stroke-dasharray:none"
         d="m -47.559522,182.69714 a 1.625001,1.625001 0 1 0 -3.250002,0 1.625001,1.625001 0 1 0 3.250002,0 z"
         inkscape:connector-curvature="0" />
      <path
         id="path418"
         style="fill:none;stroke:#ff0000;stroke-width:0.0254;stroke-linecap:round;stroke-opacity:1;stroke-miterlimit:4;stroke-dasharray:none"
         d="m -52.184524,192.80077 a 14.5,14.5 0 1 0 -29,0 14.5,14.5 0 1 0 29,0 z"
         inkscape:connector-curvature="0" />
      <path
         id="path420"
         style="fill:none;stroke:#ff0000;stroke-width:0.0254;stroke-linecap:round;stroke-opacity:1;stroke-miterlimit:4;stroke-dasharray:none"
         d="m 13.415476,192.80077 a 5.1000001,5.1000001 0 1 0 -10.1999999,0 5.1000001,5.1000001 0 1 0 10.1999999,0 z"
         inkscape:connector-curvature="0" />
      <path
         id="path422"
         style="fill:none;stroke:#ff0000;stroke-width:0.0254;stroke-linecap:round;stroke-opacity:1;stroke-miterlimit:4;stroke-dasharray:none"
         d="m 14.315476,257.65077 a 5.9999998,5.9999998 0 1 0 -11.9999996,0 5.9999998,5.9999998 0 1 0 11.9999996,0 z"
         inkscape:connector-curvature="0" />
      <path
         id="path424"
         style="fill:none;stroke:#ff0000;stroke-width:0.0254;stroke-linecap:round;stroke-opacity:1;stroke-miterlimit:4;stroke-dasharray:none"
         d="m 97.815476,192.80077 a 14.5,14.5 0 1 0 -29,0 14.5,14.5 0 1 0 29,0 z"
         inkscape:connector-curvature="0" />
      <path
         id="path426"
         style="fill:none;stroke:#ff0000;stroke-width:0.0254;stroke-linecap:round;stroke-opacity:1;stroke-miterlimit:4;stroke-dasharray:none"
         d="m 28.215476,322.80076 a 19.9,19.9 0 1 0 -39.799999,0 19.9,19.9 0 1 0 39.799999,0 z"
         inkscape:connector-curvature="0" />
      <path
         id="path428"
         style="fill:none;stroke:#ff0000;stroke-width:0.0254;stroke-linecap:round;stroke-opacity:1;stroke-miterlimit:4;stroke-dasharray:none"
         d="m -66.684524,162.80077 a 30,30 0 0 0 -25.985567,44.99167"
         inkscape:connector-curvature="0" />
      <path
         id="path430"
         style="fill:none;stroke:#ff0000;stroke-width:0.0254;stroke-linecap:round;stroke-opacity:1;stroke-miterlimit:4;stroke-dasharray:none"
         d="m -92.670091,207.79244 75,130.00001"
         inkscape:connector-curvature="0" />
      <path
         id="path432"
         style="fill:none;stroke:#ff0000;stroke-width:0.0254;stroke-linecap:round;stroke-opacity:1;stroke-miterlimit:4;stroke-dasharray:none"
         d="m -17.670091,337.79245 a 30,30 0 0 0 51.971135,0"
         inkscape:connector-curvature="0" />
      <path
         id="path434"
         style="fill:none;stroke:#ff0000;stroke-width:0.0254;stroke-linecap:round;stroke-opacity:1;stroke-miterlimit:4;stroke-dasharray:none"
         d="M 34.301044,337.79245 109.30104,207.79244"
         inkscape:connector-curvature="0" />
      <path
         id="path436"
         style="fill:none;stroke:#ff0000;stroke-width:0.0254;stroke-linecap:round;stroke-opacity:1;stroke-miterlimit:4;stroke-dasharray:none"
         d="M 109.30104,207.79244 A 30,30 0 0 0 83.315476,162.80077"
         inkscape:connector-curvature="0" />
      <path
         id="path438"
         style="fill:none;stroke:#ff0000;stroke-width:0.0254;stroke-linecap:round;stroke-opacity:1;stroke-miterlimit:4;stroke-dasharray:none"
         d="M 83.315476,162.80077 H 73.315475"
         inkscape:connector-curvature="0" />
      <path
         id="path440"
         style="fill:none;stroke:#ff0000;stroke-width:0.0254;stroke-linecap:round;stroke-opacity:1;stroke-miterlimit:4;stroke-dasharray:none"
         d="m 48.315475,137.80077 a 25,25 0 0 0 25,25"
         inkscape:connector-curvature="0" />
      <path
         id="path442"
         style="fill:none;stroke:#ff0000;stroke-width:0.0254;stroke-linecap:round;stroke-opacity:1;stroke-miterlimit:4;stroke-dasharray:none"
         d="m 48.315475,137.80077 v -20"
         inkscape:connector-curvature="0" />
      <path
         id="path444"
         style="fill:none;stroke:#ff0000;stroke-width:0.0254;stroke-linecap:round;stroke-opacity:1;stroke-miterlimit:4;stroke-dasharray:none"
         d="m 48.315475,117.80077 a 10,10 0 0 0 -9.999998,-10"
         inkscape:connector-curvature="0" />
      <path
         id="path446"
         style="fill:none;stroke:#ff0000;stroke-width:0.0254;stroke-linecap:round;stroke-opacity:1;stroke-miterlimit:4;stroke-dasharray:none"
         d="M 38.315477,107.80077 H -21.684524"
         inkscape:connector-curvature="0" />
      <path
         id="path448"
         style="fill:none;stroke:#ff0000;stroke-width:0.0254;stroke-linecap:round;stroke-opacity:1;stroke-miterlimit:4;stroke-dasharray:none"
         d="m -21.684524,107.80077 a 10,10 0 0 0 -9.999999,10"
         inkscape:connector-curvature="0" />
      <path
         id="path450"
         style="fill:none;stroke:#ff0000;stroke-width:0.0254;stroke-linecap:round;stroke-opacity:1;stroke-miterlimit:4;stroke-dasharray:none"
         d="m -31.684523,117.80077 v 20"
         inkscape:connector-curvature="0" />
      <path
         id="path452"
         style="fill:none;stroke:#ff0000;stroke-width:0.0254;stroke-linecap:round;stroke-opacity:1;stroke-miterlimit:4;stroke-dasharray:none"
         d="m -56.684523,162.80077 a 25,25 0 0 0 25,-25"
         inkscape:connector-curvature="0" />
      <path
         id="path454"
         style="fill:none;stroke:#ff0000;stroke-width:0.0254;stroke-linecap:round;stroke-opacity:1;stroke-miterlimit:4;stroke-dasharray:none"
         d="M -56.684523,162.80077 H -66.684524"
         inkscape:connector-curvature="0" />
    </g>
    <g
       id="g1050"
       transform="translate(-73.76639,-248.02612)"
       style="stroke:#ff0000;stroke-opacity:1;stroke-width:0.0254;stroke-miterlimit:4;stroke-dasharray:none">
      <path
         id="path549"
         style="fill:none;stroke:#ff0000;stroke-width:0.0254;stroke-linecap:round;stroke-opacity:1;stroke-miterlimit:4;stroke-dasharray:none"
         d="m 375.93452,223.72339 a 3.2500001,3.2500001 0 1 0 -6.5,0 3.2500001,3.2500001 0 1 0 6.5,0 z"
         inkscape:connector-curvature="0" />
      <path
         id="path551"
         style="fill:none;stroke:#ff0000;stroke-width:0.0254;stroke-linecap:round;stroke-opacity:1;stroke-miterlimit:4;stroke-dasharray:none"
         d="m 326.91528,138.72339 a 3.2500001,3.2500001 0 1 0 -6.5,0 3.2500001,3.2500001 0 1 0 6.5,0 z"
         inkscape:connector-curvature="0" />
      <path
         id="path553"
         style="fill:none;stroke:#ff0000;stroke-width:0.0254;stroke-linecap:round;stroke-opacity:1;stroke-miterlimit:4;stroke-dasharray:none"
         d="m 368.83452,129.32339 a 1.75,1.75 0 1 0 -3.5,0 1.75,1.75 0 1 0 3.5,0 z"
         inkscape:connector-curvature="0" />
      <path
         id="path555"
         style="fill:none;stroke:#ff0000;stroke-width:0.0254;stroke-linecap:round;stroke-opacity:1;stroke-miterlimit:4;stroke-dasharray:none"
         d="m 424.95376,138.72339 a 3.2500001,3.2500001 0 1 0 -6.5,0 3.2500001,3.2500001 0 1 0 6.5,0 z"
         inkscape:connector-curvature="0" />
      <path
         id="path557"
         style="fill:none;stroke:#ff0000;stroke-width:0.0254;stroke-linecap:round;stroke-opacity:1;stroke-miterlimit:4;stroke-dasharray:none"
         d="m 380.03452,129.32339 a 1.75,1.75 0 1 0 -3.5,0 1.75,1.75 0 1 0 3.5,0 z"
         inkscape:connector-curvature="0" />
      <path
         id="path559"
         style="fill:none;stroke:#ff0000;stroke-width:0.0254;stroke-linecap:round;stroke-opacity:1;stroke-miterlimit:4;stroke-dasharray:none"
         d="m 380.03452,118.12339 a 1.75,1.75 0 1 0 -3.5,0 1.75,1.75 0 1 0 3.5,0 z"
         inkscape:connector-curvature="0" />
      <path
         id="path561"
         style="fill:none;stroke:#ff0000;stroke-width:0.0254;stroke-linecap:round;stroke-opacity:1;stroke-miterlimit:4;stroke-dasharray:none"
         d="m 368.83452,118.12339 a 1.75,1.75 0 1 0 -3.5,0 1.75,1.75 0 1 0 3.5,0 z"
         inkscape:connector-curvature="0" />
      <path
         id="path563"
         style="fill:none;stroke:#ff0000;stroke-width:0.0254;stroke-linecap:round;stroke-opacity:1;stroke-miterlimit:4;stroke-dasharray:none"
         d="m 466.80952,113.61976 a 1.625,1.625 0 1 0 -3.25,0 1.625,1.625 0 1 0 3.25,0 z"
         inkscape:connector-curvature="0" />
      <path
         id="path565"
         style="fill:none;stroke:#ff0000;stroke-width:0.0254;stroke-linecap:round;stroke-opacity:1;stroke-miterlimit:4;stroke-dasharray:none"
         d="m 449.30952,143.93064 a 1.6250007,1.6250007 0 1 0 -3.25,0 1.6250007,1.6250007 0 1 0 3.25,0 z"
         inkscape:connector-curvature="0" />
      <path
         id="path567"
         style="fill:none;stroke:#ff0000;stroke-width:0.0254;stroke-linecap:round;stroke-opacity:1;stroke-miterlimit:4;stroke-dasharray:none"
         d="m 431.80952,113.61976 a 1.6250007,1.6250007 0 1 0 -3.25,0 1.6250007,1.6250007 0 1 0 3.25,0 z"
         inkscape:connector-curvature="0" />
      <path
         id="path569"
         style="fill:none;stroke:#ff0000;stroke-width:0.0254;stroke-linecap:round;stroke-opacity:1;stroke-miterlimit:4;stroke-dasharray:none"
         d="m 281.80952,113.61976 a 1.625,1.625 0 1 0 -3.25,0 1.625,1.625 0 1 0 3.25,0 z"
         inkscape:connector-curvature="0" />
      <path
         id="path571"
         style="fill:none;stroke:#ff0000;stroke-width:0.0254;stroke-linecap:round;stroke-opacity:1;stroke-miterlimit:4;stroke-dasharray:none"
         d="m 299.30952,143.93064 a 1.6250007,1.6250007 0 1 0 -3.25,0 1.6250007,1.6250007 0 1 0 3.25,0 z"
         inkscape:connector-curvature="0" />
      <path
         id="path573"
         style="fill:none;stroke:#ff0000;stroke-width:0.0254;stroke-linecap:round;stroke-opacity:1;stroke-miterlimit:4;stroke-dasharray:none"
         d="m 316.80952,113.61976 a 1.6250007,1.6250007 0 1 0 -3.25,0 1.6250007,1.6250007 0 1 0 3.25,0 z"
         inkscape:connector-curvature="0" />
      <path
         id="path575"
         style="fill:none;stroke:#ff0000;stroke-width:0.0254;stroke-linecap:round;stroke-opacity:1;stroke-miterlimit:4;stroke-dasharray:none"
         d="m 312.18452,123.72339 a 14.5,14.5 0 1 0 -29,0 14.5,14.5 0 1 0 29,0 z"
         inkscape:connector-curvature="0" />
      <path
         id="path577"
         style="fill:none;stroke:#ff0000;stroke-width:0.0254;stroke-linecap:round;stroke-opacity:1;stroke-miterlimit:4;stroke-dasharray:none"
         d="m 377.78452,123.72339 a 5.1000001,5.1000001 0 1 0 -10.2,0 5.1000001,5.1000001 0 1 0 10.2,0 z"
         inkscape:connector-curvature="0" />
      <path
         id="path579"
         style="fill:none;stroke:#ff0000;stroke-width:0.0254;stroke-linecap:round;stroke-opacity:1;stroke-miterlimit:4;stroke-dasharray:none"
         d="m 378.68452,188.57339 a 6,6 0 1 0 -12,0 6,6 0 1 0 12,0 z"
         inkscape:connector-curvature="0" />
      <path
         id="path581"
         style="fill:none;stroke:#ff0000;stroke-width:0.0254;stroke-linecap:round;stroke-opacity:1;stroke-miterlimit:4;stroke-dasharray:none"
         d="m 462.18452,123.72339 a 14.5,14.5 0 1 0 -29,0 14.5,14.5 0 1 0 29,0 z"
         inkscape:connector-curvature="0" />
      <path
         id="path583"
         style="fill:none;stroke:#ff0000;stroke-width:0.0254;stroke-linecap:round;stroke-opacity:1;stroke-miterlimit:4;stroke-dasharray:none"
         d="m 392.58452,253.72338 a 19.9,19.9 0 1 0 -39.8,0 19.9,19.9 0 1 0 39.8,0 z"
         inkscape:connector-curvature="0" />
      <path
         id="path585"
         style="fill:none;stroke:#ff0000;stroke-width:0.0254;stroke-linecap:round;stroke-opacity:1;stroke-miterlimit:4;stroke-dasharray:none"
         d="M 297.68452,93.723386 A 30,30 0 0 0 271.69895,138.71506"
         inkscape:connector-curvature="0" />
      <path
         id="path587"
         style="fill:none;stroke:#ff0000;stroke-width:0.0254;stroke-linecap:round;stroke-opacity:1;stroke-miterlimit:4;stroke-dasharray:none"
         d="m 271.69895,138.71506 75,130.00001"
         inkscape:connector-curvature="0" />
      <path
         id="path589"
         style="fill:none;stroke:#ff0000;stroke-width:0.0254;stroke-linecap:round;stroke-opacity:1;stroke-miterlimit:4;stroke-dasharray:none"
         d="m 346.69895,268.71507 a 30,30 0 0 0 51.97114,0"
         inkscape:connector-curvature="0" />
      <path
         id="path591"
         style="fill:none;stroke:#ff0000;stroke-width:0.0254;stroke-linecap:round;stroke-opacity:1;stroke-miterlimit:4;stroke-dasharray:none"
         d="m 398.67009,268.71507 75,-130.00001"
         inkscape:connector-curvature="0" />
      <path
         id="path593"
         style="fill:none;stroke:#ff0000;stroke-width:0.0254;stroke-linecap:round;stroke-opacity:1;stroke-miterlimit:4;stroke-dasharray:none"
         d="M 473.67009,138.71506 A 30,30 0 0 0 447.68452,93.723386"
         inkscape:connector-curvature="0" />
      <path
         id="path595"
         style="fill:none;stroke:#ff0000;stroke-width:0.0254;stroke-linecap:round;stroke-opacity:1;stroke-miterlimit:4;stroke-dasharray:none"
         d="m 447.68452,93.723386 h -150"
         inkscape:connector-curvature="0" />
    </g>
    <g
       id="g998"
       transform="translate(8.552626,-258.18237)"
       style="stroke:#ff0000;stroke-opacity:1;stroke-width:0.0254;stroke-miterlimit:4;stroke-dasharray:none">
      <path
         id="path662"
         style="fill:none;stroke:#ff0000;stroke-width:0.0254;stroke-linecap:round;stroke-opacity:1;stroke-miterlimit:4;stroke-dasharray:none"
         d="m 186.84087,309.93757 a 2.0000001,2.0000001 0 1 0 -4,0 2.0000001,2.0000001 0 1 0 4,0 z"
         inkscape:connector-curvature="0" />
      <path
         id="path664"
         style="fill:none;stroke:#ff0000;stroke-width:0.0254;stroke-linecap:round;stroke-opacity:1;stroke-miterlimit:4;stroke-dasharray:none"
         d="m 241.79419,309.93757 a 2.0000001,2.0000001 0 1 0 -4,0 2.0000001,2.0000001 0 1 0 4,0 z"
         inkscape:connector-curvature="0" />
      <path
         id="path666"
         style="fill:none;stroke:#ff0000;stroke-width:0.0254;stroke-linecap:round;stroke-opacity:1;stroke-miterlimit:4;stroke-dasharray:none"
         d="m 241.79419,254.98425 a 2.0000001,2.0000001 0 1 0 -4,0 2.0000001,2.0000001 0 1 0 4,0 z"
         inkscape:connector-curvature="0" />
      <path
         id="path668"
         style="fill:none;stroke:#ff0000;stroke-width:0.0254;stroke-linecap:round;stroke-opacity:1;stroke-miterlimit:4;stroke-dasharray:none"
         d="m 186.84087,254.98425 a 2.0000001,2.0000001 0 1 0 -4,0 2.0000001,2.0000001 0 1 0 4,0 z"
         inkscape:connector-curvature="0" />
      <path
         id="path670"
         style="fill:none;stroke:#ff0000;stroke-width:0.0254;stroke-linecap:round;stroke-opacity:1;stroke-miterlimit:4;stroke-dasharray:none"
         d="m 181.8252,304.75049 a 5.9999998,5.9999998 0 1 0 8.20275,8.20275"
         inkscape:connector-curvature="0" />
      <path
         id="path672"
         style="fill:none;stroke:#ff0000;stroke-width:0.0254;stroke-linecap:round;stroke-opacity:1;stroke-miterlimit:4;stroke-dasharray:none"
         d="m 194.35051,310.46629 a 5,5 0 0 0 -4.32256,2.48695"
         inkscape:connector-curvature="0" />
      <path
         id="path674"
         style="fill:none;stroke:#ff0000;stroke-width:0.0254;stroke-linecap:round;stroke-opacity:1;stroke-miterlimit:4;stroke-dasharray:none"
         d="m 194.35051,310.46629 h 35.93404"
         inkscape:connector-curvature="0" />
      <path
         id="path676"
         style="fill:none;stroke:#ff0000;stroke-width:0.0254;stroke-linecap:round;stroke-opacity:1;stroke-miterlimit:4;stroke-dasharray:none"
         d="m 234.60711,312.95324 a 5,5 0 0 0 -4.32256,-2.48695"
         inkscape:connector-curvature="0" />
      <path
         id="path678"
         style="fill:none;stroke:#ff0000;stroke-width:0.0254;stroke-linecap:round;stroke-opacity:1;stroke-miterlimit:4;stroke-dasharray:none"
         d="m 234.60711,312.95324 a 5.9999998,5.9999998 0 1 0 8.20275,-8.20275"
         inkscape:connector-curvature="0" />
      <path
         id="path680"
         style="fill:none;stroke:#ff0000;stroke-width:0.0254;stroke-linecap:round;stroke-opacity:1;stroke-miterlimit:4;stroke-dasharray:none"
         d="m 240.32291,300.42791 a 5,5 0 0 0 2.48695,4.32258"
         inkscape:connector-curvature="0" />
      <path
         id="path682"
         style="fill:none;stroke:#ff0000;stroke-width:0.0254;stroke-linecap:round;stroke-opacity:1;stroke-miterlimit:4;stroke-dasharray:none"
         d="M 240.32291,300.42791 V 264.49387"
         inkscape:connector-curvature="0" />
      <path
         id="path684"
         style="fill:none;stroke:#ff0000;stroke-width:0.0254;stroke-linecap:round;stroke-opacity:1;stroke-miterlimit:4;stroke-dasharray:none"
         d="m 242.80986,260.17132 a 5,5 0 0 0 -2.48695,4.32255"
         inkscape:connector-curvature="0" />
      <path
         id="path686"
         style="fill:none;stroke:#ff0000;stroke-width:0.0254;stroke-linecap:round;stroke-opacity:1;stroke-miterlimit:4;stroke-dasharray:none"
         d="m 242.80986,260.17132 a 5.9999998,5.9999998 0 1 0 -8.20275,-8.20274"
         inkscape:connector-curvature="0" />
      <path
         id="path688"
         style="fill:none;stroke:#ff0000;stroke-width:0.0254;stroke-linecap:round;stroke-opacity:1;stroke-miterlimit:4;stroke-dasharray:none"
         d="m 230.28455,254.45553 a 5,5 0 0 0 4.32256,-2.48695"
         inkscape:connector-curvature="0" />
      <path
         id="path690"
         style="fill:none;stroke:#ff0000;stroke-width:0.0254;stroke-linecap:round;stroke-opacity:1;stroke-miterlimit:4;stroke-dasharray:none"
         d="M 230.28455,254.45553 H 194.35051"
         inkscape:connector-curvature="0" />
      <path
         id="path692"
         style="fill:none;stroke:#ff0000;stroke-width:0.0254;stroke-linecap:round;stroke-opacity:1;stroke-miterlimit:4;stroke-dasharray:none"
         d="m 190.02795,251.96858 a 5,5 0 0 0 4.32256,2.48695"
         inkscape:connector-curvature="0" />
      <path
         id="path694"
         style="fill:none;stroke:#ff0000;stroke-width:0.0254;stroke-linecap:round;stroke-opacity:1;stroke-miterlimit:4;stroke-dasharray:none"
         d="m 190.02795,251.96858 a 5.9999998,5.9999998 0 1 0 -8.20275,8.20274"
         inkscape:connector-curvature="0" />
      <path
         id="path696"
         style="fill:none;stroke:#ff0000;stroke-width:0.0254;stroke-linecap:round;stroke-opacity:1;stroke-miterlimit:4;stroke-dasharray:none"
         d="m 184.31215,264.49387 a 5,5 0 0 0 -2.48695,-4.32255"
         inkscape:connector-curvature="0" />
      <path
         id="path698"
         style="fill:none;stroke:#ff0000;stroke-width:0.0254;stroke-linecap:round;stroke-opacity:1;stroke-miterlimit:4;stroke-dasharray:none"
         d="m 184.31215,264.49387 v 35.93404"
         inkscape:connector-curvature="0" />
      <path
         id="path700"
         style="fill:none;stroke:#ff0000;stroke-width:0.0254;stroke-linecap:round;stroke-opacity:1;stroke-miterlimit:4;stroke-dasharray:none"
         d="m 181.8252,304.75049 a 5,5 0 0 0 2.48695,-4.32258"
         inkscape:connector-curvature="0" />
      <path
         id="path702"
         style="fill:none;stroke:#ff0000;stroke-width:0.0254;stroke-linecap:round;stroke-opacity:1;stroke-miterlimit:4;stroke-dasharray:none"
         d="M 195.33946,303.6109 H 229.2956"
         inkscape:connector-curvature="0" />
      <path
         id="path704"
         style="fill:none;stroke:#ff0000;stroke-width:0.0254;stroke-linecap:round;stroke-opacity:1;stroke-miterlimit:4;stroke-dasharray:none"
         d="m 191.16753,299.43898 4.17193,4.17192"
         inkscape:connector-curvature="0" />
      <path
         id="path706"
         style="fill:none;stroke:#ff0000;stroke-width:0.0254;stroke-linecap:round;stroke-opacity:1;stroke-miterlimit:4;stroke-dasharray:none"
         d="m 191.16753,265.48283 v 33.95615"
         inkscape:connector-curvature="0" />
      <path
         id="path708"
         style="fill:none;stroke:#ff0000;stroke-width:0.0254;stroke-linecap:round;stroke-opacity:1;stroke-miterlimit:4;stroke-dasharray:none"
         d="m 195.33946,261.31091 -4.17193,4.17192"
         inkscape:connector-curvature="0" />
      <path
         id="path710"
         style="fill:none;stroke:#ff0000;stroke-width:0.0254;stroke-linecap:round;stroke-opacity:1;stroke-miterlimit:4;stroke-dasharray:none"
         d="M 229.2956,261.31091 H 195.33946"
         inkscape:connector-curvature="0" />
      <path
         id="path712"
         style="fill:none;stroke:#ff0000;stroke-width:0.0254;stroke-linecap:round;stroke-opacity:1;stroke-miterlimit:4;stroke-dasharray:none"
         d="m 233.46753,265.48283 -4.17193,-4.17192"
         inkscape:connector-curvature="0" />
      <path
         id="path714"
         style="fill:none;stroke:#ff0000;stroke-width:0.0254;stroke-linecap:round;stroke-opacity:1;stroke-miterlimit:4;stroke-dasharray:none"
         d="M 233.46753,299.43898 V 265.48283"
         inkscape:connector-curvature="0" />
      <path
         id="path716"
         style="fill:none;stroke:#ff0000;stroke-width:0.0254;stroke-linecap:round;stroke-opacity:1;stroke-miterlimit:4;stroke-dasharray:none"
         d="m 229.2956,303.6109 4.17193,-4.17192"
         inkscape:connector-curvature="0" />
    </g>
    <g
       id="g938"
       transform="translate(-171.58703,-312.17081)"
       style="stroke:#ff0000;stroke-opacity:1;stroke-width:0.0254;stroke-miterlimit:4;stroke-dasharray:none">
      <path
         id="path787"
         style="fill:none;stroke:#ff0000;stroke-width:0.0254;stroke-linecap:round;stroke-opacity:1;stroke-miterlimit:4;stroke-dasharray:none"
         d="m 225.29522,417.7959 a 1.5,1.5 0 1 0 -3,0 1.5,1.5 0 1 0 3,0 z"
         inkscape:connector-curvature="0" />
      <path
         id="path789"
         style="fill:none;stroke:#ff0000;stroke-width:0.0254;stroke-linecap:round;stroke-opacity:1;stroke-miterlimit:4;stroke-dasharray:none"
         d="m 225.29522,386.79588 a 1.5,1.5 0 1 0 -3,0 1.5,1.5 0 1 0 3,0 z"
         inkscape:connector-curvature="0" />
      <path
         id="path791"
         style="fill:none;stroke:#ff0000;stroke-width:0.0254;stroke-linecap:round;stroke-opacity:1;stroke-miterlimit:4;stroke-dasharray:none"
         d="m 222.29522,402.29589 a 14,14 0 1 0 -28,0 14,14 0 1 0 28,0 z"
         inkscape:connector-curvature="0" />
      <path
         id="path793"
         style="fill:none;stroke:#ff0000;stroke-width:0.0254;stroke-linecap:round;stroke-opacity:1;stroke-miterlimit:4;stroke-dasharray:none"
         d="m 194.29522,386.79588 a 1.5,1.5 0 1 0 -3,0 1.5,1.5 0 1 0 3,0 z"
         inkscape:connector-curvature="0" />
      <path
         id="path795"
         style="fill:none;stroke:#ff0000;stroke-width:0.0254;stroke-linecap:round;stroke-opacity:1;stroke-miterlimit:4;stroke-dasharray:none"
         d="m 194.29522,417.7959 a 1.5,1.5 0 1 0 -3,0 1.5,1.5 0 1 0 3,0 z"
         inkscape:connector-curvature="0" />
      <path
         id="path797"
         style="fill:none;stroke:#ff0000;stroke-width:0.0254;stroke-linecap:round;stroke-opacity:1;stroke-miterlimit:4;stroke-dasharray:none"
         d="m 182.81856,429.77255 a 2.0000001,2.0000001 0 1 0 -4,0 2.0000001,2.0000001 0 1 0 4,0 z"
         inkscape:connector-curvature="0" />
      <path
         id="path799"
         style="fill:none;stroke:#ff0000;stroke-width:0.0254;stroke-linecap:round;stroke-opacity:1;stroke-miterlimit:4;stroke-dasharray:none"
         d="m 237.77188,374.81923 a 2.0000001,2.0000001 0 1 0 -4,0 2.0000001,2.0000001 0 1 0 4,0 z"
         inkscape:connector-curvature="0" />
      <path
         id="path801"
         style="fill:none;stroke:#ff0000;stroke-width:0.0254;stroke-linecap:round;stroke-opacity:1;stroke-miterlimit:4;stroke-dasharray:none"
         d="M 180.28984,384.32886 V 420.2629"
         inkscape:connector-curvature="0" />
      <path
         id="path803"
         style="fill:none;stroke:#ff0000;stroke-width:0.0254;stroke-linecap:round;stroke-opacity:1;stroke-miterlimit:4;stroke-dasharray:none"
         d="m 177.80289,424.58547 a 5,5 0 0 0 2.48695,-4.32257"
         inkscape:connector-curvature="0" />
      <path
         id="path805"
         style="fill:none;stroke:#ff0000;stroke-width:0.0254;stroke-linecap:round;stroke-opacity:1;stroke-miterlimit:4;stroke-dasharray:none"
         d="m 177.80289,424.58547 a 5.9999998,5.9999998 0 1 0 8.20275,8.20275"
         inkscape:connector-curvature="0" />
      <path
         id="path807"
         style="fill:none;stroke:#ff0000;stroke-width:0.0254;stroke-linecap:round;stroke-opacity:1;stroke-miterlimit:4;stroke-dasharray:none"
         d="m 190.3282,430.30127 a 5,5 0 0 0 -4.32256,2.48695"
         inkscape:connector-curvature="0" />
      <path
         id="path809"
         style="fill:none;stroke:#ff0000;stroke-width:0.0254;stroke-linecap:round;stroke-opacity:1;stroke-miterlimit:4;stroke-dasharray:none"
         d="m 190.3282,430.30127 h 35.93404"
         inkscape:connector-curvature="0" />
      <path
         id="path811"
         style="fill:none;stroke:#ff0000;stroke-width:0.0254;stroke-linecap:round;stroke-opacity:1;stroke-miterlimit:4;stroke-dasharray:none"
         d="m 230.5848,432.78822 a 5,5 0 0 0 -4.32256,-2.48695"
         inkscape:connector-curvature="0" />
      <path
         id="path813"
         style="fill:none;stroke:#ff0000;stroke-width:0.0254;stroke-linecap:round;stroke-opacity:1;stroke-miterlimit:4;stroke-dasharray:none"
         d="m 230.5848,432.78822 a 5.9999998,5.9999998 0 1 0 8.20275,-8.20275"
         inkscape:connector-curvature="0" />
      <path
         id="path815"
         style="fill:none;stroke:#ff0000;stroke-width:0.0254;stroke-linecap:round;stroke-opacity:1;stroke-miterlimit:4;stroke-dasharray:none"
         d="m 236.3006,420.2629 a 5,5 0 0 0 2.48695,4.32257"
         inkscape:connector-curvature="0" />
      <path
         id="path817"
         style="fill:none;stroke:#ff0000;stroke-width:0.0254;stroke-linecap:round;stroke-opacity:1;stroke-miterlimit:4;stroke-dasharray:none"
         d="M 236.3006,420.2629 V 384.32886"
         inkscape:connector-curvature="0" />
      <path
         id="path819"
         style="fill:none;stroke:#ff0000;stroke-width:0.0254;stroke-linecap:round;stroke-opacity:1;stroke-miterlimit:4;stroke-dasharray:none"
         d="m 238.78755,380.00631 a 5,5 0 0 0 -2.48695,4.32255"
         inkscape:connector-curvature="0" />
      <path
         id="path821"
         style="fill:none;stroke:#ff0000;stroke-width:0.0254;stroke-linecap:round;stroke-opacity:1;stroke-miterlimit:4;stroke-dasharray:none"
         d="m 238.78755,380.00631 a 5.9999998,5.9999998 0 1 0 -8.20275,-8.20275"
         inkscape:connector-curvature="0" />
      <path
         id="path823"
         style="fill:none;stroke:#ff0000;stroke-width:0.0254;stroke-linecap:round;stroke-opacity:1;stroke-miterlimit:4;stroke-dasharray:none"
         d="m 226.26224,374.29051 a 5,5 0 0 0 4.32256,-2.48695"
         inkscape:connector-curvature="0" />
      <path
         id="path825"
         style="fill:none;stroke:#ff0000;stroke-width:0.0254;stroke-linecap:round;stroke-opacity:1;stroke-miterlimit:4;stroke-dasharray:none"
         d="M 226.26224,374.29051 H 190.3282"
         inkscape:connector-curvature="0" />
      <path
         id="path827"
         style="fill:none;stroke:#ff0000;stroke-width:0.0254;stroke-linecap:round;stroke-opacity:1;stroke-miterlimit:4;stroke-dasharray:none"
         d="m 186.00564,371.80356 a 5,5 0 0 0 4.32256,2.48695"
         inkscape:connector-curvature="0" />
      <path
         id="path829"
         style="fill:none;stroke:#ff0000;stroke-width:0.0254;stroke-linecap:round;stroke-opacity:1;stroke-miterlimit:4;stroke-dasharray:none"
         d="m 186.00564,371.80356 a 5.9999998,5.9999998 0 1 0 -8.20275,8.20275"
         inkscape:connector-curvature="0" />
      <path
         id="path831"
         style="fill:none;stroke:#ff0000;stroke-width:0.0254;stroke-linecap:round;stroke-opacity:1;stroke-miterlimit:4;stroke-dasharray:none"
         d="m 180.28984,384.32886 a 5,5 0 0 0 -2.48695,-4.32255"
         inkscape:connector-curvature="0" />
      <path
         id="path833"
         style="fill:none;stroke:#ff0000;stroke-width:0.0254;stroke-linecap:round;stroke-opacity:1;stroke-miterlimit:4;stroke-dasharray:none"
         d="m 182.81856,374.81923 a 2.0000001,2.0000001 0 1 0 -4,0 2.0000001,2.0000001 0 1 0 4,0 z"
         inkscape:connector-curvature="0" />
      <path
         id="path835"
         style="fill:none;stroke:#ff0000;stroke-width:0.0254;stroke-linecap:round;stroke-opacity:1;stroke-miterlimit:4;stroke-dasharray:none"
         d="m 237.77188,429.77255 a 2.0000001,2.0000001 0 1 0 -4,0 2.0000001,2.0000001 0 1 0 4,0 z"
         inkscape:connector-curvature="0" />
    </g>
  </g>
</svg>
