  0
SECTION
  2
HEADER
  9
$ACADVER
  1
AC1015
  9
$ACADMAINTVER
 70
     6
  9
$DWGCODEPAGE
  3
ANSI_1252
  9
$INSBASE
 10
0.0
 20
0.0
 30
0.0
  9
$EXTMIN
 10
-82.675
 20
-23.175
 30
0.0
  9
$EXTMAX
 10
82.675
 20
23.175
 30
0.0
  9
$LIMMIN
 10
0.0
 20
0.0
  9
$LIMMAX
 10
420.0
 20
297.0
  9
$ORTHOMODE
 70
     0
  9
$REGENMODE
 70
     1
  9
$FILLMODE
 70
     1
  9
$QTEXTMODE
 70
     0
  9
$MIRRTEXT
 70
     1
  9
$LTSCALE
 40
1.0
  9
$ATTMODE
 70
     1
  9
$TEXTSIZE
 40
3.5
  9
$TRACEWID
 40
1.0
  9
$TEXTSTYLE
  7
Standard
  9
$CLAYER
  8
0
  9
$CELTYPE
  6
ByLayer
  9
$CECOLOR
 62
   256
  9
$CELTSCALE
 40
1.0
  9
$DISPSILH
 70
     0
  9
$DIMSCALE
 40
1.0
  9
$DIMASZ
 40
3.302
  9
$DIMEXO
 40
0.0
  9
$DIMDLI
 40
3.75
  9
$DIMRND
 40
0.0
  9
$DIMDLE
 40
0.0
  9
$DIMEXE
 40
1.0
  9
$DIMTP
 40
0.0
  9
$DIMTM
 40
0.0
  9
$DIMTXT
 40
3.5
  9
$DIMCEN
 40
2.5
  9
$DIMTSZ
 40
0.0
  9
$DIMTOL
 70
     0
  9
$DIMLIM
 70
     0
  9
$DIMTIH
 70
     1
  9
$DIMTOH
 70
     1
  9
$DIMSE1
 70
     0
  9
$DIMSE2
 70
     0
  9
$DIMTAD
 70
     1
  9
$DIMZIN
 70
     1
  9
$DIMBLK
  1

  9
$DIMASO
 70
     1
  9
$DIMSHO
 70
     1
  9
$DIMPOST
  1

  9
$DIMAPOST
  1

  9
$DIMALT
 70
     0
  9
$DIMALTD
 70
     3
  9
$DIMALTF
 40
0.0393700787
  9
$DIMLFAC
 40
1.0
  9
$DIMTOFL
 70
     1
  9
$DIMTVP
 40
0.0
  9
$DIMTIX
 70
     0
  9
$DIMSOXD
 70
     0
  9
$DIMSAH
 70
     0
  9
$DIMBLK1
  1

  9
$DIMBLK2
  1

  9
$DIMSTYLE
  2
ISO-25
  9
$DIMCLRD
 70
     0
  9
$DIMCLRE
 70
     0
  9
$DIMCLRT
 70
     0
  9
$DIMTFAC
 40
1.0
  9
$DIMGAP
 40
1.524
  9
$DIMJUST
 70
     0
  9
$DIMSD1
 70
     0
  9
$DIMSD2
 70
     0
  9
$DIMTOLJ
 70
     0
  9
$DIMTZIN
 70
     1
  9
$DIMALTZ
 70
     0
  9
$DIMALTTZ
 70
     0
  9
$DIMUPT
 70
     0
  9
$DIMDEC
 70
     2
  9
$DIMTDEC
 70
     2
  9
$DIMALTU
 70
     2
  9
$DIMALTTD
 70
     3
  9
$DIMTXSTY
  7
Standard
  9
$DIMAUNIT
 70
     0
  9
$DIMADEC
 70
     2
  9
$DIMALTRND
 40
0.0
  9
$DIMAZIN
 70
     0
  9
$DIMDSEP
 70
    44
  9
$DIMATFIT
 70
     3
  9
$DIMFRAC
 70
     0
  9
$DIMLDRBLK
  1

  9
$DIMLUNIT
 70
     2
  9
$DIMLWD
 70
    -2
  9
$DIMLWE
 70
    -2
  9
$DIMTMOVE
 70
     0
  9
$LUNITS
 70
     2
  9
$LUPREC
 70
     3
  9
$SKETCHINC
 40
1.0
  9
$FILLETRAD
 40
10.0
  9
$AUNITS
 70
     0
  9
$AUPREC
 70
     1
  9
$MENU
  1
.
  9
$ELEVATION
 40
0.0
  9
$PELEVATION
 40
0.0
  9
$THICKNESS
 40
0.0
  9
$LIMCHECK
 70
     0
  9
$CHAMFERA
 40
0.0
  9
$CHAMFERB
 40
0.0
  9
$CHAMFERC
 40
0.0
  9
$CHAMFERD
 40
0.0
  9
$SKPOLY
 70
     0
  9
$TDCREATE
 40
2459675.816979734
  9
$TDUCREATE
 40
2459675.9836464
  9
$TDUPDATE
 40
2459675.817055243
  9
$TDUUPDATE
 40
2459675.98372191
  9
$TDINDWG
 40
0.0000000116
  9
$TDUSRTIMER
 40
0.0000000116
  9
$USRTIMER
 70
     1
  9
$ANGBASE
 50
0.0
  9
$ANGDIR
 70
     0
  9
$PDMODE
 70
     0
  9
$PDSIZE
 40
-1.0
  9
$PLINEWID
 40
0.0
  9
$SPLFRAME
 70
     0
  9
$SPLINETYPE
 70
     6
  9
$SPLINESEGS
 70
     8
  9
$HANDSEED
  5
183
  9
$SURFTAB1
 70
     6
  9
$SURFTAB2
 70
     6
  9
$SURFTYPE
 70
     6
  9
$SURFU
 70
     6
  9
$SURFV
 70
     6
  9
$UCSBASE
  2

  9
$UCSNAME
  2

  9
$UCSORG
 10
0.0
 20
0.0
 30
0.0
  9
$UCSXDIR
 10
1.0
 20
0.0
 30
0.0
  9
$UCSYDIR
 10
0.0
 20
1.0
 30
0.0
  9
$UCSORTHOREF
  2

  9
$UCSORTHOVIEW
 70
     0
  9
$UCSORGTOP
 10
0.0
 20
0.0
 30
0.0
  9
$UCSORGBOTTOM
 10
0.0
 20
0.0
 30
0.0
  9
$UCSORGLEFT
 10
0.0
 20
0.0
 30
0.0
  9
$UCSORGRIGHT
 10
0.0
 20
0.0
 30
0.0
  9
$UCSORGFRONT
 10
0.0
 20
0.0
 30
0.0
  9
$UCSORGBACK
 10
0.0
 20
0.0
 30
0.0
  9
$PUCSBASE
  2

  9
$PUCSNAME
  2

  9
$PUCSORG
 10
0.0
 20
0.0
 30
0.0
  9
$PUCSXDIR
 10
1.0
 20
0.0
 30
0.0
  9
$PUCSYDIR
 10
0.0
 20
1.0
 30
0.0
  9
$PUCSORTHOREF
  2

  9
$PUCSORTHOVIEW
 70
     0
  9
$PUCSORGTOP
 10
0.0
 20
0.0
 30
0.0
  9
$PUCSORGBOTTOM
 10
0.0
 20
0.0
 30
0.0
  9
$PUCSORGLEFT
 10
0.0
 20
0.0
 30
0.0
  9
$PUCSORGRIGHT
 10
0.0
 20
0.0
 30
0.0
  9
$PUCSORGFRONT
 10
0.0
 20
0.0
 30
0.0
  9
$PUCSORGBACK
 10
0.0
 20
0.0
 30
0.0
  9
$USERI1
 70
     0
  9
$USERI2
 70
     0
  9
$USERI3
 70
     0
  9
$USERI4
 70
     0
  9
$USERI5
 70
     0
  9
$USERR1
 40
0.0
  9
$USERR2
 40
0.0
  9
$USERR3
 40
0.0
  9
$USERR4
 40
0.0
  9
$USERR5
 40
0.0
  9
$WORLDVIEW
 70
     1
  9
$SHADEDGE
 70
     3
  9
$SHADEDIF
 70
    70
  9
$TILEMODE
 70
     1
  9
$MAXACTVP
 70
    64
  9
$PINSBASE
 10
0.0
 20
0.0
 30
0.0
  9
$PLIMCHECK
 70
     0
  9
$PEXTMIN
 10
1.0000000000E+20
 20
1.0000000000E+20
 30
1.0000000000E+20
  9
$PEXTMAX
 10
-1.0000000000E+20
 20
-1.0000000000E+20
 30
-1.0000000000E+20
  9
$PLIMMIN
 10
0.0
 20
0.0
  9
$PLIMMAX
 10
420.0
 20
297.0
  9
$UNITMODE
 70
     0
  9
$VISRETAIN
 70
     1
  9
$PLINEGEN
 70
     0
  9
$PSLTSCALE
 70
     1
  9
$TREEDEPTH
 70
  3020
  9
$CMLSTYLE
  2
Standard
  9
$CMLJUST
 70
     0
  9
$CMLSCALE
 40
20.0
  9
$PROXYGRAPHICS
 70
     1
  9
$MEASUREMENT
 70
     1
  9
$CELWEIGHT
370
    -1
  9
$ENDCAPS
280
     0
  9
$JOINSTYLE
280
     0
  9
$LWDISPLAY
290
     1
  9
$INSUNITS
 70
     4
  9
$HYPERLINKBASE
  1

  9
$STYLESHEET
  1

  9
$XEDIT
290
     1
  9
$CEPSNTYPE
380
     0
  9
$PSTYLEMODE
290
     1
  9
$FINGERPRINTGUID
  2
{c71f2207-426f-4c73-a9db-3d4b5900409a}
  9
$VERSIONGUID
  2
{FAEB1C32-E019-11D5-929B-00C0DF256EC4}
  9
$EXTNAMES
290
     1
  9
$PSVPSCALE
 40
0.0
  9
$OLESTARTUP
290
     0
  0
ENDSEC
  0
SECTION
  2
CLASSES
  0
CLASS
  1
ACDBDICTIONARYWDFLT
  2
AcDbDictionaryWithDefault
  3
ObjectDBX Classes
 90
        0
280
     0
281
     0
  0
CLASS
  1
VISUALSTYLE
  2
AcDbVisualStyle
  3
ObjectDBX Classes
 90
     4095
280
     0
281
     0
  0
CLASS
  1
MATERIAL
  2
AcDbMaterial
  3
ObjectDBX Classes
 90
     1153
280
     0
281
     0
  0
CLASS
  1
SCALE
  2
AcDbScale
  3
ObjectDBX Classes
 90
     1153
280
     0
281
     0
  0
CLASS
  1
TABLESTYLE
  2
AcDbTableStyle
  3
ObjectDBX Classes
 90
     4095
280
     0
281
     0
  0
CLASS
  1
MLEADERSTYLE
  2
AcDbMLeaderStyle
  3
ACDB_MLEADERSTYLE_CLASS
 90
     4095
280
     0
281
     0
  0
CLASS
  1
SUN
  2
AcDbSun
  3
SCENEOE
 90
     1153
280
     0
281
     0
  0
CLASS
  1
ACDBPLACEHOLDER
  2
AcDbPlaceHolder
  3
ObjectDBX Classes
 90
        0
280
     0
281
     0
  0
CLASS
  1
LAYOUT
  2
AcDbLayout
  3
ObjectDBX Classes
 90
        0
280
     0
281
     0
  0
ENDSEC
  0
SECTION
  2
TABLES
  0
TABLE
  2
VPORT
  5
8
330
0
100
AcDbSymbolTable
 70
     1
  0
VPORT
  5
29
330
8
100
AcDbSymbolTableRecord
100
AcDbViewportTableRecord
  2
*Active
 70
     0
 10
0.0
 20
0.0
 11
1.0
 21
1.0
 12
0.0
 22
0.0
 13
0.0
 23
0.0
 14
10.0
 24
10.0
 15
10.0
 25
10.0
 16
0.0
 26
0.0
 36
1.0
 17
0.0
 27
0.0
 37
0.0
 40
47.277
 41
3.5674217907
 42
50.0
 43
0.0
 44
0.0
 50
0.0
 51
0.0
 71
     0
 72
   100
 73
     1
 74
     3
 75
     0
 76
     0
 77
     0
 78
     0
281
     0
 65
     1
110
0.0
120
0.0
130
0.0
111
1.0
121
0.0
131
0.0
112
0.0
122
1.0
132
0.0
 79
     0
146
0.0
  0
ENDTAB
  0
TABLE
  2
LTYPE
  5
5
330
0
100
AcDbSymbolTable
 70
     6
  0
LTYPE
  5
14
330
5
100
AcDbSymbolTableRecord
100
AcDbLinetypeTableRecord
  2
ByBlock
 70
     0
  3

 72
    65
 73
     0
 40
0.0
  0
LTYPE
  5
15
330
5
100
AcDbSymbolTableRecord
100
AcDbLinetypeTableRecord
  2
ByLayer
 70
     0
  3

 72
    65
 73
     0
 40
0.0
  0
LTYPE
  5
16
330
5
100
AcDbSymbolTableRecord
100
AcDbLinetypeTableRecord
  2
Continuous
 70
     0
  3
Solid line
 72
    65
 73
     0
 40
0.0
  0
LTYPE
  5
6E
330
5
100
AcDbSymbolTableRecord
100
AcDbLinetypeTableRecord
  2
HIDDEN
 70
     0
  3
Hidden __ __ __ __ __ __ __ __ __ __ __ __ __ __
 72
    65
 73
     2
 40
1.905
 49
1.27
 74
     0
 49
-0.635
 74
     0
  0
LTYPE
  5
6F
330
5
100
AcDbSymbolTableRecord
100
AcDbLinetypeTableRecord
  2
PHANTOM
 70
     0
  3
Phantom ______  __  __  ______  __  __  ______
 72
    65
 73
     6
 40
12.7
 49
6.35
 74
     0
 49
-1.27
 74
     0
 49
1.27
 74
     0
 49
-1.27
 74
     0
 49
1.27
 74
     0
 49
-1.27
 74
     0
  0
LTYPE
  5
70
330
5
100
AcDbSymbolTableRecord
100
AcDbLinetypeTableRecord
  2
CENTER
 70
     0
  3
Center ____ _ ____ _ ____ _ ____ _ ____ _ ____
 72
    65
 73
     4
 40
10.16
 49
6.35
 74
     0
 49
-1.27
 74
     0
 49
1.27
 74
     0
 49
-1.27
 74
     0
  0
LTYPE
  5
71
330
5
100
AcDbSymbolTableRecord
100
AcDbLinetypeTableRecord
  2
CENTERX2
 70
     0
  3
Center (2x) ________  __  ________  __  _____
 72
    65
 73
     4
 40
20.32
 49
12.7
 74
     0
 49
-2.54
 74
     0
 49
2.54
 74
     0
 49
-2.54
 74
     0
  0
LTYPE
  5
72
330
5
100
AcDbSymbolTableRecord
100
AcDbLinetypeTableRecord
  2
DOT2
 70
     0
  3
Dot (.5x) ........................................
 72
    65
 73
     2
 40
0.635
 49
0.0
 74
     0
 49
-0.635
 74
     0
  0
ENDTAB
  0
TABLE
  2
LAYER
  5
2
330
0
100
AcDbSymbolTable
 70
     1
  0
LAYER
  5
10
330
2
100
AcDbSymbolTableRecord
100
AcDbLayerTableRecord
  2
0
 70
     0
 62
     7
  6
Continuous
370
    -3
390
F
  0
ENDTAB
  0
TABLE
  2
STYLE
  5
3
330
0
100
AcDbSymbolTable
 70
     2
  0
STYLE
  5
11
330
3
100
AcDbSymbolTableRecord
100
AcDbTextStyleTableRecord
  2
Standard
 70
     0
 40
0.0
 41
1.0
 50
0.0
 71
     0
 42
3.5
  3
txt
  4

  0
STYLE
  5
180
330
3
100
AcDbSymbolTableRecord
100
AcDbTextStyleTableRecord
  2
SLDTEXTSTYLE0
 70
     0
 40
0.0
 41
0.7
 50
0.0
 71
     0
 42
3.5
  3
TXT
  4
bigfont
  0
ENDTAB
  0
TABLE
  2
VIEW
  5
6
330
0
100
AcDbSymbolTable
 70
     0
  0
ENDTAB
  0
TABLE
  2
UCS
  5
7
330
0
100
AcDbSymbolTable
 70
     0
  0
ENDTAB
  0
TABLE
  2
APPID
  5
9
330
0
100
AcDbSymbolTable
 70
     1
  0
APPID
  5
12
330
9
100
AcDbSymbolTableRecord
100
AcDbRegAppTableRecord
  2
ACAD
 70
     0
  0
ENDTAB
  0
TABLE
  2
DIMSTYLE
  5
A
330
0
100
AcDbSymbolTable
 70
     1
100
AcDbDimStyleTable
  0
DIMSTYLE
105
27
330
A
100
AcDbSymbolTableRecord
100
AcDbDimStyleTableRecord
  2
ISO-25
 70
     0
 41
2.5
 42
0.625
 43
3.75
 44
1.25
 73
     0
 74
     0
 77
     1
 78
     8
140
2.5
141
2.5
143
0.0393700787
147
0.625
171
     3
172
     1
178
     0
271
     2
272
     2
274
     3
278
    44
283
     0
284
     8
340
11
  0
ENDTAB
  0
TABLE
  2
BLOCK_RECORD
  5
1
330
0
100
AcDbSymbolTable
 70
     1
  0
BLOCK_RECORD
  5
1F
330
1
100
AcDbSymbolTableRecord
100
AcDbBlockTableRecord
  2
*Model_Space
340
22
  0
BLOCK_RECORD
  5
1B
330
1
100
AcDbSymbolTableRecord
100
AcDbBlockTableRecord
  2
*Paper_Space
340
1E
  0
BLOCK_RECORD
  5
23
330
1
100
AcDbSymbolTableRecord
100
AcDbBlockTableRecord
  2
*Paper_Space0
340
26
  0
ENDTAB
  0
ENDSEC
  0
SECTION
  2
BLOCKS
  0
BLOCK
  5
20
330
1F
100
AcDbEntity
  8
0
100
AcDbBlockBegin
  2
*Model_Space
 70
     0
 10
0.0
 20
0.0
 30
0.0
  3
*Model_Space
  1

  0
ENDBLK
  5
21
330
1F
100
AcDbEntity
  8
0
100
AcDbBlockEnd
  0
BLOCK
  5
1C
330
1B
100
AcDbEntity
 67
     1
  8
0
100
AcDbBlockBegin
  2
*Paper_Space
 70
     0
 10
0.0
 20
0.0
 30
0.0
  3
*Paper_Space
  1

  0
ENDBLK
  5
1D
330
1B
100
AcDbEntity
 67
     1
  8
0
100
AcDbBlockEnd
  0
BLOCK
  5
24
330
23
100
AcDbEntity
  8
0
100
AcDbBlockBegin
  2
*Paper_Space0
 70
     0
 10
0.0
 20
0.0
 30
0.0
  3
*Paper_Space0
  1

  0
ENDBLK
  5
25
330
23
100
AcDbEntity
  8
0
100
AcDbBlockEnd
  0
ENDSEC
  0
SECTION
  2
ENTITIES
  0
LINE
  5
73
330
1F
100
AcDbEntity
  8
0
  6
Continuous
 62
     7
100
AcDbLine
 10
-82.675
 20
10.0
 30
0.0
 11
-79.5
 21
10.0
 31
0.0
  0
LINE
  5
74
330
1F
100
AcDbEntity
  8
0
  6
Continuous
 62
     7
100
AcDbLine
 10
-82.675
 20
10.0
 30
0.0
 11
-82.675
 21
-10.0
 31
0.0
  0
LINE
  5
75
330
1F
100
AcDbEntity
  8
0
  6
Continuous
 62
     7
100
AcDbLine
 10
-82.675
 20
-10.0
 30
0.0
 11
-79.5
 21
-10.0
 31
0.0
  0
LINE
  5
76
330
1F
100
AcDbEntity
  8
0
  6
Continuous
 62
     7
100
AcDbLine
 10
-79.5
 20
10.0
 30
0.0
 11
-79.5
 21
-10.0
 31
0.0
  0
LINE
  5
77
330
1F
100
AcDbEntity
  8
0
  6
Continuous
 62
     7
100
AcDbLine
 10
-50.0
 20
-23.175
 30
0.0
 11
-30.0
 21
-23.175
 31
0.0
  0
LINE
  5
78
330
1F
100
AcDbEntity
  8
0
  6
Continuous
 62
     7
100
AcDbLine
 10
-50.0
 20
-23.175
 30
0.0
 11
-50.0
 21
-20.0
 31
0.0
  0
LINE
  5
79
330
1F
100
AcDbEntity
  8
0
  6
Continuous
 62
     7
100
AcDbLine
 10
-50.0
 20
-20.0
 30
0.0
 11
-30.0
 21
-20.0
 31
0.0
  0
LINE
  5
7A
330
1F
100
AcDbEntity
  8
0
  6
Continuous
 62
     7
100
AcDbLine
 10
-30.0
 20
-23.175
 30
0.0
 11
-30.0
 21
-20.0
 31
0.0
  0
LINE
  5
7B
330
1F
100
AcDbEntity
  8
0
  6
Continuous
 62
     7
100
AcDbLine
 10
-10.0
 20
-23.175
 30
0.0
 11
10.0
 21
-23.175
 31
0.0
  0
LINE
  5
7C
330
1F
100
AcDbEntity
  8
0
  6
Continuous
 62
     7
100
AcDbLine
 10
-10.0
 20
-23.175
 30
0.0
 11
-10.0
 21
-20.0
 31
0.0
  0
LINE
  5
7D
330
1F
100
AcDbEntity
  8
0
  6
Continuous
 62
     7
100
AcDbLine
 10
-10.0
 20
-20.0
 30
0.0
 11
10.0
 21
-20.0
 31
0.0
  0
LINE
  5
7E
330
1F
100
AcDbEntity
  8
0
  6
Continuous
 62
     7
100
AcDbLine
 10
10.0
 20
-23.175
 30
0.0
 11
10.0
 21
-20.0
 31
0.0
  0
LINE
  5
7F
330
1F
100
AcDbEntity
  8
0
  6
Continuous
 62
     7
100
AcDbLine
 10
30.0
 20
-23.175
 30
0.0
 11
50.0
 21
-23.175
 31
0.0
  0
LINE
  5
80
330
1F
100
AcDbEntity
  8
0
  6
Continuous
 62
     7
100
AcDbLine
 10
30.0
 20
-23.175
 30
0.0
 11
30.0
 21
-20.0
 31
0.0
  0
LINE
  5
81
330
1F
100
AcDbEntity
  8
0
  6
Continuous
 62
     7
100
AcDbLine
 10
30.0
 20
-20.0
 30
0.0
 11
50.0
 21
-20.0
 31
0.0
  0
LINE
  5
82
330
1F
100
AcDbEntity
  8
0
  6
Continuous
 62
     7
100
AcDbLine
 10
50.0
 20
-23.175
 30
0.0
 11
50.0
 21
-20.0
 31
0.0
  0
SPLINE
  5
D8
330
1F
100
AcDbEntity
  8
0
  6
Continuous
 62
     7
370
    25
100
AcDbSpline
210
0.0
220
0.0
230
1.0
 70
     8
 71
     3
 72
    15
 73
    11
 74
     0
 42
0.00000001
 43
0.00000001
 40
0.0
 40
0.0
 40
0.0
 40
0.0
 40
0.1342983790141681
 40
0.2620849753823013
 40
0.3862699121345005
 40
0.5071645966228
 40
0.6273002357255065
 40
0.7481449416029939
 40
0.8723701771613517
 40
1.0
 40
1.0
 40
1.0
 40
1.0
 10
-24.09743589743591
 20
-3.394691506410257
 30
0.0
 10
-24.22595550913655
 20
-3.539978033057253
 30
0.0
 10
-24.47676314744134
 20
-3.823506516715578
 30
0.0
 10
-24.89564948979496
 20
-4.193918971182013
 30
0.0
 10
-25.33967116389827
 20
-4.500091737913068
 30
0.0
 10
-25.80667310057252
 20
-4.747378574883062
 30
0.0
 10
-26.29623358356585
 20
-4.933132607878618
 30
0.0
 10
-26.80726738596826
 20
-5.065162385277946
 30
0.0
 10
-27.33998296796606
 20
-5.150048587188683
 30
0.0
 10
-27.70375579820407
 20
-5.158525009399161
 30
0.0
 10
-27.88810096153848
 20
-5.162820512820513
 30
0.0
  0
SPLINE
  5
D9
330
1F
100
AcDbEntity
  8
0
  6
Continuous
 62
     7
370
    25
100
AcDbSpline
210
0.0
220
0.0
230
1.0
 70
     8
 71
     3
 72
    11
 73
     7
 74
     0
 42
0.00000001
 43
0.00000001
 40
0.0
 40
0.0
 40
0.0
 40
0.0
 40
0.2252775478670078
 40
0.4635231951764815
 40
0.7203235553269216
 40
1.0
 40
1.0
 40
1.0
 40
1.0
 10
-17.2742387820513
 20
4.443589743589744
 30
0.0
 10
-17.19504039737102
 20
4.439269832802467
 30
0.0
 10
-17.03208457391058
 20
4.430381335613312
 30
0.0
 10
-16.78540489090661
 20
4.36793062905572
 30
0.0
 10
-16.5312472225489
 20
4.268224661506284
 30
0.0
 10
-16.36744484595405
 20
4.174461567836177
 30
0.0
 10
-16.2820512820513
 20
4.125580929487179
 30
0.0
  0
SPLINE
  5
DA
330
1F
100
AcDbEntity
  8
0
  6
Continuous
 62
     7
370
    25
100
AcDbSpline
210
0.0
220
0.0
230
1.0
 70
     8
 71
     3
 72
    19
 73
    15
 74
     0
 42
0.00000001
 43
0.00000001
 40
0.0
 40
0.0
 40
0.0
 40
0.0
 40
0.0837853706537099
 40
0.1657798879221415
 40
0.2462800078932626
 40
0.3274609277363902
 40
0.408796954032068
 40
0.4897152412309885
 40
0.5713760321300528
 40
0.6555233211112765
 40
0.7410194827999727
 40
0.8265467605037612
 40
0.911988851654833
 40
1.0
 40
1.0
 40
1.0
 40
1.0
 10
36.14615384615385
 20
5.06179887820513
 30
0.0
 10
36.1508898902155
 20
5.196164060197053
 30
0.0
 10
36.16026074872705
 20
5.462022462892714
 30
0.0
 10
36.23951062567971
 20
5.8503914762112
 30
0.0
 10
36.36459798265455
 20
6.221182190114932
 30
0.0
 10
36.53983943289515
 20
6.570723686773183
 30
0.0
 10
36.76574468491273
 20
6.889914531710414
 30
0.0
 10
37.02716864903798
 20
7.182426327330929
 30
0.0
 10
37.33854175624248
 20
7.42832946853242
 30
0.0
 10
37.68018127494111
 20
7.643184651830446
 30
0.0
 10
38.05412868221256
 20
7.811354151867499
 30
0.0
 10
38.44598138882682
 20
7.93821256559272
 30
0.0
 10
38.85636219303252
 20
8.010091872071333
 30
0.0
 10
39.13432213866606
 20
8.020407047611503
 30
0.0
 10
39.27536057692307
 20
8.025641025641024
 30
0.0
  0
SPLINE
  5
DB
330
1F
100
AcDbEntity
  8
0
  6
Continuous
 62
     7
370
    25
100
AcDbSpline
210
0.0
220
0.0
230
1.0
 70
     8
 71
     3
 72
    15
 73
    11
 74
     0
 42
0.00000001
 43
0.00000001
 40
0.0
 40
0.0
 40
0.0
 40
0.0
 40
0.1185218400132607
 40
0.2362547631617466
 40
0.3561744339909315
 40
0.477249654898558
 40
0.6015398708217023
 40
0.7296183821680428
 40
0.8621582661414388
 40
1.0
 40
1.0
 40
1.0
 40
1.0
 10
-1.172816506410268
 20
2.616947115384615
 30
0.0
 10
-1.092527330247806
 20
2.507351262925791
 30
0.0
 10
-0.9324834067262685
 20
2.288889060826397
 30
0.0
 10
-0.7320153580273593
 20
1.932668005061064
 30
0.0
 10
-0.5579985248008776
 20
1.55997527699051
 30
0.0
 10
-0.4189046376901478
 20
1.164786484703394
 30
0.0
 10
-0.3062755904912423
 20
0.7517840080759031
 30
0.0
 10
-0.2247894196339998
 20
0.3180153458268313
 30
0.0
 10
-0.1770025179227603
 20
-0.1363903325397032
 30
0.0
 10
-0.1676092446870084
 20
-0.4460038338408837
 30
0.0
 10
-0.1628205128205249
 20
-0.6038461538461545
 30
0.0
  0
SPLINE
  5
DC
330
1F
100
AcDbEntity
  8
0
  6
Continuous
 62
     7
370
    25
100
AcDbSpline
210
0.0
220
0.0
230
1.0
 70
     8
 71
     3
 72
    15
 73
    11
 74
     0
 42
0.00000001
 43
0.00000001
 40
0.0
 40
0.0
 40
0.0
 40
0.0
 40
0.1288352544875545
 40
0.2535893349864767
 40
0.37464325731417
 40
0.495340042237792
 40
0.6163247746357906
 40
0.7397593354405143
 40
0.8668423203805459
 40
1.0
 40
1.0
 40
1.0
 40
1.0
 10
-8.537900641025654
 20
2.713621794871794
 30
0.0
 10
-8.42284704923906
 20
2.85103169490558
 30
0.0
 10
-8.196384471546198
 20
3.121498697968723
 30
0.0
 10
-7.813365696405058
 20
3.476874908662062
 30
0.0
 10
-7.398619269676979
 20
3.774576607161673
 30
0.0
 10
-6.957342797827827
 20
4.021345358291779
 30
0.0
 10
-6.484407591950825
 20
4.208846877379878
 30
0.0
 10
-5.986171021614441
 20
4.348574390051259
 30
0.0
 10
-5.456959894449291
 20
4.42687174437201
 30
0.0
 10
-5.095172378836409
 20
4.437931026371807
 30
0.0
 10
-4.910056089743602
 20
4.443589743589743
 30
0.0
  0
SPLINE
  5
DD
330
1F
100
AcDbEntity
  8
0
  6
Continuous
 62
     7
370
    25
100
AcDbSpline
210
0.0
220
0.0
230
1.0
 70
     8
 71
     3
 72
    19
 73
    15
 74
     0
 42
0.00000001
 43
0.00000001
 40
0.0
 40
0.0
 40
0.0
 40
0.0
 40
0.093806529352333
 40
0.1913381281363395
 40
0.2951906166251714
 40
0.4103123367232987
 40
0.4719302510512789
 40
0.5364251593464326
 40
0.6031187283036312
 40
0.674117672490598
 40
0.7493320232258875
 40
0.828283384171563
 40
0.9120398092627613
 40
0.9999999999999999
 40
0.9999999999999999
 40
0.9999999999999999
 40
0.9999999999999999
 10
-17.49048477564104
 20
3.303846153846155
 30
0.0
 10
-17.58194558009531
 20
3.297750018251635
 30
0.0
 10
-17.76849910939596
 20
3.285315668728484
 30
0.0
 10
-18.04240000725417
 20
3.187566280545428
 30
0.0
 10
-18.30818272435902
 20
3.029631837849116
 30
0.0
 10
-18.51926275626398
 20
2.854476660561692
 30
0.0
 10
-18.68270178812405
 20
2.685574652619492
 30
0.0
 10
-18.79932489219283
 20
2.538079020447845
 30
0.0
 10
-18.90630514542475
 20
2.372693700330373
 30
0.0
 10
-19.00852280230656
 20
2.192245990529705
 30
0.0
 10
-19.10165478415117
 20
1.993654834926966
 30
0.0
 10
-19.18857601240472
 20
1.77890431765322
 30
0.0
 10
-19.2671667435802
 20
1.547745707545726
 30
0.0
 10
-19.31198048690816
 20
1.386700562746461
 30
0.0
 10
-19.33493589743591
 20
1.304206730769231
 30
0.0
  0
SPLINE
  5
DE
330
1F
100
AcDbEntity
  8
0
  6
Continuous
 62
     7
370
    25
100
AcDbSpline
210
0.0
220
0.0
230
1.0
 70
     8
 71
     3
 72
    15
 73
    11
 74
     0
 42
0.00000001
 43
0.00000001
 40
0.0
 40
0.0
 40
0.0
 40
0.0
 40
0.1430730837303644
 40
0.2759029640930106
 40
0.4023708562739965
 40
0.5284136450935963
 40
0.6503563791869521
 40
0.765895086124694
 40
0.8807741308440215
 40
1.0
 40
1.0
 40
1.0
 40
1.0
 10
39.14815705128204
 20
6.723076923076923
 30
0.0
 10
39.01696052712505
 20
6.718680183251502
 30
0.0
 10
38.76396038936444
 20
6.710201484683253
 30
0.0
 10
38.40476724691698
 20
6.617600395196424
 30
0.0
 10
38.08148357597322
 20
6.471797644943759
 30
0.0
 10
37.8037071256264
 20
6.267454724425193
 30
0.0
 10
37.57243295178452
 20
6.025352836682058
 30
0.0
 10
37.40513600140903
 20
5.746755276838778
 30
0.0
 10
37.30444254717731
 20
5.439116273102321
 30
0.0
 10
37.2921551895864
 20
5.224516548698686
 30
0.0
 10
37.28589743589743
 20
5.11522435897436
 30
0.0
  0
SPLINE
  5
DF
330
1F
100
AcDbEntity
  8
0
  6
Continuous
 62
     7
370
    25
100
AcDbSpline
210
0.0
220
0.0
230
1.0
 70
     8
 71
     3
 72
    15
 73
    11
 74
     0
 42
0.00000001
 43
0.00000001
 40
0.0
 40
0.0
 40
0.0
 40
0.0
 40
0.0781298651584279
 40
0.1694654174977337
 40
0.2743352908540848
 40
0.3921101633539207
 40
0.5236873298575194
 40
0.6683654211389635
 40
0.8271319021257841
 40
1.0
 40
1.0
 40
1.0
 40
1.0
 10
25.46360176282051
 20
-2.646734775641026
 30
0.0
 10
25.44481607458806
 20
-2.579125148353762
 30
0.0
 10
25.40406949845049
 20
-2.432478361086573
 30
0.0
 10
25.36043484699653
 20
-2.189775959749487
 30
0.0
 10
25.32375332218324
 20
-1.910321829989854
 30
0.0
 10
25.2892617252091
 20
-1.594096843340149
 30
0.0
 10
25.26890922062333
 20
-1.240855898810917
 30
0.0
 10
25.25106594306811
 20
-0.8507521183703987
 30
0.0
 10
25.23705378343492
 20
-0.4233138002519192
 30
0.0
 10
25.23713641472769
 20
-0.1255731292966662
 30
0.0
 10
25.23717948717949
 20
0.0296274038461535
 30
0.0
  0
SPLINE
  5
E0
330
1F
100
AcDbEntity
  8
0
  6
Continuous
 62
     7
370
    25
100
AcDbSpline
210
0.0
220
0.0
230
1.0
 70
     8
 71
     3
 72
    23
 73
    19
 74
     0
 42
0.00000001
 43
0.00000001
 40
0.0
 40
0.0
 40
0.0
 40
0.0
 40
0.0711745037456339
 40
0.1396441217506227
 40
0.2063172239119627
 40
0.2713732401918827
 40
0.3354180839163127
 40
0.3980763446528612
 40
0.4606079146322841
 40
0.5229695111172337
 40
0.5847157240924585
 40
0.6448949403163619
 40
0.7042905608207901
 40
0.762998189919322
 40
0.8210874309038771
 40
0.8801038914767008
 40
0.9393884881896687
 40
1.0
 40
1.0
 40
1.0
 40
1.0
 10
29.43235176282051
 20
-5.325641025641025
 30
0.0
 10
29.3101810190716
 20
-5.322793448825425
 30
0.0
 10
29.07048245685322
 20
-5.317206513299285
 30
0.0
 10
28.71728432700963
 20
-5.28519253426361
 30
0.0
 10
28.37868710043861
 20
-5.224891503462701
 30
0.0
 10
28.05111463237671
 20
-5.148111136239232
 30
0.0
 10
27.73902665705832
 20
-5.042215860971688
 30
0.0
 10
27.43824187315872
 20
-4.918488379336287
 30
0.0
 10
27.1539118016705
 20
-4.766533749166554
 30
0.0
 10
26.88142376355178
 20
-4.597466294494683
 30
0.0
 10
26.62805964835635
 20
-4.407239750282529
 30
0.0
 10
26.39547764279436
 20
-4.199902547661408
 30
0.0
 10
26.18329376950559
 20
-3.978776035398032
 30
0.0
 10
25.99508449989971
 20
-3.741466136752893
 30
0.0
 10
25.82773157585113
 20
-3.48981851419587
 30
0.0
 10
25.68356765864528
 20
-3.223121272602714
 30
0.0
 10
25.55978531569515
 20
-2.94147766827124
 30
0.0
 10
25.49589862951371
 20
-2.745704626801039
 30
0.0
 10
25.46360176282051
 20
-2.646734775641026
 30
0.0
  0
SPLINE
  5
E1
330
1F
100
AcDbEntity
  8
0
  6
Continuous
 62
     7
370
    25
100
AcDbSpline
210
0.0
220
0.0
230
1.0
 70
     8
 71
     3
 72
    15
 73
    11
 74
     0
 42
0.00000001
 43
0.00000001
 40
0.0
 40
0.0
 40
0.0
 40
0.0
 40
0.1320402344259816
 40
0.2590328407793698
 40
0.3818798239250169
 40
0.5022584437149855
 40
0.6227521895274791
 40
0.7447426318590017
 40
0.8701089273418189
 40
1.0
 40
1.0
 40
1.0
 40
1.0
 10
-4.910056089743602
 20
4.443589743589743
 30
0.0
 10
-4.719746207641657
 20
4.438676480465522
 30
0.0
 10
-4.346401600949914
 20
4.429037778216194
 30
0.0
 10
-3.801999333187868
 20
4.3396793684176
 30
0.0
 10
-3.286884733169112
 20
4.197974384716127
 30
0.0
 10
-2.801263931819994
 20
3.997844916328465
 30
0.0
 10
-2.345087694231143
 20
3.739637399831979
 30
0.0
 10
-1.921321171488691
 20
3.419808432172523
 30
0.0
 10
-1.522717111668924
 20
3.048177087098711
 30
0.0
 10
-1.290820268405221
 20
2.762379155748259
 30
0.0
 10
-1.172816506410268
 20
2.616947115384615
 30
0.0
  0
SPLINE
  5
E2
330
1F
100
AcDbEntity
  8
0
  6
Continuous
 62
     7
370
    25
100
AcDbSpline
210
0.0
220
0.0
230
1.0
 70
     8
 71
     3
 72
    23
 73
    19
 74
     0
 42
0.00000001
 43
0.00000001
 40
0.0
 40
0.0
 40
0.0
 40
0.0
 40
0.0611602766365174
 40
0.1203345577262021
 40
0.1781802550631249
 40
0.2352351259863639
 40
0.2926829614441807
 40
0.3511862482150795
 40
0.410456609509694
 40
0.4717198544629959
 40
0.5337612027725885
 40
0.5957390238870944
 40
0.6578875151248844
 40
0.7212951802914618
 40
0.78682251454189
 40
0.8546861538286841
 40
0.9254779862699966
 40
1.0
 40
1.0
 40
1.0
 40
1.0
 10
-34.68076923076924
 20
-1.395052083333333
 30
0.0
 10
-34.68431378633962
 20
-1.519029019318452
 30
0.0
 10
-34.6912877987273
 20
-1.762957114161493
 30
0.0
 10
-34.74274083924691
 20
-2.121297173816165
 30
0.0
 10
-34.8298595988996
 20
-2.463743408668326
 30
0.0
 10
-34.94986061570864
 20
-2.792510785909437
 30
0.0
 10
-35.10647815725109
 20
-3.106963273845873
 30
0.0
 10
-35.29707962782516
 20
-3.407457117454097
 30
0.0
 10
-35.52434273011377
 20
-3.690973117107221
 30
0.0
 10
-35.77857085459643
 20
-3.960661692366706
 30
0.0
 10
-36.06617921108396
 20
-4.203151092142382
 30
0.0
 10
-36.37647923608861
 20
-4.419108084957479
 30
0.0
 10
-36.71337873970271
 20
-4.59671236749077
 30
0.0
 10
-37.07134454656239
 20
-4.74590478837252
 30
0.0
 10
-37.45439220789122
 20
-4.859868051374254
 30
0.0
 10
-37.86080166888251
 20
-4.939597105237482
 30
0.0
 10
-38.29022242125516
 20
-4.993318239489529
 30
0.0
 10
-38.58489780385979
 20
-4.997734954394041
 30
0.0
 10
-38.73601762820513
 20
-5.0
 30
0.0
  0
SPLINE
  5
E3
330
1F
100
AcDbEntity
  8
0
  6
Continuous
 62
     7
370
    25
100
AcDbSpline
210
0.0
220
0.0
230
1.0
 70
     8
 71
     3
 72
    23
 73
    19
 74
     0
 42
0.00000001
 43
0.00000001
 40
0.0
 40
0.0
 40
0.0
 40
0.0
 40
0.0646199913407679
 40
0.1274334841444694
 40
0.18900412655794
 40
0.2499300706860468
 40
0.3106684537406718
 40
0.3723289611368241
 40
0.4349391099970082
 40
0.499575544194034
 40
0.5641912077719239
 40
0.6267352169294784
 40
0.6881093335614016
 40
0.7492936065367513
 40
0.8103305278109453
 40
0.8719011702244158
 40
0.9350459146845315
 40
1.0
 40
1.0
 40
1.0
 40
1.0
 10
17.37600160256409
 20
-5.162820512820513
 30
0.0
 10
17.21210645580032
 20
-5.158370533443876
 30
0.0
 10
16.88889796949245
 20
-5.14959497707858
 30
0.0
 10
16.41344960387411
 20
-5.081514618235116
 30
0.0
 10
15.95591487014588
 20
-4.972183505419577
 30
0.0
 10
15.51586142077311
 20
-4.820143134978029
 30
0.0
 10
15.09613677876935
 20
-4.618464153605177
 30
0.0
 10
14.69314728512983
 20
-4.37701448214061
 30
0.0
 10
14.30898065980332
 20
-4.089483470133686
 30
0.0
 10
13.94949250413448
 20
-3.760778338681772
 30
0.0
 10
13.61845067419907
 20
-3.403745099472671
 30
0.0
 10
13.32794262782714
 20
-3.022942686525773
 30
0.0
 10
13.08572430949707
 20
-2.620017755258092
 30
0.0
 10
12.88317715950211
 20
-2.20007173971905
 30
0.0
 10
12.72716185253144
 20
-1.759871888838414
 30
0.0
 10
12.6184003796527
 20
-1.300940450885501
 30
0.0
 10
12.55039933019602
 20
-0.8238200526123414
 30
0.0
 10
12.5416274014249
 20
-0.4989194973797028
 30
0.0
 10
12.53717948717948
 20
-0.3341746794871797
 30
0.0
  0
SPLINE
  5
E4
330
1F
100
AcDbEntity
  8
0
  6
Continuous
 62
     7
370
    25
100
AcDbSpline
210
0.0
220
0.0
230
1.0
 70
     8
 71
     3
 72
    15
 73
    11
 74
     0
 42
0.00000001
 43
0.00000001
 40
0.0
 40
0.0
 40
0.0
 40
0.0
 40
0.0698351039154363
 40
0.1556207549116652
 40
0.2578015566582757
 40
0.3738112340663713
 40
0.5064024926743714
 40
0.6555644581431036
 40
0.8200792824038526
 40
1.0
 40
1.0
 40
1.0
 40
1.0
 10
32.10871394230769
 20
-1.880969551282051
 30
0.0
 10
32.11960011123538
 20
-1.836161867238398
 30
0.0
 10
32.1438588827076
 20
-1.73631228979436
 30
0.0
 10
32.16652673165689
 20
-1.567506464067865
 30
0.0
 10
32.19013612387973
 20
-1.368336486245152
 30
0.0
 10
32.20651756359729
 20
-1.137371336904448
 30
0.0
 10
32.22248770624368
 20
-0.8753849505972952
 30
0.0
 10
32.23204199896202
 20
-0.5810125305860078
 30
0.0
 10
32.2364580898582
 20
-0.2553229870713279
 30
0.0
 10
32.23777410143017
 20
-0.0280395714850564
 30
0.0
 10
32.23846153846154
 20
0.0906850961538462
 30
0.0
  0
SPLINE
  5
E5
330
1F
100
AcDbEntity
  8
0
  6
Continuous
 62
     7
370
    25
100
AcDbSpline
210
0.0
220
0.0
230
1.0
 70
     8
 71
     3
 72
    15
 73
    11
 74
     0
 42
0.00000001
 43
0.00000001
 40
0.0
 40
0.0
 40
0.0
 40
0.0
 40
0.0769954547170578
 40
0.1676150771831733
 40
0.2710523936342342
 40
0.3894595025720741
 40
0.5208428024655765
 40
0.6663987586080736
 40
0.8260936125153155
 40
1.0
 40
1.0
 40
1.0
 40
1.0
 10
3.431951121794856
 20
0.8462740384615388
 30
0.0
 10
3.417655825534494
 20
0.7836623016659822
 30
0.0
 10
3.386535713381871
 20
0.6473598259662742
 30
0.0
 10
3.352923603608299
 20
0.423678647056511
 30
0.0
 10
3.322416115722218
 20
0.1649253092278245
 30
0.0
 10
3.29688200873482
 20
-0.1285982412319294
 30
0.0
 10
3.281259497541583
 20
-0.4579196738013014
 30
0.0
 10
3.264225543534322
 20
-0.8216325709757852
 30
0.0
 10
3.258024093379151
 20
-1.221187228724994
 30
0.0
 10
3.256963265944055
 20
-1.49935965661201
 30
0.0
 10
3.256410256410241
 20
-1.644370993589743
 30
0.0
  0
SPLINE
  5
E6
330
1F
100
AcDbEntity
  8
0
  6
Continuous
 62
     7
370
    25
100
AcDbSpline
210
0.0
220
0.0
230
1.0
 70
     8
 71
     3
 72
    15
 73
    11
 74
     0
 42
0.00000001
 43
0.00000001
 40
0.0
 40
0.0
 40
0.0
 40
0.0
 40
0.1600594124854935
 40
0.3061123827401263
 40
0.4383665141302053
 40
0.560541455255218
 40
0.6753172249527024
 40
0.7861136344281768
 40
0.8928417881050882
 40
1.0
 40
1.0
 40
1.0
 40
1.0
 10
-19.53846153846155
 20
2.914603365384616
 30
0.0
 10
-19.45431947099254
 20
3.041805942452852
 30
0.0
 10
-19.2933984207297
 20
3.285079882750311
 30
0.0
 10
-19.02592579136038
 20
3.606822774920726
 30
0.0
 10
-18.75195656072159
 20
3.873214515482119
 30
0.0
 10
-18.47017916679521
 20
4.085498712161451
 30
0.0
 10
-18.1785214899784
 20
4.244477743322221
 30
0.0
 10
-17.8833845508874
 20
4.360929613293799
 30
0.0
 10
-17.58012498883317
 20
4.429790157154992
 30
0.0
 10
-17.37633743520627
 20
4.438983719657163
 30
0.0
 10
-17.2742387820513
 20
4.443589743589744
 30
0.0
  0
SPLINE
  5
E7
330
1F
100
AcDbEntity
  8
0
  6
Continuous
 62
     7
370
    25
100
AcDbSpline
210
0.0
220
0.0
230
1.0
 70
     8
 71
     3
 72
    19
 73
    15
 74
     0
 42
0.00000001
 43
0.00000001
 40
0.0
 40
0.0
 40
0.0
 40
0.0
 40
0.0933698567361952
 40
0.1816607660710044
 40
0.2658742270426186
 40
0.3463547840343077
 40
0.4245998617178937
 40
0.5019031838373769
 40
0.5799920909873476
 40
0.6584434305294311
 40
0.7386722364878342
 40
0.8218941484362439
 40
0.908800792046615
 40
1.0
 40
1.0
 40
1.0
 40
1.0
 10
-0.6512820512820632
 20
-2.600941506410257
 30
0.0
 10
-0.7319691254385444
 20
-2.744064451323567
 30
0.0
 10
-0.8889542190829284
 20
-3.022525024404977
 30
0.0
 10
-1.158922647143717
 20
-3.405092060975053
 30
0.0
 10
-1.441922453356015
 20
-3.749253772732844
 30
0.0
 10
-1.750728280111834
 20
-4.045815661134397
 30
0.0
 10
-2.076101115173548
 20
-4.304356400897918
 30
0.0
 10
-2.419845319681588
 20
-4.530553650592386
 30
0.0
 10
-2.783750458321271
 20
-4.723297995847203
 30
0.0
 10
-3.167833745373807
 20
-4.885685739842689
 30
0.0
 10
-3.575320688087239
 20
-5.01054304703429
 30
0.0
 10
-4.007198761917969
 20
-5.098732648661954
 30
0.0
 10
-4.464295330863854
 20
-5.153245652050676
 30
0.0
 10
-4.777608612098287
 20
-5.159578020013143
 30
0.0
 10
-4.938040865384629
 20
-5.162820512820515
 30
0.0
  0
SPLINE
  5
E8
330
1F
100
AcDbEntity
  8
0
  6
Continuous
 62
     7
370
    25
100
AcDbSpline
210
0.0
220
0.0
230
1.0
 70
     8
 71
     3
 72
    15
 73
    11
 74
     0
 42
0.00000001
 43
0.00000001
 40
0.0
 40
0.0
 40
0.0
 40
0.0
 40
0.1335067689985185
 40
0.2625589787303702
 40
0.3882644471488776
 40
0.512667354681428
 40
0.6337222699657601
 40
0.7553938601370945
 40
0.8775529450912775
 40
1.0
 40
1.0
 40
1.0
 40
1.0
 10
36.85594951923076
 20
3.128305288461538
 30
0.0
 10
36.79980628367773
 20
3.203057622189636
 30
0.0
 10
36.68939307616775
 20
3.350068118725427
 30
0.0
 10
36.54364785633727
 20
3.579846888339681
 30
0.0
 10
36.4197714656117
 20
3.815062737110312
 30
0.0
 10
36.32266243186021
 20
4.056347731387527
 30
0.0
 10
36.24088815207091
 20
4.300314473325609
 30
0.0
 10
36.18588651775212
 20
4.550146136292789
 30
0.0
 10
36.1514463060863
 20
4.804721694721075
 30
0.0
 10
36.14791938352331
 20
4.976039254122749
 30
0.0
 10
36.14615384615384
 20
5.061798878205129
 30
0.0
  0
SPLINE
  5
E9
330
1F
100
AcDbEntity
  8
0
  6
Continuous
 62
     7
370
    25
100
AcDbSpline
210
0.0
220
0.0
230
1.0
 70
     8
 71
     3
 72
    23
 73
    19
 74
     0
 42
0.00000001
 43
0.00000001
 40
0.0
 40
0.0
 40
0.0
 40
0.0
 40
0.0625940971873312
 40
0.1213229386347498
 40
0.1766801421977657
 40
0.2283650957096754
 40
0.2768684458368074
 40
0.3218791276660463
 40
0.3640986251098916
 40
0.403355696242702
 40
0.4779679481633712
 40
0.5505354613647762
 40
0.6235844567403233
 40
0.698174882264204
 40
0.7733536703408754
 40
0.8472811254977334
 40
0.9228183395566693
 40
0.9999999999999999
 40
0.9999999999999999
 40
0.9999999999999999
 40
0.9999999999999999
 10
-39.69258814102565
 20
7.699999999999999
 30
0.0
 10
-39.57129052017282
 20
7.6993622771136
 30
0.0
 10
-39.33618554266629
 20
7.698126211444645
 30
0.0
 10
-38.99430356803059
 20
7.678955992711309
 30
0.0
 10
-38.67408645513491
 20
7.652816962008831
 30
0.0
 10
-38.37544133832014
 20
7.611342054414147
 30
0.0
 10
-38.09850621821536
 20
7.561297605915328
 30
0.0
 10
-37.84244650595237
 20
7.500693873244719
 30
0.0
 10
-37.60807645229308
 20
7.428025875110556
 30
0.0
 10
-37.32826738019072
 20
7.312469368924225
 30
0.0
 10
-37.00924098214465
 20
7.140753872340979
 30
0.0
 10
-36.66380681433672
 20
6.887013078800265
 30
0.0
 10
-36.3684257172329
 20
6.576652426906313
 30
0.0
 10
-36.11374965181572
 20
6.226558220080932
 30
0.0
 10
-35.91127130351211
 20
5.841436991155806
 30
0.0
 10
-35.76478842468089
 20
5.430467934734513
 30
0.0
 10
-35.67204984837947
 20
4.998951899769332
 30
0.0
 10
-35.66251238708177
 20
4.70270379718008
 30
0.0
 10
-35.65769230769231
 20
4.552984775641026
 30
0.0
  0
SPLINE
  5
EA
330
1F
100
AcDbEntity
  8
0
  6
Continuous
 62
     7
370
    25
100
AcDbSpline
210
0.0
220
0.0
230
1.0
 70
     8
 71
     3
 72
    15
 73
    11
 74
     0
 42
0.00000001
 43
0.00000001
 40
0.0
 40
0.0
 40
0.0
 40
0.0
 40
0.140975966268771
 40
0.2735687809631696
 40
0.398988313804254
 40
0.5199297813924317
 40
0.6381100215247449
 40
0.7565889007405949
 40
0.8768597544106075
 40
1.0
 40
1.0
 40
1.0
 40
1.0
 10
3.256410256410241
 20
2.606770833333333
 30
0.0
 10
3.378103961032483
 20
2.758600141915573
 30
0.0
 10
3.614254840544302
 20
3.053230212293216
 30
0.0
 10
4.007535135572237
 20
3.440473439982663
 30
0.0
 10
4.423165859599994
 20
3.759588970859439
 30
0.0
 10
4.858601700824839
 20
4.013965594600264
 30
0.0
 10
5.314433766044575
 20
4.205723352339697
 30
0.0
 10
5.787883488482088
 20
4.344211159421985
 30
0.0
 10
6.281785422000694
 20
4.42725039440861
 30
0.0
 10
6.617662092941817
 20
4.438100658638315
 30
0.0
 10
6.787580128205112
 20
4.443589743589744
 30
0.0
  0
SPLINE
  5
EB
330
1F
100
AcDbEntity
  8
0
  6
Continuous
 62
     7
370
    25
100
AcDbSpline
210
0.0
220
0.0
230
1.0
 70
     8
 71
     3
 72
    15
 73
    11
 74
     0
 42
0.00000001
 43
0.00000001
 40
0.0
 40
0.0
 40
0.0
 40
0.0
 40
0.1298621417207368
 40
0.254653530897287
 40
0.3760145541937126
 40
0.4952552518176068
 40
0.6147977192994578
 40
0.7381055541683323
 40
0.8651963000723568
 40
1.0
 40
1.0
 40
1.0
 40
1.0
 10
-27.85248397435899
 20
4.443589743589744
 30
0.0
 10
-27.66307305718774
 20
4.438372759423565
 30
0.0
 10
-27.29164718811591
 20
4.42814249969622
 30
0.0
 10
-26.74834841163344
 20
4.343006317710204
 30
0.0
 10
-26.23438130609769
 20
4.199175308319766
 30
0.0
 10
-25.74577837158854
 20
4.003531815491606
 30
0.0
 10
-25.28429416775874
 20
3.743549284251522
 30
0.0
 10
-24.85429762466946
 20
3.415599139965745
 30
0.0
 10
-24.45128858523827
 20
3.021749690102718
 30
0.0
 10
-24.21768009836051
 20
2.719234077314374
 30
0.0
 10
-24.09743589743591
 20
2.563521634615384
 30
0.0
  0
SPLINE
  5
EC
330
1F
100
AcDbEntity
  8
0
  6
Continuous
 62
     7
370
    25
100
AcDbSpline
210
0.0
220
0.0
230
1.0
 70
     8
 71
     3
 72
    15
 73
    11
 74
     0
 42
0.00000001
 43
0.00000001
 40
0.0
 40
0.0
 40
0.0
 40
0.0
 40
0.1815353013762855
 40
0.3470816724816297
 40
0.4955678164315549
 40
0.6283573018772138
 40
0.7455196699921559
 40
0.8458307507576514
 40
0.9307818073847577
 40
1.0
 40
1.0
 40
1.0
 40
1.0
 10
38.93699919871794
 20
1.40088141025641
 30
0.0
 10
38.8033806982968
 20
1.496053713903682
 30
0.0
 10
38.54791230042012
 20
1.678015911191993
 30
0.0
 10
38.19064830162046
 20
1.948069741755702
 30
0.0
 10
37.87117267869877
 20
2.194971782664888
 30
0.0
 10
37.59090539017132
 20
2.421046340865516
 30
0.0
 10
37.34996971018706
 20
2.626324078028214
 30
0.0
 10
37.1464670473643
 20
2.808833742915513
 30
0.0
 10
36.98558142590326
 20
2.973511235209272
 30
0.0
 10
36.8961168903709
 20
3.080341246684562
 30
0.0
 10
36.85594951923076
 20
3.128305288461538
 30
0.0
  0
SPLINE
  5
ED
330
1F
100
AcDbEntity
  8
0
  6
Continuous
 62
     7
370
    25
100
AcDbSpline
210
0.0
220
0.0
230
1.0
 70
     8
 71
     3
 72
    23
 73
    19
 74
     0
 42
0.00000001
 43
0.00000001
 40
0.0
 40
0.0
 40
0.0
 40
0.0
 40
0.0772404236164787
 40
0.1511781404663829
 40
0.2234879838003994
 40
0.2955426441988697
 40
0.3669762546197896
 40
0.4371305254863864
 40
0.5070436156432693
 40
0.578559733523678
 40
0.6166135446965534
 40
0.6587562369775288
 40
0.7044912261144044
 40
0.75480311490515
 40
0.8093316253185656
 40
0.868274455472821
 40
0.9320728834092941
 40
1.0
 40
1.0
 40
1.0
 40
1.0
 10
6.787580128205112
 20
4.443589743589744
 30
0.0
 10
6.959322714856589
 20
4.437257177274551
 30
0.0
 10
7.295464383599558
 20
4.424862817493922
 30
0.0
 10
7.784879063471596
 20
4.326830824033839
 30
0.0
 10
8.241982520563624
 20
4.159389469724385
 30
0.0
 10
8.665144908708973
 20
3.930019957119044
 30
0.0
 10
9.046606511481986
 20
3.644790753625245
 30
0.0
 10
9.381613829695514
 20
3.312494231242026
 30
0.0
 10
9.658703327322744
 20
2.930274729215671
 30
0.0
 10
9.844476615921693
 20
2.575679276585717
 30
0.0
 10
9.966852537543282
 20
2.261122794510144
 30
0.0
 10
10.04389559080772
 20
1.991713158437177
 30
0.0
 10
10.10932229496031
 20
1.691564438480822
 30
0.0
 10
10.16604320919594
 20
1.361583643912012
 30
0.0
 10
10.20442301511492
 20
0.9994587821391644
 30
0.0
 10
10.23469361581414
 20
0.6066742995471351
 30
0.0
 10
10.25638773508883
 20
0.1833574260345982
 30
0.0
 10
10.25724845758361
 20
-0.1094197648526889
 30
0.0
 10
10.25769230769229
 20
-0.260396634615385
 30
0.0
  0
SPLINE
  5
EE
330
1F
100
AcDbEntity
  8
0
  6
Continuous
 62
     7
370
    25
100
AcDbSpline
210
0.0
220
0.0
230
1.0
 70
     8
 71
     3
 72
    19
 73
    15
 74
     0
 42
0.00000001
 43
0.00000001
 40
0.0
 40
0.0
 40
0.0
 40
0.0
 40
0.0984694310255575
 40
0.1896291011376319
 40
0.2741840894379702
 40
0.3521831609671538
 40
0.4231988731834698
 40
0.4885509460005329
 40
0.5484733460279388
 40
0.601440163617872
 40
0.7011980824257662
 40
0.7995918021381857
 40
0.8985450984822281
 40
1.0
 40
1.0
 40
1.0
 40
1.0
 10
41.62862580128204
 20
5.094871794871795
 30
0.0
 10
41.56641056059677
 20
5.17502218583388
 30
0.0
 10
41.44659855350653
 20
5.329373098961682
 30
0.0
 10
41.26470012975552
 20
5.545531872732975
 30
0.0
 10
41.09325503587334
 20
5.742985955606001
 30
0.0
 10
40.92434358522778
 20
5.914490848743586
 30
0.0
 10
40.7668866939086
 20
6.069438589712479
 30
0.0
 10
40.61406199775535
 20
6.202098278761229
 30
0.0
 10
40.46806878040818
 20
6.313769725036109
 30
0.0
 10
40.28403884749257
 20
6.432944928316513
 30
0.0
 10
40.05283455529126
 20
6.55107852692948
 30
0.0
 10
39.76260495236572
 20
6.651042324525783
 30
0.0
 10
39.45930618295313
 20
6.711113549202522
 30
0.0
 10
39.2527329486869
 20
6.719056084091494
 30
0.0
 10
39.14815705128205
 20
6.723076923076924
 30
0.0
  0
SPLINE
  5
EF
330
1F
100
AcDbEntity
  8
0
  6
Continuous
 62
     7
370
    25
100
AcDbSpline
210
0.0
220
0.0
230
1.0
 70
     8
 71
     3
 72
    15
 73
    11
 74
     0
 42
0.00000001
 43
0.00000001
 40
0.0
 40
0.0
 40
0.0
 40
0.0
 40
0.1590042985173769
 40
0.3046460998968137
 40
0.4385469045795915
 40
0.5623222987759277
 40
0.6774325425257309
 40
0.7868973929387543
 40
0.8936108891042654
 40
0.9999999999999999
 40
0.9999999999999999
 40
0.9999999999999999
 40
0.9999999999999999
 10
36.40564903846154
 20
-1.906410256410257
 30
0.0
 10
36.50550092791347
 20
-2.073558167504049
 30
0.0
 10
36.69681329476457
 20
-2.39380711483083
 30
0.0
 10
37.01595108368932
 20
-2.826543432958101
 30
0.0
 10
37.34663336134851
 20
-3.194343258912173
 30
0.0
 10
37.69130894308507
 20
-3.495066949128125
 30
0.0
 10
38.04787395484341
 20
-3.731827195326628
 30
0.0
 10
38.41865609268798
 20
-3.899475293276784
 30
0.0
 10
38.80240586298379
 20
-4.004036118195655
 30
0.0
 10
39.06356801520914
 20
-4.016736432265422
 30
0.0
 10
39.19395032051282
 20
-4.023076923076923
 30
0.0
  0
SPLINE
  5
F0
330
1F
100
AcDbEntity
  8
0
  6
Continuous
 62
     7
370
    25
100
AcDbSpline
210
0.0
220
0.0
230
1.0
 70
     8
 71
     3
 72
    15
 73
    11
 74
     0
 42
0.00000001
 43
0.00000001
 40
0.0
 40
0.0
 40
0.0
 40
0.0
 40
0.1910785917157202
 40
0.3626045563099713
 40
0.5160987502785596
 40
0.6500380260398401
 40
0.7659767209867911
 40
0.8623740257993888
 40
0.9408420582211751
 40
1.0
 40
1.0
 40
1.0
 40
1.0
 10
26.37692307692308
 20
0.0906850961538462
 30
0.0
 10
26.37675346307913
 20
-0.0170135735484355
 30
0.0
 10
26.37643159158074
 20
-0.2213903589952858
 30
0.0
 10
26.37858157048546
 20
-0.5122867637745456
 30
0.0
 10
26.38460270729923
 20
-0.7709039723336563
 30
0.0
 10
26.38839877198215
 20
-0.9982388620812355
 30
0.0
 10
26.39684366795248
 20
-1.193248260003274
 30
0.0
 10
26.40373086670382
 20
-1.35698867305632
 30
0.0
 10
26.41258660104721
 20
-1.488684779105432
 30
0.0
 10
26.42322962740333
 20
-1.565541282204363
 30
0.0
 10
26.42780448717949
 20
-1.598577724358975
 30
0.0
  0
SPLINE
  5
F1
330
1F
100
AcDbEntity
  8
0
  6
Continuous
 62
     7
370
    25
100
AcDbSpline
210
0.0
220
0.0
230
1.0
 70
     8
 71
     3
 72
    19
 73
    15
 74
     0
 42
0.00000001
 43
0.00000001
 40
0.0
 40
0.0
 40
0.0
 40
0.0
 40
0.0825922633314364
 40
0.1638788940984969
 40
0.2456587396295033
 40
0.3277256953541223
 40
0.408609960910319
 40
0.4857490859539305
 40
0.5591690561972781
 40
0.630268475857546
 40
0.7053060284320705
 40
0.7920649660966083
 40
0.8897964374100894
 40
1.0
 40
1.0
 40
1.0
 40
1.0
 10
-5.080508814102576
 20
-4.023076923076925
 30
0.0
 10
-4.966748935653711
 20
-4.020870546053864
 30
0.0
 10
-4.741027514288043
 20
-4.016492670791473
 30
0.0
 10
-4.404873546214548
 20
-3.973922594057244
 30
0.0
 10
-4.074167261079142
 20
-3.905087593946462
 30
0.0
 10
-3.750277407509505
 20
-3.811143915642881
 30
0.0
 10
-3.439777480897482
 20
-3.696565052284168
 30
0.0
 10
-3.152229342103873
 20
-3.558306111671802
 30
0.0
 10
-2.887778273974789
 20
-3.405362744918883
 30
0.0
 10
-2.640610995218787
 20
-3.230430495457461
 30
0.0
 10
-2.40086767648427
 20
-3.016315074046554
 30
0.0
 10
-2.163042082922215
 20
-2.749122600745145
 30
0.0
 10
-1.908038226432622
 20
-2.433119285644641
 30
0.0
 10
-1.748418847048114
 20
-2.195282154810482
 30
0.0
 10
-1.663822115384628
 20
-2.06923076923077
 30
0.0
  0
SPLINE
  5
F2
330
1F
100
AcDbEntity
  8
0
  6
Continuous
 62
     7
370
    25
100
AcDbSpline
210
0.0
220
0.0
230
1.0
 70
     8
 71
     3
 72
    19
 73
    15
 74
     0
 42
0.00000001
 43
0.00000001
 40
0.0
 40
0.0
 40
0.0
 40
0.0
 40
0.0863150037405916
 40
0.1677664659179403
 40
0.2444326843848595
 40
0.3181346623514534
 40
0.3918841069799638
 40
0.4700680503917545
 40
0.5539041787139097
 40
0.6443394983098202
 40
0.7368746633345099
 40
0.826168364307647
 40
0.913678594889581
 40
1.0
 40
1.0
 40
1.0
 40
1.0
 10
26.42780448717949
 20
-1.598577724358975
 30
0.0
 10
26.44659126627287
 20
-1.717764551377282
 30
0.0
 10
26.48310625669043
 20
-1.949422454248124
 30
0.0
 10
26.57616597033548
 20
-2.279289648371903
 30
0.0
 10
26.70613233111109
 20
-2.576583796977517
 30
0.0
 10
26.86013994328884
 20
-2.850581910440857
 30
0.0
 10
27.06309541876026
 20
-3.09365758831713
 30
0.0
 10
27.30622253247873
 20
-3.317582728447723
 30
0.0
 10
27.60078186400559
 20
-3.513423276720117
 30
0.0
 10
27.9282989188772
 20
-3.692496222470695
 30
0.0
 10
28.2813053521457
 20
-3.836423807058467
 30
0.0
 10
28.64202623290573
 20
-3.945256871950747
 30
0.0
 10
29.00503932869727
 20
-4.011583165414809
 30
0.0
 10
29.24806712770443
 20
-4.01926317825837
 30
0.0
 10
29.36875
 20
-4.023076923076923
 30
0.0
  0
SPLINE
  5
F3
330
1F
100
AcDbEntity
  8
0
  6
Continuous
 62
     7
370
    25
100
AcDbSpline
210
0.0
220
0.0
230
1.0
 70
     8
 71
     3
 72
    19
 73
    15
 74
     0
 42
0.00000001
 43
0.00000001
 40
0.0
 40
0.0
 40
0.0
 40
0.0
 40
0.1060574933033975
 40
0.2029142570846101
 40
0.2903001653958379
 40
0.3702225656250402
 40
0.4463837207709703
 40
0.5213968999648274
 40
0.5982910828464566
 40
0.6761424688569279
 40
0.7555286995560222
 40
0.8348871724576578
 40
0.9166460487466415
 40
1.0
 40
1.0
 40
1.0
 40
1.0
 10
-37.12562099358975
 20
1.851181891025641
 30
0.0
 10
-36.98134744203148
 20
1.795791752012515
 30
0.0
 10
-36.70531639868354
 20
1.689816694922404
 30
0.0
 10
-36.32545572500189
 20
1.502453725561693
 30
0.0
 10
-35.99817728744448
 20
1.298665496427267
 30
0.0
 10
-35.72096478629821
 20
1.076118497334441
 30
0.0
 10
-35.48388243845783
 20
0.8362379553245618
 30
0.0
 10
-35.27686176475054
 20
0.575506540766244
 30
0.0
 10
-35.10021792136668
 20
0.290523047896838
 30
0.0
 10
-34.94885959871441
 20
-0.0157412089895764
 30
0.0
 10
-34.83075411256213
 20
-0.3401589655988014
 30
0.0
 10
-34.74230440242049
 20
-0.6796872102950019
 30
0.0
 10
-34.6916225155563
 20
-1.033108453428804
 30
0.0
 10
-34.68441021720398
 20
-1.273629687028465
 30
0.0
 10
-34.68076923076924
 20
-1.395052083333333
 30
0.0
  0
SPLINE
  5
F4
330
1F
100
AcDbEntity
  8
0
  6
Continuous
 62
     7
370
    25
100
AcDbSpline
210
0.0
220
0.0
230
1.0
 70
     8
 71
     3
 72
    31
 73
    27
 74
     0
 42
0.00000001
 43
0.00000001
 40
0.0
 40
0.0
 40
0.0
 40
0.0
 40
0.0548580354451539
 40
0.1070587915426409
 40
0.1569783545765236
 40
0.2039922771829769
 40
0.2484915357868488
 40
0.2904833137405231
 40
0.3304890042981893
 40
0.3678859257629634
 40
0.4038581313538709
 40
0.4400093433074115
 40
0.4762950107796835
 40
0.5127922945733484
 40
0.5504848246303716
 40
0.5883811157748439
 40
0.6276453271698538
 40
0.6679794644543808
 40
0.7084327575000835
 40
0.748602302288634
 40
0.7890877771957819
 40
0.8294612046317065
 40
0.8703710453051787
 40
0.912214227149442
 40
0.955546574931686
 40
1.0
 40
1.0
 40
1.0
 40
1.0
 10
33.37820512820513
 20
0.0296274038461535
 30
0.0
 10
33.37728303423851
 20
-0.108615285482159
 30
0.0
 10
33.37548351179929
 20
-0.3784042988690994
 30
0.0
 10
33.35987856279539
 20
-0.7737420873277118
 30
0.0
 10
33.33499744904611
 20
-1.14876576235563
 30
0.0
 10
33.2998435298258
 20
-1.503525735470182
 30
0.0
 10
33.25326354689442
 20
-1.836752541868097
 30
0.0
 10
33.20146488963469
 20
-2.151366986390304
 30
0.0
 10
33.13549915539916
 20
-2.445110702566589
 30
0.0
 10
33.05845224253446
 20
-2.720274046594513
 30
0.0
 10
32.97037393965797
 20
-2.982204338124945
 30
0.0
 10
32.85628748710678
 20
-3.230792739905354
 30
0.0
 10
32.72774715877902
 20
-3.473596418563336
 30
0.0
 10
32.57529398964204
 20
-3.706942985077745
 30
0.0
 10
32.40398411548114
 20
-3.931865620748293
 30
0.0
 10
32.21003087391248
 20
-4.147000264355084
 30
0.0
 10
31.99984891866873
 20
-4.355784803694423
 30
0.0
 10
31.76994423098597
 20
-4.552863643734547
 30
0.0
 10
31.52410661076871
 20
-4.733597985583692
 30
0.0
 10
31.2630673358377
 20
-4.892521326373562
 30
0.0
 10
30.98883162844988
 20
-5.026864166947738
 30
0.0
 10
30.70211234222755
 20
-5.137448235488882
 30
0.0
 10
30.40278712031477
 20
-5.220595495434697
 30
0.0
 10
30.09084841503029
 20
-5.282553917840031
 30
0.0
 10
29.76558619928878
 20
-5.317759397483599
 30
0.0
 10
29.54437158965591
 20
-5.322991543700525
 30
0.0
 10
29.43235176282051
 20
-5.325641025641026
 30
0.0
  0
SPLINE
  5
F5
330
1F
100
AcDbEntity
  8
0
  6
Continuous
 62
     7
370
    25
100
AcDbSpline
210
0.0
220
0.0
230
1.0
 70
     8
 71
     3
 72
    15
 73
    11
 74
     0
 42
0.00000001
 43
0.00000001
 40
0.0
 40
0.0
 40
0.0
 40
0.0
 40
0.0525942815291367
 40
0.1249519739750381
 40
0.2180938989285936
 40
0.3335024107325184
 40
0.468789178504448
 40
0.6249375859645987
 40
0.8016830479282286
 40
1.0
 40
1.0
 40
1.0
 40
1.0
 10
38.12289663461538
 20
3.474298878205128
 30
0.0
 10
38.15069647163756
 20
3.44949024167343
 30
0.0
 10
38.21674252096296
 20
3.390550600021559
 30
0.0
 10
38.33748659436115
 20
3.294058610257121
 30
0.0
 10
38.49693617650982
 20
3.175031407928571
 30
0.0
 10
38.69092759220864
 20
3.027757431005756
 30
0.0
 10
38.92303773333252
 20
2.856918982751661
 30
0.0
 10
39.19329212277153
 20
2.664700447185881
 30
0.0
 10
39.49867825620116
 20
2.444861781646621
 30
0.0
 10
39.71538349389394
 20
2.291164420004858
 30
0.0
 10
39.82996794871794
 20
2.209895833333334
 30
0.0
  0
SPLINE
  5
F6
330
1F
100
AcDbEntity
  8
0
  6
Continuous
 62
     7
370
    25
100
AcDbSpline
210
0.0
220
0.0
230
1.0
 70
     8
 71
     3
 72
    15
 73
    11
 74
     0
 42
0.00000001
 43
0.00000001
 40
0.0
 40
0.0
 40
0.0
 40
0.0
 40
0.17885001941116
 40
0.3421096489422997
 40
0.4898256633683922
 40
0.6232544282245642
 40
0.7400796760857927
 40
0.8414826730699855
 40
0.9289076721840654
 40
1.0
 40
1.0
 40
1.0
 40
1.0
 10
9.117948717948705
 20
-0.6343750000000005
 30
0.0
 10
9.117247648851382
 20
-0.5080192712585067
 30
0.0
 10
9.11590662298201
 20
-0.2663222664501104
 30
0.0
 10
9.111676990726687
 20
0.0797310462691286
 30
0.0
 10
9.101481406767357
 20
0.3935537736163557
 30
0.0
 10
9.08715467132915
 20
0.6743956496303163
 30
0.0
 10
9.066185046265863
 20
0.9219869994459016
 30
0.0
 10
9.044331498224437
 20
1.136832089325614
 30
0.0
 10
9.01760715384695
 20
1.318658143296109
 30
0.0
 10
8.993793154749246
 20
1.42811429937204
 30
0.0
 10
8.983112980769215
 20
1.477203525641025
 30
0.0
  0
SPLINE
  5
F7
330
1F
100
AcDbEntity
  8
0
  6
Continuous
 62
     7
370
    25
100
AcDbSpline
210
0.0
220
0.0
230
1.0
 70
     8
 71
     3
 72
    11
 73
     7
 74
     0
 42
0.00000001
 43
0.00000001
 40
0.0
 40
0.0
 40
0.0
 40
0.0
 40
0.2951388013693786
 40
0.560229944888239
 40
0.7949833567409018
 40
1.0
 40
1.0
 40
1.0
 40
1.0
 10
-16.90789262820514
 20
3.138481570512821
 30
0.0
 10
-16.96271679064145
 20
3.1629391075592
 30
0.0
 10
-17.06678354620776
 20
3.209364194901231
 30
0.0
 10
-17.21901868666867
 20
3.264308060237481
 30
0.0
 10
-17.35937667994926
 20
3.296660097743511
 30
0.0
 10
-17.44879759172311
 20
3.301561272498326
 30
0.0
 10
-17.49048477564104
 20
3.303846153846155
 30
0.0
  0
SPLINE
  5
F8
330
1F
100
AcDbEntity
  8
0
  6
Continuous
 62
     7
370
    25
100
AcDbSpline
210
0.0
220
0.0
230
1.0
 70
     8
 71
     3
 72
    23
 73
    19
 74
     0
 42
0.00000001
 43
0.00000001
 40
0.0
 40
0.0
 40
0.0
 40
0.0
 40
0.0715786576891418
 40
0.1396292246928478
 40
0.2047966973966657
 40
0.2681349633966816
 40
0.3298137469867301
 40
0.3913013977745597
 40
0.4534335150970538
 40
0.5165516903197666
 40
0.579631270704923
 40
0.6411189214927527
 40
0.7012940466987742
 40
0.7608103356761335
 40
0.8199317217781439
 40
0.8789195754993824
 40
0.9389828222504466
 40
0.9999999999999999
 40
0.9999999999999999
 40
0.9999999999999999
 40
0.9999999999999999
 10
-4.938040865384628
 20
-5.162820512820514
 30
0.0
 10
-5.116356041013232
 20
-5.158657905196065
 30
0.0
 10
-5.464197290455491
 20
-5.150537863635264
 30
0.0
 10
-5.970527229979286
 20
-5.080533778401622
 30
0.0
 10
-6.447246833878873
 20
-4.966334076855994
 30
0.0
 10
-6.894329300333374
 20
-4.806801969159086
 30
0.0
 10
-7.310679759686194
 20
-4.598422821745779
 30
0.0
 10
-7.697125718575182
 20
-4.344569844915122
 30
0.0
 10
-8.055699426728303
 20
-4.046547092188099
 30
0.0
 10
-8.375101557200143
 20
-3.701773140106833
 30
0.0
 10
-8.662643645892308
 20
-3.332812895063522
 30
0.0
 10
-8.916374478375515
 20
-2.948344399928675
 30
0.0
 10
-9.128491442469192
 20
-2.549334985409029
 30
0.0
 10
-9.30103948517942
 20
-2.138324798165306
 30
0.0
 10
-9.440394280926974
 20
-1.717904384451648
 30
0.0
 10
-9.53751917746067
 20
-1.284248487843342
 30
0.0
 10
-9.593507120138408
 20
-0.8385307964575717
 30
0.0
 10
-9.602086679659681
 20
-0.5370061782817148
 30
0.0
 10
-9.60641025641027
 20
-0.385056089743591
 30
0.0
  0
SPLINE
  5
F9
330
1F
100
AcDbEntity
  8
0
  6
Continuous
 62
     7
370
    25
100
AcDbSpline
210
0.0
220
0.0
230
1.0
 70
     8
 71
     3
 72
    15
 73
    11
 74
     0
 42
0.00000001
 43
0.00000001
 40
0.0
 40
0.0
 40
0.0
 40
0.0
 40
0.1288840014739258
 40
0.2529849718578375
 40
0.3742104371825976
 40
0.4941015128996906
 40
0.6147527632399881
 40
0.7385110703733286
 40
0.8662425140769309
 40
1.0
 40
1.0
 40
1.0
 40
1.0
 10
17.41161858974358
 20
4.443589743589744
 30
0.0
 10
17.60109100635416
 20
4.437903423690101
 30
0.0
 10
17.97300430386117
 20
4.426741809654733
 30
0.0
 10
18.51692179626868
 20
4.333464420810872
 30
0.0
 10
19.03140826879001
 20
4.17684483561377
 30
0.0
 10
19.51942568046442
 20
3.962427900585
 30
0.0
 10
19.97806462753574
 20
3.683750888774071
 30
0.0
 10
20.41068700910091
 20
3.347195635166818
 30
0.0
 10
20.80976935223968
 20
2.943237133657925
 30
0.0
 10
21.0458871083143
 20
2.639846567105756
 30
0.0
 10
21.16666666666666
 20
2.484655448717949
 30
0.0
  0
SPLINE
  5
FA
330
1F
100
AcDbEntity
  8
0
  6
Continuous
 62
     7
370
    25
100
AcDbSpline
210
0.0
220
0.0
230
1.0
 70
     8
 71
     3
 72
    23
 73
    19
 74
     0
 42
0.00000001
 43
0.00000001
 40
0.0
 40
0.0
 40
0.0
 40
0.0
 40
0.0572082694335099
 40
0.1136960596574915
 40
0.169177916417195
 40
0.2241592165805434
 40
0.2787198783810435
 40
0.3337942174469891
 40
0.3892414593400035
 40
0.4458220733936221
 40
0.50370428110902
 40
0.5642938918193642
 40
0.6279754158952239
 40
0.6950382596840514
 40
0.7653727258510125
 40
0.8396114430907354
 40
0.9175377500777894
 40
1.0
 40
1.0
 40
1.0
 40
1.0
 10
39.19395032051283
 20
-5.325641025641026
 30
0.0
 10
39.09802779026756
 20
-5.323786166701847
 30
0.0
 10
38.90739077521265
 20
-5.320099808860692
 30
0.0
 10
38.62541636955856
 20
-5.2875105913288
 30
0.0
 10
38.34913843161128
 20
-5.241401958297951
 30
0.0
 10
38.08202375108745
 20
-5.168198904381633
 30
0.0
 10
37.82063085741598
 20
-5.079382444828883
 30
0.0
 10
37.5660966064218
 20
-4.970023352258304
 30
0.0
 10
37.31829763957334
 20
-4.838969507006411
 30
0.0
 10
37.07584526745101
 20
-4.689127560496747
 30
0.0
 10
36.83935611966709
 20
-4.514746601651688
 30
0.0
 10
36.61104833603949
 20
-4.311642771718841
 30
0.0
 10
36.38343100574843
 20
-4.085417653607554
 30
0.0
 10
36.16322245338152
 20
-3.829927895123678
 30
0.0
 10
35.94596847261477
 20
-3.549301137325475
 30
0.0
 10
35.73595252943948
 20
-3.240911814711951
 30
0.0
 10
35.52882743957556
 20
-2.906439702500812
 30
0.0
 10
35.39886845631646
 20
-2.67107210574604
 30
0.0
 10
35.33205128205127
 20
-2.550060096153846
 30
0.0
  0
SPLINE
  5
FB
330
1F
100
AcDbEntity
  8
0
  6
Continuous
 62
     7
370
    25
100
AcDbSpline
210
0.0
220
0.0
230
1.0
 70
     8
 71
     3
 72
    15
 73
    11
 74
     0
 42
0.00000001
 43
0.00000001
 40
0.0
 40
0.0
 40
0.0
 40
0.0
 40
0.0708548685015312
 40
0.1569381495573537
 40
0.2586003949600847
 40
0.3758909295892028
 40
0.5081661676989031
 40
0.6562378085782241
 40
0.8201767703979103
 40
1.0
 40
1.0
 40
1.0
 40
1.0
 10
-19.33493589743591
 20
1.304206730769231
 30
0.0
 10
-19.3521077247892
 20
1.230629558068937
 30
0.0
 10
-19.39014201751088
 20
1.06766171157584
 30
0.0
 10
-19.42712274054346
 20
0.7942542075854169
 30
0.0
 10
-19.46366070577264
 20
0.4712255029274778
 30
0.0
 10
-19.48941129235961
 20
0.0976764373214324
 30
0.0
 10
-19.51328018807861
 20
-0.3254601449321811
 30
0.0
 10
-19.52674248644566
 20
-0.798828861909268
 30
0.0
 10
-19.53800245360874
 20
-1.322915593196131
 30
0.0
 10
-19.53830386768314
 20
-1.689308246353041
 30
0.0
 10
-19.53846153846155
 20
-1.880969551282051
 30
0.0
  0
SPLINE
  5
FC
330
1F
100
AcDbEntity
  8
0
  6
Continuous
 62
     7
370
    25
100
AcDbSpline
210
0.0
220
0.0
230
1.0
 70
     8
 71
     3
 72
    23
 73
    19
 74
     0
 42
0.00000001
 43
0.00000001
 40
0.0
 40
0.0
 40
0.0
 40
0.0
 40
0.0646199913407675
 40
0.1274334841444694
 40
0.1890041265579396
 40
0.2499300706860469
 40
0.3106684537406716
 40
0.3723289611368243
 40
0.4349391099970084
 40
0.4995755441940338
 40
0.5641912077719236
 40
0.6267352169294785
 40
0.6881093335614016
 40
0.7492936065367513
 40
0.8103305278109453
 40
0.8719011702244158
 40
0.9350459146845315
 40
1.0
 40
1.0
 40
1.0
 40
1.0
 10
-27.88810096153848
 20
-5.162820512820513
 30
0.0
 10
-28.05199610830225
 20
-5.158370533443875
 30
0.0
 10
-28.37520459461011
 20
-5.14959497707858
 30
0.0
 10
-28.85065296022845
 20
-5.081514618235115
 30
0.0
 10
-29.30818769395669
 20
-4.972183505419575
 30
0.0
 10
-29.74824114332947
 20
-4.820143134978029
 30
0.0
 10
-30.1679657853332
 20
-4.618464153605174
 30
0.0
 10
-30.57095527897275
 20
-4.377014482140612
 30
0.0
 10
-30.95512190429923
 20
-4.089483470133686
 30
0.0
 10
-31.31461005996809
 20
-3.760778338681772
 30
0.0
 10
-31.6456518899035
 20
-3.40374509947267
 30
0.0
 10
-31.93615993627542
 20
-3.022942686525776
 30
0.0
 10
-32.17837825460551
 20
-2.620017755258092
 30
0.0
 10
-32.38092540460045
 20
-2.200071739719049
 30
0.0
 10
-32.53694071157111
 20
-1.759871888838414
 30
0.0
 10
-32.64570218444987
 20
-1.300940450885501
 30
0.0
 10
-32.71370323390656
 20
-0.8238200526123414
 30
0.0
 10
-32.72247516267767
 20
-0.4989194973797028
 30
0.0
 10
-32.72692307692309
 20
-0.3341746794871797
 30
0.0
  0
SPLINE
  5
FD
330
1F
100
AcDbEntity
  8
0
  6
Continuous
 62
     7
370
    25
100
AcDbSpline
210
0.0
220
0.0
230
1.0
 70
     8
 71
     3
 72
    23
 73
    19
 74
     0
 42
0.00000001
 43
0.00000001
 40
0.0
 40
0.0
 40
0.0
 40
0.0
 40
0.0639861098164667
 40
0.126626858089477
 40
0.1889843719814868
 40
0.2502301939603979
 40
0.3123511629623216
 40
0.3745736184579387
 40
0.438147530878204
 40
0.5029204126073702
 40
0.5679740951402714
 40
0.63077133374919
 40
0.6929346089254588
 40
0.7543975343123294
 40
0.8152183520172954
 40
0.8761169254810911
 40
0.9380146047939532
 40
1.0
 40
1.0
 40
1.0
 40
1.0
 10
6.589142628205112
 20
3.303846153846155
 30
0.0
 10
6.4974570334103
 20
3.302118936924166
 30
0.0
 10
6.316013610232476
 20
3.298700819262418
 30
0.0
 10
6.046955140744451
 20
3.264406109293285
 30
0.0
 10
5.785973140927288
 20
3.20831399897924
 30
0.0
 10
5.530448382574811
 20
3.132590657196621
 30
0.0
 10
5.285491531021943
 20
3.028587566017149
 30
0.0
 10
5.043232531596707
 20
2.910552422629634
 30
0.0
 10
4.812793701754187
 20
2.763420339140008
 30
0.0
 10
4.589261375030845
 20
2.599442941344302
 30
0.0
 10
4.381297758689342
 20
2.417726960941622
 30
0.0
 10
4.187792073599248
 20
2.225976881243998
 30
0.0
 10
4.015296971545254
 20
2.021776833183916
 30
0.0
 10
3.859019206944427
 20
1.80841702357842
 30
0.0
 10
3.724115222688655
 20
1.582967211417516
 30
0.0
 10
3.606356874576836
 20
1.347602442194427
 30
0.0
 10
3.506441639189687
 20
1.102012930747831
 30
0.0
 10
3.456793012227666
 20
0.9315605657105122
 30
0.0
 10
3.431951121794856
 20
0.8462740384615388
 30
0.0
  0
SPLINE
  5
FE
330
1F
100
AcDbEntity
  8
0
  6
Continuous
 62
     7
370
    25
100
AcDbSpline
210
0.0
220
0.0
230
1.0
 70
     8
 71
     3
 72
    23
 73
    19
 74
     0
 42
0.00000001
 43
0.00000001
 40
0.0
 40
0.0
 40
0.0
 40
0.0
 40
0.063774532305632
 40
0.1260788099895059
 40
0.1869040927472075
 40
0.2475739349176198
 40
0.308003356164447
 40
0.3691318984609779
 40
0.4320332277442047
 40
0.4967907944370912
 40
0.5616108232295657
 40
0.6249138657484627
 40
0.6867263492419251
 40
0.7480788332577716
 40
0.8095822911398957
 40
0.8716307425688277
 40
0.9348858208285541
 40
1.0
 40
1.0
 40
1.0
 40
1.0
 10
12.53717948717948
 20
-0.3341746794871797
 30
0.0
 10
12.54172598334748
 20
-0.1728349551066831
 30
0.0
 10
12.5507141610065
 20
0.1461249763663305
 30
0.0
 10
12.61767298728405
 20
0.6152219662007291
 30
0.0
 10
12.7302712187045
 20
1.067045369432778
 30
0.0
 10
12.88828769452073
 20
1.500140563416133
 30
0.0
 10
13.09091421681547
 20
1.915031602526726
 30
0.0
 10
13.33739613257685
 20
2.312011921866647
 30
0.0
 10
13.62775124219834
 20
2.692175164086033
 30
0.0
 10
13.96249569051494
 20
3.04658218711416
 30
0.0
 10
14.32511614224795
 20
3.373954130320202
 30
0.0
 10
14.71304210871229
 20
3.658466952354284
 30
0.0
 10
15.11662372950502
 20
3.904182375200996
 30
0.0
 10
15.54212093911481
 20
4.098867846369751
 30
0.0
 10
15.98323586229702
 20
4.256380882859648
 30
0.0
 10
16.44389550829412
 20
4.36535765282437
 30
0.0
 10
16.9221832366312
 20
4.429573647038114
 30
0.0
 10
17.24690587926566
 20
4.438872819814912
 30
0.0
 10
17.41161858974358
 20
4.443589743589744
 30
0.0
  0
SPLINE
  5
FF
330
1F
100
AcDbEntity
  8
0
  6
Continuous
 62
     7
370
    25
100
AcDbSpline
210
0.0
220
0.0
230
1.0
 70
     8
 71
     3
 72
    19
 73
    15
 74
     0
 42
0.00000001
 43
0.00000001
 40
0.0
 40
0.0
 40
0.0
 40
0.0
 40
0.0912636048966262
 40
0.1809303110850806
 40
0.2700882198317213
 40
0.3601561333877259
 40
0.4483425324981537
 40
0.5326658421383302
 40
0.6138337041070477
 40
0.6939815272835582
 40
0.7727159770890035
 40
0.8493351720622465
 40
0.9239673265752321
 40
1.0
 40
1.0
 40
1.0
 40
1.0
 10
39.19395032051282
 20
-4.023076923076923
 30
0.0
 10
39.30529978579737
 20
-4.019975682818311
 30
0.0
 10
39.52605036228309
 20
-4.013827466720824
 30
0.0
 10
39.85103335817053
 20
-3.954751413570155
 30
0.0
 10
40.16665304067878
 20
-3.86399311722701
 30
0.0
 10
40.46640438330103
 20
-3.734014308610511
 30
0.0
 10
40.74615132745831
 20
-3.576757517551284
 30
0.0
 10
40.99146705053694
 20
-3.386815673453335
 30
0.0
 10
41.20354294693104
 20
-3.17415886986365
 30
0.0
 10
41.37702173407468
 20
-2.93691323730584
 30
0.0
 10
41.51011786212103
 20
-2.681762440930772
 30
0.0
 10
41.61241479607754
 20
-2.419866846074695
 30
0.0
 10
41.66918406334499
 20
-2.147112326890931
 30
0.0
 10
41.67773571160212
 20
-1.96346864741466
 30
0.0
 10
41.68205128205128
 20
-1.870793269230769
 30
0.0
  0
SPLINE
  5
100
330
1F
100
AcDbEntity
  8
0
  6
Continuous
 62
     7
370
    25
100
AcDbSpline
210
0.0
220
0.0
230
1.0
 70
     8
 71
     3
 72
    19
 73
    15
 74
     0
 42
0.00000001
 43
0.00000001
 40
0.0
 40
0.0
 40
0.0
 40
0.0
 40
0.1072327993600893
 40
0.2132518127818498
 40
0.3188304473075876
 40
0.4267935306342763
 40
0.4836459507827197
 40
0.5436038220211434
 40
0.6083076495640835
 40
0.6771267602600406
 40
0.7506856360204962
 40
0.8287134184432878
 40
0.9121903482234526
 40
1.0
 40
1.0
 40
1.0
 40
1.0
 10
39.27536057692307
 20
8.025641025641024
 30
0.0
 10
39.42501774086156
 20
8.020479195552566
 30
0.0
 10
39.72263807434279
 20
8.010213962991218
 30
0.0
 10
40.16042237083799
 20
7.920960063631028
 30
0.0
 10
40.58191982749165
 20
7.773274768857491
 30
0.0
 10
40.92098538840807
 20
7.605675924196032
 30
0.0
 10
41.186352837141
 20
7.438284787179303
 30
0.0
 10
41.38872818146938
 20
7.285812853367505
 30
0.0
 10
41.59380578860922
 20
7.110280316432271
 30
0.0
 10
41.80323987327353
 20
6.911219623510445
 30
0.0
 10
42.0134816946671
 20
6.68680426955672
 30
0.0
 10
42.22765250709588
 20
6.438571198371825
 30
0.0
 10
42.44625313963752
 20
6.168037409949631
 30
0.0
 10
42.58688154637285
 20
5.974908507211829
 30
0.0
 10
42.65897435897435
 20
5.875901442307693
 30
0.0
  0
SPLINE
  5
101
330
1F
100
AcDbEntity
  8
0
  6
Continuous
 62
     7
370
    25
100
AcDbSpline
210
0.0
220
0.0
230
1.0
 70
     8
 71
     3
 72
    19
 73
    15
 74
     0
 42
0.00000001
 43
0.00000001
 40
0.0
 40
0.0
 40
0.0
 40
0.0
 40
0.0828906475568685
 40
0.1653025405594707
 40
0.2477618761145894
 40
0.3315277110598004
 40
0.4152798127751554
 40
0.496366230484051
 40
0.5771513480211474
 40
0.6577825401388807
 40
0.7393216419943471
 40
0.8237930816663164
 40
0.9094759533791142
 40
0.9999999999999999
 40
0.9999999999999999
 40
0.9999999999999999
 40
0.9999999999999999
 10
29.36875
 20
-4.023076923076923
 30
0.0
 10
29.47235928656752
 20
-4.019180380626425
 30
0.0
 10
29.67897943974483
 20
-4.011409801128623
 30
0.0
 10
29.98597991681573
 20
-3.963289751393025
 30
0.0
 10
30.28497459677539
 20
-3.876564841637443
 30
0.0
 10
30.57743992101051
 20
-3.764660575375421
 30
0.0
 10
30.85158206447588
 20
-3.616805030544422
 30
0.0
 10
31.10755398263181
 20
-3.446005127316353
 30
0.0
 10
31.33602311540355
 20
-3.245668520051825
 30
0.0
 10
31.54451356468007
 20
-3.023961555611643
 30
0.0
 10
31.7260689033452
 20
-2.773808567159151
 30
0.0
 10
31.88344418858581
 20
-2.500656466238917
 30
0.0
 10
32.01235256187092
 20
-2.200394550407799
 30
0.0
 10
32.07601049485983
 20
-1.989377075386576
 30
0.0
 10
32.10871394230769
 20
-1.880969551282051
 30
0.0
  0
SPLINE
  5
102
330
1F
100
AcDbEntity
  8
0
  6
Continuous
 62
     7
370
    25
100
AcDbSpline
210
0.0
220
0.0
230
1.0
 70
     8
 71
     3
 72
    11
 73
     7
 74
     0
 42
0.00000001
 43
0.00000001
 40
0.0
 40
0.0
 40
0.0
 40
0.0
 40
0.2347233736739014
 40
0.477158318928988
 40
0.7285562842030536
 40
1.0
 40
1.0
 40
1.0
 40
1.0
 10
41.68205128205128
 20
-1.870793269230769
 30
0.0
 10
41.67670164037098
 20
-1.765053614577972
 30
0.0
 10
41.66582660056948
 20
-1.55010034823494
 30
0.0
 10
41.57390951573509
 20
-1.23296446465916
 30
0.0
 10
41.42931367718888
 20
-0.9191199962854129
 30
0.0
 10
41.29591779860225
 20
-0.724986832617539
 30
0.0
 10
41.2266626602564
 20
-0.6241987179487182
 30
0.0
  0
SPLINE
  5
103
330
1F
100
AcDbEntity
  8
0
  6
Continuous
 62
     7
370
    25
100
AcDbSpline
210
0.0
220
0.0
230
1.0
 70
     8
 71
     3
 72
    23
 73
    19
 74
     0
 42
0.00000001
 43
0.00000001
 40
0.0
 40
0.0
 40
0.0
 40
0.0
 40
0.0614842551968906
 40
0.1217745277022105
 40
0.1809195598139321
 40
0.2402561150782715
 40
0.3001144444023517
 40
0.3611459476126121
 40
0.4235005824125855
 40
0.4886693612807191
 40
0.5539541046535628
 40
0.6175812610152623
 40
0.6802384268167396
 40
0.7421873887724536
 40
0.8046632117692939
 40
0.8682589893126629
 40
0.9330202571803766
 40
1.0
 40
1.0
 40
1.0
 40
1.0
 10
42.82179487179487
 20
-1.888601762820513
 30
0.0
 10
42.81941039917364
 20
-2.002460401881655
 30
0.0
 10
42.81468775877833
 20
-2.227966622166623
 30
0.0
 10
42.76040101449593
 20
-2.55909218685314
 30
0.0
 10
42.68086394376316
 20
-2.880695628277782
 30
0.0
 10
42.56098598057119
 20
-3.188801664863973
 30
0.0
 10
42.41467052059958
 20
-3.489046946601054
 30
0.0
 10
42.22901013548569
 20
-3.773555613806391
 30
0.0
 10
42.0138079651518
 20
-4.048624545821889
 30
0.0
 10
41.7669425896416
 20
-4.306918928739133
 30
0.0
 10
41.4968103155217
 20
-4.544032268457619
 30
0.0
 10
41.21130090917394
 20
-4.754957720086302
 30
0.0
 10
40.90994706167002
 20
-4.930828493549313
 30
0.0
 10
40.59438356970512
 20
-5.074341548987645
 30
0.0
 10
40.26453794793953
 20
-5.186586026868612
 30
0.0
 10
39.92052113231141
 20
-5.267912723429204
 30
0.0
 10
39.56176604874332
 20
-5.317826303029622
 30
0.0
 10
39.31792430132317
 20
-5.323007037486889
 30
0.0
 10
39.19395032051282
 20
-5.325641025641025
 30
0.0
  0
SPLINE
  5
104
330
1F
100
AcDbEntity
  8
0
  6
Continuous
 62
     7
370
    25
100
AcDbSpline
210
0.0
220
0.0
230
1.0
 70
     8
 71
     3
 72
    15
 73
    11
 74
     0
 42
0.00000001
 43
0.00000001
 40
0.0
 40
0.0
 40
0.0
 40
0.0
 40
0.1305691070873099
 40
0.2565806086940828
 40
0.3805516168036837
 40
0.5036229172007088
 40
0.6257393231697881
 40
0.7475485819596268
 40
0.8717661185648721
 40
0.9999999999999999
 40
0.9999999999999999
 40
0.9999999999999999
 40
0.9999999999999999
 10
-35.65769230769231
 20
4.552984775641026
 30
0.0
 10
-35.66165912889815
 20
4.412731216466729
 30
0.0
 10
-35.66945430665714
 20
4.13711974613333
 30
0.0
 10
-35.74399517623601
 20
3.734006835304076
 30
0.0
 10
-35.8606924588595
 20
3.350280984130576
 30
0.0
 10
-36.02290864868295
 20
2.987342614189259
 30
0.0
 10
-36.23373589203032
 20
2.653392075060772
 30
0.0
 10
-36.48359321975801
 20
2.345735423983029
 30
0.0
 10
-36.7850433316538
 20
2.077398731458488
 30
0.0
 10
-37.01089737389569
 20
1.927383056488721
 30
0.0
 10
-37.12562099358975
 20
1.851181891025641
 30
0.0
  0
SPLINE
  5
105
330
1F
100
AcDbEntity
  8
0
  6
Continuous
 62
     7
370
    25
100
AcDbSpline
210
0.0
220
0.0
230
1.0
 70
     8
 71
     3
 72
    23
 73
    19
 74
     0
 42
0.00000001
 43
0.00000001
 40
0.0
 40
0.0
 40
0.0
 40
0.0
 40
0.063774532305632
 40
0.1260788099895059
 40
0.1869040927472074
 40
0.2475739349176198
 40
0.3080033561644469
 40
0.3691318984609777
 40
0.4320332277442044
 40
0.4967907944370913
 40
0.5616108232295655
 40
0.6249138657484622
 40
0.6867263492419245
 40
0.748078833257771
 40
0.8095822911398958
 40
0.8716307425688273
 40
0.9348858208285536
 40
1.0
 40
1.0
 40
1.0
 40
1.0
 10
-32.72692307692309
 20
-0.3341746794871797
 30
0.0
 10
-32.72237658075509
 20
-0.1728349551066831
 30
0.0
 10
-32.71338840309607
 20
0.1461249763663305
 30
0.0
 10
-32.64642957681852
 20
0.6152219662007292
 30
0.0
 10
-32.53383134539806
 20
1.067045369432778
 30
0.0
 10
-32.37581486958184
 20
1.500140563416132
 30
0.0
 10
-32.17318834728709
 20
1.915031602526726
 30
0.0
 10
-31.92670643152572
 20
2.312011921866647
 30
0.0
 10
-31.63635132190423
 20
2.692175164086035
 30
0.0
 10
-31.30160687358762
 20
3.046582187114157
 30
0.0
 10
-30.93898642185463
 20
3.373954130320203
 30
0.0
 10
-30.55106045539026
 20
3.658466952354285
 30
0.0
 10
-30.14747883459756
 20
3.904182375200996
 30
0.0
 10
-29.72198162498775
 20
4.098867846369751
 30
0.0
 10
-29.28086670180554
 20
4.256380882859645
 30
0.0
 10
-28.82020705580845
 20
4.365357652824371
 30
0.0
 10
-28.34191932747137
 20
4.429573647038115
 30
0.0
 10
-28.01719668483691
 20
4.438872819814912
 30
0.0
 10
-27.85248397435899
 20
4.443589743589744
 30
0.0
  0
SPLINE
  5
106
330
1F
100
AcDbEntity
  8
0
  6
Continuous
 62
     7
370
    25
100
AcDbSpline
210
0.0
220
0.0
230
1.0
 70
     8
 71
     3
 72
    19
 73
    15
 74
     0
 42
0.00000001
 43
0.00000001
 40
0.0
 40
0.0
 40
0.0
 40
0.0
 40
0.0969723103815165
 40
0.187773438962869
 40
0.2723961390136934
 40
0.3513209973752892
 40
0.4243347744514673
 40
0.491908784000527
 40
0.5542332197968007
 40
0.6112676582441551
 40
0.7163478449915541
 40
0.8145400858216159
 40
0.9084954561491857
 40
1.0
 40
1.0
 40
1.0
 40
1.0
 10
39.82996794871794
 20
2.209895833333334
 30
0.0
 10
39.96780254843341
 20
2.109597185824358
 30
0.0
 10
40.23470014729251
 20
1.915382756035184
 30
0.0
 10
40.61445765154288
 20
1.623588717078453
 30
0.0
 10
40.95878661234418
 20
1.338209671108896
 30
0.0
 10
41.26889595101309
 20
1.061068068217369
 30
0.0
 10
41.54784930449453
 20
0.794266130746996
 30
0.0
 10
41.79255189094306
 20
0.5345940192631832
 30
0.0
 10
42.00549707391711
 20
0.2839120841019777
 30
0.0
 10
42.23474738090111
 20
-0.0374798334060328
 30
0.0
 10
42.46900004030397
 20
-0.4321997677729171
 30
0.0
 10
42.67017351010736
 20
-0.9158093762086288
 30
0.0
 10
42.79702237087105
 20
-1.401298882011907
 30
0.0
 10
42.81361044115272
 20
-1.727604831507115
 30
0.0
 10
42.82179487179487
 20
-1.888601762820513
 30
0.0
  0
SPLINE
  5
107
330
1F
100
AcDbEntity
  8
0
  6
Continuous
 62
     7
370
    25
100
AcDbSpline
210
0.0
220
0.0
230
1.0
 70
     8
 71
     3
 72
    15
 73
    11
 74
     0
 42
0.00000001
 43
0.00000001
 40
0.0
 40
0.0
 40
0.0
 40
0.0
 40
0.1280448079611202
 40
0.2537679000244899
 40
0.3774284265813015
 40
0.5005508414825331
 40
0.6232958832424763
 40
0.746578331933508
 40
0.8723475406047169
 40
1.0
 40
1.0
 40
1.0
 40
1.0
 10
-9.60641025641027
 20
-0.385056089743591
 30
0.0
 10
-9.60256708643925
 20
-0.2424719907998151
 30
0.0
 10
-9.594950431078423
 20
0.0401108639211109
 30
0.0
 10
-9.546941573964194
 20
0.4583601255024253
 30
0.0
 10
-9.461857767688821
 20
0.8648633675346217
 30
0.0
 10
-9.345103677930528
 20
1.259958364450241
 30
0.0
 10
-9.1943320132085
 20
1.642983593478209
 30
0.0
 10
-9.009883674909643
 20
2.014172167196528
 30
0.0
 10
-8.791471332647486
 20
2.373129103261628
 30
0.0
 10
-8.62284191644545
 20
2.599563331287127
 30
0.0
 10
-8.537900641025654
 20
2.713621794871794
 30
0.0
  0
SPLINE
  5
108
330
1F
100
AcDbEntity
  8
0
  6
Continuous
 62
     7
370
    25
100
AcDbSpline
210
0.0
220
0.0
230
1.0
 70
     8
 71
     3
 72
    15
 73
    11
 74
     0
 42
0.00000001
 43
0.00000001
 40
0.0
 40
0.0
 40
0.0
 40
0.0
 40
0.0902792146500154
 40
0.1895299184469583
 40
0.2991978724002888
 40
0.4189258867738204
 40
0.5483762854012477
 40
0.6881363695386823
 40
0.8390835016589209
 40
1.0
 40
1.0
 40
1.0
 40
1.0
 10
41.2266626602564
 20
-0.6241987179487182
 30
0.0
 10
41.16980071737252
 20
-0.5514573865880249
 30
0.0
 10
41.05042618094909
 20
-0.3987460603546061
 30
0.0
 10
40.84520320668302
 20
-0.171433348772285
 30
0.0
 10
40.60438902048917
 20
0.0630391999965935
 30
0.0
 10
40.33622469266682
 20
0.3136249209270431
 30
0.0
 10
40.03094177030231
 20
0.5686692117664999
 30
0.0
 10
39.69810193232516
 20
0.8403341060021168
 30
0.0
 10
39.32920735836236
 20
1.118288399857199
 30
0.0
 10
39.0704920420628
 20
1.304697423411837
 30
0.0
 10
38.93699919871794
 20
1.40088141025641
 30
0.0
  0
SPLINE
  5
109
330
1F
100
AcDbEntity
  8
0
  6
Continuous
 62
     7
370
    25
100
AcDbSpline
210
0.0
220
0.0
230
1.0
 70
     8
 71
     3
 72
    15
 73
    11
 74
     0
 42
0.00000001
 43
0.00000001
 40
0.0
 40
0.0
 40
0.0
 40
0.0
 40
0.1355195283706055
 40
0.2608331631936792
 40
0.3784760291245034
 40
0.4931776464746766
 40
0.6092809649289385
 40
0.7299810378566457
 40
0.8592613089300661
 40
1.0
 40
1.0
 40
1.0
 40
1.0
 10
8.983112980769215
 20
1.477203525641025
 30
0.0
 10
8.944557480731987
 20
1.62129839673678
 30
0.0
 10
8.870350071998077
 20
1.898636441517368
 30
0.0
 10
8.68698390465826
 20
2.274826235315189
 30
0.0
 10
8.455429591515527
 20
2.594859659724356
 30
0.0
 10
8.172771680961917
 20
2.856758049618584
 30
0.0
 10
7.841740463638286
 20
3.060577942805331
 30
0.0
 10
7.463254545594999
 20
3.201997721386375
 30
0.0
 10
7.040966335155439
 20
3.290448755336698
 30
0.0
 10
6.743951860883084
 20
3.299255777220878
 30
0.0
 10
6.589142628205112
 20
3.303846153846155
 30
0.0
  0
SPLINE
  5
10A
330
1F
100
AcDbEntity
  8
0
  6
Continuous
 62
     7
370
    25
100
AcDbSpline
210
0.0
220
0.0
230
1.0
 70
     8
 71
     3
 72
    15
 73
    11
 74
     0
 42
0.00000001
 43
0.00000001
 40
0.0
 40
0.0
 40
0.0
 40
0.0
 40
0.1342983790141681
 40
0.2620849753823006
 40
0.3862699121344998
 40
0.5071645966228
 40
0.6273002357255058
 40
0.7481449416029938
 40
0.8723701771613516
 40
1.0
 40
1.0
 40
1.0
 40
1.0
 10
21.16666666666666
 20
-3.394691506410257
 30
0.0
 10
21.03814705496602
 20
-3.539978033057253
 30
0.0
 10
20.78733941666123
 20
-3.823506516715577
 30
0.0
 10
20.36845307430761
 20
-4.193918971182014
 30
0.0
 10
19.9244314002043
 20
-4.50009173791307
 30
0.0
 10
19.45742946353005
 20
-4.747378574883061
 30
0.0
 10
18.96786898053673
 20
-4.933132607878622
 30
0.0
 10
18.45683517813431
 20
-5.065162385277943
 30
0.0
 10
17.92411959613651
 20
-5.150048587188683
 30
0.0
 10
17.5603467658985
 20
-5.158525009399161
 30
0.0
 10
17.37600160256409
 20
-5.162820512820513
 30
0.0
  0
SPLINE
  5
10B
330
1F
100
AcDbEntity
  8
0
  6
Continuous
 62
     7
370
    25
100
AcDbSpline
210
0.0
220
0.0
230
1.0
 70
     8
 71
     3
 72
    15
 73
    11
 74
     0
 42
0.00000001
 43
0.00000001
 40
0.0
 40
0.0
 40
0.0
 40
0.0
 40
0.1072852142689565
 40
0.2147458609696404
 40
0.3229385595552865
 40
0.434116162517467
 40
0.5534123109627953
 40
0.686072984810731
 40
0.8342559920595843
 40
1.0
 40
1.0
 40
1.0
 40
1.0
 10
37.28589743589743
 20
5.11522435897436
 30
0.0
 10
37.28732392397266
 20
5.047183279698971
 30
0.0
 10
37.29017923271177
 20
4.910989860597746
 30
0.0
 10
37.33000207003097
 20
4.709780415221979
 30
0.0
 10
37.38116249224939
 20
4.50907926933152
 30
0.0
 10
37.46223432746896
 20
4.309788754476117
 30
0.0
 10
37.57415871487479
 20
4.108423508772193
 30
0.0
 10
37.72113463887786
 20
3.901516061059739
 30
0.0
 10
37.90624008545925
 20
3.687242718163748
 30
0.0
 10
38.04803381599152
 20
3.547878819037663
 30
0.0
 10
38.12289663461538
 20
3.474298878205128
 30
0.0
  0
SPLINE
  5
10C
330
1F
100
AcDbEntity
  8
0
  6
Continuous
 62
     7
370
    25
100
AcDbSpline
210
0.0
220
0.0
230
1.0
 70
     8
 71
     3
 72
    23
 73
    19
 74
     0
 42
0.00000001
 43
0.00000001
 40
0.0
 40
0.0
 40
0.0
 40
0.0
 40
0.068384615103768
 40
0.1344755875434509
 40
0.1983910577839564
 40
0.2607534774484865
 40
0.3218292228076488
 40
0.3830372384795245
 40
0.4446531231064262
 40
0.5073980112040049
 40
0.5698252379730248
 40
0.630777640631313
 40
0.6909286865237168
 40
0.7509451326917359
 40
0.8110494767293275
 40
0.8723308525469933
 40
0.9350040935894052
 40
1.0
 40
1.0
 40
1.0
 40
1.0
 10
-8.466666666666677
 20
-0.6038461538461545
 30
0.0
 10
-8.461080094766611
 20
-0.7261306955428284
 30
0.0
 10
-8.450094326440283
 20
-0.9665983148631827
 30
0.0
 10
-8.398876521236353
 20
-1.318463727762431
 30
0.0
 10
-8.318145256398434
 20
-1.653646997899023
 30
0.0
 10
-8.204683229110167
 20
-1.969634035917034
 30
0.0
 10
-8.06728067632813
 20
-2.2705519271868
 30
0.0
 10
-7.89896678970488
 20
-2.554168461330105
 30
0.0
 10
-7.698163265362951
 20
-2.819191807511163
 30
0.0
 10
-7.474187156168244
 20
-3.067992563920527
 30
0.0
 10
-7.224878553093314
 20
-3.28955589730047
 30
0.0
 10
-6.962595441747845
 20
-3.487863771064833
 30
0.0
 10
-6.683581648787077
 20
-3.654072650625667
 30
0.0
 10
-6.390037174394727
 20
-3.788982536302467
 30
0.0
 10
-6.082436696871575
 20
-3.894596883145492
 30
0.0
 10
-5.760683303165891
 20
-3.966688689623532
 30
0.0
 10
-5.425410138107232
 20
-4.014974477426606
 30
0.0
 10
-5.196861903188297
 20
-4.020343548297097
 30
0.0
 10
-5.080508814102576
 20
-4.023076923076925
 30
0.0
  0
SPLINE
  5
10D
330
1F
100
AcDbEntity
  8
0
  6
Continuous
 62
     7
370
    25
100
AcDbSpline
210
0.0
220
0.0
230
1.0
 70
     8
 71
     3
 72
    23
 73
    19
 74
     0
 42
0.00000001
 43
0.00000001
 40
0.0
 40
0.0
 40
0.0
 40
0.0
 40
0.06563379967569
 40
0.1291880880571289
 40
0.1912186831121888
 40
0.2519128178811572
 40
0.3125074743865506
 40
0.3734944337751978
 40
0.43515159965405
 40
0.4987414744066496
 40
0.5620952169966312
 40
0.6241865668116557
 40
0.6854757184651956
 40
0.746096814806053
 40
0.8076116364477848
 40
0.8699665806571898
 40
0.933951018914907
 40
1.0
 40
1.0
 40
1.0
 40
1.0
 10
21.16666666666666
 20
-0.379967948717949
 30
0.0
 10
21.16318448497546
 20
-0.2517421065898031
 30
0.0
 10
21.15633044944535
 20
0.0006469287228365
 30
0.0
 10
21.10396809714844
 20
0.3712239210556336
 30
0.0
 10
21.02067450702518
 20
0.7258577269007948
 30
0.0
 10
20.90330411867969
 20
1.064921198627715
 30
0.0
 10
20.74912145808609
 20
1.386539683076392
 30
0.0
 10
20.5631652790126
 20
1.69302247012526
 30
0.0
 10
20.342165504265
 20
1.982775551453521
 30
0.0
 10
20.08967972127367
 20
2.251808980432549
 30
0.0
 10
19.81330884346583
 20
2.497196429201727
 30
0.0
 10
19.52086579602943
 20
2.716232388355837
 30
0.0
 10
19.20888577135532
 20
2.896168792297602
 30
0.0
 10
18.88261538025377
 20
3.04508997744619
 30
0.0
 10
18.54148853806289
 20
3.163596035646061
 30
0.0
 10
18.18272943186416
 20
3.242654238747334
 30
0.0
 10
17.81015139358599
 20
3.296938832218641
 30
0.0
 10
17.55598427829079
 20
3.301519471010119
 30
0.0
 10
17.4268830128205
 20
3.303846153846155
 30
0.0
  0
SPLINE
  5
10E
330
1F
100
AcDbEntity
  8
0
  6
Continuous
 62
     7
370
    25
100
AcDbSpline
210
0.0
220
0.0
230
1.0
 70
     8
 71
     3
 72
    19
 73
    15
 74
     0
 42
0.00000001
 43
0.00000001
 40
0.0
 40
0.0
 40
0.0
 40
0.0
 40
0.0848023883688273
 40
0.1686635395998416
 40
0.2525519243727823
 40
0.338239689464245
 40
0.4231026613931557
 40
0.5055560510576225
 40
0.5861756559890523
 40
0.6671357203303608
 40
0.7484991803055339
 40
0.830452398758279
 40
0.9134557062010135
 40
1.0
 40
1.0
 40
1.0
 40
1.0
 10
17.41670673076922
 20
-4.023076923076924
 30
0.0
 10
17.58161261222052
 20
-4.017053625403291
 30
0.0
 10
17.90959405474121
 20
-4.005073883732805
 30
0.0
 10
18.39378593762012
 20
-3.913339006811659
 30
0.0
 10
18.86366765977237
 20
-3.761777938512865
 30
0.0
 10
19.31283845988812
 20
-3.55168682150669
 30
0.0
 10
19.73127127862458
 20
-3.291310130108732
 30
0.0
 10
20.10682072026138
 20
-2.986484399796663
 30
0.0
 10
20.42437866264511
 20
-2.631961417411109
 30
0.0
 10
20.69359184597183
 20
-2.24233828779066
 30
0.0
 10
20.90468550084967
 20
-1.815211900632646
 30
0.0
 10
21.0584500585076
 20
-1.360427837068908
 30
0.0
 10
21.14935994518163
 20
-0.8779702652283453
 30
0.0
 10
21.16081799274178
 20
-0.548264015978495
 30
0.0
 10
21.16666666666666
 20
-0.379967948717949
 30
0.0
  0
SPLINE
  5
10F
330
1F
100
AcDbEntity
  8
0
  6
Continuous
 62
     7
370
    25
100
AcDbSpline
210
0.0
220
0.0
230
1.0
 70
     8
 71
     3
 72
    19
 73
    15
 74
     0
 42
0.00000001
 43
0.00000001
 40
0.0
 40
0.0
 40
0.0
 40
0.0
 40
0.0815893489321834
 40
0.1628588951679349
 40
0.2454836892755791
 40
0.3308071391580109
 40
0.4164933737762844
 40
0.499893203160632
 40
0.583048155995021
 40
0.6671578520621576
 40
0.751311929292914
 40
0.8337847893576152
 40
0.91625648854398
 40
1.0
 40
1.0
 40
1.0
 40
1.0
 10
13.67692307692307
 20
-0.3468950320512825
 30
0.0
 10
13.68368997550423
 20
-0.5050648495475122
 30
0.0
 10
13.69719724870919
 20
-0.820784512266734
 30
0.0
 10
13.79426405409617
 20
-1.28879974796908
 30
0.0
 10
13.95711388055503
 20
-1.744744414877307
 30
0.0
 10
14.1793350795968
 20
-2.184748591363034
 30
0.0
 10
14.45759797504095
 20
-2.593268041254141
 30
0.0
 10
14.78013680001619
 20
-2.962439343120395
 30
0.0
 10
15.15007067792288
 20
-3.279901563424583
 30
0.0
 10
15.55983620359169
 20
-3.545649330507366
 30
0.0
 10
15.99747083904438
 20
-3.760324763470799
 30
0.0
 10
16.45769681896019
 20
-3.909697226824667
 30
0.0
 10
16.93186270598518
 20
-4.006136602217873
 30
0.0
 10
17.25426974596219
 20
-4.017401418169476
 30
0.0
 10
17.41670673076922
 20
-4.023076923076924
 30
0.0
  0
SPLINE
  5
110
330
1F
100
AcDbEntity
  8
0
  6
Continuous
 62
     7
370
    25
100
AcDbSpline
210
0.0
220
0.0
230
1.0
 70
     8
 71
     3
 72
    19
 73
    15
 74
     0
 42
0.00000001
 43
0.00000001
 40
0.0
 40
0.0
 40
0.0
 40
0.0
 40
0.0859205174117674
 40
0.1695934351247435
 40
0.2524755148685383
 40
0.3362444769570506
 40
0.4195045210415721
 40
0.5020359066440893
 40
0.5847746476768717
 40
0.6698464747058009
 40
0.7541848663887865
 40
0.8366582383293272
 40
0.9180097257088055
 40
0.9999999999999999
 40
0.9999999999999999
 40
0.9999999999999999
 40
0.9999999999999999
 10
17.4268830128205
 20
3.303846153846155
 30
0.0
 10
17.26027955825618
 20
3.297918382652436
 30
0.0
 10
16.93143083836541
 20
3.286217905168598
 30
0.0
 10
16.44867117373889
 20
3.1948740797846
 30
0.0
 10
15.98670535690516
 20
3.04289283737898
 30
0.0
 10
15.54784388741635
 20
2.835041367425208
 30
0.0
 10
15.13901921567149
 20
2.573679951700467
 30
0.0
 10
14.77364503866223
 20
2.257553789470108
 30
0.0
 10
14.44873295088498
 20
1.89528805239466
 30
0.0
 10
14.17547153495465
 20
1.488517537550291
 30
0.0
 10
13.95271173184609
 20
1.052442749958422
 30
0.0
 10
13.79607707310422
 20
0.596605503134519
 30
0.0
 10
13.69277437536242
 20
0.1292274417145486
 30
0.0
 10
13.68222060075365
 20
-0.1877743038218463
 30
0.0
 10
13.67692307692307
 20
-0.3468950320512825
 30
0.0
  0
SPLINE
  5
112
330
1F
100
AcDbEntity
  8
0
  6
Continuous
 62
     7
370
    25
100
AcDbSpline
210
0.0
220
0.0
230
1.0
 70
     8
 71
     3
 72
    15
 73
    11
 74
     0
 42
0.00000001
 43
0.00000001
 40
0.0
 40
0.0
 40
0.0
 40
0.0
 40
0.1099838451118728
 40
0.2225804973638879
 40
0.3384998709624456
 40
0.4587085654776334
 40
0.5855353464579961
 40
0.7175177429458918
 40
0.854666819751022
 40
1.0
 40
1.0
 40
1.0
 40
1.0
 10
-7.242968750000013
 20
2.433774038461538
 30
0.0
 10
-7.303541515985005
 20
2.3790032360528
 30
0.0
 10
-7.426126031610297
 20
2.268160480657627
 30
0.0
 10
-7.58992163815717
 20
2.077191645458172
 30
0.0
 10
-7.746750210475633
 20
1.871264548470235
 30
0.0
 10
-7.889475179035247
 20
1.642500810642694
 30
0.0
 10
-8.020385278474881
 20
1.393505412533049
 30
0.0
 10
-8.142885767102921
 20
1.126378564681023
 30
0.0
 10
-8.253145033799074
 20
0.8390932063031908
 30
0.0
 10
-8.315179490206267
 20
0.6388960696748552
 30
0.0
 10
-8.347095352564116
 20
0.5358974358974349
 30
0.0
  0
SPLINE
  5
113
330
1F
100
AcDbEntity
  8
0
  6
Continuous
 62
     7
370
    25
100
AcDbSpline
210
0.0
220
0.0
230
1.0
 70
     8
 71
     3
 72
    15
 73
    11
 74
     0
 42
0.00000001
 43
0.00000001
 40
0.0
 40
0.0
 40
0.0
 40
0.0
 40
0.1310919762569279
 40
0.2591412763281418
 40
0.3841617634834039
 40
0.5059919524977756
 40
0.6290980893898566
 40
0.7506691234237088
 40
0.8740389376151272
 40
1.0
 40
1.0
 40
1.0
 40
1.0
 10
-4.851542467948731
 20
3.303846153846154
 30
0.0
 10
-4.965296144851696
 20
3.301626659953979
 30
0.0
 10
-5.190163248555123
 20
3.297239187154778
 30
0.0
 10
-5.521455695998972
 20
3.255619003576131
 30
0.0
 10
-5.839607746359185
 20
3.186821852183873
 30
0.0
 10
-6.146966932834602
 20
3.09260615251326
 30
0.0
 10
-6.439505512356414
 20
2.967026366288966
 30
0.0
 10
-6.723240814178581
 20
2.819767229734532
 30
0.0
 10
-6.990958251981174
 20
2.640002054222709
 30
0.0
 10
-7.158385238426431
 20
2.50299135240307
 30
0.0
 10
-7.242968750000013
 20
2.433774038461538
 30
0.0
  0
SPLINE
  5
114
330
1F
100
AcDbEntity
  8
0
  6
Continuous
 62
     7
370
    25
100
AcDbSpline
210
0.0
220
0.0
230
1.0
 70
     8
 71
     3
 72
    19
 73
    15
 74
     0
 42
0.00000001
 43
0.00000001
 40
0.0
 40
0.0
 40
0.0
 40
0.0
 40
0.0962401251801506
 40
0.1852312611287012
 40
0.2675005230774393
 40
0.3444003817777769
 40
0.4195948685557303
 40
0.4968906265927778
 40
0.5766379188385162
 40
0.6602678524196385
 40
0.7453866150876286
 40
0.830040327386453
 40
0.9144742116388023
 40
1.0
 40
1.0
 40
1.0
 40
1.0
 10
-1.302564102564114
 20
0.5358974358974349
 30
0.0
 10
-1.344280425944106
 20
0.6870741491263871
 30
0.0
 10
-1.424570919902466
 20
0.9780406580775446
 30
0.0
 10
-1.592342870893772
 20
1.380960460545686
 30
0.0
 10
-1.781288175705586
 20
1.739056558494872
 30
0.0
 10
-2.00488702955132
 20
2.049588369869804
 30
0.0
 10
-2.258229262539421
 20
2.325372545547831
 30
0.0
 10
-2.550856068147604
 20
2.566377126013737
 30
0.0
 10
-2.879009167394066
 20
2.781977591315607
 30
0.0
 10
-3.240992334996417
 20
2.963959517952458
 30
0.0
 10
-3.624321097986178
 20
3.118862719602201
 30
0.0
 10
-4.025663565997092
 20
3.222730996750859
 30
0.0
 10
-4.435176110556876
 20
3.293885621666721
 30
0.0
 10
-4.712160521018536
 20
3.300511786544418
 30
0.0
 10
-4.851542467948732
 20
3.303846153846154
 30
0.0
  0
SPLINE
  5
115
330
1F
100
AcDbEntity
  8
0
  6
Continuous
 62
     7
370
    25
100
AcDbSpline
210
0.0
220
0.0
230
1.0
 70
     8
 71
     3
 72
    19
 73
    15
 74
     0
 42
0.00000001
 43
0.00000001
 40
0.0
 40
0.0
 40
0.0
 40
0.0
 40
0.0815893489321833
 40
0.1628588951679349
 40
0.2454836892755792
 40
0.330807139158011
 40
0.4164933737762846
 40
0.499893203160632
 40
0.583048155995021
 40
0.6671578520621576
 40
0.7513119292929147
 40
0.8337847893576152
 40
0.91625648854398
 40
1.0
 40
1.0
 40
1.0
 40
1.0
 10
-31.5871794871795
 20
-0.3468950320512825
 30
0.0
 10
-31.58041258859833
 20
-0.5050648495475124
 30
0.0
 10
-31.56690531539338
 20
-0.8207845122667352
 30
0.0
 10
-31.4698385100064
 20
-1.288799747969079
 30
0.0
 10
-31.30698868354754
 20
-1.744744414877308
 30
0.0
 10
-31.08476748450577
 20
-2.184748591363033
 30
0.0
 10
-30.80650458906161
 20
-2.59326804125414
 30
0.0
 10
-30.48396576408638
 20
-2.962439343120395
 30
0.0
 10
-30.11403188617968
 20
-3.279901563424584
 30
0.0
 10
-29.70426636051087
 20
-3.545649330507367
 30
0.0
 10
-29.2666317250582
 20
-3.760324763470798
 30
0.0
 10
-28.80640574514236
 20
-3.909697226824667
 30
0.0
 10
-28.3322398581174
 20
-4.006136602217873
 30
0.0
 10
-28.00983281814039
 20
-4.017401418169476
 30
0.0
 10
-27.84739583333335
 20
-4.023076923076924
 30
0.0
  0
SPLINE
  5
116
330
1F
100
AcDbEntity
  8
0
  6
Continuous
 62
     7
370
    25
100
AcDbSpline
210
0.0
220
0.0
230
1.0
 70
     8
 71
     3
 72
    19
 73
    15
 74
     0
 42
0.00000001
 43
0.00000001
 40
0.0
 40
0.0
 40
0.0
 40
0.0
 40
0.0859205174117674
 40
0.1695934351247436
 40
0.2524755148685384
 40
0.3362444769570509
 40
0.4195045210415721
 40
0.5020359066440893
 40
0.5847746476768715
 40
0.669846474705801
 40
0.7541848663887863
 40
0.8366582383293272
 40
0.9180097257088055
 40
1.0
 40
1.0
 40
1.0
 40
1.0
 10
-27.83721955128206
 20
3.303846153846155
 30
0.0
 10
-28.00382300584638
 20
3.297918382652437
 30
0.0
 10
-28.33267172573714
 20
3.286217905168598
 30
0.0
 10
-28.81543139036369
 20
3.194874079784601
 30
0.0
 10
-29.2773972071974
 20
3.042892837378979
 30
0.0
 10
-29.71625867668622
 20
2.83504136742521
 30
0.0
 10
-30.12508334843107
 20
2.573679951700466
 30
0.0
 10
-30.49045752544034
 20
2.257553789470109
 30
0.0
 10
-30.8153696132176
 20
1.895288052394657
 30
0.0
 10
-31.08863102914792
 20
1.488517537550293
 30
0.0
 10
-31.31139083225647
 20
1.052442749958421
 30
0.0
 10
-31.46802549099835
 20
0.5966055031345197
 30
0.0
 10
-31.57132818874014
 20
0.1292274417145483
 30
0.0
 10
-31.58188196334892
 20
-0.1877743038218464
 30
0.0
 10
-31.5871794871795
 20
-0.3468950320512825
 30
0.0
  0
SPLINE
  5
117
330
1F
100
AcDbEntity
  8
0
  6
Continuous
 62
     7
370
    25
100
AcDbSpline
210
0.0
220
0.0
230
1.0
 70
     8
 71
     3
 72
    19
 73
    15
 74
     0
 42
0.00000001
 43
0.00000001
 40
0.0
 40
0.0
 40
0.0
 40
0.0
 40
0.0848023883688279
 40
0.168663539599841
 40
0.2525519243727823
 40
0.3382396894642449
 40
0.4231026613931556
 40
0.5055560510576224
 40
0.5861756559890522
 40
0.6671357203303604
 40
0.748499180305534
 40
0.830452398758279
 40
0.9134557062010135
 40
1.0
 40
1.0
 40
1.0
 40
1.0
 10
-27.84739583333335
 20
-4.023076923076923
 30
0.0
 10
-27.68248995188205
 20
-4.017053625403289
 30
0.0
 10
-27.35450850936137
 20
-4.005073883732806
 30
0.0
 10
-26.87031662648245
 20
-3.913339006811657
 30
0.0
 10
-26.4004349043302
 20
-3.761777938512866
 30
0.0
 10
-25.95126410421445
 20
-3.551686821506689
 30
0.0
 10
-25.53283128547798
 20
-3.291310130108732
 30
0.0
 10
-25.15728184384118
 20
-2.986484399796663
 30
0.0
 10
-24.83972390145745
 20
-2.631961417411111
 30
0.0
 10
-24.57051071813074
 20
-2.242338287790656
 30
0.0
 10
-24.3594170632529
 20
-1.815211900632649
 30
0.0
 10
-24.20565250559497
 20
-1.360427837068907
 30
0.0
 10
-24.11474261892092
 20
-0.8779702652283454
 30
0.0
 10
-24.10328457136078
 20
-0.5482640159784951
 30
0.0
 10
-24.09743589743591
 20
-0.379967948717949
 30
0.0
  0
SPLINE
  5
118
330
1F
100
AcDbEntity
  8
0
  6
Continuous
 62
     7
370
    25
100
AcDbSpline
210
0.0
220
0.0
230
1.0
 70
     8
 71
     3
 72
    23
 73
    19
 74
     0
 42
0.00000001
 43
0.00000001
 40
0.0
 40
0.0
 40
0.0
 40
0.0
 40
0.0656337996756899
 40
0.1291880880571288
 40
0.1912186831121887
 40
0.2519128178811572
 40
0.3125074743865505
 40
0.373494433775198
 40
0.4351515996540498
 40
0.498741474406649
 40
0.5620952169966307
 40
0.6241865668116555
 40
0.685475718465195
 40
0.7460968148060529
 40
0.8076116364477847
 40
0.8699665806571896
 40
0.9339510189149068
 40
1.0
 40
1.0
 40
1.0
 40
1.0
 10
-24.09743589743591
 20
-0.379967948717949
 30
0.0
 10
-24.10091807912711
 20
-0.2517421065898031
 30
0.0
 10
-24.10777211465722
 20
0.0006469287228365
 30
0.0
 10
-24.16013446695413
 20
0.3712239210556337
 30
0.0
 10
-24.2434280570774
 20
0.725857726900795
 30
0.0
 10
-24.36079844542288
 20
1.064921198627714
 30
0.0
 10
-24.51498110601647
 20
1.386539683076393
 30
0.0
 10
-24.70093728508997
 20
1.693022470125257
 30
0.0
 10
-24.92193705983758
 20
1.982775551453522
 30
0.0
 10
-25.1744228428289
 20
2.251808980432551
 30
0.0
 10
-25.45079372063673
 20
2.497196429201727
 30
0.0
 10
-25.74323676807313
 20
2.716232388355835
 30
0.0
 10
-26.05521679274726
 20
2.896168792297604
 30
0.0
 10
-26.38148718384878
 20
3.045089977446189
 30
0.0
 10
-26.72261402603968
 20
3.163596035646062
 30
0.0
 10
-27.08137313223842
 20
3.242654238747335
 30
0.0
 10
-27.45395117051659
 20
3.296938832218641
 30
0.0
 10
-27.70811828581179
 20
3.301519471010119
 30
0.0
 10
-27.83721955128206
 20
3.303846153846155
 30
0.0
  0
SPLINE
  5
11C
330
1F
100
AcDbEntity
  8
0
  6
Continuous
 62
     7
370
    25
100
AcDbSpline
210
0.0
220
0.0
230
1.0
 70
     8
 71
     3
 72
    19
 73
    15
 74
     0
 42
0.00000001
 43
0.00000001
 40
0.0
 40
0.0
 40
0.0
 40
0.0
 40
0.0602873979279713
 40
0.1196023547075217
 40
0.1775033710185411
 40
0.2351426637323306
 40
0.2921325932269339
 40
0.350871208641566
 40
0.4100978625665939
 40
0.4707315215304501
 40
0.594828704080416
 40
0.7225788240942905
 40
0.8566913895440167
 40
1.0
 40
1.0
 40
1.0
 40
1.0
 10
-35.82051282051282
 20
-1.395052083333333
 30
0.0
 10
-35.82151468482289
 20
-1.327947676321501
 30
0.0
 10
-35.82350225328164
 20
-1.19482126241563
 30
0.0
 10
-35.85347648457605
 20
-0.9991838613622999
 30
0.0
 10
-35.89706966925621
 20
-0.8096785496401644
 30
0.0
 10
-35.9534265864872
 20
-0.6257907484525822
 30
0.0
 10
-36.03550293850329
 20
-0.4508450685618882
 30
0.0
 10
-36.13132097327964
 20
-0.2813814953857354
 30
0.0
 10
-36.24366663067588
 20
-0.1171760129051256
 30
0.0
 10
-36.41872403253848
 20
0.0904227353253968
 30
0.0
 10
-36.67334809065387
 20
0.3296073250034917
 30
0.0
 10
-37.03514124726092
 20
0.5637862617996192
 30
0.0
 10
-37.44652072846375
 20
0.7526454475170363
 30
0.0
 10
-37.74488905982936
 20
0.8328349759451597
 30
0.0
 10
-37.89901842948718
 20
0.8742588141025641
 30
0.0
  0
SPLINE
  5
11D
330
1F
100
AcDbEntity
  8
0
  6
Continuous
 62
     7
370
    25
100
AcDbSpline
210
0.0
220
0.0
230
1.0
 70
     8
 71
     3
 72
    23
 73
    19
 74
     0
 42
0.00000001
 43
0.00000001
 40
0.0
 40
0.0
 40
0.0
 40
0.0
 40
0.0725024889330336
 40
0.1397389892678943
 40
0.2017951348259224
 40
0.2598219344148625
 40
0.3122059893845972
 40
0.3607734341243379
 40
0.4045403426007484
 40
0.4436980985527627
 40
0.5168407942439696
 40
0.5878743359442808
 40
0.6579654175616312
 40
0.7289693886473115
 40
0.7993077199548836
 40
0.8666357778344712
 40
0.933116329057274
 40
1.0
 40
1.0
 40
1.0
 40
1.0
 10
-39.40765224358974
 20
-3.697435897435898
 30
0.0
 10
-39.29146928384824
 20
-3.696043442596263
 30
0.0
 10
-39.06754194558231
 20
-3.693359669463017
 30
0.0
 10
-38.74423176771496
 20
-3.684598285770897
 30
0.0
 10
-38.4445730767795
 20
-3.664669171091431
 30
0.0
 10
-38.16993326998982
 20
-3.633297088025864
 30
0.0
 10
-37.91734677044419
 20
-3.599266715315509
 30
0.0
 10
-37.6898436765965
 20
-3.553505781685472
 30
0.0
 10
-37.48557980317919
 20
-3.501076696350239
 30
0.0
 10
-37.24872731509633
 20
-3.420035557097409
 30
0.0
 10
-36.98201458504829
 20
-3.294136934054702
 30
0.0
 10
-36.69459233473478
 20
-3.104311026765747
 30
0.0
 10
-36.43904577175508
 20
-2.87816645284719
 30
0.0
 10
-36.22203811691961
 20
-2.616434278559977
 30
0.0
 10
-36.04419098705283
 20
-2.331840606563143
 30
0.0
 10
-35.91481262146386
 20
-2.03014176530628
 30
0.0
 10
-35.83501722708304
 20
-1.716322851530841
 30
0.0
 10
-35.82535735565975
 20
-1.502357923160684
 30
0.0
 10
-35.82051282051282
 20
-1.395052083333333
 30
0.0
  0
SPLINE
  5
11E
330
1F
100
AcDbEntity
  8
0
  6
Continuous
 62
     7
370
    25
100
AcDbSpline
210
0.0
220
0.0
230
1.0
 70
     8
 71
     3
 72
    15
 73
    11
 74
     0
 42
0.00000001
 43
0.00000001
 40
0.0
 40
0.0
 40
0.0
 40
0.0
 40
0.0793064855229998
 40
0.1719528189279335
 40
0.2770565073915918
 40
0.3947305758644764
 40
0.5261773212767586
 40
0.6713447665976124
 40
0.8292852571892535
 40
1.0
 40
1.0
 40
1.0
 40
1.0
 10
-37.89901842948718
 20
0.8742588141025641
 30
0.0
 10
-37.96080972015118
 20
0.8867958330265191
 30
0.0
 10
-38.0947859838174
 20
0.9139786760274452
 30
0.0
 10
-38.31325348994482
 20
0.9426723426118085
 30
0.0
 10
-38.56266649996167
 20
0.9682358456489145
 30
0.0
 10
-38.84360094018191
 20
0.9871449034572649
 30
0.0
 10
-39.15641224936591
 20
1.006690361474464
 30
0.0
 10
-39.50176849716797
 20
1.014291569546661
 30
0.0
 10
-39.87825932464563
 20
1.023360313314236
 30
0.0
 10
-40.13948879021034
 20
1.024017571848754
 30
0.0
 10
-40.27518028846154
 20
1.024358974358974
 30
0.0
  0
SPLINE
  5
122
330
1F
100
AcDbEntity
  8
0
  6
Continuous
 62
     7
370
    25
100
AcDbSpline
210
0.0
220
0.0
230
1.0
 70
     8
 71
     3
 72
    23
 73
    19
 74
     0
 42
0.00000001
 43
0.00000001
 40
0.0
 40
0.0
 40
0.0
 40
0.0
 40
0.0723010339955059
 40
0.1397003317393864
 40
0.2022885114847736
 40
0.2605995332222016
 40
0.3131903291553319
 40
0.361738932985429
 40
0.405706475632223
 40
0.4455399848948711
 40
0.5188319558616069
 40
0.5897782395835762
 40
0.6588674786561456
 40
0.7284304780610633
 40
0.7972827036080995
 40
0.8648153774014452
 40
0.9313637528792684
 40
1.0
 40
1.0
 40
1.0
 40
1.0
 10
-40.26500400641026
 20
2.326923076923077
 30
0.0
 10
-40.15306694893771
 20
2.328374226118072
 30
0.0
 10
-39.93678174250739
 20
2.331178142089134
 30
0.0
 10
-39.62356383213692
 20
2.339210046856811
 30
0.0
 10
-39.33282448039662
 20
2.361700090112784
 30
0.0
 10
-39.06506554324246
 20
2.384183669568134
 30
0.0
 10
-38.82070867513502
 20
2.420740030519653
 30
0.0
 10
-38.60029523482725
 20
2.464254305087331
 30
0.0
 10
-38.40036604022182
 20
2.510275132151584
 30
0.0
 10
-38.16980826070391
 20
2.588541556047235
 30
0.0
 10
-37.9082864191559
 20
2.704211977428806
 30
0.0
 10
-37.62949201265273
 20
2.883724068492778
 30
0.0
 10
-37.38371265157317
 20
3.097535292958077
 30
0.0
 10
-37.17616857042037
 20
3.344245354183449
 30
0.0
 10
-37.00630980593085
 20
3.615902657154276
 30
0.0
 10
-36.88833146808539
 20
3.908172766160373
 30
0.0
 10
-36.80833132262293
 20
4.213771530975129
 30
0.0
 10
-36.80110490884113
 20
4.423569191098089
 30
0.0
 10
-36.7974358974359
 20
4.530088141025642
 30
0.0
  0
SPLINE
  5
123
330
1F
100
AcDbEntity
  8
0
  6
Continuous
 62
     7
370
    25
100
AcDbSpline
210
0.0
220
0.0
230
1.0
 70
     8
 71
     3
 72
    23
 73
    19
 74
     0
 42
0.00000001
 43
0.00000001
 40
0.0
 40
0.0
 40
0.0
 40
0.0
 40
0.0570031325129242
 40
0.111817869120724
 40
0.1644023722182111
 40
0.2158698048987949
 40
0.2668411100818672
 40
0.3174789632053576
 40
0.3699021362727593
 40
0.4234004494436355
 40
0.4797183982994508
 40
0.5392414966442963
 40
0.6024306889434226
 40
0.6710295461473349
 40
0.7444847975608481
 40
0.8234539713786849
 40
0.9087403127306656
 40
0.9999999999999999
 40
0.9999999999999999
 40
0.9999999999999999
 40
0.9999999999999999
 10
-36.7974358974359
 20
4.530088141025642
 30
0.0
 10
-36.7993451798171
 20
4.600575940517659
 30
0.0
 10
-36.80309044569992
 20
4.73884545643276
 30
0.0
 10
-36.83376385800933
 20
4.940410255800341
 30
0.0
 10
-36.88589762810414
 20
5.129980443487434
 30
0.0
 10
-36.95286034928976
 20
5.310153929521124
 30
0.0
 10
-37.04643644834623
 20
5.475296928891946
 30
0.0
 10
-37.15661244375637
 20
5.63111938184167
 30
0.0
 10
-37.28972909137905
 20
5.772314783244735
 30
0.0
 10
-37.44124848301645
 20
5.904284105703142
 30
0.0
 10
-37.61545120024533
 20
6.021285677998934
 30
0.0
 10
-37.81223331627551
 20
6.123759304371653
 30
0.0
 10
-38.03425717306064
 20
6.206275836895691
 30
0.0
 10
-38.27778096113605
 20
6.278543018743033
 30
0.0
 10
-38.5465531929168
 20
6.329300542026332
 30
0.0
 10
-38.83747228671372
 20
6.371585691524884
 30
0.0
 10
-39.15292112432585
 20
6.393113069655842
 30
0.0
 10
-39.37116192491914
 20
6.395962814943932
 30
0.0
 10
-39.48397435897436
 20
6.397435897435897
 30
0.0
  0
LINE
  5
124
330
1F
100
AcDbEntity
  8
0
  6
Continuous
 62
     7
370
    25
100
AcDbLine
 10
-42.1705128205
 20
7.7
 30
0.0
 11
-39.692588141
 21
7.7
 31
0.0
  0
LINE
  5
125
330
1F
100
AcDbEntity
  8
0
  6
Continuous
 62
     7
370
    25
100
AcDbLine
 10
-42.1705128205
 20
-5.0
 30
0.0
 11
-42.1705128205
 21
7.7
 31
0.0
  0
LINE
  5
126
330
1F
100
AcDbEntity
  8
0
  6
Continuous
 62
     7
370
    25
100
AcDbLine
 10
-38.7360176282
 20
-5.0
 30
0.0
 11
-42.1705128205
 21
-5.0
 31
0.0
  0
LINE
  5
127
330
1F
100
AcDbEntity
  8
0
  6
Continuous
 62
     7
370
    25
100
AcDbLine
 10
-16.2820512821
 20
4.1255809295
 30
0.0
 11
-16.9078926282
 21
3.1384815705
 31
0.0
  0
LINE
  5
128
330
1F
100
AcDbEntity
  8
0
  6
Continuous
 62
     7
370
    25
100
AcDbLine
 10
-14.0025641026
 20
3.141025641
 30
0.0
 11
-15.6307692308
 21
3.141025641
 31
0.0
  0
LINE
  5
129
330
1F
100
AcDbEntity
  8
0
  6
Continuous
 62
     7
370
    25
100
AcDbLine
 10
-12.8628205128
 20
4.2807692308
 30
0.0
 11
-11.2346153846
 21
4.2807692308
 31
0.0
  0
LINE
  5
12A
330
1F
100
AcDbEntity
  8
0
  6
Continuous
 62
     7
370
    25
100
AcDbLine
 10
-14.0025641026
 20
4.2807692308
 30
0.0
 11
-14.0025641026
 21
8.0256410256
 31
0.0
  0
LINE
  5
12B
330
1F
100
AcDbEntity
  8
0
  6
Continuous
 62
     7
370
    25
100
AcDbLine
 10
-1.6638221154
 20
-2.0692307692
 30
0.0
 11
-0.6512820513
 21
-2.6009415064
 31
0.0
  0
LINE
  5
12C
330
1F
100
AcDbEntity
  8
0
  6
Continuous
 62
     7
370
    25
100
AcDbLine
 10
32.2384615385
 20
7.7
 30
0.0
 11
33.3782051282
 21
7.7
 31
0.0
  0
LINE
  5
12D
330
1F
100
AcDbEntity
  8
0
  6
Continuous
 62
     7
370
    25
100
AcDbLine
 10
32.2384615385
 20
0.0906850962
 30
0.0
 11
32.2384615385
 21
7.7
 31
0.0
  0
LINE
  5
12E
330
1F
100
AcDbEntity
  8
0
  6
Continuous
 62
     7
370
    25
100
AcDbLine
 10
26.3769230769
 20
7.7
 30
0.0
 11
26.3769230769
 21
0.0906850962
 31
0.0
  0
LINE
  5
12F
330
1F
100
AcDbEntity
  8
0
  6
Continuous
 62
     7
370
    25
100
AcDbLine
 10
25.2371794872
 20
7.7
 30
0.0
 11
26.3769230769
 21
7.7
 31
0.0
  0
LINE
  5
130
330
1F
100
AcDbEntity
  8
0
  6
Continuous
 62
     7
370
    25
100
AcDbLine
 10
25.2371794872
 20
0.0296274038
 30
0.0
 11
25.2371794872
 21
7.7
 31
0.0
  0
LINE
  5
131
330
1F
100
AcDbEntity
  8
0
  6
Continuous
 62
     7
370
    25
100
AcDbLine
 10
30.0
 20
-23.175
 30
0.0
 11
50.0
 21
-23.175
 31
0.0
  0
LINE
  5
132
330
1F
100
AcDbEntity
  8
0
  6
Continuous
 62
     7
370
    25
100
AcDbLine
 10
-10.0
 20
-23.175
 30
0.0
 11
10.0
 21
-23.175
 31
0.0
  0
LINE
  5
133
330
1F
100
AcDbEntity
  8
0
  6
Continuous
 62
     7
370
    25
100
AcDbLine
 10
-50.0
 20
-23.175
 30
0.0
 11
-30.0
 21
-23.175
 31
0.0
  0
LINE
  5
134
330
1F
100
AcDbEntity
  8
0
  6
Continuous
 62
     7
370
    25
100
AcDbLine
 10
-30.0
 20
23.175
 30
0.0
 11
-50.0
 21
23.175
 31
0.0
  0
LINE
  5
135
330
1F
100
AcDbEntity
  8
0
  6
Continuous
 62
     7
370
    25
100
AcDbLine
 10
22.3064102564
 20
-5.0
 30
0.0
 11
21.1666666667
 21
-5.0
 31
0.0
  0
LINE
  5
136
330
1F
100
AcDbEntity
  8
0
  6
Continuous
 62
     7
370
    25
100
AcDbLine
 10
22.3064102564
 20
8.0256410256
 30
0.0
 11
22.3064102564
 21
-5.0
 31
0.0
  0
LINE
  5
137
330
1F
100
AcDbEntity
  8
0
  6
Continuous
 62
     7
370
    25
100
AcDbLine
 10
21.1666666667
 20
8.0256410256
 30
0.0
 11
22.3064102564
 21
8.0256410256
 31
0.0
  0
LINE
  5
138
330
1F
100
AcDbEntity
  8
0
  6
Continuous
 62
     7
370
    25
100
AcDbLine
 10
21.1666666667
 20
2.4846554487
 30
0.0
 11
21.1666666667
 21
8.0256410256
 31
0.0
  0
LINE
  5
139
330
1F
100
AcDbEntity
  8
0
  6
Continuous
 62
     7
370
    25
100
AcDbLine
 10
9.1179487179
 20
-5.0
 30
0.0
 11
9.1179487179
 21
-0.634375
 31
0.0
  0
LINE
  5
13A
330
1F
100
AcDbEntity
  8
0
  6
Continuous
 62
     7
370
    25
100
AcDbLine
 10
10.2576923077
 20
-5.0
 30
0.0
 11
9.1179487179
 21
-5.0
 31
0.0
  0
LINE
  5
13B
330
1F
100
AcDbEntity
  8
0
  6
Continuous
 62
     7
370
    25
100
AcDbLine
 10
2.1166666667
 20
-5.0
 30
0.0
 11
2.1166666667
 21
4.2807692308
 31
0.0
  0
LINE
  5
13C
330
1F
100
AcDbEntity
  8
0
  6
Continuous
 62
     7
370
    25
100
AcDbLine
 10
-24.0974358974
 20
2.5635216346
 30
0.0
 11
-24.0974358974
 21
4.2807692308
 31
0.0
  0
LINE
  5
13D
330
1F
100
AcDbEntity
  8
0
  6
Continuous
 62
     7
370
    25
100
AcDbLine
 10
-12.8628205128
 20
3.141025641
 30
0.0
 11
-12.8628205128
 21
-5.0
 31
0.0
  0
LINE
  5
13E
330
1F
100
AcDbEntity
  8
0
  6
Continuous
 62
     7
370
    25
100
AcDbLine
 10
-24.0974358974
 20
-5.0
 30
0.0
 11
-24.0974358974
 21
-3.3946915064
 31
0.0
  0
LINE
  5
13F
330
1F
100
AcDbEntity
  8
0
  6
Continuous
 62
     7
370
    25
100
AcDbLine
 10
-22.9576923077
 20
-5.0
 30
0.0
 11
-24.0974358974
 21
-5.0
 31
0.0
  0
LINE
  5
140
330
1F
100
AcDbEntity
  8
0
  6
Continuous
 62
     7
370
    25
100
AcDbLine
 10
-22.9576923077
 20
4.2807692308
 30
0.0
 11
-22.9576923077
 21
-5.0
 31
0.0
  0
LINE
  5
141
330
1F
100
AcDbEntity
  8
0
  6
Continuous
 62
     7
370
    25
100
AcDbLine
 10
-24.0974358974
 20
4.2807692308
 30
0.0
 11
-22.9576923077
 21
4.2807692308
 31
0.0
  0
LINE
  5
142
330
1F
100
AcDbEntity
  8
0
  6
Continuous
 62
     7
370
    25
100
AcDbLine
 10
-19.5384615385
 20
-5.0
 30
0.0
 11
-20.6782051282
 21
-5.0
 31
0.0
  0
LINE
  5
143
330
1F
100
AcDbEntity
  8
0
  6
Continuous
 62
     7
370
    25
100
AcDbLine
 10
-19.5384615385
 20
-1.8809695513
 30
0.0
 11
-19.5384615385
 21
-5.0
 31
0.0
  0
LINE
  5
144
330
1F
100
AcDbEntity
  8
0
  6
Continuous
 62
     7
370
    25
100
AcDbLine
 10
10.0
 20
20.0
 30
0.0
 11
10.0
 21
23.175
 31
0.0
  0
LINE
  5
145
330
1F
100
AcDbEntity
  8
0
  6
Continuous
 62
     7
370
    25
100
AcDbLine
 10
-10.0
 20
20.0
 30
0.0
 11
-30.0
 21
20.0
 31
0.0
  0
LINE
  5
146
330
1F
100
AcDbEntity
  8
0
  6
Continuous
 62
     7
370
    25
100
AcDbLine
 10
-10.0
 20
23.175
 30
0.0
 11
-10.0
 21
20.0
 31
0.0
  0
LINE
  5
147
330
1F
100
AcDbEntity
  8
0
  6
Continuous
 62
     7
370
    25
100
AcDbLine
 10
-30.0
 20
20.0
 30
0.0
 11
-30.0
 21
23.175
 31
0.0
  0
LINE
  5
148
330
1F
100
AcDbEntity
  8
0
  6
Continuous
 62
     7
370
    25
100
AcDbLine
 10
-50.0
 20
20.0
 30
0.0
 11
-79.5
 21
20.0
 31
0.0
  0
LINE
  5
149
330
1F
100
AcDbEntity
  8
0
  6
Continuous
 62
     7
370
    25
100
AcDbLine
 10
-50.0
 20
23.175
 30
0.0
 11
-50.0
 21
20.0
 31
0.0
  0
LINE
  5
14A
330
1F
100
AcDbEntity
  8
0
  6
Continuous
 62
     7
370
    25
100
AcDbLine
 10
-19.5384615385
 20
4.2807692308
 30
0.0
 11
-19.5384615385
 21
2.9146033654
 31
0.0
  0
LINE
  5
14B
330
1F
100
AcDbEntity
  8
0
  6
Continuous
 62
     7
370
    25
100
AcDbLine
 10
-20.6782051282
 20
4.2807692308
 30
0.0
 11
-19.5384615385
 21
4.2807692308
 31
0.0
  0
LINE
  5
14C
330
1F
100
AcDbEntity
  8
0
  6
Continuous
 62
     7
370
    25
100
AcDbLine
 10
-20.6782051282
 20
-5.0
 30
0.0
 11
-20.6782051282
 21
4.2807692308
 31
0.0
  0
LINE
  5
14D
330
1F
100
AcDbEntity
  8
0
  6
Continuous
 62
     7
370
    25
100
AcDbLine
 10
-15.6307692308
 20
4.2807692308
 30
0.0
 11
-14.0025641026
 21
4.2807692308
 31
0.0
  0
LINE
  5
14E
330
1F
100
AcDbEntity
  8
0
  6
Continuous
 62
     7
370
    25
100
AcDbLine
 10
-15.6307692308
 20
3.141025641
 30
0.0
 11
-15.6307692308
 21
4.2807692308
 31
0.0
  0
LINE
  5
14F
330
1F
100
AcDbEntity
  8
0
  6
Continuous
 62
     7
370
    25
100
AcDbLine
 10
-10.0
 20
-23.175
 30
0.0
 11
-10.0
 21
-20.0
 31
0.0
  0
LINE
  5
150
330
1F
100
AcDbEntity
  8
0
  6
Continuous
 62
     7
370
    25
100
AcDbLine
 10
-14.0025641026
 20
-5.0
 30
0.0
 11
-14.0025641026
 21
3.141025641
 31
0.0
  0
LINE
  5
151
330
1F
100
AcDbEntity
  8
0
  6
Continuous
 62
     7
370
    25
100
AcDbLine
 10
-12.8628205128
 20
-5.0
 30
0.0
 11
-14.0025641026
 21
-5.0
 31
0.0
  0
LINE
  5
152
330
1F
100
AcDbEntity
  8
0
  6
Continuous
 62
     7
370
    25
100
AcDbLine
 10
-30.0
 20
-20.0
 30
0.0
 11
-30.0
 21
-23.175
 31
0.0
  0
LINE
  5
153
330
1F
100
AcDbEntity
  8
0
  6
Continuous
 62
     7
370
    25
100
AcDbLine
 10
-11.2346153846
 20
3.141025641
 30
0.0
 11
-12.8628205128
 21
3.141025641
 31
0.0
  0
LINE
  5
154
330
1F
100
AcDbEntity
  8
0
  6
Continuous
 62
     7
370
    25
100
AcDbLine
 10
-11.2346153846
 20
4.2807692308
 30
0.0
 11
-11.2346153846
 21
3.141025641
 31
0.0
  0
LINE
  5
155
330
1F
100
AcDbEntity
  8
0
  6
Continuous
 62
     7
370
    25
100
AcDbLine
 10
50.0
 20
-20.0
 30
0.0
 11
50.0
 21
-23.175
 31
0.0
  0
LINE
  5
156
330
1F
100
AcDbEntity
  8
0
  6
Continuous
 62
     7
370
    25
100
AcDbLine
 10
-12.8628205128
 20
8.0256410256
 30
0.0
 11
-12.8628205128
 21
4.2807692308
 31
0.0
  0
LINE
  5
157
330
1F
100
AcDbEntity
  8
0
  6
Continuous
 62
     7
370
    25
100
AcDbLine
 10
-14.0025641026
 20
8.0256410256
 30
0.0
 11
-12.8628205128
 21
8.0256410256
 31
0.0
  0
LINE
  5
158
330
1F
100
AcDbEntity
  8
0
  6
Continuous
 62
     7
370
    25
100
AcDbLine
 10
82.675
 20
10.0
 30
0.0
 11
79.5
 21
10.0
 31
0.0
  0
LINE
  5
159
330
1F
100
AcDbEntity
  8
0
  6
Continuous
 62
     7
370
    25
100
AcDbLine
 10
-79.5
 20
-20.0
 30
0.0
 11
-79.5
 21
-10.0
 31
0.0
  0
LINE
  5
15A
330
1F
100
AcDbEntity
  8
0
  6
Continuous
 62
     7
370
    25
100
AcDbLine
 10
-0.1628205128
 20
-0.6038461538
 30
0.0
 11
-8.4666666667
 21
-0.6038461538
 31
0.0
  0
LINE
  5
15B
330
1F
100
AcDbEntity
  8
0
  6
Continuous
 62
     7
370
    25
100
AcDbLine
 10
-82.675
 20
10.0
 30
0.0
 11
-79.5
 21
10.0
 31
0.0
  0
LINE
  5
15C
330
1F
100
AcDbEntity
  8
0
  6
Continuous
 62
     7
370
    25
100
AcDbLine
 10
-82.675
 20
10.0
 30
0.0
 11
-82.675
 21
-10.0
 31
0.0
  0
LINE
  5
15D
330
1F
100
AcDbEntity
  8
0
  6
Continuous
 62
     7
370
    25
100
AcDbLine
 10
82.675
 20
-10.0
 30
0.0
 11
82.675
 21
10.0
 31
0.0
  0
LINE
  5
15E
330
1F
100
AcDbEntity
  8
0
  6
Continuous
 62
     7
370
    25
100
AcDbLine
 10
33.3782051282
 20
7.7
 30
0.0
 11
33.3782051282
 21
0.0296274038
 31
0.0
  0
LINE
  5
15F
330
1F
100
AcDbEntity
  8
0
  6
Continuous
 62
     7
370
    25
100
AcDbLine
 10
-50.0
 20
-23.175
 30
0.0
 11
-50.0
 21
-20.0
 31
0.0
  0
LINE
  5
160
330
1F
100
AcDbEntity
  8
0
  6
Continuous
 62
     7
370
    25
100
AcDbLine
 10
79.5
 20
20.0
 30
0.0
 11
50.0
 21
20.0
 31
0.0
  0
LINE
  5
161
330
1F
100
AcDbEntity
  8
0
  6
Continuous
 62
     7
370
    25
100
AcDbLine
 10
79.5
 20
10.0
 30
0.0
 11
79.5
 21
20.0
 31
0.0
  0
LINE
  5
162
330
1F
100
AcDbEntity
  8
0
  6
Continuous
 62
     7
370
    25
100
AcDbLine
 10
-79.5
 20
10.0
 30
0.0
 11
-79.5
 21
20.0
 31
0.0
  0
LINE
  5
163
330
1F
100
AcDbEntity
  8
0
  6
Continuous
 62
     7
370
    25
100
AcDbLine
 10
3.2564102564
 20
-5.0
 30
0.0
 11
2.1166666667
 21
-5.0
 31
0.0
  0
LINE
  5
164
330
1F
100
AcDbEntity
  8
0
  6
Continuous
 62
     7
370
    25
100
AcDbLine
 10
3.2564102564
 20
-1.6443709936
 30
0.0
 11
3.2564102564
 21
-5.0
 31
0.0
  0
LINE
  5
165
330
1F
100
AcDbEntity
  8
0
  6
Continuous
 62
     7
370
    25
100
AcDbLine
 10
50.0
 20
23.175
 30
0.0
 11
30.0
 21
23.175
 31
0.0
  0
LINE
  5
166
330
1F
100
AcDbEntity
  8
0
  6
Continuous
 62
     7
370
    25
100
AcDbLine
 10
-10.0
 20
-20.0
 30
0.0
 11
-30.0
 21
-20.0
 31
0.0
  0
LINE
  5
167
330
1F
100
AcDbEntity
  8
0
  6
Continuous
 62
     7
370
    25
100
AcDbLine
 10
79.5
 20
-10.0
 30
0.0
 11
82.675
 21
-10.0
 31
0.0
  0
LINE
  5
168
330
1F
100
AcDbEntity
  8
0
  6
Continuous
 62
     7
370
    25
100
AcDbLine
 10
30.0
 20
20.0
 30
0.0
 11
10.0
 21
20.0
 31
0.0
  0
LINE
  5
169
330
1F
100
AcDbEntity
  8
0
  6
Continuous
 62
     7
370
    25
100
AcDbLine
 10
3.2564102564
 20
4.2807692308
 30
0.0
 11
3.2564102564
 21
2.6067708333
 31
0.0
  0
LINE
  5
16A
330
1F
100
AcDbEntity
  8
0
  6
Continuous
 62
     7
370
    25
100
AcDbLine
 10
79.5
 20
-20.0
 30
0.0
 11
50.0
 21
-20.0
 31
0.0
  0
LINE
  5
16B
330
1F
100
AcDbEntity
  8
0
  6
Continuous
 62
     7
370
    25
100
AcDbLine
 10
10.2576923077
 20
-0.2603966346
 30
0.0
 11
10.2576923077
 21
-5.0
 31
0.0
  0
LINE
  5
16C
330
1F
100
AcDbEntity
  8
0
  6
Continuous
 62
     7
370
    25
100
AcDbLine
 10
21.1666666667
 20
-5.0
 30
0.0
 11
21.1666666667
 21
-3.3946915064
 31
0.0
  0
LINE
  5
16D
330
1F
100
AcDbEntity
  8
0
  6
Continuous
 62
     7
370
    25
100
AcDbLine
 10
30.0
 20
-23.175
 30
0.0
 11
30.0
 21
-20.0
 31
0.0
  0
LINE
  5
16E
330
1F
100
AcDbEntity
  8
0
  6
Continuous
 62
     7
370
    25
100
AcDbLine
 10
30.0
 20
-20.0
 30
0.0
 11
10.0
 21
-20.0
 31
0.0
  0
LINE
  5
16F
330
1F
100
AcDbEntity
  8
0
  6
Continuous
 62
     7
370
    25
100
AcDbLine
 10
2.1166666667
 20
4.2807692308
 30
0.0
 11
3.2564102564
 21
4.2807692308
 31
0.0
  0
LINE
  5
170
330
1F
100
AcDbEntity
  8
0
  6
Continuous
 62
     7
370
    25
100
AcDbLine
 10
-79.5
 20
-10.0
 30
0.0
 11
-82.675
 21
-10.0
 31
0.0
  0
LINE
  5
171
330
1F
100
AcDbEntity
  8
0
  6
Continuous
 62
     7
370
    25
100
AcDbLine
 10
79.5
 20
-20.0
 30
0.0
 11
79.5
 21
-10.0
 31
0.0
  0
LINE
  5
172
330
1F
100
AcDbEntity
  8
0
  6
Continuous
 62
     7
370
    25
100
AcDbLine
 10
35.3320512821
 20
-2.5500600962
 30
0.0
 11
36.4056490385
 21
-1.9064102564
 31
0.0
  0
LINE
  5
173
330
1F
100
AcDbEntity
  8
0
  6
Continuous
 62
     7
370
    25
100
AcDbLine
 10
30.0
 20
23.175
 30
0.0
 11
30.0
 21
20.0
 31
0.0
  0
LINE
  5
174
330
1F
100
AcDbEntity
  8
0
  6
Continuous
 62
     7
370
    25
100
AcDbLine
 10
-50.0
 20
-20.0
 30
0.0
 11
-79.5
 21
-20.0
 31
0.0
  0
LINE
  5
175
330
1F
100
AcDbEntity
  8
0
  6
Continuous
 62
     7
370
    25
100
AcDbLine
 10
10.0
 20
-20.0
 30
0.0
 11
10.0
 21
-23.175
 31
0.0
  0
LINE
  5
176
330
1F
100
AcDbEntity
  8
0
  6
Continuous
 62
     7
370
    25
100
AcDbLine
 10
50.0
 20
20.0
 30
0.0
 11
50.0
 21
23.175
 31
0.0
  0
LINE
  5
177
330
1F
100
AcDbEntity
  8
0
  6
Continuous
 62
     7
370
    25
100
AcDbLine
 10
10.0
 20
23.175
 30
0.0
 11
-10.0
 21
23.175
 31
0.0
  0
LINE
  5
178
330
1F
100
AcDbEntity
  8
0
  6
Continuous
 62
     7
370
    25
100
AcDbLine
 10
42.658974359
 20
5.8759014423
 30
0.0
 11
41.6286258013
 21
5.0948717949
 31
0.0
  0
LINE
  5
179
330
1F
100
AcDbEntity
  8
0
  6
Continuous
 62
     7
370
    25
100
AcDbLine
 10
-8.3470953526
 20
0.5358974359
 30
0.0
 11
-1.3025641026
 21
0.5358974359
 31
0.0
  0
LINE
  5
17A
330
1F
100
AcDbEntity
  8
0
  6
Continuous
 62
     7
370
    25
100
AcDbLine
 10
-40.2751802885
 20
1.0243589744
 30
0.0
 11
-41.0307692308
 21
1.0243589744
 31
0.0
  0
LINE
  5
17B
330
1F
100
AcDbEntity
  8
0
  6
Continuous
 62
     7
370
    25
100
AcDbLine
 10
-41.0307692308
 20
-3.6974358974
 30
0.0
 11
-39.4076522436
 21
-3.6974358974
 31
0.0
  0
LINE
  5
17C
330
1F
100
AcDbEntity
  8
0
  6
Continuous
 62
     7
370
    25
100
AcDbLine
 10
-41.0307692308
 20
1.0243589744
 30
0.0
 11
-41.0307692308
 21
-3.6974358974
 31
0.0
  0
LINE
  5
17D
330
1F
100
AcDbEntity
  8
0
  6
Continuous
 62
     7
370
    25
100
AcDbLine
 10
-41.0307692308
 20
2.3269230769
 30
0.0
 11
-40.2650040064
 21
2.3269230769
 31
0.0
  0
LINE
  5
17E
330
1F
100
AcDbEntity
  8
0
  6
Continuous
 62
     7
370
    25
100
AcDbLine
 10
-39.483974359
 20
6.3974358974
 30
0.0
 11
-41.0307692308
 21
6.3974358974
 31
0.0
  0
LINE
  5
17F
330
1F
100
AcDbEntity
  8
0
  6
Continuous
 62
     7
370
    25
100
AcDbLine
 10
-41.0307692308
 20
6.3974358974
 30
0.0
 11
-41.0307692308
 21
2.3269230769
 31
0.0
  0
MTEXT
  5
181
330
1F
100
AcDbEntity
  8
0
  6
Continuous
 62
     7
100
AcDbMText
 10
-82.675
 20
-24.1945663917
 30
0.0
 40
4.83362
 41
0.0
 71
     1
 72
     1
  1
Produit d'ducation SOLIDWORKS  A titre ducatif uniquement.
  7
SLDTEXTSTYLE0
 73
     1
 44
1.0
  0
ENDSEC
  0
SECTION
  2
OBJECTS
  0
DICTIONARY
  5
C
330
0
100
AcDbDictionary
281
     1
  3
ACAD_GROUP
350
D
  3
ACAD_LAYOUT
350
1A
  3
ACAD_MLINESTYLE
350
17
  3
ACAD_PLOTSETTINGS
350
19
  3
ACAD_PLOTSTYLENAME
350
E
  3
ACAD_SCALELIST
350
47
  3
DWGPROPS
350
182
  0
DICTIONARY
  5
D
102
{ACAD_REACTORS
330
C
102
}
330
C
100
AcDbDictionary
281
     1
  0
DICTIONARY
  5
1A
102
{ACAD_REACTORS
330
C
102
}
330
C
100
AcDbDictionary
281
     1
  3
Layout1
350
1E
  3
Layout2
350
26
  3
Model
350
22
  0
DICTIONARY
  5
17
102
{ACAD_REACTORS
330
C
102
}
330
C
100
AcDbDictionary
281
     1
  3
Standard
350
18
  0
DICTIONARY
  5
19
102
{ACAD_REACTORS
330
C
102
}
330
C
100
AcDbDictionary
281
     1
  0
ACDBDICTIONARYWDFLT
  5
E
102
{ACAD_REACTORS
330
C
102
}
330
C
100
AcDbDictionary
281
     1
  3
Normal
350
F
100
AcDbDictionaryWithDefault
340
F
  0
DICTIONARY
  5
47
102
{ACAD_REACTORS
330
C
102
}
330
C
100
AcDbDictionary
281
     1
  3
A0
350
48
  3
A1
350
49
  3
A2
350
4A
  3
A3
350
4B
  3
A4
350
4C
  3
A5
350
4D
  3
A6
350
4E
  3
A7
350
4F
  3
A8
350
50
  3
A9
350
51
  3
B0
350
52
  3
B1
350
53
  3
B2
350
54
  3
B3
350
55
  3
B4
350
56
  3
B5
350
57
  3
B6
350
58
  3
B7
350
59
  3
B8
350
5A
  3
B9
350
5B
  3
C0
350
5C
  3
C1
350
5D
  3
C2
350
5E
  3
C3
350
5F
  3
C4
350
60
  3
C5
350
61
  3
C6
350
62
  3
C7
350
63
  3
C8
350
64
  3
C9
350
65
  3
D0
350
66
  3
D1
350
67
  3
D2
350
68
  0
XRECORD
  5
182
102
{ACAD_REACTORS
330
C
102
}
330
C
100
AcDbXrecord
280
     1
  1
DWGPROPS COOKIE
  2

  3

  4

  6

  7

  8
Proprio
  9

300
=
301
=
302
=
303
=
304
=
305
=
306
=
307
=
308
=
309
=
 40
0.0
 41
2459675.9836464
 42
2459675.98372191
  1

 90
        0
  0
LAYOUT
  5
1E
102
{ACAD_REACTORS
330
1A
102
}
330
1A
100
AcDbPlotSettings
  1

  2
none_device
  4

  6

 40
0.0
 41
0.0
 42
0.0
 43
0.0
 44
0.0
 45
0.0
 46
0.0
 47
0.0
 48
0.0
 49
0.0
140
0.0
141
0.0
142
1.0
143
1.0
 70
   688
 72
     1
 73
     0
 74
     5
  7

 75
    16
147
1.0
148
0.0
149
0.0
100
AcDbLayout
  1
Layout1
 70
     1
 71
     1
 10
0.0
 20
0.0
 11
420.0
 21
297.0
 12
0.0
 22
0.0
 32
0.0
 14
1.0000000000E+20
 24
1.0000000000E+20
 34
1.0000000000E+20
 15
-1.0000000000E+20
 25
-1.0000000000E+20
 35
-1.0000000000E+20
146
0.0
 13
0.0
 23
0.0
 33
0.0
 16
1.0
 26
0.0
 36
0.0
 17
0.0
 27
1.0
 37
0.0
 76
     0
330
1B
  0
LAYOUT
  5
26
102
{ACAD_REACTORS
330
1A
102
}
330
1A
100
AcDbPlotSettings
  1

  2
none_device
  4

  6

 40
0.0
 41
0.0
 42
0.0
 43
0.0
 44
0.0
 45
0.0
 46
0.0
 47
0.0
 48
0.0
 49
0.0
140
0.0
141
0.0
142
1.0
143
1.0
 70
   688
 72
     1
 73
     0
 74
     5
  7

 75
    16
147
1.0
148
0.0
149
0.0
100
AcDbLayout
  1
Layout2
 70
     1
 71
     2
 10
0.0
 20
0.0
 11
0.0
 21
0.0
 12
0.0
 22
0.0
 32
0.0
 14
0.0
 24
0.0
 34
0.0
 15
0.0
 25
0.0
 35
0.0
146
0.0
 13
0.0
 23
0.0
 33
0.0
 16
1.0
 26
0.0
 36
0.0
 17
0.0
 27
1.0
 37
0.0
 76
     0
330
23
  0
LAYOUT
  5
22
102
{ACAD_REACTORS
330
1A
102
}
330
1A
100
AcDbPlotSettings
  1

  2
none_device
  4
ANSI_A_(11.00_x_8.50_Inches)
  6

 40
6.35
 41
19.05
 42
6.35000508
 43
19.05000254
 44
279.4
 45
215.9
 46
133.34999746
 47
88.89999873
 48
0.0
 49
0.0
140
0.0
141
0.0
142
0.0658602963
143
1.0
 70
  1696
 72
     0
 73
     0
 74
     0
  7

 75
     0
147
0.0179189148
148
-1300.4909072572
149
0.0
100
AcDbLayout
  1
Model
 70
     1
 71
     0
 10
0.0
 20
0.0
 11
420.0
 21
297.0
 12
0.0
 22
0.0
 32
0.0
 14
-82.675
 24
-23.175
 34
0.0
 15
82.675
 25
23.175
 35
0.0
146
0.0
 13
0.0
 23
0.0
 33
0.0
 16
1.0
 26
0.0
 36
0.0
 17
0.0
 27
1.0
 37
0.0
 76
     0
330
1F
331
29
  0
MLINESTYLE
  5
18
102
{ACAD_REACTORS
330
17
102
}
330
17
100
AcDbMlineStyle
  2
Standard
 70
     0
  3

 62
   256
 51
90.0
 52
90.0
 71
     2
 49
0.5
 62
   256
  6
BYLAYER
 49
-0.5
 62
   256
  6
BYLAYER
  0
ACDBPLACEHOLDER
  5
F
102
{ACAD_REACTORS
330
E
102
}
330
E
  0
SCALE
  5
48
102
{ACAD_REACTORS
330
47
102
}
330
47
100
AcDbScale
 70
     0
300
1:1
140
1.0
141
1.0
290
     1
  0
SCALE
  5
49
102
{ACAD_REACTORS
330
47
102
}
330
47
100
AcDbScale
 70
     0
300
1:2
140
1.0
141
2.0
290
     0
  0
SCALE
  5
4A
102
{ACAD_REACTORS
330
47
102
}
330
47
100
AcDbScale
 70
     0
300
1:4
140
1.0
141
4.0
290
     0
  0
SCALE
  5
4B
102
{ACAD_REACTORS
330
47
102
}
330
47
100
AcDbScale
 70
     0
300
1:5
140
1.0
141
5.0
290
     0
  0
SCALE
  5
4C
102
{ACAD_REACTORS
330
47
102
}
330
47
100
AcDbScale
 70
     0
300
1:8
140
1.0
141
8.0
290
     0
  0
SCALE
  5
4D
102
{ACAD_REACTORS
330
47
102
}
330
47
100
AcDbScale
 70
     0
300
1:10
140
1.0
141
10.0
290
     0
  0
SCALE
  5
4E
102
{ACAD_REACTORS
330
47
102
}
330
47
100
AcDbScale
 70
     0
300
1:16
140
1.0
141
16.0
290
     0
  0
SCALE
  5
4F
102
{ACAD_REACTORS
330
47
102
}
330
47
100
AcDbScale
 70
     0
300
1:20
140
1.0
141
20.0
290
     0
  0
SCALE
  5
50
102
{ACAD_REACTORS
330
47
102
}
330
47
100
AcDbScale
 70
     0
300
1:30
140
1.0
141
30.0
290
     0
  0
SCALE
  5
51
102
{ACAD_REACTORS
330
47
102
}
330
47
100
AcDbScale
 70
     0
300
1:40
140
1.0
141
40.0
290
     0
  0
SCALE
  5
52
102
{ACAD_REACTORS
330
47
102
}
330
47
100
AcDbScale
 70
     0
300
1:50
140
1.0
141
50.0
290
     0
  0
SCALE
  5
53
102
{ACAD_REACTORS
330
47
102
}
330
47
100
AcDbScale
 70
     0
300
1:100
140
1.0
141
100.0
290
     0
  0
SCALE
  5
54
102
{ACAD_REACTORS
330
47
102
}
330
47
100
AcDbScale
 70
     0
300
2:1
140
2.0
141
1.0
290
     0
  0
SCALE
  5
55
102
{ACAD_REACTORS
330
47
102
}
330
47
100
AcDbScale
 70
     0
300
4:1
140
4.0
141
1.0
290
     0
  0
SCALE
  5
56
102
{ACAD_REACTORS
330
47
102
}
330
47
100
AcDbScale
 70
     0
300
8:1
140
8.0
141
1.0
290
     0
  0
SCALE
  5
57
102
{ACAD_REACTORS
330
47
102
}
330
47
100
AcDbScale
 70
     0
300
10:1
140
10.0
141
1.0
290
     0
  0
SCALE
  5
58
102
{ACAD_REACTORS
330
47
102
}
330
47
100
AcDbScale
 70
     0
300
100:1
140
100.0
141
1.0
290
     0
  0
SCALE
  5
59
102
{ACAD_REACTORS
330
47
102
}
330
47
100
AcDbScale
 70
     0
300
1/128" = 1'-0"
140
0.0078125
141
12.0
290
     0
  0
SCALE
  5
5A
102
{ACAD_REACTORS
330
47
102
}
330
47
100
AcDbScale
 70
     0
300
1/64" = 1'-0"
140
0.015625
141
12.0
290
     0
  0
SCALE
  5
5B
102
{ACAD_REACTORS
330
47
102
}
330
47
100
AcDbScale
 70
     0
300
1/32" = 1'-0"
140
0.03125
141
12.0
290
     0
  0
SCALE
  5
5C
102
{ACAD_REACTORS
330
47
102
}
330
47
100
AcDbScale
 70
     0
300
1/16" = 1'-0"
140
0.0625
141
12.0
290
     0
  0
SCALE
  5
5D
102
{ACAD_REACTORS
330
47
102
}
330
47
100
AcDbScale
 70
     0
300
3/32" = 1'-0"
140
0.09375
141
12.0
290
     0
  0
SCALE
  5
5E
102
{ACAD_REACTORS
330
47
102
}
330
47
100
AcDbScale
 70
     0
300
1/8" = 1'-0"
140
0.125
141
12.0
290
     0
  0
SCALE
  5
5F
102
{ACAD_REACTORS
330
47
102
}
330
47
100
AcDbScale
 70
     0
300
3/16" = 1'-0"
140
0.1875
141
12.0
290
     0
  0
SCALE
  5
60
102
{ACAD_REACTORS
330
47
102
}
330
47
100
AcDbScale
 70
     0
300
1/4" = 1'-0"
140
0.25
141
12.0
290
     0
  0
SCALE
  5
61
102
{ACAD_REACTORS
330
47
102
}
330
47
100
AcDbScale
 70
     0
300
3/8" = 1'-0"
140
0.375
141
12.0
290
     0
  0
SCALE
  5
62
102
{ACAD_REACTORS
330
47
102
}
330
47
100
AcDbScale
 70
     0
300
1/2" = 1'-0"
140
0.5
141
12.0
290
     0
  0
SCALE
  5
63
102
{ACAD_REACTORS
330
47
102
}
330
47
100
AcDbScale
 70
     0
300
3/4" = 1'-0"
140
0.75
141
12.0
290
     0
  0
SCALE
  5
64
102
{ACAD_REACTORS
330
47
102
}
330
47
100
AcDbScale
 70
     0
300
1" = 1'-0"
140
1.0
141
12.0
290
     0
  0
SCALE
  5
65
102
{ACAD_REACTORS
330
47
102
}
330
47
100
AcDbScale
 70
     0
300
1-1/2" = 1'-0"
140
1.5
141
12.0
290
     0
  0
SCALE
  5
66
102
{ACAD_REACTORS
330
47
102
}
330
47
100
AcDbScale
 70
     0
300
3" = 1'-0"
140
3.0
141
12.0
290
     0
  0
SCALE
  5
67
102
{ACAD_REACTORS
330
47
102
}
330
47
100
AcDbScale
 70
     0
300
6" = 1'-0"
140
6.0
141
12.0
290
     0
  0
SCALE
  5
68
102
{ACAD_REACTORS
330
47
102
}
330
47
100
AcDbScale
 70
     0
300
1'-0" = 1'-0"
140
12.0
141
12.0
290
     0
  0
ENDSEC
  0
EOF
