<?xml version="1.0" encoding="UTF-8" standalone="no"?>
<!-- Created with Inkscape (http://www.inkscape.org/) -->

<svg
   width="12in"
   height="6in"
   viewBox="0 0 304.8 152.4"
   version="1.1"
   id="svg5"
   inkscape:version="1.1.1 (3bf5ae0d25, 2021-09-20)"
   sodipodi:docname="Pastilles_numeros.svg"
   xmlns:inkscape="http://www.inkscape.org/namespaces/inkscape"
   xmlns:sodipodi="http://sodipodi.sourceforge.net/DTD/sodipodi-0.dtd"
   xmlns="http://www.w3.org/2000/svg"
   xmlns:svg="http://www.w3.org/2000/svg">
  <sodipodi:namedview
     id="namedview7"
     pagecolor="#ffffff"
     bordercolor="#666666"
     borderopacity="1.0"
     inkscape:pageshadow="2"
     inkscape:pageopacity="0.0"
     inkscape:pagecheckerboard="0"
     inkscape:document-units="mm"
     showgrid="false"
     units="in"
     inkscape:zoom="1.8116734"
     inkscape:cx="267.98428"
     inkscape:cy="108.46326"
     inkscape:window-width="1920"
     inkscape:window-height="1001"
     inkscape:window-x="-9"
     inkscape:window-y="-9"
     inkscape:window-maximized="1"
     inkscape:current-layer="layer1" />
  <defs
     id="defs2">
    <marker
       id="DistanceX"
       orient="auto"
       refX="0.0"
       refY="0.0"
       style="overflow:visible">
      <path
         d="M 3,-3 L -3,3 M 0,-5 L  0,5"
         style="stroke:#000000; stroke-width:0.5"
         id="path826" />
    </marker>
    <pattern
       id="Hatch"
       patternUnits="userSpaceOnUse"
       width="8"
       height="8"
       x="0"
       y="0">
      <path
         d="M8 4 l-4,4"
         stroke="#000000"
         stroke-width="0.25"
         linecap="square"
         id="path829" />
      <path
         d="M6 2 l-4,4"
         stroke="#000000"
         stroke-width="0.25"
         linecap="square"
         id="path831" />
      <path
         d="M4 0 l-4,4"
         stroke="#000000"
         stroke-width="0.25"
         linecap="square"
         id="path833" />
    </pattern>
    <symbol
       id="*Model_Space" />
    <symbol
       id="*Paper_Space" />
    <symbol
       id="*Paper_Space0" />
    <marker
       id="DistanceX-0"
       orient="auto"
       refX="0.0"
       refY="0.0"
       style="overflow:visible">
      <path
         d="M 3,-3 L -3,3 M 0,-5 L  0,5"
         style="stroke:#000000; stroke-width:0.5"
         id="path965" />
    </marker>
    <pattern
       id="Hatch-3"
       patternUnits="userSpaceOnUse"
       width="8"
       height="8"
       x="0"
       y="0">
      <path
         d="M8 4 l-4,4"
         stroke="#000000"
         stroke-width="0.25"
         linecap="square"
         id="path968" />
      <path
         d="M6 2 l-4,4"
         stroke="#000000"
         stroke-width="0.25"
         linecap="square"
         id="path970" />
      <path
         d="M4 0 l-4,4"
         stroke="#000000"
         stroke-width="0.25"
         linecap="square"
         id="path972" />
    </pattern>
    <symbol
       id="*Model_Space-8" />
    <symbol
       id="*Paper_Space-0" />
    <symbol
       id="*Paper_Space0-5" />
    <marker
       id="DistanceX-2"
       orient="auto"
       refX="0.0"
       refY="0.0"
       style="overflow:visible">
      <path
         d="M 3,-3 L -3,3 M 0,-5 L  0,5"
         style="stroke:#000000; stroke-width:0.5"
         id="path1116" />
    </marker>
    <pattern
       id="Hatch-2"
       patternUnits="userSpaceOnUse"
       width="8"
       height="8"
       x="0"
       y="0">
      <path
         d="M8 4 l-4,4"
         stroke="#000000"
         stroke-width="0.25"
         linecap="square"
         id="path1119" />
      <path
         d="M6 2 l-4,4"
         stroke="#000000"
         stroke-width="0.25"
         linecap="square"
         id="path1121" />
      <path
         d="M4 0 l-4,4"
         stroke="#000000"
         stroke-width="0.25"
         linecap="square"
         id="path1123" />
    </pattern>
    <symbol
       id="*Model_Space-7" />
    <symbol
       id="*Paper_Space-8" />
    <symbol
       id="*Paper_Space0-8" />
    <marker
       id="DistanceX-7"
       orient="auto"
       refX="0.0"
       refY="0.0"
       style="overflow:visible">
      <path
         d="M 3,-3 L -3,3 M 0,-5 L  0,5"
         style="stroke:#000000; stroke-width:0.5"
         id="path1255" />
    </marker>
    <pattern
       id="Hatch-9"
       patternUnits="userSpaceOnUse"
       width="8"
       height="8"
       x="0"
       y="0">
      <path
         d="M8 4 l-4,4"
         stroke="#000000"
         stroke-width="0.25"
         linecap="square"
         id="path1258" />
      <path
         d="M6 2 l-4,4"
         stroke="#000000"
         stroke-width="0.25"
         linecap="square"
         id="path1260" />
      <path
         d="M4 0 l-4,4"
         stroke="#000000"
         stroke-width="0.25"
         linecap="square"
         id="path1262" />
    </pattern>
    <symbol
       id="*Model_Space-4" />
    <symbol
       id="*Paper_Space-82" />
    <symbol
       id="*Paper_Space0-3" />
    <marker
       id="DistanceX-78"
       orient="auto"
       refX="0.0"
       refY="0.0"
       style="overflow:visible">
      <path
         d="M 3,-3 L -3,3 M 0,-5 L  0,5"
         style="stroke:#000000; stroke-width:0.5"
         id="path1413" />
    </marker>
    <pattern
       id="Hatch-0"
       patternUnits="userSpaceOnUse"
       width="8"
       height="8"
       x="0"
       y="0">
      <path
         d="M8 4 l-4,4"
         stroke="#000000"
         stroke-width="0.25"
         linecap="square"
         id="path1416" />
      <path
         d="M6 2 l-4,4"
         stroke="#000000"
         stroke-width="0.25"
         linecap="square"
         id="path1418" />
      <path
         d="M4 0 l-4,4"
         stroke="#000000"
         stroke-width="0.25"
         linecap="square"
         id="path1420" />
    </pattern>
    <symbol
       id="*Model_Space-0" />
    <symbol
       id="*Paper_Space-2" />
    <symbol
       id="*Paper_Space0-7" />
    <marker
       id="DistanceX-9"
       orient="auto"
       refX="0.0"
       refY="0.0"
       style="overflow:visible">
      <path
         d="M 3,-3 L -3,3 M 0,-5 L  0,5"
         style="stroke:#000000; stroke-width:0.5"
         id="path1552" />
    </marker>
    <pattern
       id="Hatch-6"
       patternUnits="userSpaceOnUse"
       width="8"
       height="8"
       x="0"
       y="0">
      <path
         d="M8 4 l-4,4"
         stroke="#000000"
         stroke-width="0.25"
         linecap="square"
         id="path1555" />
      <path
         d="M6 2 l-4,4"
         stroke="#000000"
         stroke-width="0.25"
         linecap="square"
         id="path1557" />
      <path
         d="M4 0 l-4,4"
         stroke="#000000"
         stroke-width="0.25"
         linecap="square"
         id="path1559" />
    </pattern>
    <symbol
       id="*Model_Space-2" />
    <symbol
       id="*Paper_Space-5" />
    <symbol
       id="*Paper_Space0-0" />
  </defs>
  <g
     inkscape:label="Calque 1"
     inkscape:groupmode="layer"
     id="layer1">
    <path
       d="m 18.490802,4.3142172 1e-6,19.3145828 v 0 h -6.085417 v 0 -14.0394526 0 l -0.429948,0.2356643 -0.446484,0.2108203 -0.467155,0.186055 -0.487826,0.152955 -0.504362,0.132292 -0.5250322,0.09922 -0.5457032,0.0744 -0.5622395,0.04961 v 0 -3.0096354 0 L 9.4742988,7.5718995 10.429279,7.344543 l 0.872298,-0.3059377 0.79375,-0.3885935 0.711068,-0.4630209 0.63252,-0.5457031 0.549837,-0.6242579 0.467155,-0.7028127 v 0 h 4.034896"
       style="fill:#969696;stroke:#969696;stroke-width:0.0254;stroke-linecap:round;stroke-miterlimit:4;stroke-dasharray:none;stroke-opacity:1;fill-opacity:1"
       id="path841" />
    <path
       d="m 27.90399,14.35317 a 12.7,12.7 0 1 0 -25.3999998,0 12.7,12.7 0 1 0 25.3999998,0 z"
       style="fill:none;stroke:#ff0000;stroke-width:0.0254;stroke-linecap:round;stroke-miterlimit:4;stroke-dasharray:none;stroke-opacity:1"
       id="path843" />
    <path
       d="m 49.997947,18.304894 10e-7,5.027083 v 0 H 35.181281 v 0 -3.009636 0 l 0.942579,-1.021132 0.992187,-1.033542 1.033529,-1.050052 1.083138,-1.058334 v 0 l 0.599446,-0.582903 0.558106,-0.56224 0.520898,-0.545703 0.483692,-0.529166 0.446484,-0.512631 0.405143,-0.491966 0.367936,-0.47543 0.326595,-0.454739 0.289388,-0.438229 0.252181,-0.421667 0.21084,-0.401029 0.173633,-0.384466 0.136426,-0.367929 0.09508,-0.347266 0.05788,-0.330729 0.02067,-0.314193 v 0 L 44.168812,8.618657 44.139872,8.267263 44.090298,7.936534 44.024152,7.6305966 43.933202,7.3494768 43.829849,7.0931749 43.701691,6.8616645 43.556997,6.6508181 43.391633,6.468917 43.209732,6.3076799 43.003026,6.1753883 42.783918,6.0637606 l -0.243913,-0.082682 -0.260449,-0.061992 -0.28112,-0.037227 -0.30179,-0.012435 v 0 l -0.338997,0.016404 -0.318327,0.045455 -0.297657,0.074427 -0.272851,0.1074737 -0.256315,0.1364457 -0.227376,0.169492 -0.21084,0.1984375 -0.186035,0.227383 -0.165365,0.2604293 -0.14056,0.2894013 L 39.1583,7.7172205 39.06322,8.06864 38.98467,8.448978 38.93093,8.86239 38.89786,9.30472 38.88546,9.776022 v 0 l 0.0083,0.268711 0.02894,0.297657 0.04548,0.330729 0.06614,0.363802 0.07855,0.396875 0.103353,0.429948 0.119889,0.458893 0.136426,0.491966 v 0 L 35.81798,12.095254 v 0 l -0.16123,-0.698659 -0.115755,-0.62013 -0.07028,-0.541549 -0.02481,-0.458894 v 0 l 0.02894,-0.727604 0.08682,-0.682122 0.144694,-0.6366666 0.202572,-0.587031 0.260449,-0.5415756 0.314193,-0.4960938 0.376204,-0.4464843 0.434082,-0.4010025 0.487826,-0.3514196 0.549837,-0.3059112 0.607715,-0.2604559 0.661458,-0.2108464 0.72347,-0.1653646 0.777214,-0.1157552 0.839225,-0.070273 0.892969,-0.024871 v 0 l 0.79375,0.024871 0.760677,0.074427 0.72347,0.1240102 0.686263,0.1736461 0.649056,0.2232289 0.611849,0.2687109 0.574642,0.3224741 0.541569,0.3720571 0.487825,0.409284 0.425814,0.4299479 0.359668,0.4547658 0.293522,0.4795573 0.227376,0.5043487 0.161231,0.5291667 0.09922,0.54983 0.03307,0.574649 v 0 l -0.01654,0.33901 -0.04548,0.338985 -0.08268,0.347265 -0.111622,0.351393 -0.144694,0.355547 -0.173632,0.359675 -0.21084,0.363802 -0.239779,0.36793 -0.272851,0.376211 -0.301791,0.376184 -0.338997,0.384493 -0.367936,0.388593 -0.401009,0.392748 -0.429948,0.396875 -0.467155,0.401002 -0.496094,0.405157 v 0 l -1.628841,1.285689 v 0 l -1.988509,1.653646 v 0 l -0.06615,0.03307 -0.136426,0.03307 -0.206706,0.04135 -0.276985,0.04548 v 0 h 8.140071"
       style="fill:#969696;stroke:#969696;stroke-width:0.0254;stroke-linecap:round;stroke-miterlimit:4;stroke-dasharray:none;stroke-opacity:1;fill-opacity:1"
       id="path980" />
    <path
       d="m 55.386785,14.769134 a 12.7,12.7 0 1 0 -25.4,0 12.7,12.7 0 1 0 25.4,0 z"
       style="fill:none;stroke:#ff0000;stroke-width:0.0254;stroke-linecap:round;stroke-miterlimit:4;stroke-dasharray:none;stroke-opacity:1"
       id="path982" />
    <path
       d="m 63.342149,18.060966 3.253545,-0.152955 v 0 l -0.144694,0.653176 -0.111622,0.587058 -0.07441,0.525013 -0.03721,0.458893 v 0 l 0.0124,0.640794 0.103353,0.553958 0.190169,0.471303 0.285254,0.384466 0.367937,0.297656 0.46302,0.214974 0.549838,0.128164 0.640787,0.04133 v 0 l 0.355534,-0.01243 0.334864,-0.04136 0.314192,-0.06615 0.285254,-0.09509 0.268718,-0.119883 0.239778,-0.1447 0.219108,-0.17362 0.198438,-0.202565 0.169498,-0.227383 0.152963,-0.252174 0.124023,-0.28112 0.103353,-0.305938 0.08268,-0.334856 0.05788,-0.359675 0.03307,-0.388593 0.0124,-0.413412 v 0 l -0.0124,-0.417565 -0.04134,-0.392721 -0.07028,-0.363802 -0.09922,-0.339011 -0.124023,-0.310065 -0.152963,-0.285247 -0.181901,-0.256302 -0.206705,-0.231511 -0.235645,-0.202591 -0.264583,-0.17362 -0.289388,-0.148828 -0.322461,-0.124037 -0.347266,-0.09506 -0.37207,-0.06615 -0.405143,-0.04136 -0.429948,-0.01243 v 0 l -1.736328,0.06615 v 0 -2.728516 0 l 1.310514,0.02064 v 0 l 0.450618,-0.01244 0.42168,-0.04135 0.392741,-0.06199 0.359668,-0.09096 0.334863,-0.115755 0.305925,-0.140546 0.276985,-0.165365 0.243913,-0.19431 0.219108,-0.214974 0.190169,-0.243919 0.157097,-0.268711 0.132291,-0.293529 0.09922,-0.322448 0.07441,-0.343138 0.04134,-0.372083 0.01654,-0.396875 v 0 L 71.48635,9.4081121 71.370594,8.8334636 71.172157,8.3539063 70.895171,7.9570313 70.539637,7.6510936 70.101421,7.4278647 69.588791,7.2997005 68.993479,7.2542186 v 0 l -0.520899,0.037227 -0.454752,0.1198827 -0.380339,0.19431 -0.314193,0.2687108 -0.243912,0.3513931 -0.173633,0.429948 -0.107487,0.5043752 -0.03307,0.5829035 v 0 l 0.0083,0.3803381 0.01654,0.429948 0.03307,0.479558 0.04548,0.529166 v 0 L 63.56952,10.995612 v 0 l 0.02481,-0.711068 0.07441,-0.6614579 0.128158,-0.6201304 0.173632,-0.5704946 0.227377,-0.5250392 0.272851,-0.4795572 0.326595,-0.4382294 0.376205,-0.3885936 0.425814,-0.3431381 0.475423,-0.2976562 0.529166,-0.2521744 0.574642,-0.202565 0.628386,-0.1612371 0.67386,-0.1157552 0.727605,-0.066146 0.777213,-0.024871 v 0 l 0.921908,0.020638 0.86403,0.057864 0.806152,0.1033463 0.744141,0.1405731 0.686263,0.181901 0.624251,0.2191015 0.566374,0.2604558 0.508496,0.3017838 0.446484,0.3431381 0.388607,0.3803385 0.326595,0.4216665 0.268717,0.4630208 0.206706,0.5043752 0.148828,0.5415756 0.09095,0.5829036 0.02894,0.6242575 v 0 l -0.01654,0.409258 -0.04547,0.38862 -0.07855,0.372057 -0.107487,0.35142 -0.14056,0.334857 -0.173633,0.31832 -0.202572,0.297656 -0.23151,0.276992 -0.268718,0.260456 -0.293522,0.243893 -0.330729,0.223255 -0.355534,0.202565 -0.392741,0.186029 -0.421679,0.169519 -0.450619,0.148828 -0.483691,0.132291 v 0 l 0.545703,0.124011 0.51263,0.1447 0.479557,0.169492 0.442351,0.190183 0.405143,0.214974 0.37207,0.235638 0.334863,0.260455 0.301791,0.28112 0.264583,0.305911 0.227376,0.326602 0.194304,0.351393 0.16123,0.372084 0.124024,0.396875 0.08682,0.417539 0.05374,0.442357 0.01654,0.46302 v 0 l -0.03307,0.690378 -0.09508,0.640794 -0.157097,0.59944 -0.219108,0.558112 -0.285254,0.508503 -0.347265,0.467148 -0.413412,0.421693 -0.471289,0.376185 -0.537435,0.334883 -0.599446,0.289375 -0.665593,0.243919 -0.727604,0.198437 -0.789616,0.157084 -0.851627,0.111627 -0.917774,0.06615 -0.979785,0.02064 v 0 l -0.847494,-0.0164 -0.789615,-0.05786 -0.740007,-0.09096 -0.682129,-0.132291 -0.628385,-0.165365 -0.570508,-0.202565 -0.520898,-0.239765 -0.463021,-0.276993 -0.409278,-0.314192 -0.355533,-0.351393 -0.301791,-0.38862 -0.243913,-0.425821 -0.194303,-0.463021 -0.136426,-0.500221 -0.07855,-0.533294 -0.02894,-0.574649 v 0 l 0.01654,-0.467148 0.05374,-0.516758 0.08682,-0.574648 0.124023,-0.628386"
       style="fill:#969696;stroke:#969696;stroke-width:0.0254;stroke-linecap:round;stroke-miterlimit:4;stroke-dasharray:none;stroke-opacity:1;fill-opacity:1"
       id="path1131" />
    <path
       d="m 82.916006,15.134251 a 12.7,12.7 0 1 0 -25.4,0 12.7,12.7 0 1 0 25.4,0 z"
       style="fill:none;stroke:#ff0000;stroke-width:0.0254;stroke-linecap:round;stroke-miterlimit:4;stroke-dasharray:none;stroke-opacity:1"
       id="path1133" />
    <path
       d="m 22.106292,47.158596 h -2.116666 v 0 3.96875 0 h -6.085417 v 0 -3.96875 0 H 6.7604596 v 0 -2.666497 0 L 15.72322,31.812763 v 0 h 4.266406 v 0 12.699999 0 h 2.116667 v 0 2.645834"
       style="fill:#969696;stroke:#969696;stroke-width:0.0254;stroke-linecap:round;stroke-miterlimit:4;stroke-dasharray:none;stroke-opacity:1;fill-opacity:1"
       id="path1270" />
    <path
       d="m 10.042949,44.512762 h 3.86126 v 0 -6.507083 0 l -3.861262,6.507083"
       style="fill:#ffffff;stroke:#969696;stroke-width:0.0254;stroke-linecap:round;stroke-miterlimit:4;stroke-dasharray:none;stroke-opacity:1;fill-opacity:1"
       id="path1272" />
    <path
       d="m 27.857564,41.64116 a 12.7,12.7 0 1 0 -25.3999998,0 12.7,12.7 0 1 0 25.3999998,0 z"
       style="fill:none;stroke:#ff0000;stroke-width:0.0254;stroke-linecap:round;stroke-miterlimit:4;stroke-dasharray:none;stroke-opacity:1"
       id="path1274" />
    <path
       d="m 49.138666,32.498234 -0.764811,4.497917 v 0 h -8.851139 v 0 l -0.65319,3.559466 v 0 l 0.425813,-0.338984 0.454753,-0.293529 0.479557,-0.248047 0.508496,-0.202565 0.529167,-0.15711 0.558105,-0.111627 0.582911,-0.07027 0.611849,-0.02064 v 0 l 0.781347,0.02895 0.744141,0.08268 0.702799,0.140546 0.669727,0.198438 0.632519,0.256328 0.595313,0.310039 0.558105,0.367956 0.520899,0.421666 0.471289,0.463021 0.409277,0.491966 0.343132,0.520886 0.285254,0.545703 0.219108,0.570521 0.157096,0.59944 0.09095,0.628385 0.03307,0.653203 v 0 l -0.03307,0.727605 -0.107487,0.694531 -0.173633,0.657304 -0.248047,0.624258 -0.314193,0.587058 -0.384472,0.54983 -0.458887,0.516758 -0.525033,0.479557 -0.587044,0.434076 -0.63252,0.376211 -0.686263,0.314192 -0.735872,0.260456 -0.785482,0.202565 -0.839225,0.144701 -0.8847,0.08681 -0.938444,0.02895 v 0 l -0.818555,-0.0164 -0.760677,-0.05789 -0.715202,-0.09094 -0.657324,-0.124037 -0.607715,-0.165365 -0.549837,-0.198437 -0.504362,-0.235638 -0.446485,-0.272838 -0.396875,-0.310065 -0.338997,-0.343139 -0.293522,-0.380338 -0.235645,-0.417539 -0.186035,-0.454766 -0.128157,-0.49194 -0.08268,-0.525039 -0.0248,-0.562239 v 0 l 0.0124,-0.359675 0.04134,-0.421666 0.07028,-0.47543 0.09508,-0.533294 v 0 l 3.183269,-0.553985 v 0 l -0.09922,0.661458 -0.07028,0.607722 -0.04547,0.558112 -0.0124,0.504349 v 0 l 0.03721,0.595312 0.119889,0.516758 0.190169,0.438229 0.272852,0.355521 0.347265,0.28112 0.429948,0.198437 0.500228,0.115755 0.58291,0.04136 v 0 l 0.405144,-0.01641 0.376204,-0.05789 0.355534,-0.09094 0.326595,-0.128164 0.297656,-0.165364 0.272852,-0.202565 0.248047,-0.235638 0.223242,-0.276993 0.194303,-0.310065 0.169499,-0.351393 0.144694,-0.384466 0.119889,-0.421693 0.09095,-0.458893 0.06201,-0.496094 0.04134,-0.529167 0.0124,-0.570494 v 0 l -0.0124,-0.392748 -0.03307,-0.367929 -0.05374,-0.339011 -0.07441,-0.31832 -0.09922,-0.289375 -0.119889,-0.268737 -0.144694,-0.239766 -0.161231,-0.214974 -0.190169,-0.190182 -0.206706,-0.165365 -0.227376,-0.136419 -0.252181,-0.115755 -0.276985,-0.08681 -0.293523,-0.06615 -0.318326,-0.0372 -0.338998,-0.01244 v 0 l -0.376204,0.02895 -0.376205,0.07853 -0.376204,0.136446 -0.376204,0.190156 -0.376205,0.243919 -0.37207,0.297657 -0.376205,0.35552 -0.37207,0.405157 v 0 l -2.691309,-0.578776 v 0 l 1.790058,-10.682558 v 0 h 11.69541"
       style="fill:#969696;stroke:#969696;stroke-width:0.0254;stroke-linecap:round;stroke-miterlimit:4;stroke-dasharray:none;stroke-opacity:1;fill-opacity:1"
       id="path1428" />
    <path
       d="m 55.240741,41.860224 a 12.7,12.7 0 1 0 -25.4,0 12.7,12.7 0 1 0 25.4,0 z"
       style="fill:none;stroke:#ff0000;stroke-width:0.0254;stroke-linecap:round;stroke-miterlimit:4;stroke-dasharray:none;stroke-opacity:1"
       id="path1430" />
    <path
       d="m 76.839011,38.254458 -3.286621,0.483684 v 0 l 0.03721,-0.553958 0.02894,-0.487838 0.01654,-0.417539 0.0041,-0.351394 v 0 l -0.03307,-0.529166 -0.09922,-0.454766 -0.16123,-0.388594 -0.227376,-0.314192 -0.293522,-0.248047 -0.359668,-0.173646 -0.425814,-0.107474 -0.487826,-0.03307 v 0 l -0.310058,0.02064 -0.289388,0.05786 -0.272852,0.09509 -0.248047,0.132292 -0.227376,0.173646 -0.206706,0.21082 -0.190169,0.248047 -0.165365,0.289401 -0.152962,0.343138 -0.14056,0.421667 -0.132291,0.491966 -0.11989,0.570494 -0.111621,0.649076 -0.103353,0.723451 -0.09508,0.797903 -0.08268,0.872279 v 0 l 0.285254,-0.376185 0.310059,-0.322474 0.338997,-0.276992 0.367936,-0.223229 0.392741,-0.177774 0.42168,-0.12401 0.446484,-0.07443 0.475424,-0.02487 v 0 l 0.661458,0.02892 0.632519,0.08268 0.599447,0.140573 0.570508,0.198438 0.537435,0.256302 0.504362,0.310065 0.475423,0.367929 0.44235,0.421693 0.401009,0.463021 0.347266,0.487812 0.293522,0.508503 0.239779,0.537448 0.186035,0.558086 0.132291,0.587057 0.08268,0.607722 0.0248,0.632513 v 0 l -0.02894,0.760677 -0.09509,0.723476 -0.152962,0.690378 -0.219108,0.649076 -0.276986,0.620104 -0.343132,0.578776 -0.401009,0.545703 -0.467155,0.508502 -0.516764,0.458894 -0.562239,0.401002 -0.603581,0.334857 -0.65319,0.276992 -0.694532,0.214974 -0.735872,0.152956 -0.785482,0.09509 -0.826823,0.02895 v 0 l -1.000422,-0.03723 -0.93431,-0.111602 -0.868164,-0.190182 -0.806153,-0.260456 -0.740006,-0.338984 -0.677995,-0.413412 -0.611849,-0.487838 -0.545703,-0.566367 -0.483691,-0.636641 -0.417546,-0.715222 -0.355534,-0.785468 -0.289388,-0.864023 -0.227376,-0.942578 -0.161231,-1.012878 -0.09508,-1.087253 -0.03307,-1.165833 v 0 l 0.03721,-1.132734 0.107487,-1.07487 0.186035,-1.017006 0.256315,-0.959114 0.326595,-0.901224 0.401009,-0.843359 0.475424,-0.781368 0.549837,-0.727604 0.611849,-0.653177 0.657324,-0.566367 0.711068,-0.479557 0.764811,-0.392748 0.810286,-0.305937 0.86403,-0.219102 0.913639,-0.128164 0.963249,-0.04545 v 0 l 0.715202,0.0164 0.669727,0.05374 0.624251,0.09094 0.578776,0.128164 0.533301,0.161237 0.483691,0.198438 0.438216,0.235638 0.392741,0.272864 0.347266,0.305912 0.30179,0.343138 0.252181,0.380338 0.21084,0.413412 0.16123,0.454739 0.115756,0.487839 0.06614,0.520885 0.02481,0.56224 v 0 0.206719 l 0.0041,0.243919 0.0083,0.289375 0.0124,0.326601"
       style="fill:#969696;stroke:#969696;stroke-width:0.0254;stroke-linecap:round;stroke-miterlimit:4;stroke-dasharray:none;stroke-opacity:1;fill-opacity:1"
       id="path1567" />
    <path
       d="m 70.21616,41.557622 -0.194303,0.0164 -0.181901,0.04546 -0.169499,0.07856 -0.157097,0.111628 -0.144694,0.1447 -0.128157,0.17362 -0.119889,0.202565 -0.107487,0.235664 -0.09508,0.268711 -0.07855,0.301784 -0.07028,0.330729 -0.05788,0.363802 -0.04134,0.396875 -0.03307,0.425821 -0.01654,0.458893 -0.0083,0.487812 v 0 l 0.0041,0.566367 0.02067,0.533321 0.02894,0.49194 0.03721,0.458893 0.05374,0.421693 0.06201,0.384466 0.07855,0.347266 0.08682,0.310065 0.09922,0.276966 0.107487,0.239792 0.124023,0.198437 0.132292,0.165365 0.144694,0.128164 0.157096,0.09094 0.169499,0.05789 0.177767,0.0164 v 0 l 0.206705,-0.02064 0.19017,-0.05786 0.177767,-0.09509 0.165364,-0.136419 0.152962,-0.173646 0.136426,-0.214974 0.128158,-0.252175 0.111621,-0.293528 0.09922,-0.33073 0.08268,-0.367929 0.07441,-0.409284 0.05788,-0.446484 0.04961,-0.483685 0.03307,-0.525039 0.01654,-0.56224 0.0083,-0.603567 v 0 l -0.0041,-0.454766 -0.02067,-0.425794 -0.02894,-0.396875 -0.04547,-0.367956 -0.05374,-0.334857 -0.06615,-0.310065 -0.08268,-0.276966 -0.09095,-0.252201 -0.103353,-0.219101 -0.115755,-0.190156 -0.132292,-0.161237 -0.14056,-0.132292 -0.152962,-0.103346 -0.165365,-0.07443 -0.177767,-0.04133 -0.190169,-0.0164"
       style="fill:#ffffff;stroke:#969696;stroke-width:0.0254;stroke-linecap:round;stroke-miterlimit:4;stroke-dasharray:none;stroke-opacity:1;fill-opacity:1"
       id="path1569" />
    <path
       d="m 82.989027,42.371374 a 12.7,12.7 0 1 0 -25.4,0 12.7,12.7 0 1 0 25.4,0 z"
       style="fill:none;stroke:#ff0000;stroke-width:0.0254;stroke-linecap:round;stroke-miterlimit:4;stroke-dasharray:none;stroke-opacity:1"
       id="path1571" />
  </g>
</svg>
